<?xml version="1.0" encoding="UTF-8" standalone="no"?>
<!-- Created with Inkscape (http://www.inkscape.org/) -->

<svg
   width="381.52032mm"
   height="2.8670602mm"
   viewBox="0 0 381.52032 2.8670602"
   version="1.1"
   id="svg1"
   xmlns="http://www.w3.org/2000/svg"
   xmlns:svg="http://www.w3.org/2000/svg">
  <defs
     id="defs1">
    <clipPath
       clipPathUnits="userSpaceOnUse"
       id="clipPath4">
      <rect
         style="fill:#ff00ff;stroke-width:2.47681"
         id="rect5"
         width="1442"
         height="10.836133"
         x="0.03335613"
         y="0.039229508" />
    </clipPath>
  </defs>
  <g
     id="layer1"
     transform="translate(99.21875,-84.402083)">
    <path
       d="m 1425.44,4.9999397 c 6.58,6.2898903 9.98,6.2898903 16.56,1e-5 V 179.99993 H 0 L 1.5554e-5,4.9998197 c 6.583494446,-6.29269 9.771604446,-6.29269 15.037184446,0 5.841,6.9798103 12.1475,6.9798103 18.9404,0 6.1217,-6.28984 9.2705,-6.28984 15.2166,1e-5 6.2527,6.6155003 10.7274,6.6155003 16.7871,0 5.7707,-6.29984 9.0812,-6.29984 14.8518,0 6.1799,6.7455003 11.123,6.7455003 16.9639,0 5.448,-6.29269 8.679,-6.29269 15.262,0 6.685,6.3898003 10.528,6.3898003 16.381,0 5.914,-6.45555 9.815,-6.45555 15.215,0 3.103,3.70705 5.277,4.99987 8.413,4.99987 3.137,0 5.31,-1.29282 8.413,-4.99986 5.401,-6.45556 9.302,-6.45556 15.216,0 5.993,6.5426903 10.235,6.5426903 16.603,0 6.12,-6.28984 9.279,-6.28984 15.4,0 6.22,6.3912903 10.094,6.3912903 16.782,0 6.583,-6.29269 9.814,-6.29269 15.262,0 5.873,6.7840903 10.945,6.7840903 16.78,0 5.483,-6.37555 9.195,-6.37555 15.036,0 5.993,6.5426903 10.235,6.5426903 16.603,1e-5 6.12,-6.28984 9.28,-6.28984 15.4,0 6.368,6.5426803 10.61,6.5426803 16.603,0 5.771,-6.29984 9.082,-6.29984 14.853,0 6.179,6.7455803 11.122,6.7455803 16.963,0 5.448,-6.29269 8.679,-6.29269 15.263,0 6.581,6.2898803 9.978,6.2898803 16.559,0 6.583,-6.29269 9.771,-6.29269 15.037,10e-6 5.84,6.9798703 12.147,6.9798703 18.94,0 6.122,-6.28984 9.27,-6.28984 15.217,0 6.252,6.6155703 10.727,6.6155703 16.786,0 5.771,-6.29983 9.082,-6.29983 14.852,0 6.18,6.7455703 11.123,6.7455703 16.964,0 5.448,-6.29269 8.679,-6.29269 15.263,0 6.685,6.3898703 10.527,6.3898703 16.38,10e-6 5.914,-6.45556 9.815,-6.45555 15.216,0 5.734,6.8526603 11.091,6.8526603 16.826,0 5.4,-6.45555 9.301,-6.45555 15.215,0 5.993,6.5426603 10.235,6.5426603 16.603,0 6.12,-6.28984 9.28,-6.28984 15.4,0 2.676,2.74993 6.18,4.99987 7.785,4.99987 1.641,0 4.754,-2.19136 7.105,-4.99987 5.401,-6.45555 9.302,-6.45555 15.215,0 5.994,6.5426603 10.236,6.5426603 16.604,1e-5 6.12,-6.28984 9.279,-6.28984 15.4,0 6.367,6.5426503 10.61,6.5426503 16.603,0 5.771,-6.29984 9.081,-6.29984 14.852,0 6.06,6.6155503 10.534,6.6155503 16.787,0 6.212,-6.57268 10.481,-6.57267 15.981,0 5.511,6.5855503 9.806,6.5855503 15.839,0 5.996,-6.54554 10.206,-6.54554 16.202,10e-6 6.033,6.5855403 10.328,6.5855403 15.839,0 5.5,-6.57268 9.769,-6.57268 15.981,0 6.253,6.6155403 10.727,6.6155403 16.787,0 5.771,-6.29983 9.081,-6.29983 14.852,0 5.994,6.5427403 10.236,6.5427403 16.603,0 2.676,-2.74992 6.141,-4.9998898341 7.7,-4.9998897 1.56,1.341e-7 5.024,2.2499697 7.7,4.9998897 6.368,6.5427403 10.61,6.5427403 16.604,1e-5 5.913,-6.45556 9.814,-6.45555 15.215,0 5.759,6.8812303 11.517,6.8812303 18.718,0 2.876,-2.74992 6.513,-4.9998941322 8.082,-4.9998939973 1.569,1.349e-7 4.8,2.2499739973 7.18,4.9998939973 5.873,6.7841303 10.945,6.7841303 16.78,0 5.483,-6.37555 9.195,-6.37555 15.036,0 5.993,6.5427303 10.236,6.5427303 16.603,0 6.121,-6.28984 9.28,-6.28984 15.4,10e-6 6.368,6.5427203 10.61,6.5427203 16.604,0 5.77,-6.29984 9.08,-6.29984 14.85,0 6.18,6.7455203 11.12,6.7455203 16.97,0 5.44,-6.29269 8.67,-6.29269 15.26,0 2.88,2.74992 6.6,4.99986 8.28,4.99986 1.67,0 5.4,-2.24993 8.28,-4.99986 2.87,-2.74992 6.49,-4.9998904337 8.04,-4.9998903008 1.55,1.331e-7 4.69,2.2499703008 6.99,4.9998903008 5.71,6.8141203 10.95,6.8141203 17.19,0 5.92,-6.45555 9.82,-6.45555 15.22,1e-5 5.73,6.8527103 11.09,6.8527103 16.82,0 5.4,-6.45555 9.31,-6.45555 15.22,0 5.85,6.3898103 9.7,6.3898103 16.38,0 6.58,-6.29269 9.81,-6.29269 15.26,0 5.84,6.7455103 10.79,6.7455103 16.97,0 5.77,-6.29983 9.08,-6.29983 14.85,0 6.12,6.6855103 10.83,6.6855103 16.79,10e-6 5.62,-6.30127 9.08,-6.30127 15.21,0 6.37,6.5427003 10.61,6.5427003 16.6,0 5.92,-6.45555 9.82,-6.45555 15.22,0 5.76,6.8813003 11.52,6.8813003 18.72,0 2.87,-2.74992 6.51,-4.9998910435 8.08,-4.9998909085 1.57,1.35e-7 4.8,2.2499709085 7.18,4.9998909085 3.12,3.59848 5.47,4.99987 8.4,4.99987 2.94,0 5.28,-1.39568 8.38,-4.99987 5.48,-6.37554 9.2,-6.37554 15.04,10e-6 5.99,6.5426903 10.23,6.5426903 16.6,0 6.12,-6.28984 9.28,-6.28984 15.4,0 6.37,6.5426903 10.61,6.5426903 16.6,0 5.92,-6.45555 9.82,-6.45555 15.22,0 5.68,6.7840903 10.73,6.7840903 16.6,0 5.45,-6.29269 8.68,-6.29269 15.26,0 z"
       fill="#181d45"
       id="path1"
       clip-path="url(#clipPath4)"
       transform="matrix(0.26458333,0,0,0.26458333,-99.227575,84.391704)"
       style="fill:#181d45;fill-opacity:1" />
  </g>
</svg>
