<?xml version="1.0" encoding="UTF-8" standalone="no"?>
<!-- Created with Inkscape (http://www.inkscape.org/) -->

<svg
   width="380.99863mm"
   height="1.5817308mm"
   viewBox="0 0 380.99863 1.5817308"
   version="1.1"
   id="svg1"
   xmlns="http://www.w3.org/2000/svg"
   xmlns:svg="http://www.w3.org/2000/svg">
  <defs
     id="defs1">
    <clipPath
       id="clip0_174_1475">
      <rect
         width="1440"
         height="105"
         fill="#ffffff"
         id="rect1"
         x="0"
         y="0" />
    </clipPath>
    <clipPath
       clipPathUnits="userSpaceOnUse"
       id="clipPath5">
      <rect
         style="fill:#ff00ff;stroke-width:18.0601"
         id="rect5"
         width="1440"
         height="6"
         x="0.0051316032"
         y="99.021805"
         ry="0" />
    </clipPath>
  </defs>
  <g
     id="layer1"
     transform="translate(182.29792,-193.93958)">
    <g
       clip-path="url(#clip0_174_1475)"
       id="g2"
       transform="matrix(0.26458333,0,0,0.26458333,-182.29928,167.74006)"
       style="fill:#ff3400;fill-opacity:1">
      <path
         d="M -6,95 V 47.5 0 h 723 723 v 47.5633 47.5634 c 0,10.3733 1.06,10.3733 -1.77,6.9563 -3.31,-3.9963 -6.41,-3.9963 -9.81,0 -3.17,3.719 -5.31,3.719 -8.68,0 -3.46,-3.8163 -5.9,-3.8163 -9.58,0 -1.54,1.604 -3.54,2.917 -4.44,2.917 -0.9,0 -2.9,-1.313 -4.44,-2.917 -3.68,-3.8163 -6.13,-3.8163 -9.58,0 -3.33,3.675 -5.24,3.675 -8.57,0 -3.57,-3.9347 -6.42,-3.9347 -9.79,0 -3.15,3.671 -5.01,3.671 -8.81,0 -3.86,-3.7272 -6.07,-3.7272 -9.45,0 -3.41,3.766 -5.67,3.766 -8.78,0 -3.37,-4.0713 -7.01,-4.0713 -10.93,0 -1.54,1.604 -3.54,2.917 -4.43,2.917 -0.89,0 -2.85,-1.313 -4.35,-2.917 -3.61,-3.8588 -6.19,-3.8588 -9.69,0 -3.33,3.675 -5.24,3.675 -8.57,0 -3.56,-3.9347 -6.42,-3.9347 -9.79,0 -3.15,3.679 -5.13,3.679 -8.67,0 -3.68,-3.8163 -6.13,-3.8163 -9.59,0 -3.41,3.766 -5.66,3.766 -8.77,0 -1.8,-2.1622 -3.05,-2.9163 -4.86,-2.9163 -1.81,0 -3.06,0.7541 -4.85,2.9163 -3.12,3.766 -5.37,3.766 -8.78,0 -3.38,-3.7272 -5.6,-3.7272 -9.46,0 -1.65,1.604 -3.73,2.917 -4.6,2.917 -0.87,0 -2.8,-1.313 -4.3,-2.917 -3.53,-3.7747 -5.89,-3.7747 -9.79,0 -3.8,3.671 -5.67,3.671 -8.81,0 -3.39,-3.9572 -6.32,-3.9572 -9.68,0 -3.17,3.719 -5.31,3.719 -8.68,0 -3.46,-3.8163 -5.91,-3.8163 -9.58,0 -3.53,3.669 -5.35,3.669 -8.89,0 -3.67,-3.8163 -6.12,-3.8163 -9.58,0 -3.33,3.675 -5.24,3.675 -8.57,0 -3.56,-3.9347 -6.41,-3.9347 -9.79,0 -1.37,1.604 -3.23,2.917 -4.14,2.917 -0.9,0 -3,-1.313 -4.66,-2.917 -3.8,-3.6688 -5.76,-3.6688 -9.56,0 -3.8,3.671 -5.64,3.671 -8.67,0 -3.37,-4.0713 -7.01,-4.0713 -10.93,0 -3.54,3.669 -5.35,3.669 -8.78,0 -3.61,-3.8588 -6.19,-3.8588 -9.69,0 -3.33,3.675 -5.24,3.675 -8.57,0 -3.57,-3.9347 -6.42,-3.9347 -9.79,0 -3.14,3.671 -5.01,3.671 -8.81,0 -3.85,-3.7272 -6.07,-3.7272 -9.45,0 -3.41,3.766 -5.66,3.766 -8.78,0 -1.79,-2.1622 -3.04,-2.9163 -4.85,-2.9163 -1.81,0 -3.07,0.7541 -4.86,2.9163 -3.11,3.766 -5.36,3.766 -8.78,0 -3.45,-3.8163 -5.9,-3.8163 -9.58,0 -3.53,3.669 -5.35,3.669 -8.88,0 -3.59,-3.728 -5.83,-3.728 -9.69,0 -3.794,3.671 -5.659,3.671 -8.802,0 -3.39,-3.9572 -6.316,-3.9572 -9.683,0 -3.164,3.719 -5.306,3.719 -8.676,0 -3.459,-3.8163 -5.906,-3.8163 -9.581,0 -3.531,3.669 -5.354,3.669 -8.886,0 -3.674,-3.8163 -6.122,-3.8163 -9.581,0 -3.329,3.675 -5.24,3.675 -8.569,0 -3.566,-3.9347 -6.419,-3.9347 -9.789,0 -3.144,3.671 -5.008,3.671 -8.807,0 -3.797,-3.6688 -5.757,-3.6688 -9.555,0 -3.799,3.671 -5.638,3.671 -8.677,0 -3.37,-4.0713 -7.009,-4.0713 -10.929,0 -3.532,3.669 -5.349,3.669 -8.78,0 -3.608,-3.8588 -6.19,-3.8588 -9.687,0 -3.329,3.675 -5.24,3.675 -8.57,0 -3.566,-3.9347 -6.418,-3.9347 -9.788,0 -3.144,3.671 -5.008,3.671 -8.807,0 -3.857,-3.7272 -6.075,-3.7272 -9.452,0 -3.412,3.766 -5.663,3.766 -8.78,0 -3.308,-3.9972 -6.4,-3.9972 -9.709,0 -3.116,3.766 -5.367,3.766 -8.779,0 -3.459,-3.8163 -5.907,-3.8163 -9.581,0 -3.531,3.669 -5.355,3.669 -8.886,0 -1.544,-1.604 -3.566,-2.9163 -4.492,-2.9163 -0.947,0 -2.744,1.2783 -4.1,2.9163 -3.116,3.766 -5.367,3.766 -8.78,0 -3.458,-3.8163 -5.906,-3.8163 -9.58,0 -3.532,3.669 -5.355,3.669 -8.886,0 -3.675,-3.8163 -6.123,-3.8163 -9.581,0 -3.33,3.675 -5.24,3.675 -8.57,0 -3.497,-3.8588 -6.079,-3.8588 -9.687,0 -3.584,3.834 -6.048,3.834 -9.221,0 -3.18,-3.8413 -5.658,-3.8413 -9.139,0 -3.46,3.819 -5.89,3.819 -9.35,0 -3.481,-3.8413 -5.959,-3.8413 -9.139,0 -3.173,3.834 -5.637,3.834 -9.222,0 -3.608,-3.8588 -6.189,-3.8588 -9.686,0 -3.33,3.675 -5.24,3.675 -8.57,0 -3.458,-3.8163 -5.906,-3.8163 -9.581,0 -1.544,1.604 -3.543,2.917 -4.443,2.917 -0.9,0 -2.899,-1.313 -4.443,-2.917 -3.674,-3.8163 -6.122,-3.8163 -9.58,0 -3.413,3.766 -5.664,3.766 -8.78,0 -3.323,-4.0138 -6.646,-4.0138 -10.801,0 -1.659,1.604 -3.758,2.917 -4.663,2.917 -0.906,0 -2.77,-1.313 -4.144,-2.917 -3.389,-3.9572 -6.315,-3.9572 -9.682,0 -3.164,3.719 -5.306,3.719 -8.676,0 -3.459,-3.8163 -5.906,-3.8163 -9.581,0 -3.531,3.669 -5.354,3.669 -8.886,0 -3.674,-3.8163 -6.122,-3.8163 -9.581,0 -3.329,3.675 -5.24,3.675 -8.57,0 -3.565,-3.9347 -6.418,-3.9347 -9.788,0 -3.144,3.671 -5.008,3.671 -8.807,0 -1.66,-1.604 -3.81,-2.9163 -4.777,-2.9163 -0.968,0 -3.118,1.3123 -4.778,2.9163 -1.659,1.604 -3.748,2.917 -4.64,2.917 -0.893,0 -2.709,-1.313 -4.037,-2.917 -3.29,-3.9747 -6.316,-3.9747 -9.918,0 -3.413,3.766 -5.663,3.766 -8.78,0 -3.309,-3.9972 -6.4,-3.9972 -9.709,0 -3.116,3.766 -5.367,3.766 -8.779,0 -3.378,-3.7272 -5.595,-3.7272 -9.452,0 -3.799,3.671 -5.664,3.671 -8.807,0 -3.371,-3.9347 -6.223,-3.9347 -9.789,0 -3.33,3.675 -5.24,3.675 -8.57,0 -3.534,-3.8997 -6.249,-3.8997 -9.688,0 -3.242,3.676 -5.24,3.676 -8.779,0 -3.674,-3.8163 -6.122,-3.8163 -9.58,0 -3.413,3.766 -5.664,3.766 -8.78,0 -3.323,-4.0138 -6.646,-4.0138 -10.801,0 -1.659,1.604 -3.758,2.917 -4.663,2.917 -0.905,0 -2.77,-1.313 -4.143,-2.917 -1.798,-2.0988 -3.157,-2.9163 -4.85,-2.9163 -1.696,0 -3.043,0.8141 -4.833,2.9163 -3.164,3.719 -5.306,3.719 -8.676,0 -3.458,-3.8163 -5.906,-3.8163 -9.581,0 -3.531,3.669 -5.354,3.669 -8.886,0 -3.674,-3.8163 -6.122,-3.8163 -9.58,0 -3.413,3.766 -5.664,3.766 -8.78,0 -3.276,-3.9572 -6.19,-3.9572 -9.579,0 -3.144,3.671 -5.008,3.671 -8.807,0 -3.797,-3.6688 -5.757,-3.6688 -9.555,0 -3.799,3.671 -5.638,3.671 -8.676,0 -3.291,-3.9747 -6.317,-3.9747 -9.919,0 -3.412,3.766 -5.663,3.766 -8.78,0 -3.309,-3.9972 -6.4,-3.9972 -9.709,0 -3.116,3.766 -5.367,3.766 -8.779,0 -3.378,-3.7272 -5.595,-3.7272 -9.452,0 -3.799,3.671 -5.664,3.671 -8.807,0 -3.371,-3.9347 -6.223,-3.9347 -9.789,0 -3.33,3.675 -5.24,3.675 -8.57,0 -3.534,-3.8997 -6.249,-3.8997 -9.688,0 -3.242,3.676 -5.24,3.676 -8.779,0 -3.674,-3.8163 -6.122,-3.8163 -9.58,0 -3.413,3.766 -5.663,3.766 -8.78,0 -3.323,-4.0138 -6.646,-4.0138 -10.8,0 -3.799,3.671 -5.664,3.671 -8.807,0 -3.389,-3.9572 -6.316,-3.9572 -9.683,0 -3.164,3.719 -5.306,3.719 -8.676,0 -3.458,-3.8163 -5.906,-3.8163 -9.58,0 -3.532,3.669 -5.355,3.669 -8.887,0 -3.674,-3.8163 -6.122,-3.8163 -9.58,0 -3.413,3.766 -5.664,3.766 -8.78,0 -3.309,-3.9972 -6.4,-3.9972 -9.709,0 -1.3275,1.604 -3.1436,2.917 -4.0365,2.917 -0.892,0 -2.9808,-1.313 -4.6402,-2.917 -1.6603,-1.604 -3.8098,-2.9163 -4.7775,-2.9163 -0.9676,0 -3.1171,1.3123 -4.7774,2.9163 -1.6594,1.604 -3.7583,2.917 -4.6636,2.917 -0.9053,0 -2.7697,-1.313 -4.1432,-2.917 -3.2676,-3.8147 -5.6415,-3.8147 -8.7999,0 -3.1164,3.766 -5.3672,3.766 -8.7796,0 -3.3774,-3.7272 -5.5947,-3.7272 -9.452,0 -3.7989,3.671 -5.6632,3.671 -8.8069,0 -3.3703,-3.9347 -6.2226,-3.9347 -9.7885,0 -1.4538,1.604 -3.3821,2.917 -4.285,2.917 -0.903,0 -2.8313,-1.313 -4.2851,-2.917 -3.4584,-3.8163 -5.90627,-3.8163 -9.58048,0 -3.44024,3.575 -5.259211,3.667 -8.61553,0.278 -0.08917,-0.09 -0.17942,-0.183 -0.27082,-0.278 C -3.30832,101.402 -5.41178,99.569 -6,95 Z"
         fill="#2111dd"
         id="path1"
         clip-path="url(#clipPath5)"
         style="fill:#ff3400;fill-opacity:1" />
    </g>
  </g>
</svg>
