<svg width="223" height="519" viewBox="0 0 223 519" fill="none" xmlns="http://www.w3.org/2000/svg">
<path d="M106.109 383.156C106.124 383.125 106.158 383.084 106.187 383.063C106.215 383.04 106.267 383.024 106.31 383.024C106.35 383.024 106.411 383.036 106.443 383.052C106.478 383.065 106.529 383.102 106.558 383.133C106.586 383.164 106.647 383.255 106.693 383.334C106.738 383.413 106.854 383.619 106.951 383.789C107.048 383.959 107.229 384.304 107.352 384.553C107.476 384.803 107.643 385.155 107.723 385.337C107.803 385.519 107.946 385.844 108.037 386.063C108.128 386.282 108.358 386.839 108.547 387.302L108.565 387.347C108.747 387.793 108.917 388.211 109.001 388.415L109.106 388.231C109.165 388.13 109.41 387.695 109.654 387.263C109.897 386.831 110.213 386.278 110.353 386.034C110.496 385.79 110.726 385.397 110.867 385.163C111.007 384.929 111.239 384.55 111.384 384.321C111.612 383.961 111.658 383.899 111.73 383.859C111.774 383.833 111.844 383.81 111.882 383.81C111.932 383.808 111.966 383.822 112.002 383.857C112.029 383.884 112.069 383.952 112.088 384.006C112.11 384.066 112.135 384.211 112.148 384.354C112.166 384.544 112.166 384.718 112.148 385.095C112.135 385.366 112.126 385.784 112.126 386.024C112.126 386.264 112.116 386.655 112.107 386.895C112.095 387.135 112.074 387.515 112.059 387.737C112.042 387.96 112.017 388.287 112.002 388.463C111.987 388.639 111.97 388.811 111.955 388.908L112.091 388.897C112.168 388.891 112.35 388.87 112.496 388.848C112.643 388.827 112.909 388.78 113.086 388.744C113.263 388.707 113.782 388.581 114.237 388.465C114.691 388.349 115.174 388.231 115.311 388.202C115.49 388.165 115.585 388.153 115.653 388.163C115.705 388.169 115.783 388.19 115.824 388.21C115.866 388.229 115.919 388.266 115.942 388.291C115.967 388.316 115.992 388.368 115.997 388.405C116.005 388.45 115.996 388.519 115.969 388.608C115.942 388.697 115.889 388.806 115.811 388.922C115.745 389.02 115.606 389.199 115.501 389.317C115.397 389.435 115.195 389.638 115.054 389.77C114.914 389.899 114.742 390.054 114.674 390.112C114.605 390.17 114.499 390.255 114.436 390.304C114.373 390.352 114.155 390.509 113.951 390.65C113.748 390.793 113.489 390.977 113.375 391.06C113.263 391.144 113.172 391.215 113.172 391.221C113.172 391.227 113.324 391.424 113.508 391.66C113.693 391.899 113.965 392.253 114.111 392.45C114.256 392.648 114.474 392.961 114.594 393.147C114.716 393.333 114.881 393.59 114.965 393.718C115.047 393.846 115.147 394.02 115.187 394.105C115.227 394.19 115.271 394.308 115.282 394.366C115.296 394.424 115.303 394.511 115.298 394.56C115.294 394.608 115.273 394.674 115.252 394.705C115.229 394.736 115.17 394.784 115.119 394.811C115.037 394.854 114.995 394.86 114.788 394.868C114.628 394.871 114.482 394.864 114.341 394.84C114.225 394.823 114.025 394.782 113.894 394.751C113.763 394.719 113.546 394.655 113.409 394.608C113.272 394.562 113.056 394.48 112.924 394.428C112.793 394.374 112.51 394.252 112.291 394.155C112.074 394.059 111.894 393.979 111.888 393.979C111.882 393.979 111.878 394.221 111.878 394.515C111.878 394.811 111.871 395.694 111.859 396.476C111.848 397.258 111.831 398.169 111.823 398.498C111.81 399.044 111.806 399.106 111.77 399.186C111.749 399.234 111.711 399.292 111.686 399.317C111.658 399.344 111.607 399.366 111.555 399.373C111.508 399.379 111.439 399.375 111.403 399.364C111.357 399.35 111.257 399.263 111.089 399.095C110.952 398.959 110.76 398.746 110.663 398.624C110.564 398.502 110.407 398.289 110.31 398.15C110.213 398.011 110.062 397.786 109.975 397.647C109.889 397.508 109.671 397.148 109.49 396.844C109.309 396.54 109.115 396.219 109.058 396.128C108.999 396.037 108.876 395.847 108.608 395.45L108.298 395.822C108.126 396.027 107.756 396.478 107.476 396.824C107.195 397.171 106.791 397.658 106.58 397.908C106.369 398.158 106.116 398.45 106.019 398.557C105.921 398.663 105.766 398.847 105.677 398.963C105.586 399.079 105.472 399.217 105.42 399.265C105.369 399.313 105.299 399.368 105.264 399.385C105.232 399.402 105.167 399.418 105.122 399.418C105.078 399.418 105.019 399.402 104.991 399.383C104.962 399.366 104.924 399.329 104.905 399.302C104.88 399.265 104.869 399.205 104.865 399.06C104.859 398.903 104.869 398.802 104.918 398.528C104.953 398.342 105.046 397.831 105.129 397.395C105.211 396.96 105.308 396.437 105.344 396.234C105.382 396.031 105.458 395.653 105.517 395.392C105.574 395.131 105.631 394.887 105.641 394.85C105.65 394.813 105.656 394.78 105.654 394.779C105.652 394.775 105.436 394.852 105.175 394.949C104.913 395.046 104.485 395.197 104.224 395.286C103.962 395.375 103.561 395.502 103.33 395.572C103.1 395.642 102.749 395.739 102.551 395.787C102.351 395.837 102.1 395.903 101.99 395.938C101.879 395.971 101.725 396.013 101.647 396.035C101.549 396.06 101.465 396.069 101.372 396.064C101.298 396.058 101.212 396.042 101.182 396.027C101.145 396.008 101.113 395.967 101.09 395.917C101.073 395.874 101.058 395.806 101.058 395.769C101.058 395.733 101.071 395.661 101.088 395.611C101.106 395.559 101.159 395.456 101.206 395.382C101.254 395.309 101.377 395.16 101.484 395.053C101.59 394.945 101.765 394.784 101.876 394.695C101.986 394.604 102.195 394.444 102.342 394.337C102.488 394.231 102.828 393.991 103.098 393.805C103.368 393.619 103.631 393.439 103.68 393.408C103.73 393.377 103.85 393.29 103.947 393.215C104.042 393.139 104.118 393.073 104.116 393.066C104.112 393.058 103.939 392.949 103.73 392.826C103.521 392.702 103.192 392.499 102.998 392.377C102.804 392.255 102.423 392.003 102.151 391.819C101.879 391.635 101.531 391.39 101.377 391.275C101.225 391.159 100.946 390.95 100.759 390.807C100.573 390.664 100.377 390.507 100.322 390.459C100.269 390.41 100.183 390.317 100.132 390.253C100.082 390.19 100.029 390.11 100.016 390.079C99.9968 390.037 99.9949 390 100.01 389.944C100.022 389.895 100.054 389.843 100.096 389.802C100.134 389.77 100.21 389.727 100.263 389.71C100.32 389.692 100.467 389.675 100.602 389.669C100.761 389.661 100.931 389.669 101.115 389.692C101.267 389.71 101.49 389.74 101.609 389.762C101.729 389.781 102.102 389.855 102.437 389.924C102.771 389.994 103.528 390.151 104.12 390.273C104.711 390.397 105.219 390.505 105.251 390.517C105.282 390.526 105.418 390.548 105.555 390.565C105.69 390.58 105.818 390.598 105.835 390.602C105.86 390.61 105.871 390.598 105.879 390.569C105.882 390.544 105.892 390.308 105.898 390.04C105.903 389.775 105.917 389.208 105.926 388.782C105.938 388.357 105.959 387.459 105.974 386.789C105.989 386.119 106.01 385.26 106.021 384.882C106.033 384.505 106.05 383.973 106.061 383.702C106.076 383.348 106.09 383.193 106.109 383.156Z" fill="#FFCB00"/>
<path d="M212.463 151.319C212.536 151.298 212.647 151.273 212.712 151.261C212.776 151.25 212.922 151.239 213.038 151.239C213.187 151.238 213.285 151.245 213.389 151.266C213.466 151.282 213.589 151.314 213.662 151.341C213.735 151.366 213.886 151.432 213.998 151.486C214.111 151.542 214.271 151.633 214.356 151.689C214.441 151.745 214.565 151.836 214.634 151.891C214.703 151.947 214.809 152.038 214.872 152.095C214.935 152.153 215.068 152.289 215.168 152.398C215.267 152.507 215.409 152.669 215.482 152.758C215.556 152.846 215.691 153.017 215.781 153.139C215.872 153.26 216.021 153.476 216.115 153.616C216.207 153.757 216.347 153.985 216.426 154.123C216.504 154.261 216.596 154.431 216.629 154.505C216.664 154.578 216.716 154.71 216.743 154.798C216.773 154.887 216.809 155.026 216.825 155.107C216.841 155.188 216.86 155.306 216.868 155.371C216.873 155.436 216.875 155.53 216.868 155.58C216.862 155.631 216.838 155.709 216.816 155.754C216.793 155.8 216.743 155.869 216.702 155.907C216.663 155.945 216.58 156.001 216.52 156.032C216.46 156.061 216.344 156.11 216.264 156.136C216.183 156.162 216.052 156.199 215.972 156.215C215.891 156.233 215.76 156.25 215.679 156.255C215.571 156.261 215.501 156.256 215.409 156.239C215.34 156.224 215.242 156.195 215.189 156.173C215.137 156.151 215.046 156.101 214.986 156.061C214.926 156.02 214.815 155.929 214.739 155.856C214.663 155.782 214.53 155.637 214.444 155.533C214.358 155.428 214.225 155.281 214.15 155.21C214.074 155.136 213.976 155.052 213.932 155.023C213.888 154.994 213.815 154.953 213.771 154.932C213.728 154.911 213.641 154.884 213.581 154.87C213.503 154.853 213.432 154.848 213.333 154.853C213.234 154.859 213.155 154.873 213.055 154.907C212.979 154.932 212.864 154.979 212.799 155.013C212.735 155.045 212.643 155.101 212.595 155.136C212.547 155.17 212.441 155.257 212.361 155.328C212.28 155.4 212.093 155.575 211.946 155.716C211.798 155.857 211.608 156.035 211.522 156.111C211.437 156.186 211.281 156.312 211.177 156.391C211.073 156.471 210.918 156.579 210.833 156.634C210.748 156.687 210.564 156.788 210.424 156.86C210.284 156.93 210.095 157.011 210.007 157.04C209.92 157.071 209.788 157.108 209.715 157.124C209.642 157.14 209.51 157.161 209.423 157.17C209.335 157.178 209.217 157.181 209.16 157.177C209.103 157.171 209.005 157.158 208.94 157.146C208.876 157.136 208.774 157.109 208.714 157.089C208.654 157.068 208.551 157.024 208.487 156.992C208.423 156.96 208.307 156.891 208.231 156.841C208.155 156.791 208.024 156.694 207.939 156.625C207.856 156.557 207.711 156.425 207.617 156.333C207.524 156.24 207.321 156.024 207.164 155.856C207.009 155.687 206.805 155.471 206.712 155.378C206.619 155.286 206.5 155.18 206.448 155.146C206.395 155.111 206.316 155.073 206.272 155.06C206.224 155.047 206.166 155.041 206.126 155.045C206.09 155.049 206.024 155.067 205.98 155.083C205.936 155.099 205.847 155.146 205.783 155.189C205.718 155.23 205.61 155.312 205.543 155.37C205.476 155.427 205.232 155.679 205.001 155.929C204.77 156.179 204.512 156.447 204.429 156.525C204.346 156.603 204.211 156.722 204.129 156.789C204.049 156.857 203.928 156.951 203.859 156.996C203.792 157.042 203.681 157.109 203.612 157.145C203.543 157.181 203.438 157.227 203.378 157.246C203.289 157.274 203.236 157.28 203.093 157.28C202.941 157.28 202.902 157.274 202.793 157.239C202.725 157.217 202.609 157.165 202.538 157.124C202.466 157.082 202.368 157.018 202.32 156.98C202.273 156.944 202.203 156.873 202.165 156.825C202.125 156.776 202.074 156.694 202.049 156.641C202.024 156.588 201.995 156.503 201.984 156.45C201.972 156.397 201.951 156.315 201.94 156.267C201.928 156.218 201.897 156.12 201.872 156.046C201.836 155.945 201.824 155.881 201.818 155.767C201.813 155.665 201.818 155.578 201.834 155.481C201.848 155.405 201.886 155.262 201.918 155.165C201.95 155.069 202.017 154.894 202.065 154.776C202.115 154.659 202.206 154.464 202.267 154.343C202.329 154.221 202.424 154.047 202.479 153.954C202.535 153.862 202.616 153.73 202.662 153.661C202.709 153.592 202.804 153.456 202.877 153.36C202.948 153.263 203.07 153.11 203.144 153.022C203.22 152.934 203.372 152.771 203.48 152.662C203.589 152.552 203.727 152.423 203.787 152.374C203.847 152.324 203.953 152.248 204.021 152.203C204.09 152.159 204.222 152.085 204.314 152.04C204.406 151.996 204.558 151.937 204.65 151.909C204.742 151.881 204.881 151.847 204.957 151.834C205.033 151.821 205.185 151.803 205.293 151.794C205.401 151.787 205.54 151.784 205.6 151.789C205.66 151.794 205.764 151.815 205.831 151.834C205.897 151.853 206.015 151.902 206.094 151.941C206.172 151.981 206.29 152.051 206.356 152.098C206.422 152.147 206.541 152.244 206.623 152.317C206.705 152.389 206.835 152.518 206.914 152.603C206.992 152.689 207.186 152.906 207.347 153.088C207.508 153.269 207.705 153.484 207.785 153.567C207.866 153.647 207.987 153.756 208.056 153.807C208.125 153.857 208.22 153.92 208.268 153.948C208.316 153.975 208.395 154.01 208.443 154.028C208.491 154.044 208.576 154.061 208.633 154.066C208.703 154.072 208.768 154.067 208.835 154.051C208.889 154.038 208.974 154.007 209.024 153.982C209.075 153.956 209.174 153.895 209.247 153.846C209.319 153.797 209.466 153.671 209.576 153.567C209.684 153.462 209.984 153.164 210.241 152.904C210.499 152.645 210.795 152.357 210.899 152.266C211.003 152.175 211.158 152.044 211.243 151.976C211.327 151.907 211.475 151.799 211.571 151.734C211.668 151.67 211.82 151.58 211.908 151.535C211.995 151.491 212.127 151.432 212.2 151.404C212.273 151.376 212.39 151.338 212.463 151.319Z" fill="#FF3400"/>
<path d="M212.785 157.358C212.849 157.341 212.96 157.318 213.033 157.308C213.117 157.296 213.242 157.29 213.377 157.294C213.511 157.299 213.641 157.312 213.735 157.331C213.815 157.349 213.966 157.391 214.071 157.425C214.176 157.46 214.327 157.521 214.407 157.557C214.488 157.595 214.609 157.66 214.678 157.701C214.747 157.742 214.861 157.82 214.934 157.874C215.007 157.929 215.121 158.026 215.188 158.089C215.255 158.153 215.363 158.268 215.428 158.344C215.491 158.421 215.609 158.582 215.689 158.704C215.776 158.835 215.89 159.037 215.972 159.203C216.048 159.356 216.134 159.548 216.163 159.629C216.192 159.71 216.239 159.849 216.267 159.937C216.295 160.025 216.346 160.215 216.382 160.356C216.417 160.497 216.469 160.715 216.493 160.84C216.536 161.047 216.54 161.093 216.54 161.347C216.542 161.53 216.534 161.655 216.521 161.714C216.511 161.762 216.482 161.865 216.458 161.941C216.433 162.018 216.391 162.126 216.36 162.182C216.331 162.238 216.281 162.313 216.249 162.35C216.217 162.385 216.159 162.43 216.118 162.449C216.062 162.477 216.02 162.486 215.942 162.486C215.871 162.486 215.814 162.476 215.752 162.454C215.704 162.435 215.618 162.389 215.562 162.351C215.507 162.313 215.394 162.223 215.314 162.153C215.233 162.081 214.961 161.817 214.707 161.565C214.352 161.213 214.223 161.096 214.144 161.05C214.089 161.016 214 160.975 213.947 160.958C213.894 160.94 213.799 160.922 213.735 160.918C213.653 160.912 213.58 160.918 213.494 160.934C213.425 160.949 213.32 160.981 213.26 161.006C213.2 161.031 213.109 161.075 213.058 161.103C213.008 161.132 212.924 161.188 212.87 161.229C212.815 161.269 212.593 161.477 212.375 161.692C212.158 161.906 211.931 162.125 211.871 162.178C211.811 162.231 211.696 162.326 211.615 162.389C211.535 162.452 211.39 162.557 211.294 162.62C211.197 162.684 211.01 162.79 210.877 162.858C210.744 162.924 210.557 163.006 210.461 163.041C210.364 163.075 210.209 163.122 210.117 163.145C210.025 163.17 209.88 163.2 209.795 163.214C209.696 163.229 209.554 163.239 209.393 163.239C209.215 163.239 209.104 163.232 208.999 163.213C208.918 163.198 208.797 163.17 208.728 163.15C208.66 163.131 208.531 163.085 208.443 163.048C208.356 163.013 208.22 162.947 208.144 162.905C208.068 162.86 207.926 162.768 207.829 162.697C207.733 162.627 207.598 162.523 207.53 162.466C207.461 162.408 207.342 162.305 207.266 162.236C207.19 162.167 206.862 161.846 206.536 161.523C206.077 161.065 205.916 160.915 205.819 160.852C205.751 160.806 205.666 160.756 205.629 160.74C205.593 160.724 205.524 160.704 205.476 160.693C205.428 160.685 205.362 160.68 205.33 160.686C205.297 160.692 205.235 160.715 205.191 160.739C205.135 160.767 205.05 160.842 204.92 160.975C204.815 161.082 204.588 161.335 204.416 161.538C204.243 161.739 204.027 161.982 203.934 162.079C203.841 162.175 203.694 162.314 203.605 162.389C203.516 162.463 203.391 162.561 203.327 162.605C203.263 162.65 203.147 162.721 203.071 162.761C202.995 162.802 202.869 162.856 202.793 162.882C202.7 162.913 202.615 162.931 202.53 162.937C202.459 162.941 202.367 162.937 202.311 162.927C202.258 162.916 202.176 162.888 202.128 162.866C202.08 162.843 202.01 162.799 201.973 162.768C201.937 162.737 201.878 162.678 201.845 162.639C201.811 162.598 201.754 162.507 201.716 162.433C201.677 162.357 201.634 162.242 201.614 162.162C201.587 162.05 201.58 161.982 201.58 161.831C201.58 161.726 201.59 161.582 201.602 161.508C201.615 161.435 201.639 161.329 201.655 161.273C201.672 161.218 201.728 161.068 201.78 160.943C201.833 160.818 201.938 160.594 202.013 160.444C202.087 160.294 202.193 160.099 202.245 160.011C202.299 159.923 202.39 159.783 202.447 159.702C202.504 159.622 202.6 159.497 202.662 159.423C202.722 159.35 202.827 159.235 202.896 159.166C202.964 159.097 203.115 158.959 203.232 158.858C203.347 158.757 203.546 158.592 203.672 158.491C203.798 158.39 203.979 158.252 204.074 158.183C204.169 158.115 204.314 158.017 204.394 157.965C204.474 157.915 204.606 157.842 204.686 157.802C204.767 157.763 204.891 157.71 204.964 157.683C205.037 157.659 205.141 157.628 205.198 157.614C205.255 157.603 205.375 157.592 205.468 157.591C205.58 157.591 205.669 157.598 205.732 157.614C205.784 157.629 205.885 157.669 205.958 157.704C206.031 157.741 206.132 157.805 206.185 157.848C206.237 157.892 206.319 157.974 206.367 158.031C206.416 158.089 206.597 158.338 206.769 158.586C206.942 158.835 207.136 159.105 207.202 159.187C207.268 159.268 207.386 159.397 207.465 159.473C207.544 159.548 207.673 159.652 207.749 159.704C207.825 159.754 207.951 159.826 208.027 159.862C208.103 159.898 208.215 159.942 208.275 159.959C208.348 159.981 208.443 159.994 208.56 159.999C208.717 160.005 208.752 160.002 208.882 159.968C208.971 159.945 209.079 159.902 209.16 159.859C209.233 159.82 209.386 159.727 209.503 159.651C209.62 159.576 209.791 159.46 209.883 159.395C209.975 159.331 210.13 159.219 210.227 159.146C210.323 159.072 210.51 158.924 210.643 158.814C210.776 158.704 211.053 158.476 211.257 158.306C211.462 158.136 211.686 157.954 211.754 157.901C211.823 157.848 211.937 157.767 212.01 157.72C212.083 157.673 212.207 157.6 212.288 157.557C212.368 157.515 212.487 157.459 212.551 157.434C212.615 157.409 212.72 157.375 212.785 157.358Z" fill="#FF3400"/>
<path d="M6.45787 0.0601037C6.52239 0.0404868 6.61834 0.0192351 6.67293 0.0094266C6.72752 0.00125288 6.88467 -0.00201661 7.02032 0.00125288C7.15763 0.00452237 7.33133 0.0192351 7.40908 0.0339478C7.48683 0.0486605 7.62082 0.0829901 7.70684 0.110781C7.79287 0.138571 7.90866 0.181075 7.96326 0.205596C8.01785 0.230117 8.11876 0.282429 8.18658 0.321663C8.25441 0.362532 8.37351 0.442634 8.45126 0.49985C8.52901 0.557066 8.67459 0.686211 8.77385 0.785931C8.8731 0.88565 9.00544 1.03278 9.06831 1.11288C9.12951 1.19462 9.20892 1.31886 9.24531 1.39079C9.28005 1.46271 9.32968 1.58859 9.35284 1.66869C9.376 1.7488 9.40412 1.90083 9.41405 2.00382C9.42728 2.14604 9.42728 2.24249 9.41239 2.40433C9.40081 2.5204 9.36773 2.76397 9.3363 2.94379C9.30652 3.12362 9.25028 3.4097 9.21223 3.58134C9.17418 3.75299 9.10305 4.07504 9.05507 4.30063C9.00544 4.52459 8.93927 4.84827 8.90784 5.01992C8.87641 5.19157 8.83009 5.45476 8.80693 5.60843C8.78212 5.76209 8.75896 5.96317 8.75399 6.05798C8.74572 6.21492 8.74903 6.2329 8.78046 6.27377C8.80693 6.30973 8.82844 6.31954 8.87807 6.31954C8.91611 6.31954 8.97401 6.29829 9.03026 6.26723C9.07989 6.23944 9.1841 6.1528 9.26186 6.07597C9.35449 5.98442 9.46037 5.85037 9.56955 5.69017C9.66219 5.55612 9.79288 5.35668 9.8607 5.24878C9.92853 5.14089 10.0294 4.97578 10.084 4.88097C10.1386 4.78615 10.3007 4.49026 10.443 4.22216C10.5853 3.9557 10.7474 3.66145 10.802 3.56827C10.8582 3.47672 10.9426 3.35085 10.9906 3.28709C11.0385 3.22334 11.151 3.10236 11.2404 3.01736C11.3313 2.93072 11.4488 2.83263 11.5034 2.79667C11.558 2.76234 11.6506 2.71166 11.7102 2.6855C11.7697 2.65935 11.8739 2.62338 11.9418 2.6054C12.0361 2.57925 12.1188 2.57107 12.2892 2.57107C12.4496 2.57107 12.5439 2.57761 12.6283 2.59886C12.6912 2.61521 12.8053 2.65608 12.8814 2.69204C12.9823 2.73945 13.0501 2.78686 13.1461 2.87677C13.2255 2.95197 13.3082 3.05332 13.3644 3.14323C13.4141 3.2217 13.4835 3.35738 13.5199 3.44239C13.5547 3.5274 13.6043 3.67943 13.6291 3.77751C13.6556 3.8756 13.6854 4.01946 13.6986 4.09629C13.7118 4.18293 13.7201 4.37747 13.7201 4.61941C13.7201 4.92837 13.7135 5.03136 13.6903 5.14253C13.6738 5.21936 13.6374 5.34687 13.6109 5.42861C13.5828 5.51034 13.5332 5.63458 13.4984 5.70651C13.462 5.77844 13.3876 5.90759 13.3297 5.99259C13.2619 6.09558 13.1527 6.22146 13.0104 6.36205C12.8913 6.47975 12.7077 6.63995 12.6035 6.71679C12.4993 6.79362 12.3471 6.89824 12.2644 6.94892C12.1816 6.9996 11.8888 7.15326 11.6109 7.29222C11.333 7.42953 11.0137 7.58157 10.8996 7.63224C10.7854 7.68129 10.615 7.74994 10.5191 7.78427C10.4232 7.8186 10.2147 7.91178 10.0559 7.98862C9.89709 8.06709 9.72009 8.1619 9.66384 8.19787C9.60594 8.23546 9.4918 8.32864 9.40909 8.40711C9.32637 8.48721 9.21223 8.61309 9.15433 8.68992C9.09643 8.76676 9.01537 8.88773 8.97401 8.95966C8.92273 9.04793 8.89295 9.12313 8.88137 9.19179C8.86979 9.26372 8.86979 9.32911 8.88303 9.40431C8.8913 9.46643 8.91942 9.56288 8.94258 9.62173C8.96574 9.68058 9.00214 9.75251 9.02364 9.7803C9.04515 9.80972 9.09477 9.85059 9.13448 9.87021C9.18245 9.89473 9.24366 9.90781 9.3363 9.91271C9.44879 9.91925 9.48849 9.91271 9.60098 9.87511C9.67377 9.85223 9.82265 9.79011 9.93183 9.73616C10.041 9.68385 10.1965 9.59721 10.2792 9.54326C10.3619 9.49095 10.4579 9.42229 10.4943 9.3945C10.5307 9.36507 10.7209 9.18525 10.9161 8.99562C11.1113 8.80435 11.376 8.56078 11.5034 8.45289C11.6308 8.34499 11.8359 8.17825 11.9583 8.0818C12.0807 7.98698 12.2644 7.85457 12.3636 7.78754C12.4629 7.72215 12.6233 7.62897 12.7193 7.5832C12.8152 7.53579 12.9591 7.47858 13.0419 7.45569C13.1246 7.4328 13.2602 7.40665 13.3446 7.39847C13.4455 7.38703 13.5481 7.38703 13.6506 7.39847C13.7333 7.40828 13.8475 7.4279 13.9021 7.44098C13.9567 7.45569 14.0493 7.48675 14.1089 7.51127C14.1684 7.53579 14.2577 7.58157 14.3074 7.61426C14.357 7.64532 14.4364 7.70254 14.4811 7.74177C14.5274 7.77937 14.6002 7.85293 14.6432 7.90361C14.6879 7.95429 14.7524 8.04256 14.7871 8.10141C14.8235 8.16027 14.8748 8.27797 14.9046 8.36297C14.9327 8.44798 14.9674 8.60328 14.9807 8.70627C14.9989 8.83705 15.0038 8.96129 14.9972 9.11496C14.9906 9.23593 14.974 9.40594 14.9592 9.49095C14.9459 9.57596 14.9145 9.70183 14.8913 9.76886C14.8698 9.83588 14.8252 9.93887 14.7937 9.99772C14.7623 10.0566 14.6862 10.171 14.625 10.2527C14.5638 10.3361 14.448 10.4783 14.3653 10.5715C14.2826 10.6647 14.1419 10.8053 14.051 10.8854C13.96 10.9639 13.8078 11.0816 13.7118 11.1469C13.6159 11.2107 13.4604 11.3022 13.3644 11.3497C13.2685 11.3954 13.1014 11.4641 12.9922 11.5C12.883 11.536 12.5373 11.6243 12.223 11.6962L12.1768 11.7068C11.8646 11.7782 11.4316 11.8773 11.1891 11.9349C10.9343 11.9937 10.6547 12.0608 10.5687 12.0837C10.4827 12.1065 10.352 12.1441 10.2792 12.167C10.2064 12.1899 10.0906 12.234 10.0228 12.2651C9.95499 12.2962 9.82761 12.3681 9.74159 12.4237C9.6473 12.4858 9.52819 12.5855 9.44382 12.6722C9.36607 12.7523 9.26351 12.8732 9.21719 12.9403C9.17252 13.0073 9.09974 13.1315 9.05673 13.2149C9.01537 13.2966 8.95085 13.4372 8.91611 13.5239C8.88137 13.6121 8.83175 13.7544 8.80859 13.8394C8.78543 13.9244 8.75565 14.0682 8.74241 14.1581C8.72918 14.2481 8.71429 14.4508 8.70768 14.6077C8.70271 14.7646 8.68617 15 8.67294 15.1308C8.6597 15.2616 8.62662 15.4757 8.60015 15.6098C8.57203 15.7422 8.52074 15.94 8.4827 16.0495C8.4463 16.1607 8.38509 16.3095 8.34705 16.3814C8.309 16.4533 8.2329 16.558 8.17831 16.6168C8.12372 16.674 8.05259 16.7378 8.02115 16.7574C7.98972 16.7786 7.91859 16.8081 7.864 16.8228C7.7879 16.8457 7.73331 16.8489 7.6324 16.8424C7.55961 16.8359 7.45539 16.8195 7.4008 16.8064C7.34621 16.7917 7.24199 16.7509 7.16921 16.7149C7.09642 16.6806 6.99551 16.6168 6.94423 16.5743C6.8946 16.5302 6.81354 16.4517 6.76722 16.3977C6.7209 16.3438 6.64646 16.2408 6.60345 16.1689C6.56044 16.097 6.49923 15.9727 6.4678 15.891C6.43802 15.8109 6.39832 15.6785 6.38177 15.5967C6.36523 15.515 6.34373 15.3204 6.3338 15.1635L6.33137 15.1175C6.3221 14.9421 6.30452 14.6094 6.29244 14.338C6.27921 14.0404 6.25936 13.7511 6.25109 13.6922C6.24116 13.6334 6.218 13.5157 6.19815 13.4307C6.17995 13.3457 6.13529 13.1904 6.0989 13.0874C6.0625 12.9844 5.99302 12.8144 5.94174 12.7114C5.89211 12.6084 5.82429 12.4907 5.7912 12.4515C5.75812 12.4122 5.69691 12.3567 5.65555 12.3289C5.61419 12.3027 5.50998 12.252 5.42395 12.2177C5.33793 12.1834 5.19566 12.1327 5.10964 12.1049C5.02362 12.0771 4.86316 12.033 4.75398 12.0085C4.64479 11.9823 4.47771 11.9496 4.38177 11.9365C4.28582 11.9218 3.98474 11.8957 3.71179 11.8777C3.43883 11.8597 2.95082 11.8335 2.62824 11.8205C2.23122 11.8057 2.00127 11.7894 1.91691 11.7714C1.84908 11.7567 1.71839 11.7207 1.62741 11.6913C1.53642 11.6603 1.39912 11.6047 1.32137 11.5671C1.24362 11.5295 1.10962 11.451 1.0236 11.3938C0.93758 11.3366 0.803584 11.2369 0.725833 11.1698C0.648083 11.1044 0.533938 10.9884 0.47273 10.9115C0.409868 10.8363 0.3255 10.7186 0.285798 10.6516C0.246096 10.5846 0.18985 10.4702 0.161728 10.3982C0.133605 10.3263 0.0922487 10.2021 0.0723975 10.1203C0.050892 10.0386 0.0244237 9.89964 0.0144981 9.80972C0.00126394 9.70673 -0.00369887 9.5547 0.00291821 9.40104C0.00788101 9.26699 0.0244237 9.09371 0.0393121 9.01687C0.0542005 8.94004 0.0889401 8.79618 0.117063 8.6981C0.145185 8.60001 0.203085 8.42673 0.24775 8.31393C0.299032 8.18315 0.365203 8.05401 0.431374 7.95429C0.492581 7.86111 0.5968 7.73687 0.692748 7.64369C0.780424 7.55868 0.89126 7.46386 0.940888 7.43607C0.990516 7.40665 1.08316 7.36414 1.14767 7.34126C1.21219 7.32001 1.32302 7.29385 1.39581 7.28404C1.4686 7.27423 1.57282 7.27096 1.62741 7.27587C1.682 7.28077 1.76802 7.29385 1.81765 7.30202C1.86728 7.31183 1.96819 7.33799 2.04098 7.36088C2.11376 7.38376 2.2246 7.4279 2.28912 7.4606C2.35363 7.49165 2.46447 7.55541 2.53726 7.60282C2.61004 7.64859 2.73577 7.7385 2.81848 7.80226C2.9012 7.86438 3.05008 7.99025 3.14934 8.08016C3.24859 8.17007 3.46199 8.38586 3.62246 8.56078C3.78292 8.7357 4.00625 8.9662 4.11874 9.07409C4.23123 9.18198 4.39004 9.32584 4.47275 9.3945C4.55546 9.46152 4.68119 9.56288 4.75398 9.61682C4.82676 9.67077 4.93098 9.74433 4.98557 9.77866C5.04016 9.81299 5.14438 9.86857 5.21717 9.90127C5.28996 9.9356 5.41568 9.98301 5.4984 10.0075C5.62081 10.0435 5.68202 10.0517 5.83752 10.0533C6.00791 10.0549 6.03769 10.05 6.11875 10.0141C6.16837 9.98955 6.24282 9.93887 6.28252 9.89964C6.32388 9.85877 6.37185 9.79338 6.38839 9.75251C6.41321 9.69693 6.41817 9.65933 6.4099 9.59721C6.40328 9.54653 6.37019 9.46316 6.32388 9.37652C6.28252 9.29968 6.20146 9.16727 6.14356 9.08226C6.08566 8.99726 5.98144 8.86484 5.90865 8.78964C5.83752 8.71444 5.69691 8.59184 5.59765 8.51828C5.4984 8.44471 5.32304 8.32211 5.2089 8.24527C5.09475 8.16844 4.89624 8.04256 4.76721 7.9641C4.63652 7.88726 4.42478 7.76956 4.29574 7.70254C4.16506 7.63551 3.96985 7.5407 3.86067 7.49002C3.75149 7.44098 3.57614 7.35434 3.47192 7.29876C3.3677 7.24481 3.17746 7.13038 3.05008 7.04864C2.9227 6.96527 2.74073 6.83612 2.64478 6.75929C2.54884 6.68409 2.38176 6.53369 2.27257 6.4258C2.16339 6.31791 2.0112 6.1528 1.9351 6.05798C1.85901 5.96317 1.74652 5.81277 1.68531 5.72286C1.6241 5.63295 1.54139 5.50054 1.50003 5.42861C1.45867 5.35668 1.38919 5.22099 1.34784 5.12618C1.30483 5.03136 1.24527 4.8777 1.21384 4.78288C1.18407 4.68807 1.14602 4.56056 1.13113 4.4968C1.11624 4.43305 1.09474 4.30881 1.0815 4.21889C1.06827 4.12898 1.05669 3.9933 1.05669 3.91647C1.05669 3.83963 1.06827 3.70395 1.0815 3.61404C1.09474 3.52413 1.1212 3.39989 1.14105 3.33613C1.15925 3.27238 1.20061 3.17429 1.23204 3.11544C1.26347 3.05659 1.32137 2.96668 1.36273 2.916C1.40408 2.86369 1.4868 2.78032 1.548 2.73128C1.61087 2.6806 1.72005 2.61194 1.79284 2.57598C1.86562 2.54165 1.98142 2.49587 2.04925 2.47789C2.11707 2.45827 2.24776 2.43866 2.33874 2.43375C2.46116 2.42721 2.54057 2.43212 2.64478 2.45337C2.72253 2.46808 2.82675 2.49751 2.87638 2.51713C2.92601 2.53674 3.00376 2.57761 3.05008 2.60867C3.09474 2.6381 3.18904 2.70839 3.25686 2.76234C3.32469 2.81628 3.45207 2.93235 3.53809 3.01736C3.62411 3.104 3.75149 3.24459 3.82097 3.32959C3.89045 3.4146 3.99632 3.55682 4.05587 3.64673C4.11377 3.73665 4.20145 3.8805 4.24612 3.96551C4.29243 4.05052 4.43139 4.33333 4.55546 4.59489C4.67953 4.85645 4.81518 5.13435 4.85985 5.21609C4.90286 5.29783 4.97896 5.42534 5.03024 5.50217C5.08318 5.579 5.17416 5.69997 5.23371 5.7719C5.29492 5.84383 5.3826 5.93538 5.42892 5.97461C5.47689 6.01385 5.57449 6.07433 5.64728 6.1103C5.72007 6.14463 5.80444 6.17242 5.83256 6.17242C5.86234 6.17242 5.907 6.16261 5.93181 6.14953C5.95828 6.13809 5.98806 6.10212 6.00129 6.0727C6.01784 6.0351 6.02114 5.99096 6.01453 5.93538C6.00791 5.89124 5.91031 5.494 5.79782 5.05262C5.68367 4.61123 5.5563 4.11918 5.51494 3.95734C5.47358 3.7955 5.41403 3.53884 5.3826 3.38518C5.35117 3.23151 5.31312 3.01082 5.29823 2.89475C5.27672 2.73945 5.26845 2.56944 5.26845 2.26537C5.2668 1.89919 5.27176 1.82236 5.3065 1.636C5.32635 1.51993 5.37102 1.33847 5.40245 1.23549C5.43388 1.1325 5.49012 0.980465 5.52983 0.900363C5.56788 0.82026 5.63239 0.705828 5.67209 0.646977C5.7118 0.588126 5.78293 0.501485 5.8276 0.452443C5.87391 0.405035 5.95332 0.333106 6.00295 0.295507C6.05258 0.256273 6.15018 0.195788 6.218 0.159823C6.28583 0.123859 6.39335 0.0780859 6.45787 0.0601037Z" fill="#00E4B2"/>
<path d="M151.118 51.0191C151.212 51.013 151.311 51.0043 151.338 51.0019C151.365 50.9994 151.698 50.9994 152.078 51.0019C152.458 51.0043 152.87 51.0117 152.995 51.0191C153.119 51.0253 153.311 51.0401 153.423 51.0512C153.534 51.0611 153.701 51.0833 153.795 51.0993C153.889 51.1153 154.032 51.1449 154.113 51.1659C154.194 51.1856 154.325 51.2251 154.403 51.2535C154.482 51.2806 154.592 51.325 154.647 51.3521C154.704 51.378 154.782 51.4224 154.822 51.4484C154.862 51.4755 154.937 51.5409 154.987 51.5951C155.043 51.6543 155.095 51.7234 155.118 51.7727C155.14 51.8159 155.167 51.8874 155.179 51.9319C155.195 51.9911 155.201 52.0552 155.2 52.1724C155.2 52.3056 155.194 52.3549 155.166 52.4684C155.147 52.5424 155.102 52.6929 155.067 52.8014C155.031 52.91 154.949 53.1369 154.886 53.3071C154.822 53.4761 154.711 53.782 154.639 53.9855C154.567 54.189 154.442 54.5331 154.361 54.7502C154.281 54.9673 154.19 55.198 154.158 55.2621C154.116 55.3509 154.083 55.399 154.021 55.4607C153.971 55.5113 153.913 55.5557 153.863 55.5803C153.819 55.6013 153.75 55.6272 153.71 55.6371C153.669 55.6482 153.568 55.6617 153.484 55.6679C153.399 55.6753 153.218 55.6876 153.08 55.6963C152.942 55.7037 152.577 55.7111 152.267 55.7111C151.958 55.7111 151.589 55.7037 151.448 55.695C151.308 55.6876 151.088 55.6728 150.959 55.663C150.831 55.6531 150.642 55.6358 150.538 55.6247C150.434 55.6149 150.248 55.5939 150.126 55.5791C149.93 55.5557 149.902 55.5544 149.902 55.5705C149.902 55.5803 149.785 56.8298 149.64 58.3457C149.496 59.8615 149.369 61.2023 149.359 61.3244C149.348 61.4465 149.329 61.7129 149.315 61.9164C149.302 62.12 149.282 62.3864 149.273 62.5085C149.263 62.6306 149.243 62.8218 149.229 62.934C149.215 63.0463 149.185 63.235 149.161 63.3534C149.137 63.4718 149.093 63.6445 149.064 63.7357C149.033 63.827 148.982 63.9602 148.947 64.0318C148.913 64.1033 148.857 64.2057 148.821 64.2599C148.785 64.3142 148.715 64.4018 148.666 64.4561C148.616 64.5091 148.529 64.588 148.472 64.6312C148.414 64.6744 148.307 64.7397 148.234 64.7767C148.16 64.8138 148.046 64.8606 147.983 64.8804C147.919 64.9013 147.814 64.9285 147.751 64.942C147.687 64.9556 147.586 64.9741 147.525 64.984C147.45 64.9951 147.29 65 147.029 65C146.724 65 146.61 64.9951 146.479 64.9778C146.389 64.9655 146.248 64.9408 146.168 64.9248C146.087 64.9087 145.968 64.8804 145.905 64.8631C145.841 64.8458 145.725 64.8088 145.648 64.7804C145.571 64.7533 145.45 64.7052 145.379 64.6744C145.308 64.6423 145.19 64.5819 145.116 64.5399C145.043 64.4968 144.934 64.4277 144.876 64.3858C144.817 64.3438 144.719 64.2649 144.657 64.2106C144.595 64.1563 144.503 64.0626 144.453 64.0009C144.401 63.9393 144.332 63.8455 144.296 63.7912C144.262 63.737 144.213 63.6506 144.187 63.6001C144.162 63.5495 144.12 63.4434 144.095 63.3657C144.069 63.288 144.04 63.1745 144.029 63.1129C144.018 63.0512 144.005 62.9241 144.002 62.8292C143.998 62.728 144 62.5998 144.009 62.5208C144.018 62.4468 144.038 62.3185 144.055 62.2371C144.071 62.1557 144.106 62.025 144.129 61.9473C144.152 61.8696 144.19 61.7524 144.214 61.6883C144.238 61.6241 144.296 61.4909 144.344 61.3922C144.392 61.2936 144.477 61.1443 144.533 61.0592C144.59 60.9741 144.675 60.8582 144.723 60.8002C144.771 60.7422 144.86 60.646 144.921 60.5856C144.981 60.5251 145.075 60.44 145.129 60.3969C145.182 60.3525 145.288 60.276 145.361 60.2266C145.434 60.1773 145.559 60.1033 145.636 60.0626C145.713 60.0207 145.834 59.9627 145.905 59.9319C145.976 59.9023 146.099 59.8541 146.18 59.8258C146.261 59.7986 146.415 59.7542 146.522 59.7271C146.63 59.7 146.784 59.6679 146.864 59.6543C146.945 59.6395 147.082 59.621 147.17 59.6099C147.258 59.6001 147.448 59.5865 147.592 59.5803C147.736 59.5742 147.93 59.5729 148.023 59.5766C148.154 59.584 148.191 59.5816 148.191 59.5692C148.191 59.5618 148.323 58.1681 148.483 56.4746C148.644 54.7798 148.785 53.2603 148.796 53.0974C148.806 52.9346 148.824 52.7262 148.834 52.6349C148.843 52.5436 148.863 52.4129 148.876 52.3451C148.889 52.2772 148.913 52.1748 148.929 52.1169C148.946 52.0589 148.979 51.9652 149.004 51.9072C149.028 51.8492 149.077 51.7579 149.112 51.7037C149.149 51.6494 149.214 51.5717 149.257 51.531C149.301 51.4903 149.372 51.436 149.414 51.4113C149.457 51.3854 149.577 51.3373 149.68 51.3028C149.781 51.2695 149.952 51.2189 150.057 51.1918C150.164 51.1659 150.325 51.1301 150.415 51.1129C150.506 51.0956 150.662 51.0709 150.764 51.0574C150.864 51.0438 151.024 51.0265 151.118 51.0191Z" fill="#00A44F"/>
<path d="M211.297 337.085C211.333 337.068 211.414 337.042 211.478 337.026C211.572 337 211.634 336.997 211.8 337.002C211.918 337.007 212.05 337.021 212.106 337.036C212.161 337.051 212.265 337.091 212.337 337.125C212.41 337.161 212.518 337.224 212.577 337.268C212.637 337.312 212.856 337.513 213.064 337.713C213.273 337.914 213.53 338.172 213.638 338.287C213.743 338.402 213.895 338.573 213.975 338.667C214.054 338.761 214.237 338.994 214.383 339.186C214.528 339.377 214.667 339.554 214.69 339.58C214.713 339.605 214.741 339.624 214.75 339.624C214.758 339.624 214.783 339.549 214.804 339.459C214.826 339.366 214.874 339.175 214.91 339.032C214.946 338.889 215.021 338.641 215.074 338.48C215.126 338.319 215.201 338.13 215.239 338.058C215.275 337.987 215.333 337.888 215.366 337.839C215.401 337.791 215.472 337.706 215.526 337.653C215.587 337.591 215.67 337.531 215.741 337.497C215.805 337.464 215.901 337.429 215.956 337.417C216.02 337.404 216.116 337.399 216.228 337.406C216.329 337.411 216.453 337.43 216.526 337.45C216.594 337.469 216.701 337.511 216.765 337.544C216.836 337.581 216.922 337.644 216.988 337.709C217.053 337.773 217.121 337.862 217.155 337.928C217.19 337.992 217.24 338.112 217.266 338.196C217.294 338.281 217.332 338.423 217.35 338.513C217.368 338.602 217.392 338.777 217.401 338.902C217.415 339.066 217.415 339.199 217.403 339.381C217.393 339.519 217.365 339.752 217.342 339.9C217.319 340.048 217.278 340.284 217.251 340.427C217.223 340.57 217.104 341.128 216.987 341.669C216.787 342.582 216.774 342.655 216.79 342.723C216.802 342.764 216.924 342.985 217.066 343.218C217.208 343.45 217.337 343.655 217.354 343.673C217.37 343.69 217.393 343.7 217.405 343.695C217.416 343.689 217.435 343.668 217.446 343.647C217.458 343.626 217.52 343.458 217.585 343.275C217.649 343.092 217.777 342.764 217.864 342.545C217.953 342.326 218.089 342.004 218.166 341.831C218.244 341.657 218.376 341.372 218.459 341.198C218.541 341.024 218.662 340.783 218.727 340.663C218.791 340.542 218.907 340.335 218.984 340.2C219.06 340.067 219.169 339.892 219.226 339.812C219.28 339.733 219.382 339.616 219.452 339.553C219.521 339.489 219.622 339.412 219.675 339.381C219.728 339.35 219.817 339.308 219.872 339.288C219.926 339.269 220.03 339.246 220.103 339.236C220.18 339.227 220.28 339.227 220.342 339.233C220.402 339.241 220.483 339.256 220.524 339.267C220.565 339.277 220.646 339.311 220.706 339.342C220.765 339.371 220.858 339.434 220.911 339.481C220.964 339.528 221.04 339.611 221.078 339.665C221.117 339.718 221.172 339.807 221.2 339.864C221.228 339.919 221.269 340.028 221.292 340.108C221.319 340.192 221.342 340.333 221.354 340.46C221.368 340.617 221.368 340.736 221.354 340.93C221.344 341.073 221.316 341.3 221.292 341.433C221.269 341.568 221.213 341.826 221.169 342.009C221.122 342.193 221.051 342.452 221.012 342.585C220.972 342.72 220.888 342.978 220.825 343.161C220.762 343.345 220.661 343.617 220.602 343.77C220.542 343.922 220.466 344.111 220.433 344.192C220.399 344.273 220.285 344.542 220.177 344.792C220.07 345.042 219.905 345.419 219.809 345.628C219.715 345.837 219.569 346.147 219.488 346.317C219.406 346.488 219.335 346.648 219.33 346.674C219.326 346.7 219.33 346.749 219.338 346.78C219.348 346.811 219.473 347.002 219.617 347.207C219.787 347.445 219.89 347.575 219.91 347.575C219.924 347.577 219.949 347.564 219.964 347.547C219.979 347.531 220.03 347.422 220.078 347.307C220.126 347.192 220.212 346.991 220.27 346.861C220.328 346.731 220.438 346.512 220.518 346.374C220.595 346.236 220.731 346.017 220.818 345.887C220.934 345.714 221.02 345.61 221.142 345.488C221.281 345.352 221.332 345.313 221.449 345.256C221.527 345.219 221.643 345.178 221.705 345.165C221.768 345.152 221.864 345.141 221.917 345.141C221.968 345.141 222.069 345.152 222.14 345.167C222.209 345.18 222.327 345.221 222.399 345.255C222.472 345.29 222.573 345.354 222.622 345.397C222.672 345.441 222.748 345.527 222.789 345.589C222.832 345.651 222.882 345.745 222.902 345.798C222.923 345.852 222.95 345.946 222.964 346.009C222.978 346.072 222.993 346.228 222.997 346.358C223.004 346.527 222.997 346.64 222.979 346.764C222.964 346.858 222.918 347.077 222.877 347.25C222.834 347.424 222.768 347.68 222.727 347.818C222.687 347.956 222.583 348.26 222.499 348.492C222.414 348.724 222.183 349.331 221.986 349.839C221.79 350.346 221.598 350.825 221.56 350.901C221.522 350.978 221.449 351.101 221.4 351.177C221.349 351.254 221.259 351.365 221.2 351.427C221.142 351.489 221.05 351.57 220.995 351.609C220.94 351.646 220.833 351.706 220.755 351.742C220.678 351.778 220.567 351.82 220.508 351.836C220.417 351.86 220.309 351.865 219.805 351.872C219.478 351.875 219.039 351.87 218.831 351.86C218.622 351.849 218.32 351.831 218.161 351.817C218.003 351.804 217.747 351.778 217.591 351.761C217.436 351.744 217.188 351.709 217.038 351.687C216.888 351.664 216.632 351.62 216.468 351.589C216.304 351.559 216.081 351.512 215.972 351.486C215.863 351.46 215.718 351.416 215.65 351.388C215.582 351.362 215.485 351.315 215.435 351.286C215.386 351.258 215.277 351.169 215.196 351.088C215.092 350.986 215.029 350.908 214.986 350.828C214.953 350.767 214.913 350.671 214.9 350.617C214.885 350.564 214.874 350.467 214.874 350.403C214.874 350.338 214.882 350.246 214.892 350.2C214.902 350.153 214.938 350.056 214.973 349.985C215.006 349.913 215.07 349.808 215.115 349.751C215.159 349.693 215.237 349.613 215.287 349.571C215.336 349.53 215.422 349.47 215.477 349.438C215.531 349.405 215.635 349.355 215.708 349.327C215.781 349.298 215.938 349.25 216.055 349.22C216.172 349.191 216.362 349.152 216.476 349.134C216.59 349.117 216.775 349.094 216.889 349.086C217.003 349.076 217.142 349.066 217.198 349.065C217.254 349.061 217.311 349.05 217.322 349.039C217.34 349.021 217.335 349.003 217.296 348.933C217.269 348.886 217.197 348.771 217.135 348.675C217.046 348.537 217.012 348.498 216.977 348.49C216.949 348.484 216.878 348.495 216.798 348.518C216.676 348.553 216.638 348.557 216.311 348.555C216.033 348.555 215.843 348.544 215.444 348.502C215.163 348.474 214.727 348.425 214.477 348.393C214.228 348.362 213.851 348.312 213.643 348.279C213.435 348.248 212.942 348.167 212.552 348.101C212.162 348.034 211.734 347.956 211.602 347.93C211.47 347.904 211.292 347.864 211.206 347.841C211.12 347.818 210.938 347.766 210.801 347.726C210.665 347.685 210.449 347.614 210.322 347.567C210.195 347.52 210.005 347.444 209.9 347.398C209.796 347.351 209.654 347.28 209.587 347.239C209.519 347.197 209.406 347.108 209.339 347.04C209.253 346.955 209.193 346.879 209.145 346.788C209.109 346.717 209.059 346.603 209.038 346.537C209.007 346.438 209 346.379 209 346.228C209.002 346.077 209.008 346.022 209.04 345.936C209.059 345.878 209.106 345.787 209.14 345.733C209.177 345.68 209.236 345.607 209.276 345.569C209.316 345.534 209.377 345.482 209.413 345.454C209.449 345.427 209.535 345.375 209.603 345.339C209.671 345.302 209.795 345.251 209.876 345.224C209.957 345.198 210.095 345.165 210.181 345.151C210.267 345.138 210.52 345.113 210.743 345.097C211.026 345.078 211.343 345.07 211.792 345.07C212.295 345.07 212.493 345.076 212.693 345.097C212.833 345.113 213.071 345.144 213.221 345.167C213.372 345.19 213.631 345.234 213.8 345.264C213.968 345.295 214.271 345.357 214.472 345.402C214.675 345.446 214.867 345.482 214.898 345.482C214.93 345.482 214.96 345.477 214.964 345.47C214.968 345.462 214.925 345.381 214.869 345.287C214.811 345.193 214.697 345.014 214.614 344.89C214.513 344.737 214.447 344.656 214.416 344.64C214.391 344.628 214.244 344.573 214.089 344.516C213.933 344.461 213.671 344.361 213.502 344.294C213.334 344.226 212.889 344.043 212.516 343.885C212.141 343.728 211.736 343.552 211.619 343.494C211.501 343.436 211.34 343.35 211.26 343.301C211.179 343.252 211.049 343.163 210.966 343.101C210.884 343.04 210.786 342.952 210.75 342.908C210.712 342.864 210.659 342.793 210.631 342.748C210.603 342.704 210.56 342.608 210.535 342.537C210.492 342.42 210.489 342.386 210.487 342.18C210.487 341.998 210.494 341.935 210.518 341.863C210.535 341.815 210.571 341.73 210.599 341.677C210.627 341.62 210.695 341.534 210.758 341.471C210.836 341.394 210.903 341.347 210.991 341.305C211.059 341.273 211.171 341.235 211.239 341.221C211.328 341.201 211.409 341.198 211.528 341.203C211.619 341.209 211.819 341.239 211.974 341.269C212.129 341.3 212.266 341.321 212.28 341.315C212.293 341.31 212.309 341.299 212.316 341.289C212.323 341.279 212.324 341.256 212.318 341.239C212.313 341.221 212.195 341.02 212.06 340.792C211.924 340.565 211.736 340.247 211.644 340.087C211.551 339.926 211.401 339.66 211.31 339.494C211.219 339.329 211.088 339.085 211.019 338.951C210.951 338.818 210.869 338.631 210.836 338.537C210.803 338.443 210.763 338.305 210.75 338.229C210.736 338.152 210.727 338.045 210.727 337.99C210.727 337.933 210.738 337.831 210.753 337.763C210.768 337.693 210.799 337.593 210.826 337.539C210.85 337.485 210.908 337.398 210.953 337.346C210.996 337.292 211.077 337.218 211.131 337.18C211.186 337.143 211.26 337.099 211.297 337.085Z" fill="#00E4B2"/>
<path d="M110.491 191.079C110.532 191.056 110.594 191.03 110.629 191.019C110.663 191.01 110.769 191 110.863 191C111.006 190.998 111.056 191.007 111.162 191.06C111.233 191.095 111.348 191.185 111.426 191.264C111.502 191.343 111.615 191.493 111.679 191.599C111.741 191.708 111.833 191.893 111.881 192.016C111.93 192.136 112.01 192.377 112.061 192.548C112.111 192.719 112.187 193.022 112.231 193.218C112.272 193.415 112.35 193.827 112.401 194.132C112.451 194.437 112.53 194.967 112.576 195.312C112.621 195.656 112.67 195.989 112.713 196.177L113.001 195.756C113.159 195.524 113.412 195.168 113.564 194.965C113.715 194.761 113.943 194.47 114.069 194.317C114.196 194.164 114.414 193.917 114.554 193.762C114.694 193.609 114.901 193.397 115.014 193.288C115.129 193.179 115.297 193.029 115.391 192.952C115.485 192.876 115.63 192.765 115.713 192.705C115.795 192.647 115.94 192.557 116.034 192.504C116.129 192.453 116.285 192.383 116.379 192.351C116.473 192.319 116.625 192.286 116.712 192.277C116.841 192.265 116.905 192.272 117.034 192.312C117.131 192.342 117.236 192.395 117.298 192.446C117.356 192.492 117.445 192.587 117.498 192.659C117.553 192.733 117.622 192.862 117.655 192.952C117.687 193.043 117.728 193.186 117.747 193.276C117.767 193.366 117.788 193.575 117.797 193.739C117.804 193.922 117.799 194.148 117.783 194.317C117.767 194.47 117.728 194.74 117.698 194.918C117.666 195.097 117.602 195.404 117.551 195.601C117.503 195.797 117.413 196.11 117.354 196.295C117.296 196.48 117.179 196.806 117.098 197.023C117.016 197.241 116.825 197.703 116.678 198.052C116.528 198.402 116.28 198.968 116.124 199.313C115.968 199.658 115.662 200.296 115.446 200.735C115.228 201.175 114.954 201.709 114.837 201.927C114.722 202.144 114.501 202.54 114.35 202.806C114.198 203.071 113.975 203.453 113.856 203.65C113.736 203.846 113.522 204.179 113.385 204.39C113.244 204.6 113.042 204.892 112.934 205.037C112.826 205.183 112.635 205.428 112.509 205.581C112.382 205.734 112.146 205.993 111.98 206.159C111.815 206.326 111.585 206.527 111.472 206.608C111.357 206.687 111.208 206.784 111.139 206.818C111.07 206.853 110.941 206.904 110.852 206.932C110.762 206.96 110.608 206.99 110.507 206.997C110.376 207.006 110.277 206.997 110.162 206.969C110.073 206.948 109.939 206.899 109.864 206.858C109.779 206.814 109.652 206.71 109.53 206.587C109.413 206.469 109.291 206.314 109.227 206.203C109.165 206.104 109.066 205.905 109.004 205.766C108.942 205.627 108.846 205.366 108.786 205.188C108.728 205.01 108.643 204.714 108.6 204.529C108.556 204.344 108.489 204.011 108.453 203.788C108.413 203.566 108.363 203.196 108.338 202.967C108.31 202.738 108.273 202.359 108.253 202.123C108.23 201.855 108.211 201.295 108.204 200.631C108.195 199.961 108.202 199.355 108.218 198.989C108.234 198.672 108.262 198.214 108.28 197.971C108.299 197.729 108.328 197.365 108.349 197.162C108.367 196.958 108.404 196.625 108.43 196.422C108.455 196.218 108.496 195.922 108.521 195.763C108.544 195.603 108.597 195.312 108.636 195.115C108.675 194.918 108.749 194.59 108.797 194.386C108.848 194.183 108.933 193.875 108.983 193.704C109.034 193.533 109.117 193.288 109.163 193.161C109.211 193.033 109.287 192.837 109.335 192.721C109.381 192.605 109.484 192.383 109.565 192.224C109.645 192.064 109.756 191.868 109.808 191.784C109.861 191.701 109.958 191.567 110.025 191.484C110.091 191.4 110.206 191.285 110.28 191.227C110.355 191.169 110.45 191.102 110.491 191.079Z" fill="#FF8ED5"/>
<path d="M67.8176 87.1528C67.851 87.1123 67.9144 87.063 67.9583 87.0401C68.0199 87.0066 68.0586 87.0013 68.1519 87.0048C68.2487 87.0101 68.2786 87.0189 68.3349 87.063C68.3736 87.0929 68.4264 87.151 68.4528 87.195C68.481 87.2391 68.5179 87.3166 68.5373 87.3676C68.5566 87.4169 68.583 87.5332 68.5936 87.623C68.6094 87.7357 68.6147 88.0175 68.6129 88.5423C68.6112 88.9579 68.5989 89.6077 68.583 89.9863C68.5689 90.365 68.532 91.2437 68.5021 91.9411C68.4722 92.6385 68.4493 93.2654 68.4528 93.3341C68.4563 93.431 68.4669 93.4697 68.4933 93.4979C68.5126 93.519 68.5478 93.5349 68.5725 93.5349C68.5971 93.5349 68.6992 93.4961 68.8012 93.4504C68.9033 93.4028 69.0528 93.3253 69.1355 93.276C69.2183 93.2285 69.4945 93.0664 69.7514 92.915C70.0083 92.7653 70.4676 92.5029 70.772 92.3338C71.0764 92.1648 71.5727 91.8953 71.8718 91.7351C72.1709 91.5748 72.7217 91.286 73.0947 91.094C73.4678 90.9039 73.8672 90.7013 73.9834 90.645C74.0995 90.5904 74.2385 90.5323 74.2913 90.5164C74.3441 90.5006 74.4444 90.4882 74.5113 90.4882C74.5781 90.4882 74.6696 90.5006 74.7136 90.5147C74.7576 90.5305 74.8157 90.5604 74.8456 90.5833C74.8755 90.6045 74.916 90.6503 74.9371 90.6837C74.96 90.7172 74.9846 90.7876 74.9934 90.8405C75.0022 90.8986 75.0022 90.9831 74.9934 91.0518C74.9828 91.1222 74.9512 91.2208 74.9089 91.3071C74.872 91.3846 74.7928 91.5149 74.7312 91.5977C74.6696 91.6805 74.5324 91.8355 74.425 91.9411C74.3177 92.0485 74.0872 92.2581 73.913 92.4078C73.7388 92.5575 73.4608 92.7864 73.2971 92.9185C73.1317 93.0488 72.8554 93.2637 72.6812 93.3958C72.507 93.5278 71.9914 93.9065 71.5375 94.2393C71.0835 94.5722 70.5873 94.9367 70.4377 95.0494C70.2881 95.1621 70.0734 95.3294 69.9626 95.421C69.8517 95.5126 69.7022 95.6411 69.6318 95.7098C69.5614 95.7767 69.4875 95.8648 69.4681 95.9035C69.4505 95.9423 69.4347 96.011 69.4347 96.0585C69.4347 96.1043 69.4505 96.1818 69.4699 96.2293C69.4892 96.2786 69.542 96.379 69.5878 96.4547C69.6318 96.5287 69.82 96.7929 70.0048 97.0394C70.1896 97.286 70.4764 97.6893 70.64 97.9376C70.8054 98.1841 71.0448 98.561 71.1715 98.7741C71.2982 98.9872 71.4864 99.3165 71.5903 99.5049C71.6923 99.6933 71.8788 100.054 72.002 100.306C72.1269 100.558 72.2712 100.863 72.3258 100.984C72.3786 101.106 72.4331 101.236 72.4454 101.275C72.4578 101.314 72.4683 101.405 72.4683 101.477C72.4701 101.558 72.4578 101.639 72.4402 101.689C72.4226 101.738 72.3786 101.798 72.3258 101.847C72.2748 101.893 72.2079 101.937 72.1621 101.949C72.1146 101.963 72.0302 101.97 71.951 101.967C71.8472 101.962 71.7926 101.949 71.6958 101.902C71.629 101.87 71.4301 101.736 71.2559 101.604C71.0817 101.472 70.8248 101.273 70.684 101.159C70.5433 101.046 70.3215 100.856 70.1913 100.736C70.0611 100.616 69.7761 100.34 69.5579 100.121C69.3397 99.9029 69.0352 99.5859 68.8822 99.4169C68.7273 99.2478 68.4528 98.9379 68.2733 98.73C68.0921 98.5222 67.8457 98.2563 67.7261 98.1383C67.6064 98.0221 67.441 97.8759 67.3583 97.8143C67.2756 97.7544 67.1612 97.6804 67.1032 97.654C67.0451 97.6259 66.9694 97.603 66.936 97.603C66.899 97.603 66.8234 97.6276 66.7512 97.6646C66.6826 97.6981 66.5577 97.7844 66.4697 97.853C66.3835 97.9235 66.1019 98.1912 65.845 98.4483C65.5881 98.7054 65.2291 99.0735 65.0444 99.2672C64.8596 99.4627 64.5675 99.7744 64.3951 99.9628C64.2209 100.151 63.8021 100.62 63.4607 101.002C63.1211 101.384 62.6548 101.903 62.4225 102.155C62.192 102.407 61.9562 102.655 61.8964 102.707C61.8365 102.758 61.7486 102.826 61.7011 102.858C61.6518 102.891 61.5691 102.939 61.5163 102.965C61.4635 102.992 61.379 103.018 61.3315 103.024C61.2823 103.027 61.2084 103.027 61.1644 103.02C61.1204 103.015 61.05 102.987 61.006 102.958C60.962 102.93 60.9022 102.869 60.8705 102.823C60.8406 102.775 60.8036 102.692 60.7878 102.64C60.772 102.587 60.7596 102.499 60.7596 102.446C60.7596 102.393 60.772 102.282 60.7878 102.199C60.8019 102.117 60.8335 101.97 60.8582 101.874C60.8828 101.777 60.9338 101.595 60.9726 101.469C61.013 101.342 61.1169 101.042 61.2031 100.799C61.2911 100.558 61.4054 100.252 61.4582 100.121C61.511 99.991 61.599 99.7849 61.6535 99.6634C61.7063 99.5419 61.8313 99.2848 61.9298 99.0911C62.0283 98.8973 62.1744 98.6244 62.2553 98.4835C62.3363 98.3426 62.4718 98.1137 62.5598 97.9728C62.646 97.8319 62.8167 97.5713 62.9381 97.3916C63.0577 97.212 63.2619 96.9232 63.3903 96.7488C63.5188 96.5745 63.6402 96.4037 63.6613 96.3702C63.6807 96.3368 63.6982 96.2945 63.6982 96.2786C63.6982 96.261 63.6859 96.224 63.6719 96.1941C63.6578 96.1659 63.3973 95.9176 63.0947 95.6447C62.7938 95.3699 62.2413 94.8698 61.8682 94.5299C61.4952 94.1918 60.9092 93.6564 60.5661 93.3394C60.223 93.0242 59.7795 92.598 59.5807 92.392C59.3818 92.1877 59.1848 91.9658 59.1408 91.9006C59.0968 91.8355 59.0475 91.7386 59.0299 91.6858C59.0123 91.6329 59 91.5537 59 91.5097C59 91.4656 59.0158 91.3987 59.0334 91.36C59.0493 91.3212 59.0897 91.2684 59.1197 91.242C59.1513 91.2138 59.2094 91.1839 59.2499 91.1733C59.2956 91.161 59.3942 91.1574 59.5015 91.1627C59.6264 91.1698 59.7566 91.1944 59.9502 91.2455C60.0998 91.2842 60.369 91.3617 60.5485 91.4146C60.728 91.4692 61.0394 91.5678 61.2435 91.6365C61.4459 91.7034 61.965 91.8865 62.3961 92.0415C62.8272 92.1965 63.4713 92.4219 63.8302 92.5416C64.1892 92.6632 64.6309 92.8076 64.8156 92.8657C65.0004 92.922 65.2133 92.9854 65.2907 93.0048C65.3682 93.0242 65.5107 93.0576 65.6075 93.077C65.7781 93.114 65.7852 93.114 65.8257 93.0823C65.8609 93.0559 65.896 92.9485 66.0491 92.3814C66.1494 92.0133 66.3008 91.4709 66.3835 91.1751C66.4662 90.8792 66.5823 90.4794 66.6404 90.2857C66.6984 90.092 66.8005 89.7592 66.8691 89.5461C66.936 89.333 67.0556 88.9808 67.1331 88.7624C67.2105 88.544 67.3565 88.1566 67.4586 87.8995C67.5589 87.6424 67.668 87.3852 67.6979 87.3289C67.7296 87.2708 67.7824 87.1915 67.8176 87.1528Z" fill="#FF81B5"/>
<path d="M139.187 500.936C139.228 500.888 139.321 500.8 139.394 500.739C139.467 500.678 139.593 500.579 139.673 500.52C139.753 500.461 139.919 500.346 140.044 500.265C140.168 500.182 140.361 500.063 140.476 499.998C140.589 499.933 140.746 499.845 140.824 499.803C140.898 499.763 141.058 499.683 141.182 499.62L141.195 499.614C141.323 499.552 141.519 499.458 141.634 499.407C141.747 499.356 141.956 499.265 142.095 499.205C142.235 499.146 142.505 499.037 142.694 498.962C142.883 498.887 143.867 498.514 144.88 498.131C145.893 497.748 146.99 497.335 147.318 497.213C147.645 497.09 147.944 496.984 147.98 496.975C148.018 496.967 148.09 496.963 148.141 496.967C148.191 496.972 148.261 496.985 148.296 496.998C148.331 497.012 148.388 497.04 148.422 497.061C148.457 497.083 148.505 497.127 148.529 497.159C148.553 497.191 148.643 497.36 148.726 497.535C148.81 497.71 148.938 497.981 149.01 498.137C149.082 498.292 149.204 498.569 149.282 498.751C149.359 498.933 149.49 499.243 149.57 499.441C149.65 499.638 149.786 499.984 149.87 500.209C149.956 500.432 150.094 500.812 150.178 501.051C150.263 501.29 150.382 501.639 150.446 501.829C150.509 502.018 150.619 502.361 150.692 502.591C150.763 502.822 150.867 503.162 150.922 503.348C150.979 503.533 151.077 503.872 151.142 504.099C151.205 504.327 151.377 504.953 151.522 505.493L151.526 505.509C151.67 506.042 151.809 506.56 151.835 506.666C151.863 506.773 151.902 506.954 151.925 507.069C151.947 507.183 151.973 507.369 151.983 507.48C151.994 507.59 151.999 507.747 151.996 507.829C151.993 507.911 151.981 508.037 151.97 508.108C151.959 508.18 151.93 508.303 151.904 508.38C151.879 508.457 151.831 508.574 151.798 508.637C151.766 508.701 151.711 508.792 151.676 508.841C151.642 508.889 151.576 508.972 151.53 509.026C151.469 509.099 151.396 509.165 151.25 509.283C151.104 509.401 151.011 509.467 150.89 509.54C150.8 509.594 150.642 509.678 150.538 509.729C150.433 509.779 150.256 509.857 150.144 509.903C150.032 509.948 149.854 510.015 149.75 510.05C149.647 510.086 149.447 510.147 149.307 510.185C149.167 510.224 148.95 510.275 148.827 510.298C148.703 510.321 148.509 510.351 148.399 510.363C148.289 510.374 148.115 510.388 148.013 510.391C147.912 510.393 147.765 510.391 147.689 510.385C147.612 510.379 147.483 510.364 147.402 510.351C147.322 510.337 147.188 510.308 147.105 510.283C147.022 510.259 146.894 510.21 146.82 510.175C146.746 510.138 146.638 510.077 146.581 510.038C146.525 509.998 146.44 509.931 146.394 509.886C146.34 509.836 146.266 509.748 146.192 509.641C146.115 509.531 146.059 509.433 146.025 509.354C145.998 509.287 145.959 509.176 145.94 509.107C145.921 509.039 145.894 508.916 145.88 508.834C145.866 508.752 145.854 508.629 145.852 508.56C145.85 508.491 145.853 508.374 145.86 508.298C145.867 508.223 145.893 508.076 145.92 507.973C145.948 507.857 145.998 507.713 146.051 507.597C146.098 507.495 146.171 507.352 146.216 507.281C146.261 507.21 146.356 507.076 146.426 506.984C146.497 506.893 146.608 506.763 146.672 506.695C146.736 506.628 146.833 506.53 146.891 506.475C146.957 506.411 147.131 506.27 147.382 506.078C147.677 505.853 147.818 505.752 147.965 505.659C148.073 505.592 148.267 505.477 148.396 505.404C148.525 505.331 148.734 505.217 148.86 505.153C148.985 505.088 149.196 504.984 149.328 504.921C149.461 504.858 149.607 504.792 149.653 504.773C149.698 504.755 149.767 504.734 149.876 504.714L149.746 504.267C149.676 504.023 149.574 503.685 149.523 503.518C149.471 503.351 149.378 503.053 149.314 502.855C149.25 502.658 149.15 502.358 149.092 502.187C149.034 502.016 148.924 501.704 148.848 501.49C148.747 501.207 148.706 501.107 148.69 501.113C148.681 501.116 148.405 501.241 148.067 501.395L148.008 501.422C147.643 501.588 147.107 501.828 146.818 501.957C146.529 502.086 146.074 502.286 145.807 502.401C145.54 502.518 145.016 502.744 144.641 502.903C144.266 503.063 143.606 503.34 143.174 503.519C142.742 503.697 142.094 503.962 141.735 504.106C141.376 504.249 141.012 504.395 140.928 504.427C140.844 504.46 140.774 504.494 140.772 504.502C140.772 504.509 140.814 504.654 140.866 504.824C140.921 504.994 141.008 505.261 141.062 505.417C141.117 505.574 141.305 506.079 141.483 506.54C141.66 507.002 142.271 508.579 142.839 510.046C143.406 511.514 143.877 512.741 143.885 512.775C143.893 512.808 143.9 512.864 143.902 512.898C143.903 512.932 143.891 513.007 143.876 513.063C143.86 513.12 143.827 513.199 143.804 513.239C143.78 513.28 143.734 513.343 143.703 513.379C143.67 513.417 143.589 513.488 143.518 513.54C143.449 513.593 143.288 513.704 143.16 513.787C143.033 513.87 142.802 514.014 142.646 514.107C142.489 514.201 142.235 514.346 142.079 514.431C141.922 514.516 141.679 514.64 141.54 514.708C141.4 514.775 141.176 514.878 141.04 514.938C140.904 514.997 140.701 515.081 140.586 515.124C140.472 515.167 140.296 515.23 140.196 515.263C140.096 515.297 139.902 515.354 139.766 515.39C139.63 515.427 139.439 515.471 139.34 515.49C139.241 515.509 139.089 515.533 139.001 515.543C138.912 515.554 138.754 515.566 138.65 515.571C138.545 515.575 138.383 515.572 138.289 515.563C138.195 515.554 138.053 515.535 137.973 515.52C137.892 515.505 137.753 515.463 137.661 515.428C137.568 515.394 137.446 515.337 137.387 515.302C137.327 515.268 137.226 515.199 137.163 515.147C137.062 515.068 137.022 515.025 136.895 514.857C136.788 514.718 136.728 514.627 136.69 514.543C136.659 514.479 136.613 514.37 136.588 514.301C136.563 514.233 136.527 514.113 136.506 514.037C136.486 513.96 136.46 513.833 136.449 513.753C136.436 513.675 136.426 513.539 136.425 513.452C136.423 513.365 136.427 513.241 136.434 513.174C136.439 513.108 136.46 512.985 136.478 512.902C136.496 512.819 136.53 512.695 136.555 512.626C136.58 512.557 136.618 512.457 136.643 512.403C136.667 512.35 136.716 512.255 136.749 512.192C136.784 512.131 136.862 512.01 136.922 511.924C136.981 511.839 137.09 511.701 137.164 511.618C137.237 511.534 137.347 511.416 137.409 511.354C137.474 511.29 137.645 511.145 137.806 511.016C137.982 510.877 138.159 510.745 138.268 510.672C138.365 510.607 138.532 510.503 138.637 510.44C138.742 510.377 138.907 510.283 139.004 510.231C139.101 510.179 139.293 510.08 139.433 510.013C139.572 509.945 139.785 509.845 139.909 509.791C140.031 509.738 140.204 509.665 140.292 509.629C140.38 509.594 140.561 509.522 140.697 509.47C140.833 509.419 140.944 509.374 140.943 509.371C140.943 509.368 140.886 509.226 140.817 509.056C140.748 508.885 140.64 508.623 140.579 508.471C140.519 508.319 140.409 508.044 140.338 507.857C140.266 507.671 140.147 507.352 140.074 507.149C140 506.947 139.892 506.637 139.834 506.463C139.775 506.287 139.681 505.991 139.623 505.801C139.564 505.613 139.48 505.319 139.433 505.148C139.387 504.977 139.308 504.664 139.257 504.452C139.208 504.24 139.139 503.919 139.104 503.739C139.071 503.558 139.024 503.313 139.004 503.193C138.982 503.074 138.937 502.844 138.906 502.685L138.906 502.684C138.873 502.524 138.838 502.307 138.828 502.201C138.817 502.095 138.81 501.947 138.813 501.87C138.815 501.793 138.837 501.655 138.859 501.562C138.881 501.469 138.922 501.35 138.946 501.296C138.971 501.243 139.018 501.159 139.052 501.111C139.086 501.061 139.146 500.983 139.187 500.936Z" fill="#FF3400"/>
</svg>
