<svg width="127" height="18" viewBox="0 0 127 18" xmlns="http://www.w3.org/2000/svg">
<path d="M11.4664 18C3.53043 17.7509 -0.458567 9.19836 0.696142 2.22348C1.2735 0.604315 3.79286 1.362 3.37297 3.01231C3.05805 7.79716 4.63265 13.5577 9.88133 14.9589C15.6864 16.2459 21.4074 11.2016 23.4229 6.13648C23.9898 4.79755 24.5461 3.44824 24.8401 2.03666C24.7666 1.08176 25.5749 0.158005 26.5826 0.37597C28.5141 0.427867 26.9185 6.68658 30.5506 10.8279C33.4164 15.291 39.5469 12.9245 42.8115 10.1429C44.5541 8.44068 45.9187 6.38558 46.895 4.17479C47.4199 3.15762 47.4934 1.81869 48.4276 1.07138C51.4404 -0.402477 51.5453 6.38558 53.1199 8.01513C56.3321 14.907 63.6593 13.0595 67.5958 7.92171C69.5063 5.75244 70.2516 2.92927 71.5533 0.500521C76.1301 -2.3434 71.7002 12.8934 83.2159 14.388C91.0469 14.8966 95.7917 6.63468 98.7729 0.593935C99.2663 -0.142994 100.411 -0.20527 100.988 0.469384C101.702 1.81869 101.271 3.56241 101.859 5.02589C104.2 15.9241 118.613 14.9692 122.528 5.79396C123.589 4.38238 123.032 1.01949 125.384 1.18555C126.119 1.34124 126.643 2.09893 126.465 2.83586C124.187 17.1385 103.276 21.4563 99.1928 5.90813C96.495 10.2259 93.1778 14.5229 88.2756 16.4742C80.9379 19.4842 73.2958 13.6511 71.9102 6.43747C66.0002 17.398 53.4663 19.2559 49.1309 6.01192C44.5226 16.495 29.8473 21.3214 25.8058 7.68299C23.4439 13.2567 17.6809 17.917 11.4664 18Z" />
</svg>
