<svg width="279" height="435" viewBox="0 0 279 435" fill="none" xmlns="http://www.w3.org/2000/svg">
<path d="M0.0141338 2.8055C-0.0596329 1.84572 0.161667 0.812118 0.530501 0.590631C0.899335 0.295316 1.56324 0.0738289 2.15337 0.0738289C2.66974 0.0738289 4.07131 0.812118 7.53834 3.39613L9.75135 1.69807C10.9316 0.812118 12.5545 0.0738289 13.2184 0.0738289C13.9561 0 15.4314 0.66446 16.5379 1.55041C17.7182 2.36253 18.7509 3.02699 18.9722 3.02699C19.1935 3.02699 20.2262 2.36253 21.3327 1.55041C22.513 0.66446 23.9883 0 24.6522 0.0738289C25.3899 0.0738289 26.939 0.812118 30.406 3.39613L32.619 1.69807C33.7993 0.812118 35.4222 0.0738289 36.0861 0.0738289C36.8237 0 38.2991 0.66446 39.4056 1.55041C40.5858 2.36253 41.6923 3.02699 41.9874 3.02699C42.3563 3.02699 43.389 2.36253 44.4217 1.55041C45.4545 0.738289 46.856 0.0738289 47.5199 0.0738289C48.2576 0.0738289 49.7329 0.738289 50.8394 1.55041C52.0197 2.43635 53.2737 3.10081 53.6426 3.10081C54.0114 3.10081 55.0441 2.36253 55.8556 1.55041C56.667 0.738289 58.1423 0 59.1751 0C60.2078 0 61.6831 0.738289 62.4946 1.55041C63.306 2.36253 64.3387 3.10081 64.7076 3.10081C65.0764 3.10081 66.3304 2.43635 67.437 1.55041C68.6172 0.738289 70.0926 0.0738289 70.7565 0.0738289C71.4941 0 72.6006 0.516802 73.1908 1.18126C73.7809 1.84572 74.8874 2.51018 75.5513 2.73167C76.289 2.87933 77.7643 2.36253 78.8708 1.55041C80.0511 0.66446 81.6002 0 82.4116 0C83.223 0 84.5508 0.738289 85.3623 1.55041C86.1737 2.36253 87.2064 3.10081 87.5753 3.10081C87.9441 3.10081 89.1981 2.43635 90.3046 1.55041C91.4849 0.738289 92.9602 0.0738289 93.6241 0.0738289C94.3618 0 95.8372 0.66446 96.9436 1.55041C98.1239 2.36253 99.1567 3.02699 99.378 3.02699C99.5993 3.02699 100.632 2.36253 101.738 1.55041C102.919 0.66446 104.394 0 105.058 0.0738289C105.796 0.0738289 107.345 0.812118 110.812 3.39613L113.025 1.69807C114.279 0.812118 115.828 0.0738289 116.492 0.0738289C117.23 0 118.705 0.66446 119.811 1.55041C120.992 2.36253 122.024 3.02699 122.246 3.02699C122.467 3.02699 123.5 2.36253 124.606 1.55041C125.786 0.66446 127.262 0 127.926 0.0738289C128.663 0.0738289 130.212 0.812118 133.68 3.39613L135.893 1.69807C137.147 0.812118 138.696 0.0738289 139.36 0.0738289C140.097 0 141.573 0.66446 142.679 1.55041C143.859 2.36253 145.335 2.87933 145.999 2.73167C146.736 2.51018 147.843 1.84572 148.433 1.18126C149.023 0.516802 150.129 0 150.793 0.0738289C151.531 0.0738289 153.006 0.738289 154.113 1.55041C155.293 2.43635 156.473 3.10081 156.916 3.10081C157.359 3.10081 158.318 2.36253 159.129 1.55041C159.94 0.738289 161.416 0 162.449 0C163.481 0 164.957 0.738289 165.768 1.55041C166.579 2.36253 167.538 3.10081 167.981 3.10081C168.424 3.10081 169.604 2.43635 170.71 1.55041C171.891 0.738289 173.366 0.0738289 174.03 0.0738289C174.768 0 175.874 0.516802 176.464 1.18126C177.054 1.84572 178.161 2.51018 178.825 2.73167C179.562 2.87933 181.038 2.36253 182.144 1.55041C183.325 0.66446 184.8 0 185.464 0.0738289C186.201 0.0738289 187.751 0.812118 191.218 3.39613L193.431 1.69807C194.611 0.812118 196.234 0.0738289 196.898 0.0738289C197.635 0 199.111 0.66446 200.217 1.55041C201.397 2.36253 202.43 3.02699 202.651 3.02699C202.873 3.02699 203.905 2.36253 205.012 1.55041C206.192 0.66446 207.668 0 208.331 0.0738289C209.069 0.0738289 210.692 0.812118 214.085 3.39613L216.298 1.69807C217.479 0.812118 219.101 0.0738289 219.765 0.0738289C220.503 0 221.978 0.66446 223.085 1.55041C224.265 2.36253 225.372 3.02699 225.667 3.02699C226.035 3.02699 227.068 2.36253 228.101 1.55041C229.134 0.738289 230.535 0.0738289 231.199 0.0738289C231.937 0.0738289 233.412 0.738289 234.519 1.55041C235.699 2.43635 236.879 3.10081 237.322 3.10081C237.764 3.10081 238.723 2.36253 239.535 1.55041C240.346 0.738289 241.822 0 242.854 0C243.887 0 245.362 0.738289 246.174 1.55041C246.985 2.36253 247.944 3.10081 248.387 3.10081C248.829 3.10081 250.01 2.43635 251.116 1.55041C252.296 0.738289 253.772 0.0738289 254.436 0.0738289C255.173 0 256.28 0.516802 256.87 1.18126C257.46 1.84572 258.567 2.51018 259.23 2.73167C259.968 2.87933 261.444 2.36253 262.55 1.55041C263.73 0.66446 265.206 0 265.87 0.0738289C266.607 0.0738289 268.156 0.812118 271.623 3.39613L273.836 1.69807C275.017 0.812118 276.639 0.147658 277.377 0.295316C278.189 0.369145 278.705 1.18126 278.852 2.51018C278.926 3.61762 278.484 5.46334 277.893 6.71843C277.303 7.89969 276.787 9.81925 276.787 10.9267C276.787 12.1079 277.377 14.4705 278.041 16.3162C279.221 19.417 279.221 19.86 278.041 22.9608C277.377 24.8065 276.787 27.2429 276.787 28.498C276.787 29.6792 277.377 32.2632 278.115 34.2566C279.295 37.5789 279.295 37.8742 278.115 41.2704C277.377 43.1899 276.787 45.7001 276.787 46.9552C276.787 48.1365 277.377 50.6466 278.041 52.4924C279.221 55.5932 279.221 56.0361 278.041 59.137C277.377 60.9827 276.787 63.419 276.787 64.6741C276.787 65.8554 277.377 68.3656 278.041 70.2113C279.221 73.3121 279.221 73.7551 278.041 76.8559C277.377 78.7016 276.787 81.138 276.787 82.3931C276.787 83.5743 277.377 86.1583 278.115 88.0779C279.295 91.474 279.295 91.7693 278.115 95.0917C277.377 97.085 276.787 99.5952 276.787 100.85C276.787 102.032 277.377 104.542 278.041 106.387C279.221 109.488 279.221 109.931 278.041 113.032C277.377 114.878 276.787 117.314 276.787 118.569C276.787 119.751 277.377 122.261 278.041 124.106C279.221 127.207 279.221 127.65 278.041 130.751C277.377 132.597 276.787 135.033 276.787 136.288C276.787 137.469 277.377 140.053 278.115 141.973C279.295 145.369 279.295 145.664 278.115 148.987C277.377 150.98 276.787 153.49 276.787 154.745C276.787 155.927 277.377 158.437 278.041 160.283C279.221 163.383 279.148 163.826 277.967 167.296C277.156 169.511 276.787 172.021 277.008 173.572C277.23 174.975 277.82 177.559 278.41 179.257C279.221 181.988 279.221 182.653 278.115 184.941C277.377 186.418 276.787 188.854 276.787 190.331C276.787 191.881 277.23 194.17 277.893 195.351C278.484 196.533 279 198.304 279 199.19C279 200.15 278.484 202.144 277.893 203.62C277.23 205.171 276.787 207.459 276.787 208.641C276.787 209.822 277.377 212.332 278.041 214.178C279.221 217.279 279.148 217.721 277.967 221.191C277.156 223.406 276.787 225.916 277.008 227.467C277.23 228.87 277.82 231.454 278.41 233.152C279.221 235.883 279.221 236.548 278.115 238.837C277.377 240.313 276.787 242.823 276.787 244.448C276.787 246.072 277.377 248.582 278.115 250.059C279.221 252.347 279.221 253.012 278.41 255.743C277.82 257.441 277.23 260.025 277.008 261.428C276.787 262.979 277.156 265.489 277.967 267.704C279.221 271.247 279.221 271.543 277.893 275.087C277.156 277.301 276.787 279.812 277.008 281.362C277.23 282.765 277.82 285.349 278.41 287.047C279.221 289.779 279.221 290.443 278.115 292.732C277.377 294.208 276.787 296.718 276.787 298.343C276.787 299.967 277.377 302.477 278.115 303.954C279.221 306.242 279.221 306.907 278.41 309.638C277.82 311.337 277.23 313.921 277.008 315.323C276.787 316.874 277.156 319.384 277.967 321.599C279.148 325.069 279.221 325.512 278.041 328.613C277.377 330.458 276.787 332.968 276.787 334.15C276.787 335.331 277.377 337.915 278.115 339.835C279.295 343.231 279.295 343.526 278.115 346.848C277.377 348.842 276.787 351.426 276.787 352.607C276.787 353.788 277.377 356.298 278.041 358.144C279.221 361.245 279.221 361.688 278.041 364.789C277.377 366.634 276.787 369.145 276.787 370.326C276.787 371.507 277.377 374.017 278.041 375.863C279.221 378.964 279.221 379.407 278.041 382.508C277.377 384.353 276.787 386.864 276.787 388.045C276.787 389.226 277.377 391.81 278.115 393.73C279.295 397.052 279.295 397.421 277.967 401.112C277.156 403.475 276.787 406.059 277.008 407.609C277.23 409.012 277.82 411.522 278.336 413.147C279.074 415.731 279 416.469 277.598 419.57C276.123 422.966 276.123 423.261 277.23 426.214C277.893 427.986 278.484 430.57 278.557 431.973C278.631 433.893 278.336 434.557 277.377 434.705C276.639 434.852 275.09 434.188 271.623 431.604L269.41 433.228C268.23 434.188 266.607 434.926 265.943 434.926C265.206 435 263.73 434.336 262.624 433.45C261.444 432.637 259.968 432.121 259.304 432.268C258.567 432.49 257.46 433.154 256.87 433.819C256.28 434.483 255.173 435 254.509 434.926C253.772 434.926 252.296 434.262 251.19 433.45C250.01 432.564 248.829 431.899 248.387 431.899C247.944 431.899 246.985 432.637 246.174 433.45C245.362 434.262 243.887 435 242.854 435C241.822 435 240.346 434.262 239.535 433.45C238.723 432.637 237.764 431.899 237.322 431.899C236.879 431.899 235.699 432.564 234.592 433.45C233.412 434.262 231.937 434.926 231.273 434.926C230.535 435 229.429 434.483 228.839 433.819C228.248 433.154 227.142 432.49 226.478 432.268C225.74 432.121 224.265 432.637 223.159 433.45C221.978 434.336 220.503 435 219.839 434.926C219.101 434.926 217.479 434.188 214.085 431.604L211.872 433.228C210.692 434.188 209.069 434.926 208.405 434.926C207.668 435 206.192 434.336 205.086 433.45C203.905 432.637 202.873 431.973 202.651 431.973C202.43 431.973 201.397 432.637 200.291 433.45C199.111 434.336 197.635 435 196.971 434.926C196.234 434.926 194.611 434.188 191.218 431.604L189.005 433.228C187.751 434.188 186.201 434.926 185.538 434.926C184.8 435 183.325 434.336 182.218 433.45C181.038 432.637 180.005 431.973 179.784 431.973C179.562 431.973 178.53 432.637 177.423 433.45C176.243 434.336 174.768 435 174.104 434.926C173.366 434.926 171.891 434.262 170.784 433.45C169.604 432.564 168.424 431.899 167.981 431.899C167.538 431.899 166.579 432.637 165.768 433.45C164.957 434.262 163.481 435 162.449 435C161.416 435 159.94 434.262 159.129 433.45C158.318 432.637 157.359 431.899 156.916 431.899C156.473 431.899 155.293 432.564 154.187 433.45C153.006 434.262 151.605 434.926 151.015 434.926C150.425 434.926 149.023 434.262 147.916 433.45C146.736 432.564 145.556 431.899 145.113 431.899C144.671 431.899 143.712 432.637 142.9 433.45C142.089 434.262 140.614 435 139.581 435C138.548 435 137.073 434.262 136.261 433.45C135.45 432.637 134.491 431.899 134.048 431.899C133.606 431.899 132.425 432.564 131.319 433.45C130.139 434.262 128.663 434.926 127.999 434.926C127.262 434.926 125.86 434.262 124.827 433.45C123.795 432.637 122.762 431.973 122.467 431.973C122.098 431.973 120.992 432.637 119.885 433.45C118.705 434.336 117.23 435 116.566 434.926C115.828 434.926 114.279 434.188 110.812 431.604L108.599 433.228C107.345 434.188 105.796 434.926 105.132 434.926C104.394 435 102.919 434.336 101.812 433.45C100.632 432.637 99.5993 431.973 99.378 431.973C99.1567 431.973 98.1239 432.637 97.0174 433.45C95.8372 434.336 94.3618 435 93.6979 434.926C92.9602 434.926 91.4111 434.188 87.9441 431.604L85.7311 433.228C84.4771 434.188 82.928 434.926 82.2641 434.926C81.5264 435 80.0511 434.336 78.9446 433.45C77.7643 432.637 76.289 432.121 75.6251 432.268C74.8874 432.49 73.7809 433.154 73.1908 433.819C72.6006 434.483 71.4941 435 70.8302 434.926C70.0926 434.926 68.6172 434.262 67.5107 433.45C66.3304 432.564 65.0764 431.899 64.7076 431.899C64.3387 431.899 63.306 432.637 62.4946 433.45C61.6831 434.262 60.2078 435 59.1751 435C58.1423 435 56.667 434.262 55.8556 433.45C55.0441 432.637 54.0114 431.899 53.6426 431.899C53.2737 431.899 52.0197 432.564 50.9132 433.45C49.7329 434.262 48.2576 434.926 47.5937 434.926C46.856 435 45.7495 434.483 45.1594 433.819C44.5693 433.154 43.4628 432.49 42.7989 432.268C42.0612 432.121 40.5858 432.637 39.4793 433.45C38.2991 434.336 36.8237 435 36.1598 434.926C35.4222 434.926 33.7993 434.188 30.406 431.604L28.193 433.228C26.939 434.188 25.3899 434.926 24.726 434.926C23.9883 435 22.513 434.336 21.4065 433.45C20.2262 432.637 19.1935 431.973 18.9722 431.973C18.7509 431.973 17.7182 432.637 16.6117 433.45C15.4314 434.336 13.956 435 13.2921 434.926C12.5545 434.926 10.9316 434.188 7.53834 431.604L5.32534 433.228C4.07131 434.188 2.5222 434.852 1.78454 434.705C1.04687 434.631 0.456734 433.745 0.309201 432.711C0.161667 431.678 0.604268 429.684 1.26817 428.282C2.00584 426.731 2.37467 424.664 2.15337 423.113C2.00584 421.711 1.34194 419.422 0.825568 418.167C-0.059633 416.1 -0.059633 415.214 0.751801 412.63C1.34194 410.858 1.93207 408.274 2.15337 406.871C2.37467 405.247 2.0796 403.401 1.34194 401.851C0.678035 400.596 0.161667 398.455 0.161667 397.273C0.161667 396.092 0.678035 393.951 1.34194 392.622C2.0796 391.146 2.37467 389.3 2.15337 387.676C1.93207 386.273 1.34194 383.689 0.751801 381.917C-0.059633 379.259 -0.059633 378.447 0.825568 376.38C1.4157 375.125 1.93207 372.319 1.93207 370.326C1.93207 368.259 1.4157 365.527 0.825568 364.272C-0.059633 362.205 -0.059633 361.393 0.825568 358.735C1.4157 356.963 1.8583 354.083 1.8583 352.238C1.8583 350.392 1.4157 347.513 0.825568 345.741C-0.059633 343.083 -0.059633 342.271 0.825568 340.204C1.4157 338.949 1.93207 336.365 1.8583 334.519C1.8583 332.673 1.4157 329.794 0.825568 328.022C-0.059633 325.364 -0.059633 324.552 0.825568 322.485C1.4157 321.23 1.93207 318.424 1.93207 316.431C1.93207 314.364 1.4157 311.632 0.825568 310.377C-0.059633 308.31 -0.059633 307.497 0.825568 304.84C1.4157 303.068 1.8583 300.188 1.8583 298.343C1.8583 296.497 1.4157 293.618 0.825568 291.846C-0.059633 289.188 -0.059633 288.376 0.825568 286.309C1.4157 285.053 1.93207 282.469 1.8583 280.624C1.8583 278.778 1.4157 275.899 0.825568 274.127C-0.059633 271.469 -0.059633 270.657 0.825568 268.59C1.4157 267.335 1.93207 264.529 1.93207 262.536C1.93207 260.468 1.4157 257.737 0.825568 256.482C-0.059633 254.414 -0.059633 253.602 0.825568 250.944C1.4157 249.173 1.8583 246.293 1.8583 244.448C1.8583 242.602 1.4157 239.722 0.825568 237.951C-0.059633 235.293 -0.059633 234.481 0.825568 232.413C1.4157 231.158 1.93207 228.574 1.8583 226.729C1.8583 224.883 1.4157 222.004 0.825568 220.305C-0.1334 217.5 -0.059633 216.762 1.1944 213.292C1.93207 211.077 2.37467 208.419 2.22714 207.164C2.00584 205.983 1.34194 203.842 0.825568 202.587C-0.059633 200.519 -0.059633 199.707 0.825568 197.049C1.4157 195.277 1.8583 192.398 1.8583 190.552C1.8583 188.707 1.4157 185.827 0.825568 184.055C-0.059633 181.398 -0.059633 180.586 0.825568 178.518C1.34194 177.263 2.00584 174.975 2.15337 173.572C2.37467 172.095 2.00584 169.733 1.34194 168.035C0.678035 166.41 0.161667 164.417 0.161667 163.605C0.161667 162.793 0.678035 160.799 1.34194 159.175C2.00584 157.477 2.37467 155.115 2.15337 153.638C2.00584 152.235 1.34194 149.947 0.825568 148.691C-0.059633 146.624 -0.059633 145.812 0.825568 143.154C1.4157 141.382 1.8583 138.503 1.8583 136.657C1.8583 134.812 1.4157 131.932 0.825568 130.16C-0.059633 127.503 -0.059633 126.69 0.825568 124.623C1.4157 123.368 1.93207 120.563 1.93207 118.569C1.93207 116.502 1.4157 113.77 0.825568 112.515C-0.059633 110.448 -0.059633 109.636 0.825568 106.978C1.4157 105.206 1.8583 102.327 1.8583 100.481C1.93207 98.6354 1.4157 96.0514 0.825568 94.7963C-0.059633 92.7291 -0.059633 91.917 0.825568 89.2592C1.4157 87.4873 1.8583 84.6079 1.8583 82.7622C1.8583 80.9165 1.4157 78.0372 0.825568 76.2653C-0.059633 73.6074 -0.059633 72.7953 0.825568 70.7281C1.4157 69.473 1.93207 66.6675 1.93207 64.6741C1.93207 62.6069 1.4157 59.8753 0.825568 58.6202C-0.059633 56.553 -0.059633 55.7408 0.825568 53.083C1.4157 51.3111 1.8583 48.4318 1.8583 46.586C1.93207 44.7403 1.4157 42.1563 0.825568 40.9012C-0.059633 38.834 -0.059633 38.0219 0.825568 35.3641C1.4157 33.5922 1.8583 30.7128 1.8583 28.8671C1.8583 27.0214 1.4157 24.1421 0.825568 22.3702C-0.059633 19.7123 -0.059633 18.9002 0.825568 16.833C1.34194 15.5779 2.00584 13.2892 2.15337 11.8865C2.37467 10.336 2.0796 8.34267 1.34194 6.86609C0.678035 5.611 0.0879006 3.76527 0.0141338 2.8055Z" fill="#2111DD"/>
</svg>
