<?xml version="1.0" encoding="UTF-8" standalone="no"?>
<!-- Created with Inkscape (http://www.inkscape.org/) -->

<svg
   width="73.818748mm"
   height="1.7838705mm"
   viewBox="0 0 73.818748 1.7838705"
   version="1.1"
   id="svg1"
   xmlns="http://www.w3.org/2000/svg"
   xmlns:svg="http://www.w3.org/2000/svg">
  <defs
     id="defs1">
    <clipPath
       clipPathUnits="userSpaceOnUse"
       id="clipPath7">
      <rect
         style="fill:#ffff00;stroke-width:1.74391"
         id="rect7"
         width="279.18204"
         height="6.7464566"
         x="-0.140625"
         y="428.25781" />
    </clipPath>
  </defs>
  <g
     id="layer1"
     transform="translate(-158.48542,-190.23542)">
    <path
       d="M 0.0141338,2.8055 C -0.0596329,1.84572 0.161667,0.812118 0.530501,0.590631 0.899335,0.295316 1.56324,0.0738289 2.15337,0.0738289 c 0.51637,0 1.91794,0.7382891 5.38497,3.3223011 L 9.75135,1.69807 C 10.9316,0.812118 12.5545,0.0738289 13.2184,0.0738289 13.9561,0 15.4314,0.66446 16.5379,1.55041 c 1.1803,0.81212 2.213,1.47658 2.4343,1.47658 0.2213,0 1.254,-0.66446 2.3605,-1.47658 C 22.513,0.66446 23.9883,0 24.6522,0.0738289 c 0.7377,0 2.2868,0.7382891 5.7538,3.3223011 L 32.619,1.69807 C 33.7993,0.812118 35.4222,0.0738289 36.0861,0.0738289 36.8237,0 38.2991,0.66446 39.4056,1.55041 c 1.1802,0.81212 2.2867,1.47658 2.5818,1.47658 0.3689,0 1.4016,-0.66446 2.4343,-1.47658 1.0328,-0.812121 2.4343,-1.4765811 3.0982,-1.4765811 0.7377,0 2.213,0.6644601 3.3195,1.4765811 1.1803,0.88594 2.4343,1.5504 2.8032,1.5504 0.3688,0 1.4015,-0.73828 2.213,-1.5504 C 56.667,0.738289 58.1423,0 59.1751,0 c 1.0327,0 2.508,0.738289 3.3195,1.55041 0.8114,0.81212 1.8441,1.5504 2.213,1.5504 0.3688,0 1.6228,-0.66446 2.7294,-1.5504 C 68.6172,0.738289 70.0926,0.0738289 70.7565,0.0738289 71.4941,0 72.6006,0.516802 73.1908,1.18126 73.7809,1.84572 74.8874,2.51018 75.5513,2.73167 76.289,2.87933 77.7643,2.36253 78.8708,1.55041 80.0511,0.66446 81.6002,0 82.4116,0 c 0.8114,0 2.1392,0.738289 2.9507,1.55041 0.8114,0.81212 1.8441,1.5504 2.213,1.5504 0.3688,0 1.6228,-0.66446 2.7293,-1.5504 C 91.4849,0.738289 92.9602,0.0738289 93.6241,0.0738289 94.3618,0 95.8372,0.66446 96.9436,1.55041 c 1.1803,0.81212 2.2131,1.47658 2.4344,1.47658 0.2213,0 1.254,-0.66446 2.36,-1.47658 1.181,-0.88595 2.656,-1.55041 3.32,-1.4765811 0.738,0 2.287,0.7382891 5.754,3.3223011 l 2.213,-1.69806 c 1.254,-0.885952 2.803,-1.6242411 3.467,-1.6242411 C 117.23,0 118.705,0.66446 119.811,1.55041 c 1.181,0.81212 2.213,1.47658 2.435,1.47658 0.221,0 1.254,-0.66446 2.36,-1.47658 1.18,-0.88595 2.656,-1.55041 3.32,-1.4765811 0.737,0 2.286,0.7382891 5.754,3.3223011 l 2.213,-1.69806 C 137.147,0.812118 138.696,0.0738289 139.36,0.0738289 140.097,0 141.573,0.66446 142.679,1.55041 c 1.18,0.81212 2.656,1.32892 3.32,1.18126 0.737,-0.22149 1.844,-0.88595 2.434,-1.55041 0.59,-0.664458 1.696,-1.18126 2.36,-1.1074311 0.738,0 2.213,0.6644601 3.32,1.4765811 1.18,0.88594 2.36,1.5504 2.803,1.5504 0.443,0 1.402,-0.73828 2.213,-1.5504 C 159.94,0.738289 161.416,0 162.449,0 c 1.032,0 2.508,0.738289 3.319,1.55041 0.811,0.81212 1.77,1.5504 2.213,1.5504 0.443,0 1.623,-0.66446 2.729,-1.5504 1.181,-0.812121 2.656,-1.4765811 3.32,-1.4765811 C 174.768,0 175.874,0.516802 176.464,1.18126 c 0.59,0.66446 1.697,1.32892 2.361,1.55041 0.737,0.14766 2.213,-0.36914 3.319,-1.18126 1.181,-0.88595 2.656,-1.55041 3.32,-1.4765811 0.737,0 2.287,0.7382891 5.754,3.3223011 l 2.213,-1.69806 c 1.18,-0.885952 2.803,-1.6242411 3.467,-1.6242411 C 197.635,0 199.111,0.66446 200.217,1.55041 c 1.18,0.81212 2.213,1.47658 2.434,1.47658 0.222,0 1.254,-0.66446 2.361,-1.47658 1.18,-0.88595 2.656,-1.55041 3.319,-1.4765811 0.738,0 2.361,0.7382891 5.754,3.3223011 l 2.213,-1.69806 c 1.181,-0.885952 2.803,-1.6242411 3.467,-1.6242411 C 220.503,0 221.978,0.66446 223.085,1.55041 c 1.18,0.81212 2.287,1.47658 2.582,1.47658 0.368,0 1.401,-0.66446 2.434,-1.47658 1.033,-0.812121 2.434,-1.4765811 3.098,-1.4765811 0.738,0 2.213,0.6644601 3.32,1.4765811 1.18,0.88594 2.36,1.5504 2.803,1.5504 0.442,0 1.401,-0.73828 2.213,-1.5504 C 240.346,0.738289 241.822,0 242.854,0 c 1.033,0 2.508,0.738289 3.32,1.55041 0.811,0.81212 1.77,1.5504 2.213,1.5504 0.442,0 1.623,-0.66446 2.729,-1.5504 1.18,-0.812121 2.656,-1.4765811 3.32,-1.4765811 C 255.173,0 256.28,0.516802 256.87,1.18126 c 0.59,0.66446 1.697,1.32892 2.36,1.55041 0.738,0.14766 2.214,-0.36914 3.32,-1.18126 1.18,-0.88595 2.656,-1.55041 3.32,-1.4765811 0.737,0 2.286,0.7382891 5.753,3.3223011 l 2.213,-1.69806 c 1.181,-0.885952 2.803,-1.550412 3.541,-1.402754 0.812,0.073829 1.328,0.885944 1.475,2.214864 0.074,1.10744 -0.368,2.95316 -0.959,4.20825 -0.59,1.18126 -1.106,3.10082 -1.106,4.20827 0,1.1812 0.59,3.5438 1.254,5.3895 1.18,3.1008 1.18,3.5438 0,6.6446 -0.664,1.8457 -1.254,4.2821 -1.254,5.5372 0,1.1812 0.59,3.7652 1.328,5.7586 1.18,3.3223 1.18,3.6176 0,7.0138 -0.738,1.9195 -1.328,4.4297 -1.328,5.6848 0,1.1813 0.59,3.6914 1.254,5.5372 1.18,3.1008 1.18,3.5437 0,6.6446 -0.664,1.8457 -1.254,4.282 -1.254,5.5371 0,1.1813 0.59,3.6915 1.254,5.5372 1.18,3.1008 1.18,3.5438 0,6.6446 -0.664,1.8457 -1.254,4.2821 -1.254,5.5372 0,1.1812 0.59,3.7652 1.328,5.6848 1.18,3.3961 1.18,3.6914 0,7.0138 -0.738,1.9933 -1.328,4.5035 -1.328,5.7583 0,1.182 0.59,3.692 1.254,5.537 1.18,3.101 1.18,3.544 0,6.645 -0.664,1.846 -1.254,4.282 -1.254,5.537 0,1.182 0.59,3.692 1.254,5.537 1.18,3.101 1.18,3.544 0,6.645 -0.664,1.846 -1.254,4.282 -1.254,5.537 0,1.181 0.59,3.765 1.328,5.685 1.18,3.396 1.18,3.691 0,7.014 -0.738,1.993 -1.328,4.503 -1.328,5.758 0,1.182 0.59,3.692 1.254,5.538 1.18,3.1 1.107,3.543 -0.074,7.013 -0.811,2.215 -1.18,4.725 -0.959,6.276 0.222,1.403 0.812,3.987 1.402,5.685 0.811,2.731 0.811,3.396 -0.295,5.684 -0.738,1.477 -1.328,3.913 -1.328,5.39 0,1.55 0.443,3.839 1.106,5.02 0.591,1.182 1.107,2.953 1.107,3.839 0,0.96 -0.516,2.954 -1.107,4.43 -0.663,1.551 -1.106,3.839 -1.106,5.021 0,1.181 0.59,3.691 1.254,5.537 1.18,3.101 1.107,3.543 -0.074,7.013 -0.811,2.215 -1.18,4.725 -0.959,6.276 0.222,1.403 0.812,3.987 1.402,5.685 0.811,2.731 0.811,3.396 -0.295,5.685 -0.738,1.476 -1.328,3.986 -1.328,5.611 0,1.624 0.59,4.134 1.328,5.611 1.106,2.288 1.106,2.953 0.295,5.684 -0.59,1.698 -1.18,4.282 -1.402,5.685 -0.221,1.551 0.148,4.061 0.959,6.276 1.254,3.543 1.254,3.839 -0.074,7.383 -0.737,2.214 -1.106,4.725 -0.885,6.275 0.222,1.403 0.812,3.987 1.402,5.685 0.811,2.732 0.811,3.396 -0.295,5.685 -0.738,1.476 -1.328,3.986 -1.328,5.611 0,1.624 0.59,4.134 1.328,5.611 1.106,2.288 1.106,2.953 0.295,5.684 -0.59,1.699 -1.18,4.283 -1.402,5.685 -0.221,1.551 0.148,4.061 0.959,6.276 1.181,3.47 1.254,3.913 0.074,7.014 -0.664,1.845 -1.254,4.355 -1.254,5.537 0,1.181 0.59,3.765 1.328,5.685 1.18,3.396 1.18,3.691 0,7.013 -0.738,1.994 -1.328,4.578 -1.328,5.759 0,1.181 0.59,3.691 1.254,5.537 1.18,3.101 1.18,3.544 0,6.645 -0.664,1.845 -1.254,4.356 -1.254,5.537 0,1.181 0.59,3.691 1.254,5.537 1.18,3.101 1.18,3.544 0,6.645 -0.664,1.845 -1.254,4.356 -1.254,5.537 0,1.181 0.59,3.765 1.328,5.685 1.18,3.322 1.18,3.691 -0.148,7.382 -0.811,2.363 -1.18,4.947 -0.959,6.497 0.222,1.403 0.812,3.913 1.328,5.538 0.738,2.584 0.664,3.322 -0.738,6.423 -1.475,3.396 -1.475,3.691 -0.368,6.644 0.663,1.772 1.254,4.356 1.327,5.759 0.074,1.92 -0.221,2.584 -1.18,2.732 -0.738,0.147 -2.287,-0.517 -5.754,-3.101 l -2.213,1.624 c -1.18,0.96 -2.803,1.698 -3.467,1.698 -0.737,0.074 -2.213,-0.59 -3.319,-1.476 -1.18,-0.813 -2.656,-1.329 -3.32,-1.182 -0.737,0.222 -1.844,0.886 -2.434,1.551 -0.59,0.664 -1.697,1.181 -2.361,1.107 -0.737,0 -2.213,-0.664 -3.319,-1.476 -1.18,-0.886 -2.361,-1.551 -2.803,-1.551 -0.443,0 -1.402,0.738 -2.213,1.551 -0.812,0.812 -2.287,1.55 -3.32,1.55 -1.032,0 -2.508,-0.738 -3.319,-1.55 -0.812,-0.813 -1.771,-1.551 -2.213,-1.551 -0.443,0 -1.623,0.665 -2.73,1.551 -1.18,0.812 -2.655,1.476 -3.319,1.476 -0.738,0.074 -1.844,-0.443 -2.434,-1.107 -0.591,-0.665 -1.697,-1.329 -2.361,-1.551 -0.738,-0.147 -2.213,0.369 -3.319,1.182 -1.181,0.886 -2.656,1.55 -3.32,1.476 -0.738,0 -2.36,-0.738 -5.754,-3.322 l -2.213,1.624 c -1.18,0.96 -2.803,1.698 -3.467,1.698 -0.737,0.074 -2.213,-0.59 -3.319,-1.476 -1.181,-0.813 -2.213,-1.477 -2.435,-1.477 -0.221,0 -1.254,0.664 -2.36,1.477 -1.18,0.886 -2.656,1.55 -3.32,1.476 -0.737,0 -2.36,-0.738 -5.753,-3.322 l -2.213,1.624 c -1.254,0.96 -2.804,1.698 -3.467,1.698 -0.738,0.074 -2.213,-0.59 -3.32,-1.476 -1.18,-0.813 -2.213,-1.477 -2.434,-1.477 -0.222,0 -1.254,0.664 -2.361,1.477 -1.18,0.886 -2.655,1.55 -3.319,1.476 -0.738,0 -2.213,-0.664 -3.32,-1.476 -1.18,-0.886 -2.36,-1.551 -2.803,-1.551 -0.443,0 -1.402,0.738 -2.213,1.551 -0.811,0.812 -2.287,1.55 -3.319,1.55 -1.033,0 -2.509,-0.738 -3.32,-1.55 -0.811,-0.813 -1.77,-1.551 -2.213,-1.551 -0.443,0 -1.623,0.665 -2.729,1.551 -1.181,0.812 -2.582,1.476 -3.172,1.476 -0.59,0 -1.992,-0.664 -3.099,-1.476 -1.18,-0.886 -2.36,-1.551 -2.803,-1.551 -0.442,0 -1.401,0.738 -2.213,1.551 -0.811,0.812 -2.286,1.55 -3.319,1.55 -1.033,0 -2.508,-0.738 -3.32,-1.55 -0.811,-0.813 -1.77,-1.551 -2.213,-1.551 -0.442,0 -1.623,0.665 -2.729,1.551 -1.18,0.812 -2.656,1.476 -3.32,1.476 -0.737,0 -2.139,-0.664 -3.172,-1.476 -1.032,-0.813 -2.065,-1.477 -2.36,-1.477 -0.369,0 -1.475,0.664 -2.582,1.477 -1.18,0.886 -2.655,1.55 -3.319,1.476 -0.738,0 -2.287,-0.738 -5.754,-3.322 l -2.213,1.624 c -1.254,0.96 -2.803,1.698 -3.467,1.698 -0.738,0.074 -2.213,-0.59 -3.32,-1.476 -1.18,-0.813 -2.2127,-1.477 -2.434,-1.477 -0.2213,0 -1.2541,0.664 -2.3606,1.477 -1.1802,0.886 -2.6556,1.55 -3.3195,1.476 -0.7377,0 -2.2868,-0.738 -5.7538,-3.322 l -2.213,1.624 c -1.254,0.96 -2.8031,1.698 -3.467,1.698 -0.7377,0.074 -2.213,-0.59 -3.3195,-1.476 -1.1803,-0.813 -2.6556,-1.329 -3.3195,-1.182 -0.7377,0.222 -1.8442,0.886 -2.4343,1.551 -0.5902,0.664 -1.6967,1.181 -2.3606,1.107 -0.7376,0 -2.213,-0.664 -3.3195,-1.476 -1.1803,-0.886 -2.4343,-1.551 -2.8031,-1.551 -0.3689,0 -1.4016,0.738 -2.213,1.551 -0.8115,0.812 -2.2868,1.55 -3.3195,1.55 -1.0328,0 -2.5081,-0.738 -3.3195,-1.55 -0.8115,-0.813 -1.8442,-1.551 -2.213,-1.551 -0.3689,0 -1.6229,0.665 -2.7294,1.551 -1.1803,0.812 -2.6556,1.476 -3.3195,1.476 -0.7377,0.074 -1.8442,-0.443 -2.4343,-1.107 -0.5901,-0.665 -1.6966,-1.329 -2.3605,-1.551 -0.7377,-0.147 -2.2131,0.369 -3.3196,1.182 -1.1802,0.886 -2.6556,1.55 -3.3195,1.476 -0.7376,0 -2.3605,-0.738 -5.7538,-3.322 l -2.213,1.624 c -1.254,0.96 -2.8031,1.698 -3.467,1.698 -0.7377,0.074 -2.213,-0.59 -3.3195,-1.476 -1.1803,-0.813 -2.213,-1.477 -2.4343,-1.477 -0.2213,0 -1.254,0.664 -2.3605,1.477 -1.1803,0.886 -2.6557,1.55 -3.3196,1.476 -0.7376,0 -2.3605,-0.738 -5.75376,-3.322 l -2.213,1.624 c -1.25403,0.96 -2.80314,1.624 -3.5408,1.477 -0.73767,-0.074 -1.327806,-0.96 -1.475339,-1.994 -0.147534,-1.033 0.295067,-3.027 0.958969,-4.429 0.73767,-1.551 1.1065,-3.618 0.8852,-5.169 -0.14753,-1.402 -0.81143,-3.691 -1.327802,-4.946 -0.885201,-2.067 -0.885201,-2.953 -0.073767,-5.537 0.590139,-1.772 1.180269,-4.356 1.401569,-5.759 0.2213,-1.624 -0.07377,-3.47 -0.81143,-5.02 -0.663905,-1.255 -1.180273,-3.396 -1.180273,-4.578 0,-1.181 0.516368,-3.322 1.180273,-4.651 0.73766,-1.476 1.03273,-3.322 0.81143,-4.946 -0.2213,-1.403 -0.81143,-3.987 -1.401569,-5.759 -0.811434,-2.658 -0.811434,-3.47 0.073767,-5.537 0.590132,-1.255 1.106502,-4.061 1.106502,-6.054 0,-2.067 -0.51637,-4.799 -1.106502,-6.054 -0.885201,-2.067 -0.885201,-2.879 0,-5.537 0.590132,-1.772 1.032732,-4.652 1.032732,-6.497 0,-1.846 -0.4426,-4.725 -1.032732,-6.497 -0.885201,-2.658 -0.885201,-3.47 0,-5.537 0.590132,-1.255 1.106502,-3.839 1.032732,-5.685 0,-1.846 -0.4426,-4.725 -1.032732,-6.497 -0.885201,-2.658 -0.885201,-3.47 0,-5.537 0.590132,-1.255 1.106502,-4.061 1.106502,-6.054 0,-2.067 -0.51637,-4.799 -1.106502,-6.054 -0.885201,-2.067 -0.885201,-2.88 0,-5.537 0.590132,-1.772 1.032732,-4.652 1.032732,-6.497 0,-1.846 -0.4426,-4.725 -1.032732,-6.497 -0.885201,-2.658 -0.885201,-3.47 0,-5.537 0.590132,-1.256 1.106502,-3.84 1.032732,-5.685 0,-1.846 -0.4426,-4.725 -1.032732,-6.497 -0.885201,-2.658 -0.885201,-3.47 0,-5.537 0.590132,-1.255 1.106502,-4.061 1.106502,-6.054 0,-2.068 -0.51637,-4.799 -1.106502,-6.054 -0.885201,-2.068 -0.885201,-2.88 0,-5.538 0.590132,-1.771 1.032732,-4.651 1.032732,-6.496 0,-1.846 -0.4426,-4.726 -1.032732,-6.497 -0.885201,-2.658 -0.885201,-3.47 0,-5.538 0.590132,-1.255 1.106502,-3.839 1.032732,-5.684 0,-1.846 -0.4426,-4.725 -1.032732,-6.424 -0.958968,-2.805 -0.885201,-3.543 0.368832,-7.013 0.73767,-2.215 1.18027,-4.873 1.03274,-6.128 -0.2213,-1.181 -0.8852,-3.322 -1.401572,-4.577 -0.885201,-2.068 -0.885201,-2.88 0,-5.538 0.590132,-1.772 1.032732,-4.651 1.032732,-6.497 0,-1.845 -0.4426,-4.725 -1.032732,-6.497 -0.885201,-2.657 -0.885201,-3.469 0,-5.537 0.516372,-1.255 1.180272,-3.543 1.327802,-4.946 0.2213,-1.477 -0.14753,-3.839 -0.81143,-5.537 -0.663905,-1.625 -1.180273,-3.618 -1.180273,-4.43 0,-0.812 0.516368,-2.806 1.180273,-4.43 0.6639,-1.698 1.03273,-4.06 0.81143,-5.537 -0.14753,-1.403 -0.81143,-3.691 -1.327802,-4.947 -0.885201,-2.067 -0.885201,-2.879 0,-5.537 0.590132,-1.772 1.032732,-4.651 1.032732,-6.497 0,-1.845 -0.4426,-4.725 -1.032732,-6.497 -0.885201,-2.657 -0.885201,-3.47 0,-5.537 0.590132,-1.255 1.106502,-4.06 1.106502,-6.054 0,-2.067 -0.51637,-4.799 -1.106502,-6.054 -0.885201,-2.067 -0.885201,-2.879 0,-5.537 C 1.4157,105.206 1.8583,102.327 1.8583,100.481 1.93207,98.6354 1.4157,96.0514 0.825568,94.7963 c -0.885201,-2.0672 -0.885201,-2.8793 0,-5.5371 C 1.4157,87.4873 1.8583,84.6079 1.8583,82.7622 c 0,-1.8457 -0.4426,-4.725 -1.032732,-6.4969 -0.885201,-2.6579 -0.885201,-3.47 0,-5.5372 0.590132,-1.2551 1.106502,-4.0606 1.106502,-6.054 0,-2.0672 -0.51637,-4.7988 -1.106502,-6.0539 -0.885201,-2.0672 -0.885201,-2.8794 0,-5.5372 C 1.4157,51.3111 1.8583,48.4318 1.8583,46.586 1.93207,44.7403 1.4157,42.1563 0.825568,40.9012 c -0.885201,-2.0672 -0.885201,-2.8793 0,-5.5371 C 1.4157,33.5922 1.8583,30.7128 1.8583,28.8671 c 0,-1.8457 -0.4426,-4.725 -1.032732,-6.4969 -0.885201,-2.6579 -0.885201,-3.47 0,-5.5372 C 1.34194,15.5779 2.00584,13.2892 2.15337,11.8865 2.37467,10.336 2.0796,8.34267 1.34194,6.86609 0.678035,5.611 0.0879006,3.76527 0.0141338,2.8055 Z"
       fill="#2111dd"
       id="path1"
       clip-path="url(#clipPath7)"
       transform="matrix(0.26458333,0,0,0.26458333,158.48542,76.925537)" />
  </g>
</svg>
