<svg width="938" height="4" viewBox="0 0 938 4" fill="none" xmlns="http://www.w3.org/2000/svg">
<path d="M1 2C2.3 3.33333 3.6 3.33333 4.9 2C6.2 0.666667 7.5 0.666667 8.8 2C10.1 3.33333 11.4 3.33333 12.7 2C14 0.666667 15.3 0.666667 16.6 2C17.9 3.33333 19.2 3.33333 20.5 2C21.8 0.666667 23.1 0.666667 24.4 2C25.7 3.33333 27 3.33333 28.3 2C29.6 0.666667 30.9 0.666667 32.2 2C33.5 3.33333 34.8 3.33333 36.1 2C37.4 0.666667 38.7 0.666667 40 2C41.3 3.33333 42.6 3.33333 43.9 2C45.2 0.666667 46.5 0.666667 47.8 2C49.1 3.33333 50.4 3.33333 51.7 2C53 0.666667 54.3 0.666667 55.6 2C56.9 3.33333 58.2 3.33333 59.5 2C60.8 0.666667 62.1 0.666667 63.4 2C64.7 3.33333 66 3.33333 67.3 2C68.6 0.666667 69.9 0.666667 71.2 2C72.5 3.33333 73.8 3.33333 75.1 2C76.4 0.666667 77.7 0.666667 79 2C80.3 3.33333 81.6 3.33333 82.9 2C84.2 0.666667 85.5 0.666667 86.8 2C88.1 3.33333 89.4 3.33333 90.7 2C92 0.666667 93.3 0.666667 94.6 2C95.9 3.33333 97.2 3.33333 98.5 2C99.8 0.666667 101.1 0.666667 102.4 2C103.7 3.33333 105 3.33333 106.3 2C107.6 0.666667 108.9 0.666667 110.2 2C111.5 3.33333 112.8 3.33333 114.1 2C115.4 0.666667 116.7 0.666667 118 2C119.3 3.33333 120.6 3.33333 121.9 2C123.2 0.666667 124.5 0.666667 125.8 2C127.1 3.33333 128.4 3.33333 129.7 2C131 0.666667 132.3 0.666667 133.6 2C134.9 3.33333 136.2 3.33333 137.5 2C138.8 0.666667 140.1 0.666667 141.4 2C142.7 3.33333 144 3.33333 145.3 2C146.6 0.666667 147.9 0.666667 149.2 2C150.5 3.33333 151.8 3.33333 153.1 2C154.4 0.666667 155.7 0.666667 157 2C158.3 3.33333 159.6 3.33333 160.9 2C162.2 0.666667 163.5 0.666667 164.8 2C166.1 3.33333 167.4 3.33333 168.7 2C170 0.666667 171.3 0.666667 172.6 2C173.9 3.33333 175.2 3.33333 176.5 2C177.8 0.666667 179.1 0.666667 180.4 2C181.7 3.33333 183 3.33333 184.3 2C185.6 0.666667 186.9 0.666667 188.2 2C189.5 3.33333 190.8 3.33333 192.1 2C193.4 0.666667 194.7 0.666667 196 2C197.3 3.33333 198.6 3.33333 199.9 2C201.2 0.666667 202.5 0.666667 203.8 2C205.1 3.33333 206.4 3.33333 207.7 2C209 0.666667 210.3 0.666667 211.6 2C212.9 3.33333 214.2 3.33333 215.5 2C216.8 0.666667 218.1 0.666667 219.4 2C220.7 3.33333 222 3.33333 223.3 2C224.6 0.666667 225.9 0.666667 227.2 2C228.5 3.33333 229.8 3.33333 231.1 2C232.4 0.666667 233.7 0.666667 235 2C236.3 3.33333 237.6 3.33333 238.9 2C240.2 0.666667 241.5 0.666667 242.8 2C244.1 3.33333 245.4 3.33333 246.7 2C248 0.666667 249.3 0.666667 250.6 2C251.9 3.33333 253.2 3.33333 254.5 2C255.8 0.666667 257.1 0.666667 258.4 2C259.7 3.33333 261 3.33333 262.3 2C263.6 0.666667 264.9 0.666667 266.2 2C267.5 3.33333 268.8 3.33333 270.1 2C271.4 0.666667 272.7 0.666667 274 2C275.3 3.33333 276.6 3.33333 277.9 2C279.2 0.666667 280.5 0.666667 281.8 2C283.1 3.33333 284.4 3.33333 285.7 2C287 0.666667 288.3 0.666667 289.6 2C290.9 3.33333 292.2 3.33333 293.5 2C294.8 0.666667 296.1 0.666667 297.4 2C298.7 3.33333 300 3.33333 301.3 2C302.6 0.666667 303.9 0.666667 305.2 2C306.5 3.33333 307.8 3.33333 309.1 2C310.4 0.666667 311.7 0.666667 313 2C314.3 3.33333 315.6 3.33333 316.9 2C318.2 0.666667 319.5 0.666667 320.8 2C322.1 3.33333 323.4 3.33333 324.7 2C326 0.666667 327.3 0.666667 328.6 2C329.9 3.33333 331.2 3.33333 332.5 2C333.8 0.666667 335.1 0.666667 336.4 2C337.7 3.33333 339 3.33333 340.3 2C341.6 0.666667 342.9 0.666667 344.2 2C345.5 3.33333 346.8 3.33333 348.1 2C349.4 0.666667 350.7 0.666667 352 2C353.3 3.33333 354.6 3.33333 355.9 2C357.2 0.666667 358.5 0.666667 359.8 2C361.1 3.33333 362.4 3.33333 363.7 2C365 0.666667 366.3 0.666667 367.6 2C368.9 3.33333 370.2 3.33333 371.5 2C372.8 0.666667 374.1 0.666667 375.4 2C376.7 3.33333 378 3.33333 379.3 2C380.6 0.666667 381.9 0.666667 383.2 2C384.5 3.33333 385.8 3.33333 387.1 2C388.4 0.666667 389.7 0.666667 391 2C392.3 3.33333 393.6 3.33333 394.9 2C396.2 0.666667 397.5 0.666667 398.8 2C400.1 3.33333 401.4 3.33333 402.7 2C404 0.666667 405.3 0.666667 406.6 2C407.9 3.33333 409.2 3.33333 410.5 2C411.8 0.666667 413.1 0.666667 414.4 2C415.7 3.33333 417 3.33333 418.3 2C419.6 0.666667 420.9 0.666667 422.2 2C423.5 3.33333 424.8 3.33333 426.1 2C427.4 0.666667 428.7 0.666667 430 2C431.3 3.33333 432.6 3.33333 433.9 2C435.2 0.666667 436.5 0.666667 437.8 2C439.1 3.33333 440.4 3.33333 441.7 2C443 0.666667 444.3 0.666667 445.6 2C446.9 3.33333 448.2 3.33333 449.5 2C450.8 0.666667 452.1 0.666667 453.4 2C454.7 3.33333 456 3.33333 457.3 2C458.6 0.666667 459.9 0.666667 461.2 2C462.5 3.33333 463.8 3.33333 465.1 2C466.4 0.666667 467.7 0.666667 469 2C470.3 3.33333 471.6 3.33333 472.9 2C474.2 0.666667 475.5 0.666667 476.8 2C478.1 3.33333 479.4 3.33333 480.7 2C482 0.666667 483.3 0.666667 484.6 2C485.9 3.33333 487.2 3.33333 488.5 2C489.8 0.666667 491.1 0.666667 492.4 2C493.7 3.33333 495 3.33333 496.3 2C497.6 0.666667 498.9 0.666667 500.2 2C501.5 3.33333 502.8 3.33333 504.1 2C505.4 0.666667 506.7 0.666667 508 2C509.3 3.33333 510.6 3.33333 511.9 2C513.2 0.666667 514.5 0.666667 515.8 2C517.1 3.33333 518.4 3.33333 519.7 2C521 0.666667 522.3 0.666667 523.6 2C524.9 3.33333 526.2 3.33333 527.5 2C528.8 0.666667 530.1 0.666667 531.4 2C532.7 3.33333 534 3.33333 535.3 2C536.6 0.666667 537.9 0.666667 539.2 2C540.5 3.33333 541.8 3.33333 543.1 2C544.4 0.666667 545.7 0.666667 547 2C548.3 3.33333 549.6 3.33333 550.9 2C552.2 0.666667 553.5 0.666667 554.8 2C556.1 3.33333 557.4 3.33333 558.7 2C560 0.666667 561.3 0.666667 562.6 2C563.9 3.33333 565.2 3.33333 566.5 2C567.8 0.666667 569.1 0.666667 570.4 2C571.7 3.33333 573 3.33333 574.3 2C575.6 0.666667 576.9 0.666667 578.2 2C579.5 3.33333 580.8 3.33333 582.1 2C583.4 0.666667 584.7 0.666667 586 2C587.3 3.33333 588.6 3.33333 589.9 2C591.2 0.666667 592.5 0.666667 593.8 2C595.1 3.33333 596.4 3.33333 597.7 2C599 0.666667 600.3 0.666667 601.6 2C602.9 3.33333 604.2 3.33333 605.5 2C606.8 0.666667 608.1 0.666667 609.4 2C610.7 3.33333 612 3.33333 613.3 2C614.6 0.666667 615.9 0.666667 617.2 2C618.5 3.33333 619.8 3.33333 621.1 2C622.4 0.666667 623.7 0.666667 625 2C626.3 3.33333 627.6 3.33333 628.9 2C630.2 0.666667 631.5 0.666667 632.8 2C634.1 3.33333 635.4 3.33333 636.7 2C638 0.666667 639.3 0.666667 640.6 2C641.9 3.33333 643.2 3.33333 644.5 2C645.8 0.666667 647.1 0.666667 648.4 2C649.7 3.33333 651 3.33333 652.3 2C653.6 0.666667 654.9 0.666667 656.2 2C657.5 3.33333 658.8 3.33333 660.1 2C661.4 0.666667 662.7 0.666667 664 2C665.3 3.33333 666.6 3.33333 667.9 2C669.2 0.666667 670.5 0.666667 671.8 2C673.1 3.33333 674.4 3.33333 675.7 2C677 0.666667 678.3 0.666667 679.6 2C680.9 3.33333 682.2 3.33333 683.5 2C684.8 0.666667 686.1 0.666667 687.4 2C688.7 3.33333 690 3.33333 691.3 2C692.6 0.666667 693.9 0.666667 695.2 2C696.5 3.33333 697.8 3.33333 699.1 2C700.4 0.666667 701.7 0.666667 703 2C704.3 3.33333 705.6 3.33333 706.9 2C708.2 0.666667 709.5 0.666667 710.8 2C712.1 3.33333 713.4 3.33333 714.7 2C716 0.666667 717.3 0.666667 718.6 2C719.9 3.33333 721.2 3.33333 722.5 2C723.8 0.666667 725.1 0.666667 726.4 2C727.7 3.33333 729 3.33333 730.3 2C731.6 0.666667 732.9 0.666667 734.2 2C735.5 3.33333 736.8 3.33333 738.1 2C739.4 0.666667 740.7 0.666667 742 2C743.3 3.33333 744.6 3.33333 745.9 2C747.2 0.666667 748.5 0.666667 749.8 2C751.1 3.33333 752.4 3.33333 753.7 2C755 0.666667 756.3 0.666667 757.6 2C758.9 3.33333 760.2 3.33333 761.5 2C762.8 0.666667 764.1 0.666667 765.4 2C766.7 3.33333 768 3.33333 769.3 2C770.6 0.666667 771.9 0.666667 773.2 2C774.5 3.33333 775.8 3.33333 777.1 2C778.4 0.666667 779.7 0.666667 781 2C782.3 3.33333 783.6 3.33333 784.9 2C786.2 0.666667 787.5 0.666667 788.8 2C790.1 3.33333 791.4 3.33333 792.7 2C794 0.666667 795.3 0.666667 796.6 2C797.9 3.33333 799.2 3.33333 800.5 2C801.8 0.666667 803.1 0.666667 804.4 2C805.7 3.33333 807 3.33333 808.3 2C809.6 0.666667 810.9 0.666667 812.2 2C813.5 3.33333 814.8 3.33333 816.1 2C817.4 0.666667 818.7 0.666667 820 2C821.3 3.33333 822.6 3.33333 823.9 2C825.2 0.666667 826.5 0.666667 827.8 2C829.1 3.33333 830.4 3.33333 831.7 2C833 0.666667 834.3 0.666667 835.6 2C836.9 3.33333 838.2 3.33333 839.5 2C840.8 0.666667 842.1 0.666667 843.4 2C844.7 3.33333 846 3.33333 847.3 2C848.6 0.666667 849.9 0.666667 851.2 2C852.5 3.33333 853.8 3.33333 855.1 2C856.4 0.666667 857.7 0.666667 859 2C860.3 3.33333 861.6 3.33333 862.9 2C864.2 0.666667 865.5 0.666667 866.8 2C868.1 3.33333 869.4 3.33333 870.7 2C872 0.666667 873.3 0.666667 874.6 2C875.9 3.33333 877.2 3.33333 878.5 2C879.8 0.666667 881.1 0.666667 882.4 2C883.7 3.33333 885 3.33333 886.3 2C887.6 0.666667 888.9 0.666667 890.2 2C891.5 3.33333 892.8 3.33333 894.1 2C895.4 0.666667 896.7 0.666667 898 2C899.3 3.33333 900.6 3.33333 901.9 2C903.2 0.666667 904.5 0.666667 905.8 2C907.1 3.33333 908.4 3.33333 909.7 2C911 0.666667 912.3 0.666667 913.6 2C914.9 3.33333 916.2 3.33333 917.5 2C918.8 0.666667 920.1 0.666667 921.4 2C922.7 3.33333 924 3.33333 925.3 2C926.6 0.666667 927.9 0.666667 929.2 2C930.5 3.33333 931.8 3.33333 933.1 2C934.4 0.666667 935.7 0.666667 937 2" stroke="#FF8ED5"/>
</svg>
