<?xml version="1.0" encoding="UTF-8" standalone="no"?>
<svg
   width="432.66757"
   height="4.0000024"
   viewBox="0 0 432.66759 4.0000023"
   fill="none"
   version="1.1"
   id="svg1"
   xmlns="http://www.w3.org/2000/svg"
   xmlns:svg="http://www.w3.org/2000/svg">
  <defs
     id="defs1" />
  <path
     d="m 0.3538959,1.5171973 c 1.2850976,1.3180456 2.5701953,1.3180456 3.8552958,0 1.2850949,-1.31804854 2.5701921,-1.31804854 3.8552898,0 1.2850988,1.3180456 2.5701965,1.3180456 3.8552945,0 1.285098,-1.31804854 2.570205,-1.31804854 3.855303,0 1.285098,1.3180456 2.570195,1.3180456 3.855293,0 1.285097,-1.31804854 2.570195,-1.31804854 3.855293,0 1.285098,1.3180456 2.570195,1.3180456 3.855293,0 1.285097,-1.31804854 2.570194,-1.31804854 3.855293,0 1.285098,1.3180456 2.570195,1.3180456 3.855293,0 1.285097,-1.31804854 2.570194,-1.31804854 3.855292,0 1.285098,1.3180456 2.570196,1.3180456 3.855293,0 1.285098,-1.31804854 2.570195,-1.31804854 3.855293,0 1.285097,1.3180456 2.570195,1.3180456 3.855293,0 1.285099,-1.31804854 2.570195,-1.31804854 3.855294,0"
     stroke="#ffffff"
     id="path1"
     style="stroke-width:0.988537" />
  <path
     d="m 54.322654,1.5171973 c 1.2851,1.3180456 2.570195,1.3180456 3.855295,0 1.285095,-1.31804854 2.570197,-1.31804854 3.855288,0 1.285103,1.3180456 2.5702,1.3180456 3.855297,0 1.285097,-1.31804854 2.570206,-1.31804854 3.855303,0 1.285097,1.3180456 2.570195,1.3180456 3.855297,0 1.285092,-1.31804854 2.570193,-1.31804854 3.855288,0 1.285101,1.3180456 2.570188,1.3180456 3.855297,0 1.285095,-1.31804854 2.570189,-1.31804854 3.855291,0 1.285094,1.3180456 2.570188,1.3180456 3.85529,0 1.285102,-1.31804854 2.570196,-1.31804854 3.855298,0 1.285094,1.3180456 2.570196,1.3180456 3.85529,0 1.285095,-1.31804854 2.570189,-1.31804854 3.855282,0 1.2851,1.3180456 2.5702,1.3180456 3.8553,0 1.28509,-1.31804854 2.5702,-1.31804854 3.85528,0"
     stroke="#ffffff"
     id="path1-8"
     style="stroke-width:0.988537" />
  <path
     d="m 108.29233,1.512787 c 1.28509,1.3180455 2.5702,1.3180455 3.85529,0 1.2851,-1.31804857 2.5702,-1.31804857 3.85529,0 1.28511,1.3180455 2.5702,1.3180455 3.8553,0 1.2851,-1.31804857 2.57021,-1.31804857 3.8553,0 1.2851,1.3180455 2.5702,1.3180455 3.8553,0 1.28509,-1.31804857 2.57019,-1.31804857 3.85529,0 1.28509,1.3180455 2.57019,1.3180455 3.85529,0 1.28509,-1.31804857 2.5702,-1.31804857 3.85529,0 1.2851,1.3180455 2.5702,1.3180455 3.8553,0 1.2851,-1.31804857 2.57019,-1.31804857 3.85529,0 1.2851,1.3180455 2.5702,1.3180455 3.85529,0 1.28511,-1.31804857 2.57019,-1.31804857 3.8553,0 1.28509,1.3180455 2.57019,1.3180455 3.85529,0 1.2851,-1.31804857 2.57019,-1.31804857 3.85529,0"
     stroke="#ffffff"
     id="path1-8-5"
     style="stroke-width:0.988537" />
  <path
     d="m 162.23404,1.4872147 c 1.28511,1.3180456 2.5702,1.3180456 3.85529,0 1.28511,-1.31804843 2.5702,-1.31804843 3.8553,0 1.2851,1.3180456 2.5702,1.3180456 3.8553,0 1.28509,-1.31804843 2.5702,-1.31804843 3.8553,0 1.2851,1.3180456 2.57019,1.3180456 3.85529,0 1.2851,-1.31804843 2.5702,-1.31804843 3.8553,0 1.2851,1.3180456 2.57018,1.3180456 3.85529,0 1.2851,-1.31804843 2.57019,-1.31804843 3.85529,0 1.2851,1.3180456 2.57019,1.3180456 3.85529,0 1.2851,-1.31804843 2.57019,-1.31804843 3.85529,0 1.28511,1.3180456 2.5702,1.3180456 3.8553,0 1.2851,-1.31804843 2.57019,-1.31804843 3.85529,0 1.2851,1.3180456 2.5702,1.3180456 3.85529,0 1.28511,-1.31804843 2.5702,-1.31804843 3.8553,0"
     stroke="#ffffff"
     id="path1-1"
     style="stroke-width:0.988537" />
  <path
     d="m 216.20281,1.4872147 c 1.28509,1.3180456 2.57018,1.3180456 3.85529,0 1.28509,-1.31804843 2.57019,-1.31804843 3.85529,0 1.28509,1.3180456 2.5702,1.3180456 3.85529,0 1.28511,-1.31804843 2.57022,-1.31804843 3.85531,0 1.2851,1.3180456 2.5702,1.3180456 3.85529,0 1.2851,-1.31804843 2.5702,-1.31804843 3.85529,0 1.28511,1.3180456 2.5702,1.3180456 3.8553,0 1.2851,-1.31804843 2.57019,-1.31804843 3.85529,0 1.2851,1.3180456 2.5702,1.3180456 3.8553,0 1.2851,-1.31804843 2.57019,-1.31804843 3.85529,0 1.28509,1.3180456 2.57019,1.3180456 3.8553,0 1.28509,-1.31804843 2.57018,-1.31804843 3.85527,0 1.2851,1.3180456 2.5702,1.3180456 3.8553,0 1.28509,-1.31804843 2.57019,-1.31804843 3.8553,0"
     stroke="#ffffff"
     id="path1-8-1"
     style="stroke-width:0.988537" />
  <path
     d="m 270.17248,1.4828048 c 1.2851,1.3180456 2.5702,1.3180456 3.85529,0 1.2851,-1.31804839 2.57021,-1.31804839 3.85529,0 1.28511,1.3180456 2.57021,1.3180456 3.8553,0 1.2851,-1.31804839 2.57021,-1.31804839 3.8553,0 1.2851,1.3180456 2.5702,1.3180456 3.8553,0 1.28509,-1.31804839 2.57019,-1.31804839 3.85529,0 1.28509,1.3180456 2.5702,1.3180456 3.8553,0 1.28509,-1.31804839 2.57019,-1.31804839 3.85529,0 1.28509,1.3180456 2.57019,1.3180456 3.85529,0 1.2851,-1.31804839 2.57019,-1.31804839 3.85529,0 1.2851,1.3180456 2.5702,1.3180456 3.85529,0 1.28511,-1.31804839 2.5702,-1.31804839 3.8553,0 1.2851,1.3180456 2.57019,1.3180456 3.85529,0 1.2851,-1.31804839 2.5702,-1.31804839 3.85529,0"
     stroke="#ffffff"
     id="path1-8-5-5"
     style="stroke-width:0.988537" />
</svg>
