<svg width="32" height="4" viewBox="0 0 32 4" fill="none" xmlns="http://www.w3.org/2000/svg">
<path d="M15.5556 0.771645C10.5696 0.804711 5.77778 -0.664577 1.17768 0.368727C0.85042 0.378085 0.503664 0.4386 0.271363 0.60892C-0.0482625 0.843499 -0.0194369 1.22344 0.031432 1.55347L0.144192 2.28529C0.240842 2.91416 1.24416 3.89169 2.22222 3.93786C9.61346 3.96905 16 4.03669 23.6659 3.97475C25.1242 3.96228 26.5858 3.94855 28.0356 3.83376C28.9427 3.76201 29.8448 3.65159 30.735 3.50185C31.0691 3.4457 31.4243 3.37396 31.6456 3.1818C31.827 3.02334 31.8872 2.80935 31.9253 2.60409C31.9932 2.24286 32.0144 1.87727 31.9906 1.51355C31.9482 0.868455 31.2284 0.35001 30.3518 0.331293C25.3573 0.223986 20.5924 0.738579 15.5556 0.771645Z" fill="#FF3400"/>
</svg>
