<svg width="20" height="20" viewBox="0 0 20 20" fill="none" xmlns="http://www.w3.org/2000/svg">
<path fill-rule="evenodd" clip-rule="evenodd" d="M5.86963 0.122729C4.24176 0.196179 2.8308 0.594174 1.69149 1.72868C0.548193 2.86915 0.155141 4.28569 0.0815081 5.89663C0.0357363 6.90211 -0.231913 14.4983 0.544214 16.4903C1.0676 17.8343 2.09843 18.8676 3.45467 19.3927C4.08751 19.6388 4.80992 19.8055 5.86963 19.8541C14.7304 20.2551 18.015 20.0368 19.4001 16.4903C19.6459 15.8591 19.815 15.1373 19.8618 14.0802C20.2668 5.19669 19.7962 3.27113 18.2519 1.72868C17.027 0.506824 15.5861 -0.32492 5.86963 0.122729ZM5.95121 18.0675C4.98105 18.0238 4.45468 17.8622 4.10344 17.7262C3.21985 17.3828 2.55616 16.7218 2.21486 15.8434C1.62381 14.3297 1.81984 7.1405 1.87258 5.9772C1.92432 4.83772 2.15516 3.79632 2.95915 2.99235C3.95419 1.99977 5.23976 1.51332 13.9931 1.90837C15.1354 1.95998 16.1792 2.19035 16.9852 2.99235C17.9802 3.98491 18.4737 5.28038 18.0717 14.0001C18.028 14.9679 17.8658 15.493 17.7295 15.8434C16.829 18.1511 14.7573 18.4715 5.95121 18.0675ZM14.0896 4.68961C14.0896 5.34669 14.624 5.88101 15.2837 5.88101C15.9434 5.88101 16.4787 5.34669 16.4787 4.68961C16.4787 4.03253 15.9434 3.49869 15.2837 3.49869C14.624 3.49869 14.0896 4.03253 14.0896 4.68961ZM4.86265 9.98793C4.86265 12.8029 7.15024 15.0851 9.97216 15.0851C12.7941 15.0851 15.0817 12.8029 15.0817 9.98793C15.0817 7.173 12.7941 4.89224 9.97216 4.89224C7.15024 4.89224 4.86265 7.173 4.86265 9.98793ZM6.6557 9.98793C6.6557 8.1616 8.1403 6.67983 9.97216 6.67983C11.804 6.67983 13.2886 8.1616 13.2886 9.98793C13.2886 11.8153 11.804 13.2975 9.97216 13.2975C8.1403 13.2975 6.6557 11.8153 6.6557 9.98793Z" fill="white"/>
</svg>
