<svg width="18" height="21" viewBox="0 0 18 21" fill="none" xmlns="http://www.w3.org/2000/svg">
<path d="M2.69133 3.94197C2.73082 3.89232 2.82197 3.80112 2.89431 3.73987C2.96665 3.67861 3.09253 3.57826 3.17331 3.52023C3.25316 3.46098 3.42097 3.34789 3.54714 3.26866C3.67236 3.18821 3.86833 3.07295 3.9854 3.01039C4.10122 2.94879 4.26148 2.86476 4.34067 2.82541C4.41713 2.78742 4.58082 2.71332 4.70893 2.65532L4.72252 2.64917C4.85334 2.59159 5.05615 2.506 5.17413 2.46019C5.29118 2.41317 5.5068 2.33134 5.65138 2.27873C5.79596 2.22612 6.07603 2.12981 6.27255 2.06456C6.46907 1.9993 7.49232 1.6768 8.54561 1.34679C9.59983 1.018 10.7404 0.661824 11.0818 0.557318C11.4223 0.45159 11.7336 0.362354 11.7724 0.355902C11.8121 0.350672 11.8897 0.353302 11.945 0.363261C11.9991 0.374179 12.0761 0.396709 12.1157 0.414783C12.1542 0.433816 12.2189 0.471531 12.2582 0.499554C12.2976 0.527577 12.3541 0.583182 12.3832 0.621066C12.4131 0.660172 12.5276 0.861457 12.6346 1.0685C12.7438 1.27581 12.91 1.5965 13.0036 1.78085C13.0972 1.9652 13.2581 2.29191 13.3607 2.50619C13.4632 2.72048 13.6363 3.08638 13.7429 3.31891C13.8496 3.55144 14.0322 3.95845 14.1466 4.22188C14.2623 4.48435 14.4506 4.92976 14.5659 5.20995C14.6825 5.48917 14.847 5.89845 14.9352 6.1199C15.0234 6.34134 15.177 6.74154 15.2795 7.0102C15.3808 7.27982 15.5281 7.67705 15.6069 7.89404C15.687 8.11007 15.8281 8.50433 15.9212 8.76854C16.0131 9.03371 16.2638 9.76297 16.4759 10.3899L16.4822 10.4085C16.6921 11.0289 16.8958 11.6312 16.9353 11.7546C16.9764 11.8783 17.0374 12.0876 17.0738 12.2207C17.1092 12.3526 17.1574 12.5659 17.1791 12.6928C17.2021 12.8188 17.224 12.9979 17.2295 13.0906C17.235 13.1834 17.2345 13.3254 17.2297 13.4048C17.2258 13.4853 17.2071 13.6218 17.187 13.7071C17.1681 13.7914 17.1285 13.9187 17.0996 13.9874C17.0708 14.0561 17.0209 14.1545 16.9889 14.2061C16.9569 14.2578 16.8942 14.3446 16.8504 14.4015C16.7915 14.4777 16.7194 14.5446 16.5741 14.6637C16.4288 14.7828 16.3358 14.8482 16.2122 14.9178C16.1211 14.9701 15.9593 15.0495 15.8522 15.0966C15.7442 15.1425 15.5615 15.2128 15.4454 15.2532C15.3283 15.2925 15.144 15.3503 15.0351 15.3795C14.9272 15.4098 14.7176 15.458 14.5708 15.487C14.4241 15.516 14.1951 15.5519 14.064 15.565C13.9329 15.5782 13.7271 15.5924 13.6098 15.595C13.4916 15.5964 13.3049 15.594 13.1957 15.5865C13.0866 15.5789 12.9277 15.561 12.8452 15.5467C12.7617 15.5311 12.6213 15.501 12.5322 15.4781C12.4443 15.4543 12.2964 15.4066 12.2049 15.3701C12.112 15.3346 11.9695 15.2653 11.8851 15.2175C11.802 15.1687 11.6789 15.0885 11.6139 15.0374C11.5489 14.9863 11.4499 14.9012 11.3955 14.8459C11.3321 14.7839 11.2431 14.6756 11.1526 14.5471C11.0584 14.4137 10.9872 14.2975 10.9429 14.2034C10.9065 14.1247 10.8529 13.9951 10.8255 13.9152C10.798 13.8353 10.7563 13.6927 10.7321 13.5988C10.7091 13.5039 10.6827 13.3631 10.6741 13.2844C10.6642 13.2066 10.6556 13.0735 10.6557 12.9881C10.6546 12.9036 10.6683 12.7399 10.686 12.6254C10.7046 12.4967 10.7443 12.3383 10.7892 12.2127C10.8287 12.1009 10.8934 11.9466 10.9345 11.8705C10.9756 11.7944 11.064 11.653 11.1304 11.5555C11.1978 11.4592 11.3044 11.3233 11.3658 11.2529C11.4281 11.1838 11.523 11.082 11.5791 11.0254C11.6443 10.96 11.8174 10.8176 12.0679 10.6256C12.3632 10.4012 12.5047 10.3005 12.6547 10.2108C12.7642 10.1463 12.9618 10.0356 13.0932 9.96591C13.2247 9.8962 13.4385 9.78861 13.5674 9.72859C13.6964 9.66856 13.913 9.57241 14.0494 9.51439C14.1859 9.45637 14.337 9.39679 14.384 9.38021C14.4309 9.36364 14.5035 9.3468 14.6186 9.33617L14.4324 8.81552C14.3311 8.53037 14.1866 8.1368 14.1146 7.94172C14.0414 7.7476 13.9093 7.39881 13.8202 7.16838C13.7311 6.93795 13.5914 6.58715 13.5114 6.38666C13.4313 6.18616 13.2804 5.8207 13.1763 5.57071C13.0373 5.23886 12.9831 5.12137 12.9668 5.12608C12.957 5.12806 12.6722 5.24199 12.3234 5.38149L12.2626 5.40578C11.8855 5.55707 11.3319 5.77378 11.0333 5.89007C10.7348 6.00637 10.2644 6.18644 9.98776 6.28982C9.71205 6.39442 9.1694 6.59691 8.78135 6.73911C8.3933 6.88132 7.70953 7.12795 7.26234 7.28637C6.81421 7.44358 6.14234 7.67721 5.76995 7.80353C5.39663 7.92863 5.01954 8.0566 4.93193 8.08495C4.84431 8.11331 4.77295 8.14472 4.77168 8.15344C4.77167 8.16121 4.83179 8.33046 4.90656 8.5292C4.98259 8.72699 5.10443 9.03903 5.17923 9.22224C5.25402 9.40546 5.50994 9.99882 5.74999 10.5403C5.98878 11.0828 6.81054 12.936 7.57525 14.6602C8.33996 16.3845 8.97528 17.8257 8.98742 17.8649C8.99956 17.9041 9.0126 17.9678 9.01818 18.0062C9.0225 18.0456 9.01706 18.1293 9.00696 18.1913C8.99561 18.2543 8.96858 18.341 8.94788 18.384C8.92592 18.428 8.88297 18.4939 8.85289 18.5325C8.82155 18.572 8.74106 18.6434 8.66999 18.6959C8.6011 18.7487 8.43829 18.858 8.30963 18.9391C8.18096 19.0203 7.94586 19.1597 7.78809 19.2496C7.62813 19.3392 7.36863 19.4779 7.209 19.5576C7.04811 19.6382 6.79866 19.7537 6.65594 19.8165C6.51229 19.8781 6.28038 19.9724 6.14018 20.0256C5.99998 20.0787 5.78875 20.1533 5.66984 20.1901C5.55093 20.2269 5.36725 20.2804 5.26306 20.3079C5.15886 20.3353 4.95518 20.3809 4.8122 20.407C4.66891 20.4354 4.46744 20.4656 4.36233 20.4763C4.25816 20.4883 4.09612 20.4999 4.00229 20.502C3.9072 20.5051 3.7383 20.5026 3.62665 20.497C3.51281 20.4911 3.33769 20.4702 3.23575 20.4513C3.13287 20.4312 2.97779 20.3949 2.89025 20.3688C2.80146 20.3438 2.64673 20.282 2.54358 20.233C2.44044 20.184 2.3023 20.1075 2.23544 20.0618C2.16732 20.017 2.0511 19.9276 1.97707 19.8621C1.86023 19.7616 1.81214 19.7092 1.65793 19.5054C1.52869 19.3367 1.45441 19.2268 1.4042 19.1276C1.36396 19.0517 1.30347 18.9235 1.2695 18.8428C1.23552 18.7622 1.18443 18.6229 1.15391 18.5338C1.12339 18.4447 1.08232 18.2977 1.06212 18.2065C1.04067 18.1162 1.01525 17.9611 1.00508 17.8622C0.994899 17.7633 0.986348 17.6225 0.986146 17.547C0.984692 17.4724 0.995525 17.3361 1.00567 17.243C1.01675 17.1511 1.04104 17.0141 1.05992 16.9376C1.07973 16.8623 1.11117 16.7528 1.1319 16.6943C1.15263 16.6357 1.19532 16.5332 1.22513 16.4657C1.25588 16.3995 1.32801 16.2705 1.3835 16.1795C1.43899 16.0884 1.54242 15.9432 1.61293 15.8562C1.68343 15.7692 1.79026 15.6466 1.85072 15.5828C1.91369 15.5171 2.08312 15.3698 2.24438 15.2404C2.41943 15.1004 2.59666 14.9685 2.70717 14.8974C2.80548 14.8337 2.97483 14.733 3.08158 14.6725C3.18832 14.612 3.3561 14.5222 3.45564 14.4731C3.55517 14.424 3.75236 14.3311 3.89601 14.2695C4.03873 14.2067 4.25906 14.1154 4.38737 14.0675C4.51349 14.0194 4.69218 13.9542 4.78355 13.923C4.87493 13.8917 5.06331 13.8288 5.20444 13.7847C5.34557 13.7405 5.46041 13.701 5.45979 13.6976C5.45917 13.6942 5.3831 13.5275 5.29081 13.3267C5.19852 13.1258 5.0551 12.8167 4.97404 12.6383C4.89298 12.4599 4.74614 12.136 4.64981 11.9169C4.55349 11.6978 4.3917 11.3233 4.29134 11.086C4.19097 10.8486 4.042 10.4856 3.96129 10.2817C3.87964 10.0766 3.74722 9.72998 3.6656 9.50932C3.58272 9.28963 3.46093 8.94651 3.39272 8.74855C3.32577 8.54963 3.20807 8.18592 3.13118 7.94031C3.05553 7.69373 2.94786 7.32234 2.89217 7.11478C2.83774 6.90626 2.76184 6.62303 2.72733 6.4846C2.69157 6.34717 2.61974 6.0823 2.56966 5.89761L2.56961 5.89744C2.51734 5.71249 2.45671 5.46217 2.43531 5.34084C2.41172 5.21926 2.38944 5.05011 2.38425 4.96292C2.37906 4.87572 2.38805 4.72141 2.4029 4.61886C2.41681 4.51509 2.44797 4.38453 2.4687 4.32597C2.49036 4.26863 2.53241 4.17821 2.56439 4.12655C2.59543 4.07366 2.65185 3.99163 2.69133 3.94197Z" fill="#FF3400"/>
</svg>
