<svg width="138" height="139" viewBox="0 0 138 139" fill="none" xmlns="http://www.w3.org/2000/svg">
<path d="M74.8587 0.235284C73.8559 0.153991 72.762 0.0726987 72.4277 0.0523755C72.0935 0.0320523 70.6552 0.0117291 69.2371 0.00156754C67.8191 -0.00859406 65.9047 0.0320523 64.983 0.0828603C64.0613 0.14383 62.4508 0.275931 61.3872 0.39787C60.3237 0.509647 58.5512 0.753526 57.437 0.946596C56.3228 1.13967 54.9757 1.38354 54.449 1.50548C53.9222 1.62742 52.7777 1.90179 51.9167 2.11518C51.0558 2.32857 49.6175 2.73504 48.7261 3.0094C47.8348 3.28376 46.5585 3.71055 45.89 3.94427C45.2215 4.17798 44.1276 4.59461 43.4591 4.85881C42.7906 5.12301 41.6562 5.61077 40.9269 5.92578C40.1976 6.25095 38.8606 6.89113 37.9389 7.3484C37.0171 7.80567 35.4877 8.62876 34.5457 9.17749C33.6037 9.71605 31.9122 10.7729 30.798 11.5147C29.6838 12.2565 28.1847 13.3133 27.4555 13.8518C26.7262 14.4005 25.612 15.2846 24.9739 15.813C24.3358 16.3516 23.1709 17.3677 22.391 18.079C21.6111 18.7904 20.3551 19.9996 19.6056 20.7719C18.8459 21.5543 17.752 22.7331 17.1746 23.4037C16.5872 24.0744 15.7363 25.0804 15.2907 25.6393C14.845 26.1982 14.0448 27.2245 13.5282 27.9256C13.0117 28.6268 12.0798 29.9681 11.4518 30.9233C10.8238 31.8785 9.91222 33.3418 9.41589 34.175C8.92972 35.0184 8.04849 36.6646 7.46101 37.8332C6.86342 39.0018 6.03284 40.7902 5.60742 41.7962C5.17188 42.8022 4.53377 44.4281 4.17924 45.4036C3.82474 46.3791 3.3183 47.8728 3.06508 48.7061C2.81186 49.5495 2.39658 51.0331 2.14334 52.0086C1.89012 52.9841 1.52548 54.5897 1.33304 55.5652C1.13046 56.5407 0.856979 58.1462 0.725296 59.1217C0.583496 60.0972 0.401184 61.591 0.320145 62.4242C0.228989 63.2575 0.117569 65.1171 0.0567932 66.5397C-0.0140991 68.3485 -0.024231 69.8727 0.0567932 71.5697C0.107437 72.911 0.228989 74.7299 0.310013 75.614C0.391052 76.4879 0.553116 77.88 0.674652 78.7133C0.786072 79.5364 0.998779 80.8269 1.13046 81.5788C1.27226 82.3308 1.57613 83.7534 1.79897 84.729C2.0218 85.7045 2.40669 87.2185 2.65991 88.0823C2.90302 88.946 3.3183 90.2772 3.57152 91.0291C3.82474 91.7811 4.20964 92.8785 4.43248 93.4679C4.64519 94.0573 5.18201 95.358 5.59729 96.364C6.02271 97.37 6.86342 99.1584 7.4509 100.327C8.04849 101.496 8.92972 103.152 9.41589 103.985C9.91222 104.829 10.8238 106.292 11.4518 107.237C12.0697 108.182 13.0623 109.605 13.6498 110.387C14.2271 111.169 15.1792 112.379 15.7465 113.08C16.3137 113.781 17.3063 114.919 17.9343 115.62C18.5623 116.321 19.7777 117.581 20.6387 118.415C21.4895 119.258 22.6442 120.355 23.2013 120.843C23.7584 121.341 24.8726 122.276 25.6829 122.926C26.4932 123.577 27.7188 124.522 28.4177 125.03C29.1166 125.538 30.1194 126.239 30.6461 126.595C31.1728 126.95 32.4693 127.763 33.5328 128.393C34.5963 129.033 36.4398 130.05 37.635 130.649C38.8302 131.259 40.3799 132.001 41.0788 132.316C41.7777 132.621 42.9932 133.129 43.7934 133.444C44.5834 133.759 46.1129 134.307 47.1865 134.663C48.2501 135.029 49.9922 135.557 51.0558 135.842C52.1193 136.126 53.983 136.563 55.2086 136.807C56.4342 137.051 58.2372 137.376 59.2095 137.508C60.1819 137.651 61.7519 137.833 62.704 137.925C63.6561 138.016 65.8642 138.118 67.6165 138.148C69.5917 138.179 71.5465 138.159 72.7316 138.087C73.7951 138.027 75.4765 137.874 76.4793 137.762C77.4821 137.651 78.8697 137.468 79.5686 137.356C80.2675 137.254 81.4323 137.041 82.1515 136.899C82.8706 136.756 84.2887 136.441 85.2914 136.197C86.2942 135.954 87.9452 135.496 88.9682 135.181C89.9811 134.876 91.5714 134.338 92.5133 134.003C93.4452 133.657 95.0051 133.037 95.9774 132.621C96.9498 132.204 98.773 131.34 100.029 130.7C101.285 130.07 103.078 129.084 104.03 128.525C104.982 127.956 106.39 127.062 107.17 126.544C107.95 126.026 109.226 125.121 110.006 124.542C110.786 123.963 111.971 123.038 112.639 122.479C113.308 121.931 114.24 121.138 114.716 120.711C115.192 120.295 116.296 119.238 117.177 118.364C118.069 117.5 119.304 116.22 119.932 115.519C120.56 114.817 121.553 113.679 122.12 112.978C122.687 112.277 123.599 111.119 124.136 110.387C124.673 109.655 125.534 108.446 126.03 107.694C126.536 106.942 127.235 105.845 127.6 105.255C127.964 104.666 128.603 103.569 129.018 102.817C129.443 102.065 130.071 100.876 130.416 100.175C130.76 99.4734 131.348 98.2439 131.702 97.4309C132.067 96.618 132.583 95.4088 132.847 94.7381C133.11 94.0675 133.596 92.7871 133.91 91.8929C134.224 90.9986 134.731 89.4033 135.045 88.3363C135.348 87.2693 135.723 85.8569 135.885 85.1862C136.047 84.5156 136.311 83.2555 136.483 82.3918C136.665 81.528 136.918 80.0444 137.05 79.0893C137.182 78.1341 137.364 76.6505 137.455 75.7867C137.536 74.923 137.658 73.1346 137.719 71.8237C137.779 70.5129 137.8 68.5923 137.769 67.5559C137.729 66.5194 137.658 65.0154 137.597 64.2025C137.536 63.3896 137.425 62.1296 137.344 61.4081C137.263 60.6866 137.08 59.3351 136.939 58.4104C136.797 57.4857 136.544 56.0732 136.382 55.2603C136.209 54.4474 135.855 52.9232 135.581 51.8562C135.308 50.7892 134.872 49.2447 134.619 48.4012C134.356 47.568 133.849 46.0742 133.485 45.0987C133.12 44.1232 132.522 42.6091 132.158 41.7454C131.783 40.8817 130.983 39.1644 130.365 37.9348C129.747 36.7052 128.836 35.0184 128.349 34.175C127.853 33.3418 126.941 31.8785 126.324 30.9233C125.696 29.9681 124.602 28.4235 123.883 27.4684C123.174 26.5132 122.13 25.1922 121.563 24.5215C120.996 23.8508 120.034 22.7534 119.416 22.0827C118.798 21.412 117.674 20.2638 116.934 19.5423C116.185 18.8107 115.05 17.7539 114.412 17.1848C113.774 16.6259 112.629 15.6707 111.87 15.0611C111.11 14.4514 109.813 13.4657 108.983 12.8763C108.152 12.2768 106.907 11.4232 106.208 10.9863C105.509 10.5391 104.303 9.79735 103.523 9.32991C102.744 8.87264 100.991 7.94794 99.6238 7.26711C98.2564 6.58628 96.4332 5.73271 95.5723 5.37705C94.7113 5.0214 93.273 4.45235 92.3817 4.12717C91.4903 3.802 90.0115 3.29392 89.0898 3.01956C88.168 2.73504 86.7095 2.32857 85.8485 2.10502C84.9876 1.88146 83.3872 1.51565 82.3034 1.30225C81.2196 1.08886 79.5078 0.794172 78.5051 0.65191C77.5023 0.509647 75.8614 0.326739 74.8587 0.235284Z" fill="#2111DD"/>
<path d="M69.8341 7.5516C69.9455 6.81997 70.0569 5.96639 70.0974 5.65138V5.64122C70.1379 5.32621 70.1379 5.06201 70.1075 5.06201C70.0772 5.06201 69.3985 5.38718 68.5983 5.78348C67.8083 6.17979 66.5928 6.84029 65.8939 7.25692C65.195 7.67354 64.091 8.39502 63.4427 8.85229C62.7945 9.30956 61.7715 10.092 61.1637 10.6001C60.5661 11.098 59.4722 12.104 58.7531 12.8356C58.0238 13.5571 57.021 14.6546 56.5247 15.2541C56.0183 15.8638 55.2181 16.9104 54.7319 17.5913C54.2457 18.2721 53.5063 19.4 53.091 20.1012C52.6656 20.8023 52.0072 22.0319 51.6223 22.8448C51.2273 23.6577 50.7107 24.9381 50.4575 25.6901C50.2043 26.442 49.9004 27.4683 49.789 27.9764C49.6877 28.4743 49.5358 29.4905 49.4649 30.212C49.3737 31.2281 49.3737 31.8175 49.4649 32.7524C49.5256 33.423 49.6877 34.4087 49.8194 34.9371C49.9612 35.4655 50.2144 36.2683 50.3866 36.7154C50.5689 37.1625 50.893 37.8433 51.126 38.2396C51.3488 38.6359 51.8553 39.3472 52.9289 40.7292L52.0376 41.4202C51.5514 41.8063 50.8626 42.4364 50.5081 42.8225C50.1536 43.2086 49.3534 44.1943 48.7356 45.0174C47.8138 46.2368 47.5708 46.4908 47.4087 46.4502C47.2973 46.4197 46.882 46.247 46.4971 46.0539C46.1122 45.871 45.4032 45.3934 44.9271 44.9971C44.4511 44.6008 43.5597 43.9403 42.952 43.5237C42.3442 43.1172 41.382 42.5177 40.8249 42.2026C40.2678 41.8775 39.3765 41.3999 38.8498 41.1357C38.3231 40.8715 37.452 40.465 36.9253 40.2516C36.3986 40.0281 35.4363 39.6724 34.7982 39.4692C34.1601 39.2558 33.2688 39.0017 32.8231 38.89C32.3774 38.7883 31.6076 38.6562 31.1012 38.6054C30.4934 38.5343 29.9465 38.5343 29.4805 38.5953C29.0956 38.6562 28.4271 38.8087 28.0119 38.9509C27.5966 39.0932 26.9686 39.3777 26.6242 39.581C26.2697 39.7943 25.5708 40.3126 25.0643 40.7292C24.5579 41.1458 23.6767 41.9689 23.1095 42.5583C22.5524 43.1477 21.9143 43.8996 21.7016 44.2146C21.4483 44.6008 21.3268 44.9056 21.3268 45.1495C21.3268 45.4239 21.3977 45.5661 21.6307 45.7592C21.8028 45.9015 22.1776 46.0844 22.4612 46.1657C22.755 46.247 23.1095 46.3181 23.2513 46.3181C23.4539 46.3079 23.5855 46.44 23.9097 46.9481C24.1224 47.3038 24.6693 47.9541 25.1251 48.4012C25.5708 48.8585 26.3203 49.4783 26.7964 49.7934C27.2724 50.1084 28.0929 50.5758 28.6196 50.84C29.1463 51.1042 30.0883 51.5208 30.696 51.7545C31.3037 51.9984 32.3572 52.3541 33.0257 52.5471C33.6942 52.7504 34.8995 53.0756 35.7098 53.2889C36.5201 53.4922 37.5026 53.7767 37.8875 53.9088C38.2724 54.0511 38.9207 54.3254 39.3056 54.5287C39.6905 54.7217 40.3387 55.1079 40.7236 55.3721C41.1085 55.6464 41.5137 55.931 41.6048 56.0224C41.777 56.1647 41.7466 56.246 41.1288 57.3637C40.7743 58.0243 40.2881 59.0201 40.0652 59.579C39.8323 60.1379 39.5183 61.0524 39.3663 61.6113C39.2043 62.1702 39.022 62.9425 38.8396 64.0501L38.0091 64.1822C37.5533 64.2533 36.7227 64.4362 36.1656 64.5785C35.6085 64.7309 34.8083 64.9748 34.3931 65.1374C33.9778 65.3 33.2485 65.6454 32.7724 65.9096C32.2964 66.1637 31.4759 66.7022 30.9492 67.1087C30.4225 67.505 29.5818 68.2671 29.0754 68.7955C28.5689 69.3138 27.9106 70.0861 27.5966 70.5027C27.2826 70.9193 26.7964 71.6306 26.5229 72.0777C26.2393 72.5248 25.8544 73.2057 25.6619 73.602C25.4594 73.9983 25.115 74.7706 24.882 75.3294C24.6491 75.8883 24.3148 76.7826 24.1527 77.311C23.9806 77.8394 23.6969 78.8962 23.5045 79.6481C23.3222 80.4001 23.0588 81.7008 22.9069 82.5442C22.7651 83.3774 22.5726 84.7289 22.4714 85.5418C22.3498 86.6088 22.2992 87.8282 22.289 89.9621C22.289 91.7506 22.3397 93.4069 22.4207 94.1792C22.5017 94.8804 22.6739 96.1302 22.8056 96.9736C22.9373 97.8069 23.2513 99.321 23.5045 100.327C23.7476 101.333 24.2034 102.888 24.5073 103.782C24.8111 104.676 25.3885 106.2 25.8038 107.166C26.2089 108.131 26.6039 108.914 26.6647 108.914C26.7356 108.914 27.2421 108.192 27.789 107.308C28.336 106.434 29.0146 105.306 29.3084 104.798C29.592 104.29 30.1389 103.223 30.534 102.41C30.9188 101.597 31.4861 100.296 31.7899 99.514C32.1039 98.7316 32.58 97.3395 32.8636 96.4148C33.1472 95.4901 33.5422 94.0471 33.7347 93.2139C33.9271 92.3704 34.2918 90.4804 34.5349 88.9968C34.7881 87.5132 35.1325 85.613 35.3047 84.7797C35.4769 83.9363 35.7706 82.656 35.963 81.9345C36.1555 81.213 36.4695 80.1359 36.6721 79.5465C36.8848 78.9571 37.2393 78.0426 37.4824 77.5142C37.7153 76.9858 38.1711 76.0916 38.4953 75.5327C38.8194 74.9738 39.336 74.1609 39.65 73.7239C39.964 73.2971 40.2273 72.9516 40.2374 72.9618C40.2476 72.9821 40.4805 73.4496 40.754 74.0084C41.0376 74.5673 41.6757 75.6445 42.1721 76.3964C42.6684 77.1484 43.4584 78.2255 43.9243 78.7844C44.3903 79.3433 45.312 80.3391 45.9603 80.9895C46.6186 81.65 47.7227 82.656 48.4115 83.225C49.1002 83.8042 50.1739 84.6476 50.812 85.1049C51.4501 85.5622 52.6048 86.3344 53.3847 86.8222C54.1647 87.31 55.5726 88.1127 56.5247 88.6005C57.4768 89.0984 58.905 89.7792 59.7153 90.1146C60.5256 90.4601 61.8626 90.9681 62.7033 91.2425C63.5339 91.527 65.1849 92.0046 66.3497 92.2993C67.5146 92.6042 69.277 93.0106 70.2494 93.2037C71.2217 93.3968 72.5486 93.6406 73.1867 93.7423C74.1085 93.8845 74.9086 93.9252 77.0357 93.915C78.5145 93.9048 80.6112 93.8439 81.695 93.7829C82.7788 93.7219 83.9841 93.6406 85.0882 93.5492L85.5136 94.5958C85.7466 95.175 86.0707 96.181 86.2429 96.8212C86.4049 97.4614 86.5974 98.4674 86.6683 99.0568C86.7392 99.6868 86.7595 100.622 86.7291 101.343C86.6987 102.014 86.6176 103.345 86.5467 104.29C86.4556 105.581 86.4556 106.353 86.5467 107.338C86.6075 108.07 86.7696 109.117 86.9114 109.676C87.0633 110.235 87.3672 111.098 87.6103 111.606C87.8432 112.114 88.2788 112.887 88.5827 113.334C88.8865 113.771 89.5753 114.594 90.102 115.143C90.6692 115.732 91.4187 116.392 91.9252 116.728C92.4012 117.053 93.1001 117.419 93.4952 117.551C94.0016 117.734 94.427 117.805 94.9639 117.805C95.4906 117.805 95.8248 117.744 96.0476 117.622C96.23 117.531 96.4427 117.327 96.5237 117.165C96.6047 117.012 96.7668 116.199 96.8782 115.366C96.9998 114.523 97.1922 113.476 97.3138 113.029C97.4252 112.582 97.6885 111.83 97.8911 111.352C98.0937 110.875 98.5191 110.102 98.8331 109.625C99.1471 109.147 99.4813 108.578 99.5826 108.355C99.6941 108.08 99.7548 107.694 99.7447 107.186C99.7447 106.708 99.6637 106.16 99.5219 105.713C99.4003 105.326 99.0863 104.564 98.8331 104.036C98.5697 103.508 97.9519 102.451 97.4454 101.699C96.9491 100.947 95.9767 99.6157 95.3082 98.7519C94.6296 97.8882 93.9915 97.0143 93.8902 96.8212C93.718 96.5164 93.6977 96.242 93.7079 94.7381C93.7079 93.6915 93.7484 92.9293 93.8193 92.8074C93.9206 92.6245 94.1738 92.5737 95.8856 92.3704C96.9694 92.2383 98.3773 91.9945 99.0154 91.8319C99.6535 91.6693 100.545 91.3543 100.991 91.1409C101.436 90.9173 101.993 90.5718 102.226 90.3483C102.469 90.1349 102.824 89.6878 103.016 89.3524C103.219 89.0171 103.482 88.3973 103.624 87.9806C103.756 87.564 103.938 86.6901 104.029 86.0499C104.171 85.1455 104.191 84.4647 104.151 83.0523C104.12 81.9548 104.019 80.6541 103.887 79.8006C103.766 79.0181 103.685 78.3678 103.695 78.3474C103.715 78.3373 104.495 78.7031 105.447 79.1807C106.399 79.6481 107.625 80.207 108.182 80.4102C108.739 80.6236 109.631 80.9082 110.157 81.0504C110.998 81.274 111.332 81.3146 112.791 81.3146C114.27 81.3248 114.563 81.2943 115.323 81.0809C115.799 80.9386 116.731 80.5424 117.399 80.1969C118.068 79.8615 118.909 79.4754 119.273 79.3636C119.638 79.2417 120.266 79.0791 120.661 78.9876C121.066 78.9063 122.16 78.7641 123.092 78.6726C124.034 78.5913 124.905 78.4592 125.047 78.3982C125.199 78.3271 125.31 78.1747 125.33 78.0223C125.34 77.88 125.249 77.5853 125.107 77.3618C124.976 77.1382 124.621 76.7216 124.317 76.4371C124.024 76.1424 123.284 75.5428 122.666 75.0856C122.049 74.6283 121.208 74.0796 120.793 73.8662C120.377 73.6528 119.668 73.3581 119.223 73.2158C118.777 73.0736 117.956 72.9008 117.399 72.8399C116.771 72.7586 115.941 72.7281 115.222 72.7687C114.584 72.8094 113.51 72.911 112.841 73.0024C111.91 73.1244 111.109 73.1549 109.398 73.1142C107.878 73.0736 106.734 72.9923 105.802 72.85C105.052 72.7382 103.958 72.5452 103.371 72.4334C102.783 72.3115 102.216 72.1895 102.105 72.1387C101.973 72.0879 101.801 71.7831 101.608 71.2546C101.446 70.8177 100.98 69.6491 100.565 68.6736C100.15 67.6981 99.3294 65.9605 98.7521 64.8122C98.1747 63.6639 97.253 61.9771 96.706 61.0524C96.1591 60.1277 95.3386 58.8067 94.8727 58.1055C94.4068 57.4044 93.5762 56.2358 93.0394 55.5143C92.4924 54.7929 91.6011 53.6649 91.0541 53.0247C90.5071 52.3846 89.3727 51.1652 88.532 50.3319C87.7014 49.4885 86.486 48.3606 85.8479 47.8322C85.2097 47.2936 84.3184 46.5823 83.8727 46.247C83.427 45.9116 82.404 45.2003 81.5937 44.6719C80.7834 44.1333 79.5781 43.3916 78.9096 43.0156C78.2411 42.6294 77.0762 42.0197 76.3267 41.6641C75.5772 41.2983 74.4832 40.8105 73.8958 40.5666C73.3083 40.3329 72.1941 39.9264 71.4142 39.6622C70.6343 39.398 69.4492 39.0525 68.7807 38.89C68.1122 38.7274 67.0182 38.4937 66.3497 38.3819C65.4989 38.2295 64.4961 38.1482 63.0072 38.1177C61.6904 38.0872 60.5357 38.1075 59.9685 38.1786C59.4621 38.2396 59.0468 38.2803 59.0265 38.2701C59.0063 38.2498 58.9961 37.5791 58.9961 36.7662C58.9961 35.9329 59.0569 34.8253 59.1481 34.2258C59.2392 33.6364 59.4722 32.5593 59.6647 31.8378C59.8672 31.1163 60.2319 29.9884 60.4952 29.3482C60.7485 28.708 61.2245 27.6512 61.5486 27.0111C61.8728 26.3709 62.9363 24.491 63.9188 22.8448C64.9114 21.1986 66.0864 19.0749 66.5523 18.1197C67.0182 17.1645 67.626 15.7723 67.8994 15.0204C68.1831 14.2684 68.568 13.0998 68.7604 12.4292C68.9529 11.7585 69.2365 10.6814 69.3783 10.0412C69.5201 9.40101 69.7226 8.27308 69.8341 7.5516Z" fill="#01E4B2"/>
<path d="M29.5207 45.9523C29.5106 45.8609 29.3587 45.6373 29.1763 45.4442C28.9332 45.2004 28.7509 45.0988 28.5281 45.0988C28.3559 45.0988 28.1229 45.1496 28.0115 45.2004C27.89 45.2613 27.8089 45.4036 27.8089 45.556C27.8089 45.6983 27.8596 45.9015 27.9102 46.0133C27.9609 46.1251 28.1736 46.2877 28.366 46.369C28.5585 46.4502 28.8117 46.5214 28.9231 46.5214C29.0345 46.5214 29.2168 46.4299 29.3283 46.3181C29.4397 46.2064 29.5308 46.0438 29.5207 45.9523Z" fill="#2111DD"/>
</svg>
