<svg width="66" height="83" viewBox="0 0 66 83" fill="none" xmlns="http://www.w3.org/2000/svg">
<path d="M23.5453 1.30824C23.9477 1.16351 24.6438 0.967679 25.1022 0.867791C25.6432 0.74809 26.3689 0.670928 27.2155 0.655788C28.0067 0.63247 28.8266 0.67282 29.3341 0.746264C29.7957 0.82053 30.5353 0.999852 30.998 1.13828C31.4608 1.28587 32.1654 1.56668 32.5741 1.77026C32.9827 1.97384 33.634 2.36562 34.0164 2.64302C34.3987 2.92042 34.9876 3.42335 35.3251 3.76574C35.6626 4.10812 36.1138 4.63185 36.3216 4.93071C36.5386 5.2294 36.8707 5.78277 37.0707 6.15512C37.2706 6.52747 37.5389 7.11866 37.6649 7.47399C37.7909 7.82933 38.0868 8.93348 38.3257 9.93779C38.5738 10.9419 38.8926 12.3024 39.3309 14.165L40.0515 12.7676C40.4426 11.9905 40.9865 11.0088 41.2457 10.5732C41.5048 10.1377 41.9352 9.49731 42.1864 9.13523C42.4469 8.77298 42.9969 8.13049 43.4126 7.70128C43.8284 7.27208 44.5078 6.66394 44.9071 6.34506C45.3158 6.03518 46.0163 5.57337 46.4537 5.32715C46.9005 5.08994 47.6309 4.75596 48.088 4.58275C48.5453 4.4187 49.3144 4.19406 49.8005 4.09367C50.4239 3.95416 51.0762 3.88748 51.9136 3.87251C52.5853 3.86049 53.488 3.89936 53.9218 3.96496C54.3558 4.03972 55.1044 4.20971 55.5857 4.35697C56.0669 4.50424 56.8829 4.83806 57.3936 5.08566C57.9043 5.33326 58.6578 5.77823 59.0681 6.07347C59.4783 6.36871 60.1699 6.95232 60.6009 7.37556C61.0319 7.79879 61.6526 8.53954 61.9832 9.01042C62.3046 9.48145 62.7313 10.1798 62.9128 10.5525C63.0944 10.9252 63.354 11.544 63.4803 11.9177C63.6158 12.2912 63.8025 12.948 63.9022 13.3772C64.032 13.9433 64.0887 14.5383 64.1072 15.5741C64.125 16.5732 64.091 17.2431 63.9817 17.8227C63.8979 18.2827 63.7266 19.0009 63.5871 19.4343C63.4568 19.8676 62.8304 21.3825 62.1931 22.8059C61.565 24.2292 60.3712 26.9554 59.5492 28.8589C58.718 30.7626 57.3041 34.052 56.4029 36.1586C55.4925 38.2654 54.7507 40.0208 54.7516 40.0666C54.7522 40.1033 54.9992 40.5298 55.3117 41.0193C55.6148 41.4999 55.985 42.1259 56.1279 42.3984C56.2709 42.6709 56.5868 43.353 56.8175 43.899C57.0574 44.4448 57.3968 45.4107 57.5829 46.04C57.7691 46.6693 58.0171 47.6735 58.1292 48.2766C58.2412 48.8798 58.3634 50.0512 58.4059 50.8848C58.4621 51.9657 58.4574 52.736 58.3623 53.5904C58.3003 54.2425 58.1455 55.3639 58.0293 56.072C57.9131 56.7801 57.6514 58.1051 57.4376 59.0167C57.233 59.928 56.8969 61.2085 56.6971 61.8723C56.5065 62.5358 56.1042 63.7167 55.8052 64.5014C55.5155 65.2859 54.9499 66.598 54.5503 67.412C54.1598 68.2259 53.572 69.3275 53.2591 69.8466C52.9372 70.375 52.2917 71.3401 51.8246 71.9811C51.3576 72.6313 50.4474 73.7203 49.797 74.4104C49.1556 75.0912 48.2146 75.9975 47.7157 76.4098C47.2168 76.8222 46.354 77.4703 45.8085 77.8468C45.2628 78.2141 44.4617 78.7144 44.0333 78.9513C43.6051 79.1973 42.8295 79.578 42.2998 79.8075C41.77 80.037 40.8285 80.4023 40.1973 80.6245C39.566 80.8375 38.5772 81.1302 37.9998 81.2689C37.4224 81.4076 36.4867 81.5894 35.9361 81.6817C35.3855 81.7741 34.2463 81.8953 33.4096 81.947C32.5731 82.0078 31.1929 82.0325 30.3271 82.0021C29.4613 81.9717 28.2635 81.9015 27.6547 81.8298C27.0461 81.7674 25.948 81.6128 25.2095 81.4976C24.4711 81.3825 23.2056 81.13 22.3922 80.9429C21.5789 80.7557 20.3488 80.4293 19.6638 80.2123C18.979 80.0045 17.9137 79.6293 17.3018 79.3835C16.6899 79.1377 15.8552 78.7859 15.4466 78.5823C15.0381 78.3879 14.2668 77.9799 13.7274 77.6686C13.1882 77.3665 12.3875 76.8582 11.9493 76.5452C11.5018 76.2322 10.7271 75.6318 10.2224 75.2007C9.70842 74.7698 9.04363 74.1398 8.72471 73.8063C8.41499 73.4726 7.9546 72.949 7.70075 72.651C7.4469 72.3529 6.96581 71.7014 6.61634 71.2033C6.27606 70.7051 5.77363 69.8889 5.50697 69.3894C5.24031 68.8899 4.83876 68.0535 4.62681 67.5255C4.40567 66.9977 4.09581 66.1413 3.93908 65.6123C3.77314 65.0835 3.55563 64.2438 3.45459 63.7413C3.34436 63.239 3.20078 62.4164 3.12736 61.9134C3.05393 61.4104 2.97544 60.1098 2.9561 59.0283C2.93676 57.9467 2.96869 56.6441 3.02409 56.1388C3.07948 55.6335 3.1924 54.7421 3.27409 54.163C3.36498 53.5838 3.55037 52.6269 3.67807 52.0469C3.86624 51.2459 3.90684 50.9426 3.83077 50.8064C3.77376 50.7066 3.51531 50.1519 3.25654 49.5789C2.99777 49.0058 2.57372 47.9407 2.32137 47.2117C2.06901 46.4826 1.77493 45.4793 1.6739 44.9768C1.53311 44.31 1.47514 43.6417 1.45481 42.5051C1.43186 41.2219 1.46984 40.7719 1.62137 39.9807C1.73148 39.4469 1.96566 38.645 2.1323 38.1836C2.30813 37.722 2.59127 37.0843 2.77861 36.7509C2.96594 36.4174 3.35128 35.8329 3.64821 35.4517C3.93594 35.0706 4.45044 34.5021 4.79469 34.1934C5.12974 33.8848 5.77436 33.3873 6.2384 33.0856C6.70244 32.7839 7.35856 32.4146 7.7148 32.2615C8.07104 32.1084 8.69298 31.8864 9.85568 31.5355L10.4106 30.6546C10.7149 30.1723 11.2546 29.4658 11.6067 29.0836C11.9589 28.7014 12.5567 28.1589 12.9288 27.868C13.301 27.5771 14.0201 27.1241 14.5214 26.8493C15.0229 26.5836 15.8266 26.23 16.3023 26.0656C16.7781 25.9104 17.3275 25.7447 17.511 25.7139C17.7037 25.6829 17.8595 25.6435 17.859 25.616C17.8585 25.5885 17.5377 23.6045 17.1359 21.2095C16.7431 18.8051 16.2998 16.1448 16.1555 15.2855C16.0005 14.3347 15.8906 13.3373 15.8796 12.7231C15.8697 12.1732 15.9183 11.2829 15.9916 10.7498C16.0649 10.2167 16.2166 9.43463 16.3377 9.00152C16.4496 8.56858 16.7127 7.83953 16.9255 7.38644C17.1291 6.93352 17.5214 6.2205 17.781 5.81242C18.0498 5.40418 18.5719 4.74385 18.9511 4.33363C19.3214 3.93275 19.9734 3.33427 20.4001 3.00573C20.8269 2.67718 21.5366 2.21521 21.9927 1.987C22.4487 1.74962 23.1428 1.4438 23.5453 1.30824Z" fill="#00A44F"/>
<path d="M24.6309 5.41481C24.9873 5.2709 25.518 5.09637 25.8205 5.02677C26.123 4.95718 26.8304 4.88035 27.3825 4.87047C28.1093 4.84831 28.5978 4.88542 29.1339 5.01336C29.5406 5.10695 30.2075 5.34258 30.6158 5.52783C31.0521 5.73091 31.6017 6.09701 31.9569 6.4024C32.2842 6.68995 32.7349 7.18619 32.9525 7.51238C33.1792 7.83841 33.4651 8.38343 33.6003 8.7386C33.7355 9.09377 34.0907 10.4261 34.3897 11.7044C34.6979 12.9825 35.4883 16.5168 36.141 19.5584C36.8029 22.5998 37.5061 25.8972 37.708 26.893C37.9098 27.8797 38.0992 28.6923 38.1452 28.6915C38.182 28.6908 38.4461 28.0168 38.7258 27.1866C39.0057 26.3655 39.7258 24.4272 40.3147 22.8762C40.9037 21.3253 41.6169 19.5155 41.8997 18.8594C42.1733 18.2035 42.7132 16.9927 43.0852 16.1792C43.4664 15.3655 44.0261 14.2369 44.3292 13.6813C44.6414 13.1256 45.0882 12.3749 45.3302 12.013C45.5631 11.6513 46.0314 11.0744 46.3748 10.7199C46.7091 10.3655 47.2342 9.87929 47.534 9.65387C47.8337 9.42846 48.3432 9.09843 48.6715 8.92752C48.9998 8.75661 49.5754 8.51709 49.9506 8.39118C50.5544 8.18784 50.8208 8.15557 52.063 8.13335C53.4342 8.118 53.5264 8.12552 54.3688 8.39469C54.8503 8.55112 55.5739 8.86826 55.983 9.09934C56.3829 9.33058 57.0172 9.79602 57.3916 10.1469C57.7569 10.498 58.2832 11.1029 58.5572 11.5014C58.8313 11.8999 59.1742 12.5448 59.3285 12.9363C59.4918 13.3185 59.6879 13.9935 59.7696 14.4413C59.8511 14.88 59.9256 15.4471 59.9301 15.6946C59.9346 15.9512 59.8893 16.5022 59.8142 16.9345C59.7483 17.3666 59.6031 18.0018 59.4807 18.3616C59.3675 18.7212 59.0234 19.5526 58.7222 20.209C58.4209 20.8653 57.3861 23.2219 56.4224 25.4306C55.4586 27.6392 53.7263 31.6586 52.5778 34.3474C51.4201 37.0362 50.3337 39.5954 49.8217 40.8149L50.3005 41.3381C50.5634 41.6269 51.0249 42.2146 51.3272 42.6493C51.6387 43.0838 52.1325 43.9277 52.4377 44.5274C52.743 45.1271 53.127 46.0096 53.2919 46.4834C53.4569 46.9573 53.6821 47.7143 53.7823 48.1709C53.8917 48.6274 54.0348 49.4226 54.1087 49.953C54.1833 50.5202 54.2175 51.3998 54.2025 52.1061C54.1865 52.7573 54.078 53.8962 53.9623 54.6318C53.8558 55.3672 53.6637 56.4618 53.5365 57.0692C53.4093 57.6766 53.144 58.8 52.9366 59.5556C52.7386 60.3201 52.3642 61.5188 52.1192 62.2292C51.865 62.9397 51.2911 64.307 50.8299 65.278C50.3778 66.2488 49.7098 67.4986 49.3608 68.0549C49.0025 68.6115 48.4013 69.475 48.0325 69.9583C47.6546 70.4419 47.0597 71.1494 46.7076 71.5316C46.3645 71.9045 45.6859 72.5584 45.2144 72.9611C44.7431 73.373 43.9262 74.0111 43.3987 74.369C42.8712 74.7268 41.9514 75.275 41.3495 75.5884C40.7474 75.8926 39.6877 76.3425 39.0017 76.584C38.3065 76.8256 37.235 77.129 36.6206 77.2592C35.9972 77.3987 35.0612 77.5621 34.5285 77.6267C33.996 77.7004 32.7546 77.7684 31.77 77.786C30.7393 77.7953 29.4039 77.755 28.6387 77.6862C27.9011 77.6168 26.7571 77.4723 26.1017 77.3648C25.4462 77.2573 24.5044 77.0908 24.024 76.9893C23.5435 76.8879 22.7763 76.7091 22.3141 76.5981C21.8517 76.478 21.0466 76.2357 20.5098 76.0711C19.9728 75.8973 19.0556 75.5653 18.4715 75.3282C17.8874 75.0911 17.0522 74.7118 16.6156 74.4903C16.179 74.2689 15.4258 73.8423 14.9418 73.5392C14.4576 73.2269 13.74 72.7355 13.3574 72.4398C12.9747 72.144 12.198 71.4336 11.6357 70.8751C11.0265 70.2625 10.34 69.4496 9.92433 68.8519C9.54643 68.3085 8.99602 67.3831 8.70964 66.8106C8.42327 66.2381 8.02977 65.3374 7.84543 64.8089C7.6703 64.2802 7.42485 63.4227 7.30492 62.8931C7.1942 62.3633 7.04109 61.5225 6.97687 61.0193C6.90229 60.4522 6.85567 59.3894 6.87166 58.2247C6.88074 57.1884 6.9503 55.931 7.0149 55.4256C7.08869 54.92 7.24762 54.0277 7.36612 53.448C7.48462 52.8682 7.74296 51.8733 8.29086 50.0848L7.9013 49.4041C7.69214 49.0319 7.34876 48.3595 7.13812 47.9048C6.92749 47.4501 6.58066 46.5853 6.35804 45.975C6.14446 45.3553 5.88932 44.4705 5.80751 44.0135C5.72554 43.5473 5.64867 42.8519 5.64195 42.4761C5.63523 42.1003 5.67091 41.522 5.71101 41.1912C5.76032 40.8602 5.87964 40.3263 5.97495 39.9945C6.07947 39.6625 6.3 39.1268 6.47813 38.7935C6.66497 38.4326 7.0697 37.9027 7.47656 37.492C8.01882 36.9322 8.34598 36.6971 9.03004 36.3456C9.50426 36.0987 10.162 35.8211 10.4918 35.7327C10.8673 35.6251 11.455 35.5504 12.0715 35.5394C12.8903 35.5156 13.0646 35.4849 13.0627 35.3749C13.0614 35.3016 13.1912 34.8408 13.3483 34.3613C13.5052 33.8725 13.8153 33.1976 14.039 32.836C14.2718 32.4743 14.7314 31.9251 15.0754 31.598C15.4556 31.2428 16.01 30.8478 16.4749 30.5919C16.9034 30.3642 17.561 30.0774 17.9361 29.9515C18.5218 29.7576 18.8157 29.7248 19.9107 29.7053C21.0885 29.6842 21.2546 29.7087 21.8937 29.9265L21.898 29.928C22.2763 30.0583 22.6534 30.1881 22.7272 30.2142C22.8475 30.2487 22.8554 30.1752 22.7921 29.7271C22.7501 29.4344 22.3358 26.8562 21.8794 23.9853C21.4231 21.1144 20.8559 17.7045 20.63 16.3974C20.4041 15.0903 20.1829 13.5264 20.1444 12.9219C20.093 12.1068 20.1118 11.6113 20.2204 10.9951C20.2952 10.5444 20.4762 9.85353 20.6259 9.47493C20.7664 9.09649 21.0597 8.5136 21.2746 8.17967C21.4804 7.84591 21.9401 7.30589 22.2747 6.96982C22.6185 6.63359 23.1446 6.20241 23.445 6.01366C23.7454 5.82491 24.2743 5.54955 24.6309 5.41481Z" fill="#F9F6F5"/>
<path d="M24.8642 8.24384C25.11 8.09275 25.5848 7.87337 25.9139 7.74829C26.4351 7.55559 26.6464 7.53347 27.6131 7.54369C28.6257 7.55309 28.7642 7.57812 29.3209 7.82489C29.6829 7.99263 30.1022 8.27853 30.3554 8.53991C30.5897 8.77411 30.8723 9.13581 30.9772 9.33566C31.0912 9.53533 31.3356 10.3378 31.5336 11.1136C31.7316 11.8895 32.4314 14.9944 33.0928 18.0083C33.7542 21.0223 34.8184 25.9728 35.4527 29.0147C36.2671 32.8603 36.6666 34.6136 36.789 34.7672C36.8833 34.8939 37.1349 35.0636 37.339 35.1517C37.5521 35.2304 37.8018 35.2993 37.8938 35.2976C37.9767 35.2961 38.2144 35.2094 38.4151 35.1049C38.6159 35.0096 38.8423 34.8039 38.9318 34.6647C39.0122 34.5258 39.3188 33.6584 39.6155 32.7454C39.9121 31.8323 40.5947 29.858 41.1203 28.3632C41.655 26.8683 42.3917 24.8288 42.7699 23.8409C43.148 22.8531 43.7115 21.4218 44.0291 20.6551C44.3378 19.8977 44.8769 18.6503 45.2222 17.8831C45.5584 17.1252 46.0908 16.0154 46.3934 15.4324C46.7051 14.8492 47.1603 14.0525 47.402 13.6722C47.6529 13.2918 48.0668 12.7618 48.3107 12.5007C48.5638 12.2394 49.0354 11.8459 49.3628 11.6292C49.6903 11.4124 50.1734 11.1471 50.4386 11.0506C50.6945 10.9452 51.1891 10.808 51.5287 10.7561C51.9691 10.6748 52.3463 10.6681 52.7985 10.7334C53.2228 10.7808 53.7228 10.946 54.2333 11.1845C54.8273 11.4581 55.1815 11.7085 55.6779 12.1856C56.0995 12.5998 56.4478 13.0337 56.6388 13.4154C56.8103 13.7424 57.0134 14.2889 57.1118 14.6447C57.2305 15.1102 57.2558 15.4948 57.2292 16.0638C57.2016 16.5778 57.1005 17.1022 56.9342 17.582C56.7942 17.9879 56.3176 19.1334 55.8659 20.1225C55.4141 21.1117 54.3792 23.4591 53.5661 25.3441C52.7438 27.2293 51.1177 31.0085 49.9426 33.7527C48.7675 36.4968 47.7772 38.7701 47.7503 38.8073C47.7141 38.8446 47.3518 38.6585 46.9418 38.3816C46.5319 38.1047 45.6491 37.6346 44.9898 37.3163C44.3308 37.0071 43.4501 36.6561 43.0427 36.5259C42.6356 36.4048 41.8681 36.2076 41.3323 36.098C40.7964 35.9884 39.8184 35.8592 39.164 35.8067C38.2425 35.7498 37.5156 35.7628 36.0356 35.8718C34.9784 35.9457 33.6737 36.0791 33.1413 36.162C32.609 36.2449 31.7468 36.4161 31.2149 36.5265C30.6832 36.6461 29.8406 36.8812 29.3374 37.0552C28.8343 37.2293 28.3494 37.3938 28.2672 37.4319C28.1392 37.4801 28.0548 37.3899 27.8916 37.0169C27.7765 36.7531 27.3184 35.8443 26.0789 33.4459L25.1142 27.3658C24.5757 24.0196 23.9329 19.9876 23.6653 18.4061C23.4069 16.8245 23.0987 15.0329 22.9867 14.4298C22.8838 13.8265 22.7856 12.9664 22.7774 12.5081C22.7692 12.0498 22.8223 11.4161 22.8992 11.0847C22.9669 10.7534 23.1602 10.2365 23.3114 9.94036C23.4716 9.63492 23.7766 9.18936 24.0025 8.9561C24.2285 8.72283 24.6094 8.40427 24.8642 8.24384Z" fill="#00A44F"/>
<path d="M17.6297 32.9644C17.903 32.8036 18.3504 32.603 18.6248 32.5065C18.9998 32.3714 19.3582 32.3375 20.0486 32.3435C20.8771 32.347 21.0342 32.3808 21.6188 32.6455C22.0457 32.8395 22.4463 33.1074 22.7837 33.4498C23.1492 33.81 23.4986 34.3081 23.9837 35.1796C24.3547 35.8515 24.9074 36.9052 25.1944 37.5144C25.4908 38.1326 25.7308 38.6876 25.7318 38.7426C25.7238 38.8069 25.5433 39.0119 25.3164 39.1901C25.0895 39.3684 24.6555 39.8071 24.3675 40.1699C24.0702 40.5328 23.6939 41.108 23.5254 41.4686C23.3662 41.829 23.1733 42.3643 23.0959 42.6682C23.0277 42.972 22.9486 43.6978 22.9313 44.2757C22.8979 44.9823 22.9267 45.5595 23.0085 46.0164C23.0796 46.3911 23.1984 46.8566 23.4011 47.3848L22.6369 47.3709C21.9833 47.3643 21.7892 47.3219 21.2322 47.0568C20.8053 46.8627 20.3298 46.5228 19.8523 46.0729C19.4499 45.7042 18.8676 45.0544 18.5655 44.6289C18.2633 44.2033 17.7128 43.2688 17.3408 42.5419C16.9688 41.815 16.4697 40.6687 16.2367 39.9943C15.9845 39.2745 15.7484 38.426 15.6845 37.9412C15.6211 37.4839 15.5822 36.8519 15.6131 36.5213C15.644 36.1907 15.7004 35.7404 15.7515 35.5102C15.8026 35.2801 15.9428 34.8833 16.0672 34.6335C16.1914 34.3746 16.4785 33.9569 16.7133 33.7051C16.948 33.4442 17.3655 33.1158 17.6297 32.9644Z" fill="#00A44F"/>
<path d="M10.3582 38.6324C10.6593 38.4804 11.0612 38.3081 11.2444 38.259C11.4368 38.2097 11.8594 38.1655 12.1905 38.1504C12.5218 38.1445 12.8351 38.1664 12.9002 38.2019C12.9653 38.2374 13.0821 38.5929 13.1629 38.9949C13.2529 39.3967 13.5171 40.2722 13.759 40.928C14.001 41.5931 14.3864 42.5581 14.6256 43.0673C14.865 43.5856 15.2937 44.394 15.569 44.8658C15.8536 45.3375 16.2982 46.0081 16.5531 46.3611C16.8079 46.7141 17.3716 47.3551 18.5903 48.5894L18.5244 49.0215C18.4917 49.2513 18.3433 49.7033 18.2016 50.0176C18.0335 50.3965 17.7999 50.7124 17.5458 50.9187C17.3371 51.0874 17.0008 51.3227 16.8001 51.4271C16.5995 51.5316 16.2065 51.6853 15.9319 51.7727C15.6573 51.8602 15.1984 51.9326 14.9223 51.9375C14.6463 51.9424 14.2035 51.8862 13.9537 51.8173C13.6947 51.7486 13.2771 51.5543 13.0257 51.3938C12.7651 51.2334 12.3165 50.8563 12.0167 50.5591C11.7078 50.2712 11.2373 49.702 10.9633 49.3035C10.68 48.9051 10.1957 48.0702 9.8807 47.4432C9.56574 46.8162 9.15384 45.9158 8.97049 45.4423C8.78713 44.9688 8.57191 44.2575 8.48205 43.8648C8.39235 43.4813 8.31614 42.8225 8.3086 42.4009C8.30122 41.9884 8.35514 41.4006 8.43254 41.0967C8.50075 40.7929 8.66755 40.3406 8.80114 40.0906C8.93474 39.8407 9.2136 39.4781 9.42179 39.2818C9.63903 39.0762 10.0572 38.7845 10.3582 38.6324Z" fill="#00A44F"/>
<path d="M33.2349 38.8193C33.7855 38.7269 34.7223 38.6093 35.3012 38.5531C35.8802 38.5061 37.1035 38.4567 38.0148 38.4588C39.1747 38.4655 39.9396 38.516 40.549 38.6243C41.0293 38.7166 41.7597 38.8961 42.1668 39.0172C42.5742 39.1474 43.2787 39.4282 43.7426 39.6308C44.2066 39.8426 44.9504 40.2602 45.4159 40.5544C45.8814 40.8487 46.6282 41.4313 47.0865 41.8357C47.5449 42.2493 48.1827 42.9164 48.5028 43.3141C48.832 43.7117 49.2947 44.3635 49.5412 44.7626C49.7876 45.1616 50.1304 45.7973 50.3027 46.1701C50.4751 46.543 50.7154 47.1163 50.8226 47.4445C50.9389 47.7725 51.1255 48.4293 51.2353 48.9042C51.345 49.379 51.4633 50.3304 51.5122 51.0081C51.5529 51.7408 51.5499 52.6028 51.4947 53.1172C51.448 53.5949 51.2748 54.7166 51.1065 55.5998C50.9474 56.4829 50.6755 57.753 50.5032 58.4071C50.3401 59.0702 50.0542 60.0656 49.8708 60.619C49.6874 61.1724 49.3541 62.0952 49.1247 62.6495C48.9045 63.2036 48.4795 64.1464 48.1862 64.7293C47.8837 65.3123 47.3843 66.2107 47.0621 66.7207C46.7398 67.2308 46.1833 68.0201 45.8234 68.485C45.4635 68.9498 44.7867 69.7046 44.3254 70.1622C43.8551 70.629 43.1665 71.2373 42.7943 71.5282C42.4221 71.8191 41.8314 72.2423 41.4763 72.4595C41.1214 72.6859 40.4286 73.0651 39.9268 73.3124C39.4249 73.5598 38.7034 73.8753 38.3284 74.0103C37.9535 74.1454 37.3126 74.3403 36.9097 74.4575C36.5067 74.5656 35.81 74.7247 35.3512 74.8063C34.8926 74.897 33.9006 75.0156 33.1471 75.0841C32.2739 75.1547 31.2433 75.1731 30.313 75.1348C29.5207 75.0939 28.3963 75.0132 27.8243 74.9409C27.2617 74.8776 26.1632 74.7047 25.4061 74.5715C24.6396 74.4294 23.3919 74.1491 22.6335 73.9426C21.8658 73.7363 20.7641 73.3801 20.1803 73.1613C19.5963 72.9333 18.6502 72.5285 18.0931 72.2542C17.5359 71.9799 16.6527 71.4914 16.1404 71.1522C15.6282 70.8221 14.8823 70.2853 14.4804 69.944C14.0878 69.6118 13.4978 69.0447 13.1787 68.702C12.8689 68.3591 12.3413 67.6809 12.0107 67.21C11.6893 66.739 11.2436 66.0043 11.0334 65.5771C10.8233 65.1499 10.5446 64.4947 10.4091 64.1212C10.2735 63.7477 10.0774 63.0727 9.96796 62.6162C9.85855 62.1597 9.71547 61.3646 9.64155 60.8341C9.56632 60.2303 9.52117 59.2501 9.5388 58.177C9.54739 57.1132 9.62055 56.0575 9.72755 55.3496C9.82699 54.7335 9.97737 53.8781 10.0709 53.4454C10.1644 53.0128 10.2686 52.6625 10.3054 52.6619C10.3512 52.6519 10.4633 52.7416 10.5665 52.8498C10.6697 52.9579 11.0057 53.2178 11.3131 53.4232C11.6207 53.6378 12.1414 53.931 12.4754 54.0809C12.8095 54.2308 13.3926 54.413 13.7714 54.4887C14.261 54.59 14.7124 54.6094 15.2916 54.5715C15.8798 54.5244 16.3659 54.424 16.9878 54.202C17.4634 54.0284 18.1208 53.7324 18.4484 53.5248C18.7763 53.3264 19.2484 52.9604 19.5016 52.7083C19.755 52.4654 20.1331 51.991 20.3388 51.6572C20.5445 51.3235 20.7927 50.7872 21.0798 49.856L21.597 49.9568C21.8834 50.0159 22.4825 50.0602 22.9426 50.052C23.4027 50.0437 24.018 49.9685 24.8703 49.7608L25.4318 50.2733C25.7405 50.5521 26.2446 50.9465 26.5519 51.1427C26.8593 51.3481 27.4263 51.6589 27.807 51.8446C28.1877 52.0303 28.7998 52.2853 29.161 52.4072C29.5221 52.5291 29.8376 52.6702 29.8568 52.7157C29.876 52.7612 29.5675 53.0051 29.1672 53.269C28.7667 53.5237 28.1941 53.9282 27.8947 54.1719C27.5951 54.4065 27.0428 54.9207 26.6631 55.3034C26.2834 55.6861 25.7247 56.3563 25.4103 56.7929C25.1052 57.2293 24.6763 57.9521 24.4728 58.4142C24.2602 58.8764 24.0051 59.5412 23.9101 59.8913C23.806 60.2416 23.6702 60.8858 23.5951 61.3181C23.5292 61.7502 23.4864 62.4478 23.4941 62.8786C23.5053 63.5019 23.5459 63.7121 23.697 63.9294C23.801 64.0834 24.0069 64.2723 24.1464 64.3523C24.2861 64.4415 24.5726 64.5098 24.8119 64.5055C25.0603 64.501 25.3443 64.4226 25.5171 64.3095C25.6809 64.2057 25.8794 63.9821 25.9593 63.8156C26.0392 63.6492 26.1309 63.1157 26.1577 62.5559C26.1942 62.0235 26.2829 61.325 26.3599 60.9936C26.4368 60.6621 26.6739 60.0252 26.8773 59.5631C27.09 59.1009 27.4379 58.4804 27.6625 58.1738C27.8871 57.8672 28.3743 57.3175 28.7362 56.9626C29.1071 56.5984 29.7147 56.0924 30.0874 55.829C30.4601 55.5656 31.0334 55.1978 31.3613 55.0085C31.6895 54.8284 32.4286 54.4668 33.0042 54.2273C33.5796 53.9786 34.1723 53.6654 34.3173 53.5345C34.462 53.3943 34.6324 53.1437 34.6939 52.9776C34.7647 52.8204 34.8145 52.517 34.8109 52.3153C34.8073 52.1137 34.7564 51.8395 34.6985 51.6938C34.6501 51.5572 34.4616 51.313 34.3022 51.1508C34.1337 50.9888 33.8729 50.8192 33.7249 50.776C33.5768 50.7328 32.9856 50.615 32.4316 50.5149C31.8777 50.424 31.0829 50.2456 30.6757 50.1245C30.2685 50.0035 29.6663 49.785 29.3325 49.6443C28.9984 49.4944 28.4595 49.2106 28.1244 49.0057C27.7894 48.8008 27.2758 48.3882 26.9759 48.091C26.6762 47.803 26.3088 47.3328 26.1567 47.0604C26.0046 46.7881 25.8117 46.2964 25.7138 45.9681C25.5856 45.4936 25.5613 45.1639 25.5922 44.3198C25.625 43.5766 25.6909 43.1444 25.8145 42.8488C25.9116 42.6179 26.1528 42.2101 26.3505 41.9407C26.5391 41.6806 26.955 41.2605 27.2638 41.0258C27.5817 40.7909 28.1003 40.4515 28.4286 40.2806C28.7569 40.1097 29.3689 39.842 29.7986 39.6785C30.2284 39.5241 30.9424 39.3004 31.4006 39.1914C31.8587 39.0731 32.6843 38.9117 33.2349 38.8193Z" fill="#00A44F"/>
</svg>
