<svg width="15" height="17" viewBox="0 0 15 17" fill="none" xmlns="http://www.w3.org/2000/svg">
<path d="M9.14369 0.0232148C9.25798 0.0157262 9.37821 0.00524206 9.41086 0.0022466C9.44352 -0.000748866 9.84725 -0.000748866 10.3089 0.0022466C10.7705 0.00524206 11.2707 0.0142284 11.4221 0.0232148C11.5735 0.0307035 11.8065 0.0486763 11.9416 0.0621559C12.0767 0.0741377 12.28 0.101097 12.3943 0.120567C12.5086 0.140038 12.6823 0.175983 12.7803 0.201445C12.8782 0.225409 13.037 0.273336 13.132 0.307784C13.2285 0.340734 13.3621 0.394652 13.4289 0.427602C13.4972 0.459055 13.5922 0.512973 13.6412 0.544425C13.6901 0.577375 13.7807 0.656755 13.8415 0.722655C13.9098 0.794546 13.9722 0.878419 14.0004 0.938329C14.0271 0.990749 14.0597 1.07762 14.0746 1.13154C14.0939 1.20343 14.1013 1.28131 14.0998 1.42359C14.0998 1.58535 14.0924 1.64526 14.0583 1.78305C14.036 1.87291 13.9811 2.05564 13.938 2.18744C13.895 2.31924 13.7955 2.59482 13.7183 2.80151C13.6412 3.0067 13.5061 3.37813 13.4185 3.62526C13.3309 3.87238 13.1795 4.29025 13.0816 4.55385C12.9836 4.81745 12.8738 5.09753 12.8352 5.17541C12.7832 5.28325 12.7432 5.34166 12.6689 5.41655C12.6081 5.47795 12.5368 5.53187 12.476 5.56183C12.4225 5.58729 12.3394 5.61874 12.2904 5.63072C12.2415 5.6442 12.1183 5.66068 12.0158 5.66816C11.9134 5.67715 11.6937 5.69213 11.526 5.70261C11.3583 5.7116 10.9145 5.72058 10.5389 5.72058C10.1634 5.72058 9.71515 5.7116 9.54445 5.70111C9.37376 5.69213 9.10658 5.67416 8.95073 5.66217C8.79487 5.65019 8.56481 5.62922 8.43864 5.61574C8.31247 5.60376 8.08685 5.5783 7.93842 5.56033C7.70093 5.53187 7.66679 5.53037 7.66679 5.54984C7.66679 5.56183 7.5243 7.07903 7.34915 8.91974C7.174 10.7605 7.01963 12.3885 7.00776 12.5368C6.9944 12.685 6.97065 13.0085 6.95432 13.2557C6.93799 13.5028 6.91425 13.8263 6.90237 13.9746C6.8905 14.1229 6.86675 14.355 6.84894 14.4913C6.83261 14.6276 6.7955 14.8567 6.7673 15.0005C6.73761 15.1443 6.68418 15.354 6.64855 15.4648C6.61145 15.5757 6.5491 15.7374 6.50754 15.8243C6.46598 15.9111 6.3977 16.0355 6.35466 16.1014C6.31013 16.1673 6.22552 16.2736 6.16615 16.3395C6.10529 16.4039 5.99991 16.4998 5.93014 16.5522C5.86038 16.6046 5.72976 16.684 5.6407 16.7289C5.55164 16.7738 5.4136 16.8308 5.33642 16.8547C5.25923 16.8802 5.13158 16.9131 5.0544 16.9296C4.97721 16.9461 4.85402 16.9685 4.7798 16.9805C4.68926 16.994 4.49481 17 4.17865 17C3.80757 17 3.66953 16.994 3.51071 16.973C3.40087 16.9581 3.23018 16.9281 3.13221 16.9086C3.03425 16.8892 2.89027 16.8547 2.81308 16.8338C2.7359 16.8128 2.59489 16.7679 2.50138 16.7334C2.40786 16.7005 2.26092 16.642 2.17483 16.6046C2.08874 16.5657 1.94476 16.4923 1.8557 16.4413C1.76664 16.3889 1.63454 16.3051 1.56329 16.2541C1.49204 16.2032 1.3733 16.1074 1.2976 16.0415C1.2219 15.9756 1.11057 15.8617 1.04972 15.7868C0.987375 15.712 0.902769 15.5981 0.859724 15.5322C0.818163 15.4663 0.75879 15.3615 0.72762 15.3001C0.696449 15.2387 0.645982 15.1099 0.614812 15.0155C0.583641 14.9211 0.548018 14.7834 0.534659 14.7085C0.5213 14.6336 0.506457 14.4793 0.502004 14.364C0.497551 14.2412 0.50052 14.0854 0.51091 13.9896C0.5213 13.8997 0.546533 13.7439 0.567314 13.6451C0.58661 13.5462 0.628171 13.3875 0.656373 13.2931C0.684575 13.1988 0.730588 13.0565 0.760275 12.9786C0.788477 12.9007 0.859724 12.739 0.917612 12.6191C0.9755 12.4993 1.0794 12.3181 1.14768 12.2147C1.21596 12.1114 1.31986 11.9706 1.37775 11.9002C1.43564 11.8298 1.54399 11.713 1.61821 11.6396C1.69094 11.5662 1.80523 11.4629 1.87054 11.4105C1.93585 11.3565 2.0635 11.2637 2.15256 11.2038C2.24162 11.1439 2.39302 11.054 2.48653 11.0046C2.58005 10.9537 2.72699 10.8833 2.81308 10.8458C2.89917 10.8099 3.04909 10.7515 3.14705 10.717C3.24502 10.6841 3.43204 10.6301 3.56266 10.5972C3.69328 10.5642 3.88031 10.5253 3.97827 10.5088C4.07624 10.4909 4.24248 10.4684 4.34935 10.4549C4.45622 10.4429 4.68629 10.4265 4.86144 10.419C5.03659 10.4115 5.27259 10.41 5.3854 10.4145C5.54422 10.4235 5.58875 10.4205 5.58875 10.4055C5.58875 10.3965 5.74906 8.70407 5.9435 6.64768C6.13943 4.5898 6.31013 2.74459 6.32349 2.54689C6.33536 2.34919 6.35763 2.09608 6.3695 1.98524C6.38138 1.87441 6.40513 1.71565 6.42145 1.63328C6.4363 1.5509 6.46598 1.42659 6.48528 1.3562C6.50606 1.2858 6.54614 1.17197 6.57582 1.10158C6.60551 1.03119 6.66488 0.920356 6.70793 0.854456C6.75246 0.788556 6.83112 0.694198 6.88308 0.644773C6.93651 0.595348 7.0226 0.529448 7.07455 0.499493C7.1265 0.468041 7.27197 0.40963 7.39665 0.367693C7.51985 0.327254 7.72765 0.265847 7.8553 0.232897C7.98444 0.201445 8.18037 0.158011 8.29021 0.137042C8.40005 0.116074 8.59004 0.0861196 8.71324 0.0696445C8.83495 0.0531695 9.0294 0.0322012 9.14369 0.0232148Z" fill="#FFCB00"/>
</svg>
