<svg width="212" height="191" viewBox="0 0 212 191" fill="none" xmlns="http://www.w3.org/2000/svg">
<path d="M113.067 1.26808C111.743 0.330803 110.365 0 108.545 0C106.394 0 105.787 0.220476 104.794 1.48856C104.188 2.3707 103.526 3.63884 103.415 4.41072C103.25 5.1826 103.581 10.0344 104.188 15.1618C104.794 20.2893 105.456 28.2286 105.677 32.8047C105.897 37.8219 105.787 44.3277 105.346 49.3449C105.015 53.8659 104.132 60.9782 103.415 65.0581C102.643 69.1381 101.65 73.8795 101.154 75.5336L100.272 78.5659C98.617 76.4157 96.4109 73.2179 94.3702 70.0202C92.2744 66.8224 88.6343 62.136 86.2627 59.5999C83.8911 57.0637 80.4166 54.0313 78.5966 52.8735C76.7765 51.6605 73.5224 50.1719 71.4266 49.5103C68.7241 48.7385 66.9041 48.4628 65.3598 48.7385C64.1464 48.959 62.6021 49.5103 61.9403 49.9514C61.0027 50.5027 60.6718 51.2746 60.6718 52.7632C60.6718 54.2518 61.9955 57.615 65.3598 64.5068C67.8969 69.7997 70.9302 76.9119 72.0333 80.22C73.1364 83.528 74.4601 88.3798 75.0116 90.9711C75.5631 93.5624 76.28 98.0834 76.6109 101.005C77.0522 104.699 77.0522 107.566 76.6662 110.103C76.3352 112.198 76.0043 113.907 75.8389 113.962C75.6734 114.072 74.5152 112.308 73.2466 110.103C71.9781 107.952 69.772 104.148 68.338 101.722C66.904 99.2963 64.5324 95.7126 63.0984 93.7278C61.6645 91.743 58.3554 87.9387 55.7632 85.2923C53.171 82.5907 49.4206 79.3378 47.4351 78.0146C45.4495 76.6914 41.8646 74.7066 39.4379 73.6039C37.0111 72.5012 32.9298 70.9574 30.3376 70.1304C26.0357 68.8072 24.8775 68.697 15.7221 68.6418C6.12544 68.6418 5.68423 68.6969 3.31264 70.0202C1.93382 70.792 0.610125 72.005 0.33436 72.7769C0.0585946 73.5488 0.00338455 74.872 0.223997 75.8093C0.444609 76.7465 1.60285 78.3454 2.70591 79.3929C3.86412 80.4405 8.00063 83.1421 11.9165 85.4026C15.8324 87.6631 20.6307 90.6403 22.6162 92.1289C24.6017 93.5624 27.3593 95.9332 28.7381 97.4218C30.1721 98.8553 32.2128 101.281 33.371 102.825C34.5293 104.314 36.3493 107.456 37.5075 109.717C38.6657 111.977 40.4857 116.664 41.5888 120.027C42.6919 123.445 43.7398 127.69 43.9053 129.399C44.0707 131.164 43.9604 136.457 43.6295 141.143C43.2986 145.829 42.6919 151.674 42.1955 154.1C41.7543 156.525 40.4857 161.598 39.3827 165.402C37.3972 172.073 37.3972 172.349 38.2796 174.058C38.776 175.05 40.8167 177.146 42.9125 178.634C44.9531 180.178 49.3654 182.769 52.6746 184.423C55.9838 186.077 61.113 188.062 63.981 188.834C66.8489 189.606 71.8127 190.433 75.0116 190.764C78.3208 191.039 82.1263 191.094 83.836 190.819C85.4906 190.543 87.6967 189.937 88.6895 189.44C89.6271 188.944 90.6198 188.007 90.8404 187.29C91.0059 186.629 92.3296 184.589 93.7636 182.769C95.1976 180.95 97.9001 177.09 99.8304 174.223C101.761 171.357 105.125 166.78 107.331 164.024C109.537 161.267 113.508 156.911 116.211 154.32C118.858 151.674 122.664 148.2 124.649 146.546C126.635 144.892 130.109 142.025 132.371 140.095C134.632 138.221 138.879 135.078 141.747 133.149C144.615 131.274 150.185 127.911 154.156 125.706C158.127 123.5 165.573 119.972 170.702 117.877C175.831 115.781 182.394 113.355 185.207 112.473C187.965 111.536 193.922 110.158 198.444 109.386C202.911 108.614 207.489 107.787 208.647 107.456C209.971 107.125 210.798 106.574 210.964 105.857C211.129 105.251 211.129 104.314 210.964 103.762C210.853 103.266 209.53 102.163 208.096 101.336C206.662 100.509 203.132 98.9655 200.374 97.918C196.128 96.264 194.032 95.8229 188.241 95.3267C184.215 94.9959 177.596 94.8856 172.908 95.1061C168.386 95.2715 162.153 95.7678 159.12 96.2088C156.087 96.6499 152.557 97.2564 151.288 97.5321L148.917 98.1385C153.274 89.3722 156.197 83.9691 158.182 80.4956C160.168 77.0222 162.926 72.3909 164.36 70.2959C165.793 68.2008 172.026 59.5999 178.148 51.2746C184.325 42.9494 191.329 33.6318 193.756 30.5994C196.128 27.567 199.106 23.3217 200.374 21.2266C201.643 19.1315 202.636 16.7056 202.691 15.9337C202.691 15.1618 202.305 14.0591 201.864 13.5629C201.312 12.9013 200.209 12.6257 198.279 12.6257C196.017 12.6257 194.252 13.2873 188.351 16.1543C184.38 18.084 178.81 21.1163 175.942 22.8806C173.074 24.5897 168.33 27.7324 165.463 29.7723C162.595 31.8123 158.238 35.2306 155.811 37.3257C153.384 39.4208 149.634 43.2802 147.483 45.8164C145.277 48.3525 142.188 52.4324 140.589 54.8583C138.934 57.3393 136.011 62.1912 134.025 65.7749C132.04 69.3035 130.33 72.2255 130.165 72.2255C129.999 72.2255 129.723 65.83 129.503 58.0561C129.337 50.0617 128.786 41.4056 128.289 38.3181C127.848 35.2858 127.076 30.9301 126.58 28.6697C126.138 26.4092 125.09 22.5498 124.263 20.1239C123.491 17.698 122.002 13.9489 121.009 11.8538C119.961 9.75872 118.196 6.78147 117.038 5.23772C115.935 3.7491 114.115 1.92969 113.067 1.26808Z" fill="#FF8ED5"/>
</svg>
