<svg width="80" height="68" viewBox="0 0 80 68" fill="none" xmlns="http://www.w3.org/2000/svg">
<path fill-rule="evenodd" clip-rule="evenodd" d="M80 33.7973V62.5974C80 65.2374 77.84 67.3974 75.2 67.3974H28.8C27.92 67.3974 27.2 66.6774 27.2 65.7974C27.2 64.9174 27.92 64.1974 28.8 64.1974H51.2V32.1973H4.8C3.92 32.1973 3.2 32.9174 3.2 33.7973V40.3573C6.88 41.0774 9.6 44.2774 9.6 48.1973C9.6 52.0373 6.88 55.2374 3.2 56.0373V62.5974C3.2 63.4774 3.92 64.1974 4.8 64.1974H22.4C23.28 64.1974 24 64.9174 24 65.7974C24 66.6774 23.28 67.3974 22.4 67.3974H4.8C2.16 67.3974 0 65.2374 0 62.5974V54.5974C0 53.7174 0.72 52.9974 1.6 52.9974C4.24 52.9974 6.4 50.8374 6.4 48.1973C6.4 45.5574 4.24 43.3974 1.6 43.3974C0.72 43.3974 0 42.6774 0 41.7974V33.7973C0 31.1573 2.16 28.9973 4.8 28.9973H7.12L16.56 3.63735C17.04 2.43735 17.92 1.47735 19.04 0.997351C20.24 0.437351 21.52 0.437352 22.72 0.837352L42.16 8.11735C42.96 8.43735 43.44 9.31735 43.12 10.1974C42.8 10.9974 41.84 11.3974 41.04 11.0774L21.6 3.87735C21.2 3.71735 20.8 3.71735 20.4 3.87735C20 4.03735 19.68 4.35735 19.52 4.75735L10.48 28.9973H72L73.52 24.9973C73.68 24.5173 73.6 24.1174 73.44 23.7174C73.28 23.3174 72.96 23.0774 72.56 22.9174L47.44 13.4774C46.64 13.2374 46.16 12.2774 46.48 11.4774C46.8 10.5974 47.76 10.1974 48.56 10.5174L73.68 19.8774C74.88 20.3574 75.84 21.2373 76.4 22.4373C76.88 23.5573 76.96 24.9174 76.48 26.1174L75.44 28.9973C77.92 29.0773 80 31.1573 80 33.7973ZM76.8 51.3974H54.4V64.1974H75.2C76.08 64.1974 76.8 63.4774 76.8 62.5974V51.3974ZM76.8 33.7973C76.8 32.9174 76.08 32.1973 75.2 32.1973H54.4V48.1973H76.8V33.7973Z" fill="#00A44F"/>
<path d="M72.0004 60.9973C72.8804 60.9973 73.6004 60.2773 73.6004 59.3973V56.1973C73.6004 55.3173 72.8804 54.5973 72.0004 54.5973C71.1204 54.5973 70.4004 55.3173 70.4004 56.1973V59.3973C70.4004 60.2773 71.1204 60.9973 72.0004 60.9973Z" fill="#00A44F"/>
<path d="M65.6 60.9973C66.48 60.9973 67.2 60.2773 67.2 59.3973V56.1973C67.2 55.3173 66.48 54.5973 65.6 54.5973C64.72 54.5973 64 55.3173 64 56.1973V59.3973C64 60.2773 64.72 60.9973 65.6 60.9973Z" fill="#00A44F"/>
<path d="M59.1996 60.9973C60.0796 60.9973 60.7996 60.2773 60.7996 59.3973V56.1973C60.7996 55.3173 60.0796 54.5973 59.1996 54.5973C58.3196 54.5973 57.5996 55.3173 57.5996 56.1973V59.3973C57.5996 60.2773 58.3196 60.9973 59.1996 60.9973Z" fill="#00A44F"/>
<path d="M71.9996 35.3972H59.1996C58.3196 35.3972 57.5996 36.1172 57.5996 36.9972C57.5996 37.8772 58.3196 38.5972 59.1996 38.5972H71.9996C72.8796 38.5972 73.5996 37.8772 73.5996 36.9972C73.5996 36.1172 72.8796 35.3972 71.9996 35.3972Z" fill="#00A44F"/>
<path d="M68.7996 41.7973H59.1996C58.3196 41.7973 57.5996 42.5173 57.5996 43.3973C57.5996 44.2773 58.3196 44.9973 59.1996 44.9973H68.7996C69.6796 44.9973 70.3996 44.2773 70.3996 43.3973C70.3996 42.5173 69.6796 41.7973 68.7996 41.7973Z" fill="#00A44F"/>
<path fill-rule="evenodd" clip-rule="evenodd" d="M36.6404 42.5173L34.5604 46.5973H37.2804L38.4804 42.8373C38.7204 42.1973 39.2804 41.7973 40.0004 41.7973H44.8004C45.6804 41.7973 46.4004 42.5173 46.4004 43.3973V51.3973C46.4004 54.0373 44.2404 56.1973 41.6004 56.1973H18.0804C16.0804 56.1973 14.4004 54.5173 14.4004 52.5173C14.4004 51.2373 15.0404 50.1173 16.0804 49.3973L19.9204 46.8373C20.1871 46.6773 20.4804 46.5973 20.8004 46.5973H24.8004L29.1204 40.8373C29.4404 40.4373 29.9204 40.1973 30.4004 40.1973H35.2004C35.7604 40.1973 36.2404 40.4373 36.5604 40.9173C36.8804 41.3973 36.8804 41.9573 36.6404 42.5173ZM32.0004 49.7973C31.4404 49.7973 30.9604 49.4773 30.6404 48.9973C30.3204 48.5173 30.3204 47.9573 30.5604 47.4773L32.6404 43.3973H31.2004L26.8804 49.1573C26.5604 49.5573 26.0804 49.7973 25.6004 49.7973H21.2804L17.8404 52.1173C17.6804 52.1973 17.6004 52.3573 17.6004 52.5173C17.6004 52.7573 17.8404 52.9973 18.0804 52.9973H41.6004C42.4804 52.9973 43.2004 52.2773 43.2004 51.3973V44.9973H41.1204L39.9204 48.6773C39.6804 49.3173 39.1204 49.7973 38.4004 49.7973H32.0004Z" fill="#00A44F"/>
<path d="M6.40039 36.9972C6.40039 37.8772 7.12039 38.5972 8.00039 38.5972C8.88039 38.5972 9.60039 37.8772 9.60039 36.9972C9.60039 36.1172 8.88039 35.3972 8.00039 35.3972C7.12039 35.3972 6.40039 36.1172 6.40039 36.9972Z" fill="#00A44F"/>
<path d="M6.40039 59.3973C6.40039 60.2773 7.12039 60.9973 8.00039 60.9973C8.88039 60.9973 9.60039 60.2773 9.60039 59.3973C9.60039 58.5173 8.88039 57.7973 8.00039 57.7973C7.12039 57.7973 6.40039 58.5173 6.40039 59.3973Z" fill="#00A44F"/>
<path d="M46.3998 35.3973C45.5198 35.3973 44.7998 36.1173 44.7998 36.9973C44.7998 37.8773 45.5198 38.5973 46.3998 38.5973C47.2798 38.5973 47.9998 37.8773 47.9998 36.9973C47.9998 36.1173 47.2798 35.3973 46.3998 35.3973Z" fill="#00A44F"/>
<path d="M46.3998 57.7973C45.5198 57.7973 44.7998 58.5173 44.7998 59.3973C44.7998 60.2773 45.5198 60.9973 46.3998 60.9973C47.2798 60.9973 47.9998 60.2773 47.9998 59.3973C47.9998 58.5173 47.2798 57.7973 46.3998 57.7973Z" fill="#00A44F"/>
</svg>
