<svg width="80" height="74" viewBox="0 0 80 74" fill="none" xmlns="http://www.w3.org/2000/svg">
<path fill-rule="evenodd" clip-rule="evenodd" d="M80 8.14836V65.7484C80 66.2284 79.76 66.7084 79.36 67.0284C78.96 67.3484 78.48 67.4284 78 67.2684L52.96 61.0284L27.92 73.5884C27.6 73.7484 27.2 73.7484 26.8 73.6684L10.8 69.6684C9.92 69.5084 9.44 68.6284 9.68 67.7484C9.84 66.8684 10.72 66.3884 11.6 66.6283L14.4 67.2684V65.7484C14.4 64.1484 15.44 62.6284 17.04 62.1484L18.72 61.5084C19.04 61.4284 19.2 61.1884 19.2 60.9484V60.7084C19.2 59.2684 20 57.9084 21.36 57.2684L22.8 56.5484C23.36 56.3084 23.92 56.1484 24.56 56.1484H25.6V41.7484C25.6 40.8684 26.32 40.1484 27.2 40.1484C28.08 40.1484 28.8 40.8684 28.8 41.7484V56.1484H30.4C30.64 56.1484 30.88 55.9884 30.96 55.6684L31.76 53.3484C32.08 52.3884 32.8 51.5884 33.76 51.1084L35.76 50.0684C35.8133 50.0684 35.8667 50.0417 35.92 49.9884L37.28 48.6284C38.8 47.1084 41.2 47.1084 42.72 48.6284L43.68 49.5884C43.7867 49.695 43.9467 49.7484 44.16 49.7484C46.24 49.7484 48 51.5084 48 53.5884V55.7484C48 55.855 48 55.935 48 55.9884L49.2 59.3484L51.2 58.3884V4.30836L28.8 15.5084V22.5484C29.68 22.5484 30.4 23.2684 30.4 24.1484C30.4 25.0284 29.68 25.7484 28.8 25.7484V35.3484C28.8 36.2284 28.08 36.9484 27.2 36.9484C26.32 36.9484 25.6 36.2284 25.6 35.3484V25.7484C24.72 25.7484 24 25.0284 24 24.1484C24 23.2684 24.72 22.5484 25.6 22.5484V15.8284L3.2 10.2284V64.4684L5.2 65.0284C6.08 65.1884 6.56 66.0684 6.32 66.9484C6.16 67.8284 5.28 68.3084 4.4 68.0684L1.2 67.2684C0.48 67.1084 0 66.4684 0 65.7484V8.14836C0 7.66836 0.24 7.18836 0.64 6.86836C1.04 6.54836 1.52 6.46836 2 6.62836L27.04 12.8684L52.08 0.308358C52.4 0.148358 52.8 0.0683573 53.2 0.228357L78.8 6.62836C79.52 6.78836 80 7.42836 80 8.14836ZM25.6 59.3484H24.56C24.4533 59.3484 24.3467 59.375 24.24 59.4284L22.8 60.1484C22.56 60.2284 22.4 60.4684 22.4 60.7084V60.9484C22.4 62.5484 21.36 64.0684 19.76 64.5484L18.08 65.1884C17.76 65.2684 17.6 65.5084 17.6 65.7484V68.0684L25.6 70.0684V59.3484ZM46.24 60.8684L44.96 57.0284C44.8533 56.655 44.8 56.255 44.8 55.8284V53.6684C44.8 53.2684 44.48 52.9484 44.16 52.9484C43.12 52.9484 42.16 52.5484 41.44 51.8284L40.48 50.8684C40.24 50.6284 39.76 50.6284 39.52 50.9484L38.16 52.2284C37.8933 52.5484 37.5733 52.7884 37.2 52.9484L35.12 53.9884C34.96 54.095 34.8533 54.2284 34.8 54.3884L34 56.7084C33.52 58.3084 32 59.3484 30.4 59.3484H28.8V69.5884L46.24 60.8684ZM76.8 54.3884L76 54.8684C74.48 55.9084 72.4 55.7484 71.12 54.3884L69.92 53.1884C69.2 52.4684 68.8 51.5084 68.8 50.4684C68.8 50.0684 68.48 49.8284 68.08 49.8284H67.2C66.88 49.8284 66.64 49.9884 66.56 50.2284L65.84 52.3884C65.44 53.5884 64.56 54.4684 63.36 54.8684L61.68 55.4284C61.36 55.5884 61.12 55.9084 61.2 56.2284L62.16 60.0684L76.8 63.7484V54.3884ZM76.8 9.42836L54.4 3.82836V41.8284H57.6C58.48 41.8284 59.2 42.5484 59.2 43.4284C59.2 44.3084 58.48 45.0284 57.6 45.0284H54.4V58.1484L58.64 59.1884L58.16 57.0284C57.6 55.0284 58.72 53.0284 60.64 52.3884L62.4 51.8284C62.56 51.7484 62.72 51.5884 62.8 51.4284L63.52 49.2684C64.08 47.6684 65.52 46.6284 67.2 46.6284H68.08C70.24 46.6284 72 48.3084 72 50.4684C72 50.6284 72.0533 50.7884 72.16 50.9484L73.36 52.1484C73.6 52.3884 74 52.3884 74.24 52.2284L76.8 50.5484V9.42836Z" fill="#FF3400"/>
<path d="M13.2804 55.6684C13.8404 56.2284 14.8804 56.3084 15.5204 55.6684C16.1604 55.0284 16.1604 54.0684 15.5204 53.4284L13.4404 51.3484L15.5204 49.2684C16.1604 48.6284 16.1604 47.6684 15.5204 47.0284C14.8804 46.3884 13.9204 46.3884 13.2804 47.0284L11.2004 49.1084L9.12039 47.0284C8.48039 46.3884 7.52039 46.3884 6.88039 47.0284C6.24039 47.6684 6.24039 48.6284 6.88039 49.2684L8.96039 51.3484L6.88039 53.4284C6.24039 54.0684 6.24039 55.0284 6.88039 55.6684C7.44039 56.3084 8.48039 56.3084 9.12039 55.6684L11.2004 53.5884L13.2804 55.6684Z" fill="#FF3400"/>
<path fill-rule="evenodd" clip-rule="evenodd" d="M57.5996 17.7483C57.5996 13.3483 61.1996 9.74832 65.5996 9.74832C69.9996 9.74832 73.5996 13.3483 73.5996 17.7483C73.5996 21.7483 67.8396 27.4283 66.7196 28.4683C66.3996 28.7883 65.9996 28.9483 65.5996 28.9483C65.1996 28.9483 64.7996 28.7883 64.4796 28.4683C63.3596 27.4283 57.5996 21.7483 57.5996 17.7483ZM60.7996 17.7483C60.7996 19.4283 63.3596 22.7083 65.5996 25.1083C67.8396 22.7083 70.3996 19.4283 70.3996 17.7483C70.3996 15.1083 68.2396 12.9483 65.5996 12.9483C62.9596 12.9483 60.7996 15.1083 60.7996 17.7483Z" fill="#FF3400"/>
<path d="M67.2 17.7483C67.2 16.8683 66.48 16.1483 65.6 16.1483C64.72 16.1483 64 16.8683 64 17.7483C64 18.6283 64.72 19.3483 65.6 19.3483C66.48 19.3483 67.2 18.6283 67.2 17.7483Z" fill="#FF3400"/>
<path d="M65.6 30.5483C64.72 30.5483 64 31.2683 64 32.1483V35.3483C64 36.2283 64.72 36.9483 65.6 36.9483C66.48 36.9483 67.2 36.2283 67.2 35.3483V32.1483C67.2 31.2683 66.48 30.5483 65.6 30.5483Z" fill="#FF3400"/>
<path d="M65.5998 38.5483C64.7198 38.5483 63.9998 39.2683 63.9998 40.1483C63.9998 41.0283 63.2798 41.7483 62.3998 41.7483C61.5198 41.7483 60.7998 42.4683 60.7998 43.3483C60.7998 44.2283 61.5198 44.9483 62.3998 44.9483C65.0398 44.9483 67.1998 42.7883 67.1998 40.1483C67.1998 39.2683 66.4798 38.5483 65.5998 38.5483Z" fill="#FF3400"/>
<path d="M48.0002 44.9483C48.8802 44.9483 49.6002 44.2283 49.6002 43.3483C49.6002 42.4683 48.8802 41.7483 48.0002 41.7483C47.1202 41.7483 46.4002 41.0283 46.4002 40.1483C46.4002 39.2683 45.6802 38.5483 44.8002 38.5483C43.9202 38.5483 43.2002 39.2683 43.2002 40.1483C43.2002 42.7883 45.3602 44.9483 48.0002 44.9483Z" fill="#FF3400"/>
<path d="M44.8002 36.9483C45.6802 36.9483 46.4002 36.2283 46.4002 35.3483V32.1483C46.4002 31.2683 45.6802 30.5483 44.8002 30.5483C43.9202 30.5483 43.2002 31.2683 43.2002 32.1483V35.3483C43.2002 36.2283 43.9202 36.9483 44.8002 36.9483Z" fill="#FF3400"/>
<path d="M41.6 22.5483C40.72 22.5483 40 23.2683 40 24.1483C40 25.0283 40.72 25.7483 41.6 25.7483C42.48 25.7483 43.2 26.4683 43.2 27.3483C43.2 28.2283 43.92 28.9483 44.8 28.9483C45.68 28.9483 46.4 28.2283 46.4 27.3483C46.4 24.7083 44.24 22.5483 41.6 22.5483Z" fill="#FF3400"/>
<path d="M36.8 25.7483C37.68 25.7483 38.4 25.0283 38.4 24.1483C38.4 23.2683 37.68 22.5483 36.8 22.5483H33.6C32.72 22.5483 32 23.2683 32 24.1483C32 25.0283 32.72 25.7483 33.6 25.7483H36.8Z" fill="#FF3400"/>
<path d="M20.8 25.7483C21.68 25.7483 22.4 25.0283 22.4 24.1483C22.4 23.2683 21.68 22.5483 20.8 22.5483H17.6C16.72 22.5483 16 23.2683 16 24.1483C16 25.0283 16.72 25.7483 17.6 25.7483H20.8Z" fill="#FF3400"/>
<path d="M9.6 28.9483C10.48 28.9483 11.2 28.2283 11.2 27.3483C11.2 26.4683 11.92 25.7483 12.8 25.7483C13.68 25.7483 14.4 25.0283 14.4 24.1483C14.4 23.2683 13.68 22.5483 12.8 22.5483C10.16 22.5483 8 24.7083 8 27.3483C8 28.2283 8.72 28.9483 9.6 28.9483Z" fill="#FF3400"/>
<path d="M8 35.3483C8 36.2283 8.72 36.9483 9.6 36.9483C10.48 36.9483 11.2 36.2283 11.2 35.3483V32.1483C11.2 31.2683 10.48 30.5483 9.6 30.5483C8.72 30.5483 8 31.2683 8 32.1483V35.3483Z" fill="#FF3400"/>
<path d="M8 43.3483C8 44.2283 8.72 44.9483 9.6 44.9483C10.48 44.9483 11.2 44.2283 11.2 43.3483V40.1483C11.2 39.2683 10.48 38.5483 9.6 38.5483C8.72 38.5483 8 39.2683 8 40.1483V43.3483Z" fill="#FF3400"/>
</svg>
