<svg width="18" height="19" viewBox="0 0 18 19" fill="none" xmlns="http://www.w3.org/2000/svg">
<path d="M3.28869 0.102797C3.33283 0.0830939 3.43113 0.0515684 3.50938 0.031865C3.62373 0.000339451 3.69796 -0.00360124 3.9006 0.0023098C4.04304 0.00822083 4.20354 0.0259539 4.27175 0.043687C4.33796 0.0614201 4.46435 0.110679 4.55263 0.152056C4.6409 0.195404 4.77131 0.272247 4.84353 0.325446C4.91576 0.378646 5.18259 0.622968 5.43538 0.865321C5.68817 1.10964 6.00114 1.42293 6.13155 1.56282C6.25995 1.70272 6.44452 1.9096 6.54082 2.02388C6.63712 2.13816 6.85982 2.42189 7.03637 2.65439C7.21292 2.88689 7.38144 3.10166 7.40953 3.13319C7.43762 3.16274 7.47172 3.18639 7.48175 3.18639C7.49178 3.18639 7.52188 3.09575 7.54796 2.98541C7.57404 2.8731 7.63222 2.6406 7.67636 2.46721C7.7205 2.29382 7.81078 1.99236 7.87498 1.79729C7.93918 1.60223 8.02946 1.3717 8.0756 1.285C8.11974 1.19831 8.18996 1.07812 8.23008 1.01901C8.27222 0.959897 8.35849 0.857439 8.42469 0.792418C8.49892 0.717545 8.59924 0.644642 8.6855 0.603265C8.76375 0.563858 8.88011 0.52051 8.94632 0.506718C9.02456 0.490955 9.14092 0.485044 9.27735 0.492926C9.39973 0.498837 9.5502 0.522481 9.63847 0.546125C9.72073 0.569769 9.85114 0.620998 9.92938 0.660405C10.0156 0.705723 10.12 0.782566 10.2002 0.86138C10.2785 0.938223 10.3607 1.04659 10.4029 1.12738C10.445 1.20422 10.5052 1.35003 10.5373 1.45248C10.5714 1.55494 10.6175 1.72833 10.6396 1.8367C10.6617 1.94507 10.6897 2.15787 10.7018 2.30958C10.7178 2.50859 10.7178 2.67016 10.7038 2.89083C10.6918 3.05831 10.6576 3.34204 10.6296 3.52135C10.6015 3.70065 10.5513 3.98832 10.5192 4.16171C10.4851 4.3351 10.3407 5.0129 10.1982 5.66902C9.95546 6.77832 9.93941 6.86699 9.95947 6.94974C9.97352 6.999 10.122 7.26697 10.2945 7.5507C10.4671 7.83246 10.6235 8.08072 10.6436 8.1024C10.6637 8.12407 10.6918 8.13589 10.7058 8.12998C10.7198 8.1221 10.7419 8.09649 10.756 8.07087C10.77 8.04526 10.8462 7.84231 10.9245 7.61966C11.0027 7.39701 11.1572 6.999 11.2635 6.73301C11.3719 6.46701 11.5364 6.07688 11.6307 5.86606C11.725 5.65523 11.8855 5.30845 11.9858 5.09762C12.0861 4.88679 12.2326 4.59321 12.3108 4.44741C12.389 4.3016 12.5295 4.0494 12.6238 3.88586C12.7161 3.72429 12.8485 3.51149 12.9167 3.41495C12.9829 3.3184 13.1073 3.17653 13.1915 3.09969C13.2758 3.02285 13.3982 2.92827 13.4624 2.89083C13.5266 2.8534 13.6349 2.80217 13.7011 2.77853C13.7673 2.75488 13.8937 2.7273 13.982 2.71547C14.0763 2.70365 14.1967 2.70365 14.2729 2.71153C14.3451 2.72139 14.4434 2.73912 14.4936 2.75291C14.5438 2.76473 14.6421 2.80611 14.7143 2.84355C14.7865 2.87901 14.8989 2.95586 14.9631 3.013C15.0273 3.07014 15.1196 3.17062 15.1657 3.23565C15.2138 3.30067 15.2801 3.40904 15.3142 3.478C15.3483 3.54499 15.3984 3.677 15.4265 3.77355C15.4586 3.87601 15.4867 4.04743 15.5007 4.20111C15.5188 4.39224 15.5188 4.53607 15.5007 4.77251C15.4887 4.9459 15.4546 5.22175 15.4265 5.38332C15.3984 5.54686 15.3302 5.86014 15.276 6.08279C15.2199 6.30544 15.1336 6.6207 15.0854 6.78227C15.0373 6.9458 14.935 7.25909 14.8587 7.48174C14.7825 7.70439 14.6601 8.0354 14.5879 8.22062C14.5157 8.40583 14.4234 8.63439 14.3833 8.73291C14.3411 8.83142 14.2027 9.1585 14.0723 9.46193C13.9419 9.76537 13.7413 10.2225 13.6249 10.4767C13.5105 10.7308 13.334 11.1072 13.2357 11.3141C13.1354 11.5209 13.0491 11.716 13.0431 11.7475C13.0391 11.7791 13.0431 11.8382 13.0531 11.8756C13.0652 11.913 13.2176 12.1455 13.3922 12.3938C13.5988 12.6834 13.7232 12.8411 13.7473 12.8411C13.7653 12.843 13.7954 12.8273 13.8135 12.8076C13.8315 12.7879 13.8937 12.6559 13.9519 12.516C14.0101 12.3761 14.1144 12.1318 14.1846 11.9741C14.2549 11.8165 14.3893 11.5505 14.4856 11.383C14.5799 11.2155 14.7444 10.9495 14.8507 10.7919C14.9912 10.5811 15.0955 10.455 15.2439 10.3072C15.4125 10.1417 15.4747 10.0944 15.6171 10.0255C15.7114 9.98013 15.8518 9.93088 15.9281 9.91511C16.0043 9.89935 16.1207 9.88556 16.1849 9.88556C16.2471 9.88556 16.3694 9.89935 16.4557 9.91708C16.54 9.93285 16.6824 9.98211 16.7707 10.0235C16.859 10.0668 16.9814 10.1437 17.0415 10.1969C17.1017 10.2501 17.194 10.3545 17.2442 10.4294C17.2963 10.5042 17.3565 10.6185 17.3806 10.6835C17.4067 10.7486 17.4388 10.8628 17.4568 10.9397C17.4729 11.0165 17.4909 11.2057 17.497 11.3633C17.505 11.5682 17.497 11.7062 17.4749 11.8559C17.4568 11.9702 17.4007 12.2362 17.3505 12.447C17.2983 12.6578 17.2181 12.9691 17.1679 13.1366C17.1198 13.3041 16.9934 13.6726 16.8911 13.9543C16.7888 14.2361 16.5079 14.973 16.2691 15.5897C16.0304 16.2064 15.7977 16.7877 15.7515 16.8803C15.7054 16.9729 15.6171 17.1226 15.5569 17.2152C15.4947 17.3078 15.3864 17.4438 15.3142 17.5187C15.2439 17.5935 15.1316 17.6921 15.0654 17.7394C14.9992 17.7847 14.8688 17.8576 14.7745 17.9009C14.6802 17.9443 14.5458 17.9955 14.4735 18.0152C14.3632 18.0448 14.2328 18.0507 13.6209 18.0585C13.2236 18.0625 12.69 18.0566 12.4372 18.0448C12.1844 18.031 11.8173 18.0093 11.6247 17.9916C11.4321 17.9758 11.1211 17.9443 10.9325 17.9246C10.7439 17.9029 10.443 17.8615 10.2604 17.8339C10.0778 17.8063 9.76687 17.7531 9.56825 17.7157C9.36964 17.6783 9.09879 17.6211 8.96638 17.5896C8.83397 17.5581 8.65742 17.5049 8.57516 17.4714C8.4929 17.4399 8.37454 17.3827 8.31435 17.3473C8.25416 17.3138 8.12175 17.2054 8.02344 17.1069C7.89705 16.9827 7.82081 16.8882 7.76865 16.7916C7.72852 16.7167 7.68037 16.6005 7.66432 16.5355C7.64627 16.4704 7.63222 16.3522 7.63222 16.2754C7.63222 16.1966 7.64225 16.0843 7.65429 16.0291C7.66633 15.972 7.71047 15.8537 7.7526 15.767C7.79272 15.6803 7.87097 15.5523 7.92514 15.4833C7.9793 15.4124 8.0736 15.3158 8.13379 15.2646C8.19397 15.2153 8.2983 15.1424 8.3645 15.103C8.43071 15.0636 8.5571 15.0025 8.64538 14.969C8.73365 14.9336 8.92425 14.8745 9.06669 14.839C9.20914 14.8035 9.43985 14.7562 9.57829 14.7346C9.71672 14.7129 9.94142 14.6853 10.0798 14.6755C10.2183 14.6636 10.3868 14.6518 10.455 14.6499C10.5232 14.6459 10.5914 14.6321 10.6055 14.6183C10.6276 14.5967 10.6215 14.575 10.5734 14.4903C10.5413 14.4331 10.453 14.2932 10.3788 14.177C10.2704 14.0095 10.2283 13.9622 10.1862 13.9523C10.1521 13.9445 10.0658 13.9583 9.9695 13.9858C9.82104 14.0292 9.7749 14.0331 9.37766 14.0312C9.04061 14.0312 8.80989 14.0174 8.32438 13.9661C7.98332 13.9326 7.45367 13.8735 7.15072 13.8341C6.84778 13.7967 6.39035 13.7356 6.13757 13.6962C5.88478 13.6588 5.28691 13.5603 4.81344 13.4795C4.33996 13.3987 3.82035 13.3041 3.65985 13.2726C3.49935 13.2411 3.28267 13.1918 3.17834 13.1642C3.07402 13.1366 2.85333 13.0736 2.68681 13.0243C2.5223 12.9751 2.25948 12.8884 2.105 12.8312C1.95052 12.7741 1.7198 12.6815 1.59341 12.6263C1.46701 12.5692 1.29448 12.4825 1.21222 12.4332C1.12996 12.382 0.993538 12.2736 0.911281 12.1909C0.806956 12.0884 0.734731 11.9958 0.67655 11.8855C0.632413 11.7988 0.572225 11.6608 0.546144 11.5801C0.508025 11.4599 0.5 11.3889 0.5 11.2057C0.502006 11.0224 0.510031 10.9555 0.54815 10.851C0.572225 10.7801 0.6284 10.6698 0.670531 10.6047C0.714669 10.5397 0.786894 10.451 0.835044 10.4057C0.883194 10.3624 0.957425 10.2993 1.00156 10.2658C1.0457 10.2323 1.15003 10.1693 1.23228 10.1259C1.31454 10.0806 1.46501 10.0195 1.56331 9.98605C1.66162 9.95452 1.83014 9.91511 1.93447 9.89738C2.03879 9.88162 2.34575 9.85206 2.61659 9.83236C2.95966 9.80871 3.34486 9.79886 3.89056 9.79886C4.50046 9.79886 4.74121 9.80674 4.98397 9.83236C5.1545 9.85206 5.4434 9.8895 5.62597 9.91708C5.80854 9.94467 6.12352 9.99787 6.32816 10.0353C6.5328 10.0727 6.89994 10.1476 7.1447 10.2028C7.39147 10.256 7.6242 10.2993 7.66232 10.2993C7.70043 10.2993 7.73655 10.2934 7.74257 10.2855C7.74658 10.2757 7.69442 10.1772 7.6262 10.0629C7.55598 9.94861 7.41755 9.73187 7.31724 9.58015C7.19486 9.39494 7.11461 9.29642 7.07649 9.27672C7.0464 9.26293 6.86784 9.19594 6.67925 9.12698C6.49067 9.05998 6.17167 8.93782 5.96703 8.85704C5.7624 8.77428 5.22271 8.55163 4.7693 8.36051C4.31388 8.16939 3.82235 7.95659 3.67991 7.88566C3.53746 7.81473 3.34085 7.7103 3.24455 7.65119C3.14625 7.59208 2.98775 7.48371 2.88744 7.40884C2.78713 7.33396 2.66876 7.22756 2.62462 7.17436C2.57848 7.12116 2.51428 7.03447 2.48017 6.9793C2.44606 6.9261 2.3939 6.80985 2.36381 6.72316C2.31164 6.58129 2.30763 6.53991 2.30563 6.28968C2.30563 6.069 2.31365 5.99216 2.34374 5.90546C2.36381 5.84635 2.40794 5.74389 2.44205 5.67887C2.47616 5.60991 2.55841 5.50548 2.63465 5.42864C2.72894 5.33603 2.8112 5.27889 2.91753 5.22766C2.99979 5.18826 3.13621 5.14294 3.21847 5.12521C3.32681 5.10156 3.42511 5.09762 3.56956 5.10353C3.67991 5.11141 3.92266 5.14688 4.11125 5.18432C4.29984 5.22175 4.46636 5.24737 4.48241 5.23949C4.49846 5.23357 4.51852 5.21978 4.52655 5.20796C4.53457 5.19614 4.53658 5.16855 4.52855 5.14688C4.52253 5.12521 4.38009 4.88088 4.21558 4.60503C4.05106 4.32919 3.82235 3.943 3.71 3.74793C3.59765 3.55287 3.41508 3.22973 3.30474 3.02876C3.1944 2.82778 3.0359 2.53223 2.95164 2.36869C2.86938 2.20713 2.76907 1.98054 2.72894 1.86626C2.68882 1.75198 2.64067 1.5845 2.62462 1.49189C2.60857 1.39928 2.59653 1.26924 2.59653 1.20225C2.59653 1.13329 2.61058 1.00916 2.62863 0.926401C2.64669 0.841677 2.68481 0.719515 2.71691 0.654494C2.747 0.589472 2.81722 0.483074 2.87139 0.420023C2.92355 0.355001 3.02186 0.264366 3.08806 0.219048C3.15427 0.17373 3.24455 0.12053 3.28869 0.102797Z" fill="#00E4B2"/>
</svg>
