<svg width="13" height="20" viewBox="0 0 13 20" fill="none" xmlns="http://www.w3.org/2000/svg">
<path d="M3.36356 0.0986993C3.41527 0.0697877 3.49284 0.037985 3.53593 0.0235292C3.57902 0.0119645 3.71117 0.000399892 3.82895 0.000399892C4.00706 -0.00249127 4.07026 0.00907337 4.20241 0.0755701C4.29147 0.118937 4.43511 0.231693 4.53278 0.329992C4.62758 0.428292 4.76835 0.616217 4.84879 0.74921C4.92635 0.885095 5.04126 1.11639 5.10159 1.26962C5.16192 1.41996 5.26247 1.72064 5.32567 1.93459C5.38887 2.14853 5.48367 2.52727 5.53825 2.77302C5.58996 3.01877 5.68764 3.5334 5.75084 3.91503C5.81404 4.29666 5.91172 4.95874 5.96917 5.38952C6.02663 5.82031 6.08696 6.23663 6.14154 6.47082L6.50064 5.94462C6.69886 5.65551 7.01486 5.21027 7.20447 4.95585C7.39407 4.70143 7.67847 4.33714 7.83648 4.14632C7.99448 3.95551 8.26739 3.64615 8.44263 3.45244C8.61787 3.26163 8.87642 2.99564 9.01719 2.85976C9.16083 2.72387 9.37054 2.53595 9.48832 2.44054C9.60611 2.34513 9.78709 2.20636 9.89051 2.13119C9.99393 2.05891 10.1749 1.94615 10.2927 1.87965C10.4105 1.81605 10.6058 1.72931 10.7236 1.68884C10.8414 1.64836 11.031 1.60788 11.1402 1.59632C11.301 1.58186 11.3815 1.59054 11.5424 1.63969C11.663 1.67727 11.7952 1.74377 11.8727 1.80737C11.9445 1.8652 12.0566 1.98374 12.1227 2.07336C12.1916 2.16588 12.2778 2.32778 12.318 2.44054C12.3582 2.55329 12.4099 2.73255 12.4329 2.8453C12.4588 2.95806 12.4846 3.21826 12.4961 3.42353C12.5047 3.65194 12.499 3.93527 12.4789 4.14632C12.4588 4.33714 12.4099 4.67541 12.3726 4.89803C12.3324 5.12064 12.2519 5.50517 12.1887 5.75092C12.1284 5.99667 12.0164 6.38697 11.9417 6.61827C11.8699 6.84956 11.7233 7.25721 11.6228 7.52898C11.5194 7.80075 11.2809 8.37898 11.0971 8.81555C10.9103 9.25211 10.6001 9.96045 10.4047 10.3912C10.2094 10.822 9.82731 11.62 9.55727 12.1693C9.28436 12.7186 8.9425 13.3865 8.79598 13.6582C8.65235 13.93 8.37656 14.4244 8.18696 14.7569C7.99735 15.0894 7.71869 15.5664 7.56931 15.8122C7.41992 16.0579 7.15276 16.4742 6.98039 16.7373C6.80515 17.0004 6.55234 17.3647 6.41732 17.5469C6.2823 17.729 6.04386 18.0355 5.88586 18.2263C5.72786 18.4171 5.43196 18.7409 5.22512 18.9491C5.01828 19.1572 4.731 19.4088 4.59024 19.5099C4.4466 19.6082 4.25987 19.7297 4.17368 19.773C4.0875 19.8164 3.92663 19.88 3.81459 19.9147C3.70255 19.9494 3.51007 19.987 3.38367 19.9957C3.21992 20.0072 3.09639 19.9957 2.95275 19.961C2.84072 19.9349 2.67409 19.8742 2.57929 19.8222C2.473 19.7673 2.315 19.6372 2.16274 19.4839C2.01623 19.3365 1.86397 19.1428 1.78353 19.004C1.70597 18.8797 1.58244 18.631 1.50487 18.4576C1.42731 18.2841 1.30665 17.9574 1.23196 17.7348C1.16014 17.5122 1.05385 17.1421 0.999265 16.9108C0.944683 16.6795 0.861372 16.2632 0.815408 15.9856C0.76657 15.7081 0.703369 15.2455 0.671769 14.9593C0.637295 14.673 0.591331 14.1989 0.565476 13.904C0.536748 13.5686 0.513765 12.869 0.505147 12.0392C0.493656 11.2008 0.502274 10.4433 0.522384 9.98647C0.542493 9.59038 0.576967 9.01793 0.599949 8.71436C0.622931 8.41078 0.660277 7.95687 0.686132 7.70245C0.709114 7.44803 0.75508 7.0317 0.78668 6.77728C0.818281 6.52286 0.86999 6.15279 0.901591 5.9533C0.930318 5.75381 0.996392 5.38952 1.04523 5.14377C1.09407 4.89803 1.186 4.48748 1.24632 4.23306C1.30953 3.97864 1.41582 3.59411 1.47902 3.38017C1.54222 3.16622 1.64564 2.85976 1.7031 2.70074C1.76342 2.54173 1.85823 2.29598 1.91855 2.15142C1.97601 2.00686 2.10528 1.72931 2.20583 1.52982C2.30638 1.33033 2.44427 1.08458 2.51035 0.980503C2.57642 0.876421 2.69708 0.708734 2.78039 0.604652C2.8637 0.500571 3.00734 0.356013 3.09927 0.283734C3.19407 0.211455 3.31185 0.127611 3.36356 0.0986993Z" fill="#2111DD"/>
</svg>
