<svg width="65" height="60" viewBox="0 0 65 60" fill="none" xmlns="http://www.w3.org/2000/svg">
<path d="M28.3219 59.1749C29.9126 59.718 30.4752 59.815 32.4927 59.8732C34.3356 59.912 35.1116 59.8538 36.1786 59.5628C36.9157 59.3495 37.8857 59.0392 38.3125 58.8646C38.7393 58.6707 39.7092 58.1276 40.4464 57.6621C41.1836 57.1772 42.5415 56.0329 43.4532 55.1019C44.365 54.1904 45.7229 52.503 46.4795 51.3974C47.236 50.2725 49.176 47.0917 50.7861 44.3182C52.3768 41.5447 54.5496 37.7432 55.6165 35.8812C56.6641 34.0193 58.119 31.1876 58.8562 29.5778C59.5933 27.9874 60.8737 24.9229 61.7078 22.7894C62.5614 20.656 63.3956 18.6583 63.5702 18.3285C63.7447 17.9988 64.0745 17.3976 64.2879 16.9709C64.5789 16.4278 64.7147 15.7296 64.7535 14.6434C64.7923 13.7901 64.7341 12.7815 64.6371 12.413C64.5207 12.0445 64.1521 11.4626 63.7835 11.1329C63.4149 10.8032 62.8136 10.4928 62.3674 10.3959C61.7079 10.2795 61.3975 10.3571 60.3305 10.8808C59.2247 11.4238 58.0608 12.51 50.8637 19.6668C46.3631 24.1665 42.5609 27.8322 42.4251 27.8322C42.2893 27.8322 42.1147 27.4055 42.0177 26.8624C41.9401 26.3388 41.5133 24.1471 41.1059 22.0136C40.6792 19.8801 39.8256 16.0399 39.1854 13.4797C38.5452 10.9195 37.6723 7.77751 37.2261 6.49742C36.7993 5.21733 36.1785 3.60751 35.8682 2.90928C35.5384 2.21105 35.0534 1.39647 34.7624 1.10554C34.4715 0.795217 34.0058 0.42669 33.7148 0.271527C33.4045 0.116365 32.9195 1.24747e-05 32.5897 1.24459e-05C32.2599 1.24171e-05 31.7556 0.135774 31.4258 0.290936C31.096 0.446099 30.6304 0.950391 30.3782 1.41588C30.1066 1.86197 29.4277 3.45238 28.8457 4.94581C28.2637 6.43925 27.2549 9.27093 26.5953 11.2492C25.9358 13.2276 24.8883 16.7187 24.2481 19.0074C23.6273 21.296 22.7931 24.3604 22.4051 25.7957C22.0172 27.2309 21.6486 28.4916 21.571 28.5692C21.4934 28.6468 20.8532 28.1232 20.1548 27.4055C19.4371 26.6879 17.9627 25.0393 16.857 23.7592C15.7512 22.4791 13.7919 20.2487 12.4922 18.8134C11.1924 17.3782 9.58228 15.6714 8.90331 15.0313C8.22434 14.3913 7.27379 13.5379 6.78881 13.15C6.30383 12.7621 5.4309 12.219 4.84893 11.9475C4.26696 11.676 3.43275 11.4432 3.00597 11.4432C2.521 11.4432 1.97786 11.5983 1.55108 11.8699C1.1825 12.122 0.678089 12.7039 0.4259 13.1888C0.154309 13.7513 -0.000858146 14.4107 -0.0008582 15.0313C-0.000858248 15.5744 0.231884 17.0096 0.503475 18.2315C0.775062 19.4534 1.47344 21.8779 2.05541 23.6235C2.63739 25.3496 3.62673 28.0068 4.28631 29.539C4.94588 31.0518 6.14868 33.6508 6.98284 35.2994C7.8364 36.948 9.23312 39.5275 10.1255 41.021C11.0178 42.5144 12.337 44.6091 13.0353 45.6759C13.7531 46.7426 14.9365 48.3524 15.6542 49.264C16.372 50.1756 17.8852 51.8435 19.0103 52.9685C20.1355 54.0934 21.7068 55.5092 22.5021 56.0911C23.2975 56.6924 24.5196 57.4682 25.218 57.8561C25.9164 58.244 27.3131 58.8258 28.3219 59.1749Z" fill="#00A44F"/>
</svg>
