<svg width="19" height="15" viewBox="0 0 19 15" fill="none" xmlns="http://www.w3.org/2000/svg">
<path d="M13.6311 0.0958796C13.7193 0.0710786 13.8533 0.040963 13.9309 0.026791C14.0086 0.012619 14.1849 0.000218455 14.3243 0.000218455C14.5042 -0.00155305 14.6223 0.00730447 14.7476 0.0321055C14.841 0.051592 14.9892 0.0905651 15.0774 0.122452C15.1656 0.152568 15.3472 0.232285 15.483 0.297831C15.6189 0.365148 15.8129 0.474981 15.9152 0.542298C16.0175 0.609615 16.1674 0.719449 16.2503 0.786766C16.3332 0.854083 16.4619 0.963916 16.5378 1.033C16.6136 1.10209 16.7741 1.26684 16.894 1.39793C17.014 1.52903 17.1851 1.72566 17.2733 1.83195C17.3632 1.93824 17.5255 2.14551 17.6348 2.29254C17.7442 2.43781 17.9241 2.69822 18.037 2.86828C18.1481 3.03835 18.3174 3.31293 18.4126 3.47945C18.5061 3.64597 18.6172 3.85147 18.6578 3.94004C18.7001 4.02862 18.7619 4.18805 18.7954 4.29434C18.8306 4.40063 18.8747 4.56892 18.8941 4.66636C18.9135 4.76379 18.9365 4.90728 18.9453 4.98523C18.9523 5.06317 18.9541 5.17655 18.9453 5.23678C18.9382 5.29878 18.91 5.39267 18.8836 5.44759C18.8553 5.50251 18.7954 5.58577 18.746 5.63183C18.6984 5.67788 18.5978 5.7452 18.5255 5.7824C18.4532 5.81783 18.3139 5.87629 18.2169 5.90818C18.1199 5.94007 17.9611 5.98435 17.8641 6.00384C17.7671 6.0251 17.6084 6.04636 17.5114 6.05167C17.3808 6.05876 17.2962 6.05344 17.1851 6.03219C17.1022 6.01447 16.984 5.97904 16.9205 5.95247C16.857 5.9259 16.7477 5.86566 16.6753 5.81783C16.603 5.76823 16.469 5.6584 16.3773 5.56982C16.2856 5.48125 16.1251 5.30587 16.021 5.18009C15.9169 5.05432 15.7564 4.87717 15.6665 4.79036C15.5748 4.70179 15.4566 4.60081 15.4037 4.56538C15.3508 4.52995 15.2626 4.48035 15.2097 4.45555C15.1568 4.43075 15.0527 4.39709 14.9804 4.38115C14.8851 4.35989 14.8005 4.35457 14.6805 4.35989C14.5606 4.36697 14.4654 4.38469 14.3454 4.42543C14.2537 4.45555 14.1144 4.51224 14.0368 4.55298C13.9592 4.59195 13.8481 4.65927 13.7898 4.70179C13.7316 4.74253 13.6047 4.84705 13.5076 4.93385C13.4106 5.02066 13.1849 5.23147 13.0067 5.40153C12.8286 5.57159 12.5993 5.78595 12.4953 5.87806C12.393 5.96841 12.2042 6.12076 12.079 6.21642C11.9538 6.31208 11.7668 6.44317 11.6645 6.50872C11.5622 6.57249 11.34 6.69473 11.1707 6.78153C11.0014 6.86656 10.7738 6.964 10.668 6.99943C10.5622 7.03663 10.4035 7.08091 10.3153 7.1004C10.2271 7.11989 10.0683 7.14469 9.96251 7.15532C9.85669 7.16595 9.71382 7.16949 9.64504 7.16418C9.57625 7.15709 9.45808 7.14115 9.38048 7.12697C9.30287 7.11457 9.17941 7.08269 9.10709 7.05789C9.03478 7.03308 8.91132 6.97994 8.83371 6.94097C8.75611 6.90199 8.61677 6.81873 8.52506 6.7585C8.43334 6.69827 8.27461 6.58135 8.17231 6.49809C8.07177 6.4166 7.89716 6.25717 7.78428 6.14556C7.6714 6.03396 7.42624 5.77355 7.23752 5.56982C7.05056 5.3661 6.80364 5.10569 6.69252 4.99408C6.57964 4.88248 6.43678 4.75493 6.37328 4.71419C6.30979 4.67167 6.21455 4.62561 6.16163 4.60967C6.10343 4.59373 6.03288 4.58664 5.98526 4.59195C5.94117 4.59727 5.8618 4.61853 5.80888 4.63801C5.75597 4.6575 5.64838 4.71419 5.57078 4.76556C5.49317 4.81516 5.36266 4.91437 5.28152 4.98346C5.20039 5.05254 4.90584 5.35724 4.62717 5.6584C4.3485 5.95955 4.03808 6.28374 3.93755 6.37763C3.83701 6.47152 3.67475 6.61501 3.57598 6.6965C3.47897 6.77799 3.33258 6.89136 3.24968 6.94628C3.16855 7.0012 3.03451 7.08269 2.95161 7.1252C2.86871 7.16949 2.74172 7.22441 2.66941 7.24744C2.56182 7.2811 2.49833 7.28818 2.32548 7.28818C2.14205 7.28818 2.09443 7.2811 1.96391 7.23858C1.88102 7.21201 1.74168 7.15 1.65526 7.1004C1.56883 7.04903 1.45066 6.97285 1.39246 6.92679C1.33602 6.88251 1.25136 6.79747 1.2055 6.73901C1.15788 6.68056 1.09615 6.58135 1.06616 6.51758C1.03618 6.4538 1.0009 6.35106 0.986795 6.28728C0.972685 6.22351 0.947992 6.1243 0.933882 6.06584C0.919772 6.00738 0.882734 5.88869 0.85275 5.80012C0.808656 5.67788 0.794546 5.59994 0.787491 5.46353C0.780436 5.33953 0.787491 5.23501 0.806892 5.11809C0.822766 5.02597 0.868624 4.85414 0.907426 4.73722C0.946228 4.6203 1.02736 4.40949 1.08556 4.26777C1.14553 4.12605 1.25488 3.89044 1.32896 3.74518C1.40304 3.59814 1.51768 3.38733 1.58471 3.27573C1.65173 3.16412 1.7505 3.00469 1.80517 2.92143C1.86161 2.83817 1.97626 2.67519 2.06445 2.55827C2.15087 2.44135 2.29726 2.25711 2.38721 2.15082C2.47893 2.04453 2.66236 1.8479 2.79287 1.7168C2.92339 1.58394 3.09095 1.42805 3.16326 1.36959C3.23557 1.30936 3.36256 1.21724 3.44546 1.16232C3.52836 1.10918 3.68709 1.0206 3.79821 0.965687C3.90933 0.912542 4.09276 0.841682 4.20387 0.808024C4.31499 0.774365 4.48255 0.733621 4.57426 0.717677C4.66598 0.701734 4.8494 0.680476 4.97992 0.669847C5.11044 0.660989 5.278 0.657446 5.35031 0.66276C5.42262 0.669846 5.54785 0.694648 5.62898 0.717677C5.70835 0.740707 5.85121 0.799166 5.94646 0.846997C6.03994 0.894827 6.1828 0.979859 6.26217 1.03655C6.34154 1.09501 6.48616 1.21193 6.58493 1.3005C6.6837 1.38731 6.84068 1.5432 6.93592 1.64594C7.0294 1.74869 7.26398 2.01087 7.45799 2.23054C7.652 2.44844 7.89011 2.70885 7.98711 2.80805C8.08412 2.90548 8.23051 3.03657 8.31341 3.09858C8.3963 3.15881 8.51095 3.23498 8.56915 3.26864C8.62735 3.30053 8.7226 3.34304 8.7808 3.3643C8.839 3.38379 8.9413 3.40505 9.01009 3.41036C9.09475 3.41745 9.17235 3.41213 9.25349 3.39265C9.31874 3.3767 9.42104 3.3395 9.48101 3.30939C9.54274 3.2775 9.66268 3.20487 9.75086 3.14464C9.83729 3.08618 10.0154 2.93383 10.1477 2.80805C10.2782 2.68227 10.6398 2.32266 10.9502 2.0091C11.2606 1.69555 11.6187 1.34833 11.7439 1.2385C11.8691 1.12867 12.0561 0.971002 12.1584 0.889513C12.2607 0.806252 12.4388 0.675161 12.5552 0.597215C12.6716 0.519269 12.8551 0.411207 12.9609 0.356291C13.0667 0.303145 13.2254 0.232285 13.3136 0.198627C13.4018 0.164968 13.5429 0.118909 13.6311 0.0958796Z" fill="#FF3400"/>
<path d="M14.0191 7.38207C14.0967 7.36258 14.2308 7.33424 14.319 7.32184C14.4195 7.30767 14.5712 7.30058 14.7335 7.3059C14.8957 7.31121 15.0527 7.32715 15.1656 7.35018C15.2626 7.37144 15.4442 7.42281 15.5712 7.46356C15.6982 7.50608 15.8799 7.57871 15.9769 7.62299C16.0739 7.66905 16.2203 7.747 16.3032 7.7966C16.3861 7.8462 16.5237 7.94009 16.6118 8.00564C16.7 8.07119 16.8376 8.1881 16.9187 8.26428C16.9999 8.34223 17.1304 8.4804 17.208 8.57252C17.2838 8.66464 17.4267 8.8595 17.5237 9.00654C17.6278 9.1642 17.7653 9.40867 17.8641 9.60885C17.9558 9.79309 18.0599 10.0252 18.0952 10.1226C18.1304 10.22 18.1869 10.3883 18.2204 10.4946C18.2539 10.6009 18.3156 10.8294 18.3597 10.9995C18.4021 11.1695 18.4638 11.4335 18.4938 11.5841C18.5449 11.8339 18.5502 11.8888 18.5502 12.1952C18.552 12.4167 18.5432 12.5673 18.5273 12.6381C18.5149 12.6966 18.4797 12.8206 18.4514 12.9127C18.4215 13.0048 18.3703 13.1359 18.3333 13.2032C18.298 13.2705 18.238 13.3609 18.1992 13.4052C18.1604 13.4477 18.0899 13.5026 18.0405 13.5256C17.9735 13.5593 17.9223 13.5699 17.8288 13.5699C17.7424 13.5699 17.6736 13.5575 17.5995 13.531C17.5413 13.5079 17.4373 13.453 17.3703 13.407C17.3032 13.3609 17.1674 13.2528 17.0704 13.1678C16.9734 13.081 16.6454 12.7621 16.3385 12.4592C15.9099 12.034 15.7547 11.8923 15.6594 11.8374C15.5924 11.7967 15.4848 11.7471 15.4213 11.7258C15.3578 11.7045 15.2432 11.6833 15.1656 11.678C15.0668 11.6709 14.9786 11.678 14.8746 11.6975C14.7917 11.7152 14.6647 11.7541 14.5924 11.7843C14.52 11.8144 14.4107 11.8675 14.349 11.9012C14.289 11.9366 14.1867 12.0039 14.1214 12.0535C14.0562 12.1014 13.7881 12.3529 13.5253 12.6115C13.2625 12.8702 12.9891 13.1341 12.9168 13.1979C12.8445 13.2617 12.7051 13.3768 12.6081 13.453C12.5111 13.5292 12.3365 13.655 12.2201 13.7311C12.1037 13.8091 11.8779 13.9366 11.7174 14.0181C11.5569 14.0978 11.3312 14.197 11.2148 14.2396C11.0984 14.2803 10.9114 14.337 10.8003 14.3653C10.6892 14.3955 10.5146 14.4309 10.4123 14.4486C10.2923 14.4663 10.1213 14.4787 9.92724 14.4787C9.71206 14.4787 9.57802 14.4699 9.45103 14.4468C9.35402 14.4291 9.20763 14.3954 9.12473 14.3706C9.04184 14.3476 8.88663 14.2927 8.7808 14.2484C8.67498 14.2059 8.51095 14.1262 8.41923 14.0748C8.32752 14.0217 8.15643 13.9101 8.04003 13.825C7.92362 13.74 7.76135 13.6142 7.67846 13.5451C7.59556 13.476 7.4527 13.352 7.36098 13.2688C7.26927 13.1855 6.87243 12.7976 6.47911 12.4078C5.92529 11.8551 5.73128 11.6744 5.61487 11.5982C5.53198 11.5433 5.42968 11.4831 5.38558 11.4636C5.34149 11.4441 5.25859 11.4193 5.20039 11.4069C5.14219 11.3963 5.06282 11.391 5.02402 11.3981C4.98521 11.4052 4.90937 11.4335 4.85646 11.4618C4.78944 11.4955 4.68714 11.5858 4.53017 11.7471C4.40318 11.8764 4.1298 12.1811 3.92167 12.4255C3.71355 12.6682 3.45252 12.9623 3.33964 13.0792C3.22852 13.1944 3.05038 13.3627 2.94279 13.453C2.8352 13.5416 2.68528 13.6603 2.60768 13.7134C2.53008 13.7683 2.39074 13.8534 2.29902 13.9012C2.20731 13.9508 2.05563 14.0163 1.96391 14.0482C1.85103 14.0854 1.74873 14.1067 1.64644 14.1138C1.56001 14.1191 1.4489 14.1138 1.38187 14.1014C1.31838 14.089 1.21961 14.0553 1.16141 14.0287C1.1032 14.0004 1.01854 13.9473 0.974448 13.9101C0.930355 13.8729 0.859805 13.802 0.819239 13.7542C0.778672 13.7046 0.709886 13.5947 0.664029 13.5062C0.616407 13.414 0.565259 13.2759 0.540566 13.1784C0.508819 13.0438 0.5 12.9623 0.5 12.7798C0.5 12.6523 0.512346 12.4787 0.526456 12.3901C0.54233 12.3015 0.57055 12.174 0.589951 12.1067C0.611116 12.0394 0.678139 11.8587 0.741634 11.7081C0.805129 11.5575 0.932119 11.2865 1.02207 11.1058C1.11202 10.9251 1.23901 10.6895 1.30251 10.5832C1.36776 10.4769 1.47712 10.3086 1.5459 10.2112C1.61469 10.1137 1.7311 9.96315 1.80517 9.87458C1.87749 9.786 2.00448 9.64782 2.08737 9.56456C2.17027 9.4813 2.35194 9.31478 2.49304 9.19255C2.63237 9.07031 2.87224 8.8719 3.02392 8.74967C3.17561 8.62744 3.39431 8.46092 3.50896 8.37766C3.6236 8.29617 3.79821 8.17747 3.89522 8.11547C3.99222 8.05524 4.15096 7.96667 4.24797 7.91884C4.34497 7.87101 4.49489 7.80723 4.58308 7.77534C4.67127 7.74523 4.79649 7.70803 4.86528 7.69208C4.93406 7.67791 5.07869 7.66551 5.19157 7.66374C5.32562 7.66374 5.43321 7.6726 5.50905 7.69208C5.57254 7.7098 5.69424 7.75763 5.78243 7.80014C5.87062 7.84443 5.99231 7.92238 6.05581 7.97375C6.1193 8.0269 6.21807 8.1261 6.27628 8.19519C6.33448 8.26428 6.55319 8.56543 6.76131 8.86482C6.96943 9.1642 7.20401 9.49016 7.28338 9.58936C7.36275 9.6868 7.50561 9.84269 7.60085 9.93481C7.6961 10.0252 7.85131 10.1509 7.94302 10.2129C8.03474 10.2732 8.18642 10.36 8.27813 10.4043C8.36985 10.4468 8.50566 10.4999 8.57797 10.5212C8.66616 10.5472 8.7808 10.5631 8.9219 10.569C9.11062 10.5761 9.15295 10.5725 9.30993 10.5318C9.41751 10.5035 9.54803 10.4521 9.64504 10.4007C9.73323 10.3529 9.91842 10.2413 10.0595 10.1492C10.2006 10.0588 10.407 9.91886 10.5181 9.84092C10.6292 9.76297 10.8162 9.62834 10.9326 9.53976C11.049 9.45119 11.2747 9.27226 11.4352 9.1394C11.5957 9.00654 11.9291 8.73196 12.176 8.52646C12.4229 8.32097 12.6928 8.1013 12.7757 8.03753C12.8586 7.97375 12.9962 7.87632 13.0843 7.81963C13.1725 7.76294 13.3225 7.67437 13.4195 7.62299C13.5165 7.57162 13.6593 7.5043 13.7369 7.47419C13.8145 7.44407 13.9415 7.40333 14.0191 7.38207Z" fill="#FF3400"/>
</svg>
