<svg width="23" height="23" viewBox="0 0 23 23" fill="none" xmlns="http://www.w3.org/2000/svg">
<path d="M12.6242 0.204693C12.6701 0.148999 12.7572 0.0811979 12.8177 0.0497188C12.9024 0.00371088 12.9556 -0.00355353 13.0839 0.00128941C13.2169 0.00855383 13.2581 0.0206612 13.3355 0.0811979C13.3887 0.122363 13.4613 0.202271 13.4976 0.262808C13.5363 0.323345 13.5871 0.42989 13.6137 0.500112C13.6404 0.567914 13.6767 0.727731 13.6912 0.851226C13.7129 1.0062 13.7202 1.39364 13.7178 2.11523C13.7154 2.6867 13.6984 3.58022 13.6767 4.10084C13.6573 4.62146 13.6065 5.82977 13.5654 6.78867C13.5242 7.74757 13.4928 8.60962 13.4976 8.70405C13.5024 8.83724 13.517 8.89051 13.5533 8.92925C13.5799 8.95831 13.6283 8.9801 13.6621 8.9801C13.696 8.9801 13.8363 8.92683 13.9767 8.86387C14.117 8.79849 14.3227 8.69195 14.4364 8.62415C14.5501 8.55877 14.93 8.33599 15.2832 8.12775C15.6365 7.92192 16.2679 7.56112 16.6865 7.32866C17.1051 7.0962 17.7874 6.72571 18.1987 6.50536C18.61 6.28501 19.3673 5.88788 19.8803 5.62394C20.3932 5.36243 20.9424 5.08396 21.1021 5.00647C21.2618 4.9314 21.453 4.8515 21.5255 4.8297C21.5981 4.80791 21.736 4.79096 21.828 4.79096C21.9199 4.79096 22.0457 4.80791 22.1062 4.82728C22.1667 4.84907 22.2466 4.89024 22.2877 4.92172C22.3288 4.95078 22.3845 5.01373 22.4135 5.05974C22.445 5.10575 22.4788 5.20261 22.4909 5.27525C22.503 5.35516 22.503 5.47139 22.4909 5.56583C22.4764 5.66269 22.4329 5.79829 22.3748 5.91694C22.324 6.02349 22.2151 6.20268 22.1304 6.31648C22.0457 6.43029 21.857 6.64338 21.7094 6.78867C21.5618 6.93638 21.2449 7.22454 21.0053 7.43036C20.7658 7.63619 20.3835 7.95098 20.1585 8.13259C19.9311 8.31178 19.5512 8.6072 19.3117 8.78881C19.0722 8.97042 18.3632 9.49103 17.739 9.94869C17.1148 10.4063 16.4325 10.9076 16.2268 11.0626C16.0212 11.2175 15.726 11.4476 15.5735 11.5735C15.4211 11.6994 15.2155 11.8762 15.1187 11.9706C15.0219 12.0626 14.9203 12.1837 14.8937 12.237C14.8695 12.2903 14.8477 12.3847 14.8477 12.4501C14.8477 12.513 14.8695 12.6196 14.8961 12.685C14.9227 12.7528 14.9953 12.8908 15.0582 12.9949C15.1187 13.0966 15.3776 13.4598 15.6316 13.7988C15.8857 14.1378 16.28 14.6924 16.5051 15.0338C16.7325 15.3728 17.0615 15.891 17.2358 16.184C17.41 16.477 17.6688 16.9298 17.8116 17.1889C17.9519 17.448 18.2084 17.9444 18.3778 18.2907C18.5495 18.6369 18.7479 19.0558 18.8229 19.2229C18.8955 19.39 18.9705 19.5692 18.9875 19.6225C19.0044 19.6757 19.0189 19.8017 19.0189 19.9009C19.0213 20.0123 19.0044 20.1237 18.9802 20.1915C18.956 20.2593 18.8955 20.3416 18.8229 20.4094C18.7528 20.4724 18.6608 20.5329 18.5979 20.5499C18.5326 20.5693 18.4165 20.5789 18.3076 20.5741C18.1648 20.5668 18.0898 20.5499 17.9568 20.4845C17.8648 20.4409 17.5914 20.2569 17.3519 20.0753C17.1124 19.8937 16.7591 19.62 16.5655 19.4626C16.372 19.3077 16.0671 19.0462 15.8881 18.8815C15.709 18.7168 15.3171 18.3367 15.0171 18.0364C14.717 17.7361 14.2985 17.3003 14.088 17.0678C13.8751 16.8354 13.4976 16.4092 13.2508 16.1234C13.0016 15.8377 12.6629 15.4721 12.4983 15.3098C12.3338 15.15 12.1064 14.949 11.9927 14.8643C11.879 14.7819 11.7217 14.6802 11.6418 14.6439C11.562 14.6052 11.458 14.5737 11.412 14.5737C11.3612 14.5737 11.2571 14.6076 11.1579 14.6585C11.0636 14.7045 10.8918 14.8231 10.7708 14.9175C10.6523 15.0144 10.2651 15.3825 9.91189 15.736C9.55865 16.0895 9.06507 16.5956 8.81102 16.862C8.55697 17.1308 8.15533 17.5594 7.91822 17.8185C7.67869 18.0776 7.10284 18.7217 6.63346 19.2471C6.16649 19.7726 5.52532 20.4869 5.20595 20.8332C4.88899 21.1795 4.56478 21.5209 4.48251 21.5911C4.40025 21.6613 4.27927 21.7558 4.21395 21.7994C4.1462 21.8454 4.03248 21.9108 3.9599 21.9471C3.88731 21.9834 3.77118 22.0197 3.70585 22.027C3.6381 22.0318 3.53648 22.0318 3.476 22.0221C3.41551 22.0149 3.31873 21.9761 3.25824 21.9374C3.19775 21.8986 3.11549 21.8139 3.07194 21.7509C3.03081 21.6856 2.98 21.5718 2.95822 21.4991C2.93645 21.4265 2.91951 21.3054 2.91951 21.2327C2.91951 21.1601 2.93645 21.0075 2.95822 20.8937C2.97758 20.7799 3.02113 20.5789 3.055 20.4458C3.08888 20.3126 3.15904 20.0632 3.21227 19.8888C3.26792 19.7145 3.41067 19.3028 3.52923 18.9687C3.6502 18.6369 3.80747 18.2156 3.88006 18.0364C3.95264 17.8572 4.07362 17.5739 4.14862 17.4068C4.22121 17.2397 4.39299 16.8862 4.52848 16.6198C4.66398 16.3535 4.8648 15.9782 4.97609 15.7844C5.08739 15.5907 5.27369 15.2759 5.39467 15.0822C5.51322 14.8885 5.74792 14.5301 5.91486 14.2831C6.07939 14.0361 6.36005 13.639 6.53668 13.3993C6.7133 13.1596 6.88025 12.9247 6.90928 12.8787C6.9359 12.8327 6.96009 12.7745 6.96009 12.7528C6.96009 12.7285 6.94315 12.6777 6.9238 12.6365C6.90444 12.5978 6.54636 12.2564 6.1302 11.881C5.71646 11.5033 4.95674 10.8156 4.4438 10.3482C3.93087 9.88331 3.12517 9.14718 2.65336 8.71132C2.18156 8.27788 1.57184 7.69188 1.29844 7.40857C1.02503 7.12768 0.754049 6.82257 0.693561 6.73298C0.633073 6.64338 0.565327 6.5102 0.541132 6.43756C0.516937 6.36491 0.5 6.25595 0.5 6.19541C0.5 6.13487 0.521776 6.04286 0.545971 5.98959C0.567746 5.93631 0.623395 5.86367 0.664527 5.82735C0.708078 5.7886 0.787922 5.74744 0.84357 5.73291C0.906478 5.71596 1.04197 5.71112 1.18956 5.71838C1.36135 5.72807 1.54039 5.76197 1.80654 5.83219C2.01219 5.88546 2.38238 5.99201 2.62917 6.06465C2.87596 6.13972 3.30421 6.27532 3.58488 6.36976C3.86312 6.46177 4.57687 6.71361 5.16965 6.9267C5.76243 7.13979 6.64797 7.44973 7.14155 7.61439C7.63513 7.78147 8.24243 7.98004 8.49648 8.05994C8.75053 8.13743 9.04329 8.2246 9.14975 8.25124C9.25621 8.27788 9.45219 8.32388 9.58526 8.35052C9.81995 8.40137 9.82963 8.40137 9.88528 8.35779C9.93367 8.32146 9.98206 8.17375 10.1926 7.39404C10.3305 6.88795 10.5385 6.14214 10.6523 5.73533C10.766 5.32853 10.9257 4.77885 11.0055 4.51249C11.0854 4.24613 11.2257 3.78847 11.32 3.49547C11.412 3.20247 11.5765 2.71818 11.683 2.41792C11.7894 2.11765 11.9903 1.58493 12.1306 1.2314C12.2685 0.877862 12.4185 0.524327 12.4596 0.44684C12.5032 0.366931 12.5758 0.257965 12.6242 0.204693Z" fill="#FF81B5"/>
</svg>
