<?xml version="1.0" encoding="UTF-8" standalone="no"?>
<svg
   width="234"
   height="240"
   viewBox="0 0 234 240"
   fill="none"
   version="1.1"
   id="svg1"
   xmlns="http://www.w3.org/2000/svg"
   xmlns:svg="http://www.w3.org/2000/svg">
  <defs
     id="defs1" />
  <path
     d="m 144.659,238.073 c -0.223,0.454 -0.723,1.049 -1.14,1.36 -0.418,0.34 -1.168,0.567 -1.808,0.567 -0.584,0 -1.474,-0.17 -1.947,-0.397 -0.501,-0.198 -1.252,-0.736 -1.669,-1.19 -0.417,-0.453 -1.307,-1.785 -1.974,-2.947 -0.668,-1.161 -2.364,-4.165 -3.783,-6.658 -1.418,-2.494 -4.06,-7.538 -5.868,-11.193 -1.808,-3.655 -4.255,-8.812 -5.423,-11.476 -1.168,-2.663 -3.254,-7.424 -4.589,-10.625 -1.335,-3.202 -4.701,-11.363 -7.454,-18.135 l -0.267,-0.657 c -2.654,-6.528 -5.142,-12.647 -6.38,-15.636 l -1.53,2.692 c -0.8618,1.473 -4.4495,7.849 -8.0094,14.168 -3.56,6.318 -8.1767,14.422 -10.2348,17.993 -2.0859,3.57 -5.4512,9.322 -7.5092,12.75 -2.0581,3.429 -5.4512,8.983 -7.5649,12.326 -3.3374,5.271 -4.0049,6.177 -5.0617,6.772 -0.6397,0.369 -1.6687,0.709 -2.225,0.709 -0.7231,0.028 -1.2237,-0.17 -1.7521,-0.68 -0.3894,-0.397 -0.9735,-1.389 -1.2516,-2.182 -0.3337,-0.878 -0.6953,-3.004 -0.8899,-5.1 -0.2504,-2.777 -0.2504,-5.327 0,-10.853 0.1946,-3.967 0.3337,-10.087 0.3337,-13.601 0,-3.513 0.139,-9.237 0.2781,-12.751 0.1669,-3.513 0.4728,-9.067 0.6953,-12.325 0.2503,-3.259 0.6119,-8.048 0.8344,-10.626 0.2225,-2.579 0.4728,-5.101 0.6953,-6.517 l -2.0025,0.17 c -1.1125,0.085 -3.7824,0.396 -5.9239,0.708 -2.1416,0.312 -6.0352,0.992 -8.6217,1.53 -2.5865,0.539 -10.1792,2.38 -16.8262,4.08 -6.6471,1.701 -13.7113,3.429 -15.7137,3.854 -2.61436,0.538 -4.00495,0.708 -5.00617,0.567 -0.75093,-0.085 -1.89122,-0.397 -2.50308,-0.68 -0.61186,-0.284 -1.39058,-0.822 -1.724322,-1.19 -0.361557,-0.369 -0.723114,-1.134 -0.8065491,-1.672 -0.1112519,-0.652 0.0278167,-1.672 0.4171751,-2.975 0.389374,-1.304 1.168086,-2.891 2.308376,-4.591 0.97342,-1.445 3.0037,-4.052 4.53334,-5.78 1.52965,-1.729 4.47773,-4.704 6.53583,-6.631 2.058,-1.898 4.5611,-4.165 5.5623,-5.015 1.0013,-0.85 2.5588,-2.097 3.4765,-2.805 0.9178,-0.708 4.1162,-3.004 7.0921,-5.072 2.9758,-2.097 6.7583,-4.789 8.427,-6.007 1.6409,-1.219 2.9758,-2.267 2.9758,-2.352 0,-0.085 -2.2249,-2.975 -4.9226,-6.432 -2.6978,-3.485 -6.6749,-8.671 -8.8164,-11.561 -2.1137,-2.8901 -5.3121,-7.4804 -7.0642,-10.2006 -1.78,-2.7202 -4.1996,-6.4888 -5.4234,-8.3589 -1.1959,-1.8702 -2.6699,-4.4203 -3.254,-5.6671 -0.584,-1.2467 -1.2237,-2.9752 -1.3906,-3.8253 -0.1946,-0.85 -0.3059,-2.1251 -0.2224,-2.8335 0.0556,-0.7084 0.3615,-1.6718 0.6674,-2.1251 0.3338,-0.4534 1.196,-1.1618 1.9469,-1.5585 1.1959,-0.6233 1.8077,-0.7084 4.8392,-0.8217 2.3362,-0.0567 4.4778,0.0567 6.5358,0.3967 1.6965,0.255 4.6168,0.8501 6.5358,1.3034 1.919,0.4817 5.0896,1.4168 7.0921,2.0968 2.0024,0.6801 5.173,1.8702 7.092,2.6352 1.919,0.7934 6.063,2.5785 9.2614,3.9953 3.1705,1.4168 5.8126,2.5785 5.8961,2.5785 0.0834,0 0.139,-3.5419 0.139,-7.8489 0,-4.3353 0.1113,-17.2562 0.2782,-28.7036 0.1668,-11.4475 0.4171,-24.7934 0.5284,-29.6104 0.1947,-7.99058 0.2503,-8.8973 0.7787,-10.05906 0.3059,-0.70838 0.8622,-1.55843 1.2237,-1.92679 0.4172,-0.3967 1.1681,-0.70839 1.9191,-0.821732 0.6953,-0.085007 1.6965,-0.028335 2.2249,0.141678 0.6675,0.198349 2.1415,1.473434 4.589,3.938614 2.0024,1.98347 4.8114,5.10034 6.2298,6.88549 1.4463,1.7851 3.7546,4.902 5.173,6.9421 1.4185,2.0402 3.6156,5.3271 4.895,7.3672 1.2515,2.0401 4.4498,7.3105 7.092,11.7592 2.6421,4.4486 5.4786,9.1523 6.3136,10.484 0.862,1.3318 2.67,4.1086 6.591,9.9174 l 4.533,-5.4404 c 2.504,-3.0036 7.927,-9.6057 12.015,-14.6777 4.116,-5.072 10.012,-12.2125 13.1,-15.8678 3.087,-3.6552 6.786,-7.9338 8.204,-9.4923 1.446,-1.5584 3.699,-4.25028 5.006,-5.9504 1.335,-1.70012 3.004,-3.71192 3.755,-4.42029 0.751,-0.70839 1.78,-1.501785 2.28,-1.756805 0.473,-0.255005 1.419,-0.4816897412 2.086,-0.4816897412 0.64,0 1.502,0.2266697412 1.919,0.5100247412 0.418,0.25502 0.974,0.7934 1.252,1.19008 0.361,0.53837 0.528,1.41678 0.584,3.54191 0.083,2.29517 -0.056,3.76861 -0.779,7.79217 -0.5,2.7202 -1.863,10.2008 -3.087,16.5762 -1.196,6.3754 -2.614,14.026 -3.143,17.0012 -0.556,2.9752 -1.668,8.5006 -2.531,12.3258 -0.834,3.8253 -1.668,7.3955 -1.807,7.9339 -0.139,0.5384 -0.223,1.0201 -0.195,1.0484 0.028,0.0567 3.198,-1.0767 7.009,-2.4935 3.838,-1.4167 10.095,-3.6269 13.906,-4.9303 3.838,-1.3035 9.706,-3.1736 13.071,-4.1937 3.365,-1.02 8.511,-2.4368 11.403,-3.1452 2.92,-0.7367 6.591,-1.7001 8.204,-2.2101 1.614,-0.4817 3.866,-1.1051 5.007,-1.4168 1.446,-0.3684 2.67,-0.51 4.032,-0.425 1.085,0.085 2.337,0.3117 2.782,0.5384 0.528,0.2833 1.001,0.8784 1.335,1.6151 0.25,0.6233 0.472,1.6151 0.472,2.1534 0,0.5384 -0.194,1.5868 -0.445,2.3235 -0.25,0.7651 -1.029,2.2669 -1.724,3.3436 -0.695,1.0768 -2.503,3.2586 -4.061,4.817 -1.557,1.5868 -4.116,3.9386 -5.729,5.242 -1.613,1.3318 -4.672,3.6836 -6.814,5.2421 -2.141,1.5584 -7.12,5.072 -11.069,7.7922 -3.949,2.7202 -7.787,5.3554 -8.51,5.8087 -0.723,0.4534 -2.476,1.7285 -3.894,2.8336 -1.391,1.105 -2.503,2.0684 -2.475,2.1818 0.055,0.1133 2.586,1.7001 5.646,3.5135 3.059,1.8135 7.87,4.789 10.707,6.574 2.837,1.785 8.399,5.469 12.376,8.16 3.978,2.692 9.067,6.291 11.32,7.963 2.225,1.7 6.313,4.76 9.039,6.857 2.725,2.097 5.59,4.392 6.397,5.1 0.778,0.708 2.03,2.069 2.781,3.004 0.723,0.935 1.502,2.096 1.696,2.55 0.278,0.623 0.306,1.162 0.084,1.983 -0.167,0.709 -0.64,1.474 -1.252,2.069 -0.556,0.481 -1.669,1.105 -2.447,1.36 -0.835,0.255 -2.976,0.51 -4.951,0.595 -2.336,0.113 -4.811,0 -7.509,-0.34 -2.225,-0.255 -5.479,-0.708 -7.231,-1.02 -1.752,-0.284 -7.203,-1.36 -12.098,-2.38 -4.895,-1.02 -15.964,-3.316 -24.614,-5.101 -8.649,-1.813 -16.075,-3.4 -16.548,-3.57 -0.445,-0.142 -2.447,-0.453 -4.45,-0.708 -1.974,-0.227 -3.838,-0.482 -4.088,-0.539 -0.362,-0.113 -0.529,0.057 -0.64,0.482 -0.055,0.368 -0.195,3.825 -0.278,7.736 -0.083,3.881 -0.278,12.184 -0.417,18.417 -0.167,6.234 -0.473,19.382 -0.695,29.186 -0.223,9.804 -0.529,22.385 -0.696,27.91 -0.167,5.525 -0.417,13.318 -0.584,17.285 -0.222,5.185 -0.417,7.452 -0.695,7.99 z"
     fill="#FF3400"
     id="path1"
     style="fill:#00e4b2;fill-opacity:1" />
</svg>
