<svg width="18" height="20" viewBox="0 0 18 20" fill="none" xmlns="http://www.w3.org/2000/svg">
<path d="M3.42005 13.9229C3.41991 14.3302 3.5 14.7335 3.65576 15.1098C3.81153 15.4862 4.0399 15.8281 4.32785 16.1162C4.6158 16.4042 4.95767 16.6327 5.33395 16.7886C5.71022 16.9445 6.11353 17.0248 6.52082 17.0248C7.35181 17.0372 8.15457 16.7235 8.7569 16.1508C9.35922 15.5782 9.71312 14.7923 9.74268 13.9618L9.77823 0L12.6424 0C12.7724 1.24419 13.3358 2.40305 14.2338 3.27391C15.1319 4.14476 16.3075 4.67218 17.5551 4.76391V8.09132C17.3918 8.10688 17.2274 8.11576 17.063 8.11576C16.1766 8.11638 15.3041 7.89607 14.5243 7.47475C13.7446 7.05343 13.0821 6.44439 12.5968 5.7027L12.5968 13.924C12.5968 15.1257 12.2405 16.3005 11.5728 17.2996C10.9052 18.2988 9.95624 19.0776 8.846 19.5375C7.73576 19.9974 6.51408 20.1177 5.33545 19.8832C4.15682 19.6488 3.07419 19.0701 2.22444 18.2204C1.3747 17.3706 0.796019 16.288 0.561575 15.1094C0.327132 13.9307 0.447457 12.7091 0.907334 11.5988C1.36721 10.4886 2.14599 9.53964 3.14518 8.87201C4.14437 8.20437 5.3191 7.84802 6.52082 7.84802C6.64747 7.84802 6.7719 7.85913 6.89633 7.8669V10.8666C6.772 10.8467 6.64662 10.8341 6.52082 10.8288C5.6996 10.8288 4.91191 11.1546 4.3306 11.7346C3.74928 12.3147 3.42182 13.1017 3.42005 13.9229Z" fill="white"/>
</svg>
