<svg width="80" height="81" viewBox="0 0 80 81" fill="none" xmlns="http://www.w3.org/2000/svg">
<path fill-rule="evenodd" clip-rule="evenodd" d="M48 12.1527V28.1527C48 29.0327 47.28 29.7527 46.4 29.7527C45.52 29.7527 44.8 29.0327 44.8 28.1527V12.1527C44.8 11.2727 44.08 10.5527 43.2 10.5527H4.8C3.92 10.5527 3.2 11.2727 3.2 12.1527V39.3527H44.8V34.5527C44.8 33.6727 45.52 32.9527 46.4 32.9527C47.28 32.9527 48 33.6727 48 34.5527V60.1527C48 62.7927 45.84 64.9527 43.2 64.9527H37.52L42.88 78.7927C43.04 79.2727 42.96 79.8327 42.72 80.2327C42.4 80.7127 41.92 80.9527 41.36 80.9527H35.28C34.64 80.9527 34.08 80.5527 33.84 79.9927L31.6 74.5527H16.4L14.16 79.9927C13.92 80.5527 13.36 80.9527 12.72 80.9527H6.64C6.08 80.9527 5.6 80.7127 5.28 80.2327C5.04 79.8327 4.96 79.2727 5.12 78.7927L10.48 64.9527H4.8C2.16 64.9527 0 62.7927 0 60.1527V12.1527C0 9.51267 2.16 7.35267 4.8 7.35267H11.2V5.75267C11.2 3.11267 13.36 0.952667 16 0.952667H32C34.64 0.952667 36.8 3.11267 36.8 5.75267V7.35267H43.2C45.84 7.35267 48 9.51267 48 12.1527ZM11.2 61.7527V58.3127C8.96 57.7527 7.2 55.9927 6.64 53.7527H3.2V60.1527C3.2 61.0327 3.92 61.7527 4.8 61.7527H11.2ZM16.8 64.9527H13.92L8.96 77.7527H11.6L16.8 64.9527ZM30.32 71.3527L27.68 64.9527H20.24L17.68 71.3527H30.32ZM34.08 64.9527H31.12L36.32 77.7527H38.96L34.08 64.9527ZM44.8 53.7527H41.36C40.8 55.9927 39.04 57.7527 36.8 58.3127V61.7527H43.2C44.08 61.7527 44.8 61.0327 44.8 60.1527V53.7527ZM36.8 45.9927C39.04 46.5527 40.8 48.3127 41.36 50.5527H44.8V42.5527H36.8V45.9927ZM35.2 48.9527C33.44 48.9527 32 50.3927 32 52.1527C32 53.9127 33.44 55.3527 35.2 55.3527C36.96 55.3527 38.4 53.9127 38.4 52.1527C38.4 50.3927 36.96 48.9527 35.2 48.9527ZM14.4 45.9927C17.2 46.7127 19.2 49.1927 19.2 52.1527C19.2 55.1127 17.2 57.5927 14.4 58.3127V61.7527H33.6V58.3127C30.88 57.5927 28.8 55.1127 28.8 52.1527C28.8 49.1927 30.88 46.7127 33.6 45.9927V42.5527H14.4V45.9927ZM12.8 48.9527C11.04 48.9527 9.6 50.3927 9.6 52.1527C9.6 53.9127 11.04 55.3527 12.8 55.3527C14.56 55.3527 16 53.9127 16 52.1527C16 50.3927 14.56 48.9527 12.8 48.9527ZM3.2 42.5527V50.5527H6.64C7.2 48.3127 8.96 46.6327 11.2 45.9927V42.5527H3.2ZM33.6 5.75267C33.6 4.87267 32.88 4.15267 32 4.15267H16C15.12 4.15267 14.4 4.87267 14.4 5.75267V7.35267H33.6V5.75267Z" fill="#2111DD"/>
<path fill-rule="evenodd" clip-rule="evenodd" d="M40.0004 13.7527C40.8804 13.7527 41.6004 14.4727 41.6004 15.3527V31.3527C41.6004 32.1527 41.0404 32.7927 40.3204 32.9527L24.3204 36.1527C24.2137 36.1527 24.1071 36.1527 24.0004 36.1527C23.8937 36.1527 23.7871 36.1527 23.6804 36.1527L7.68039 32.9527C6.96039 32.7927 6.40039 32.1527 6.40039 31.3527V15.3527C6.40039 14.4727 7.12039 13.7527 8.00039 13.7527H40.0004ZM22.4004 16.9527H9.60039V30.0727L22.4004 32.6327V16.9527ZM38.4004 16.9527H25.6004V32.5527L38.4004 29.9927V16.9527Z" fill="#2111DD"/>
<path fill-rule="evenodd" clip-rule="evenodd" d="M80.0002 2.55267V79.3527C80.0002 80.2327 79.2802 80.9527 78.4002 80.9527H52.8002C51.9202 80.9527 51.2002 80.2327 51.2002 79.3527V63.3527C51.2002 62.4727 51.9202 61.7527 52.8002 61.7527H60.8002C61.6802 61.7527 62.4002 62.4727 62.4002 63.3527C62.4002 64.2327 61.6802 64.9527 60.8002 64.9527H54.4002V77.7527H76.8002V64.9527H67.2002C66.3202 64.9527 65.6002 64.2327 65.6002 63.3527C65.6002 62.4727 66.3202 61.7527 67.2002 61.7527H76.8002V4.15267H68.8002V7.35267C71.4402 7.35267 73.6002 9.51267 73.6002 12.1527V15.3527C73.6002 17.9927 71.4402 20.1527 68.8002 20.1527H59.2002C56.5602 20.1527 54.4002 17.9927 54.4002 15.3527V12.1527C54.4002 9.51267 56.5602 7.35267 59.2002 7.35267V4.15267H52.8002C51.9202 4.15267 51.2002 3.43267 51.2002 2.55267C51.2002 1.67267 51.9202 0.952667 52.8002 0.952667H78.4002C79.2802 0.952667 80.0002 1.67267 80.0002 2.55267ZM62.4002 7.35267H65.6002V4.15267H62.4002V7.35267ZM68.8002 10.5527H59.2002C58.3202 10.5527 57.6002 11.2727 57.6002 12.1527V15.3527C57.6002 16.2327 58.3202 16.9527 59.2002 16.9527H68.8002C69.6802 16.9527 70.4002 16.2327 70.4002 15.3527V12.1527C70.4002 11.2727 69.6802 10.5527 68.8002 10.5527Z" fill="#2111DD"/>
</svg>
