<svg width="104" height="111" viewBox="0 0 104 111" fill="none" xmlns="http://www.w3.org/2000/svg">
<path d="M71.7991 11.4418C72.312 6.93551 72.6114 5.30911 73.0757 4.90708C73.3812 4.56322 74.2001 4.38818 74.9142 4.46569C76.0042 4.58398 76.2461 4.79874 76.6075 5.96902C76.9108 6.98217 76.8534 8.82334 76.3574 13.1806C75.8827 17.3517 75.5537 19.2388 75.1603 19.6862C74.7669 20.1336 74.2237 20.2255 73.2925 20.049C72.2862 19.8644 71.9068 19.5216 71.5532 18.6161C71.2373 17.7147 71.2734 16.0597 71.7991 11.4418Z" fill="#FF3400"/>
<path d="M95.3215 12.7127C95.7807 10.3496 96.1122 9.44308 96.6978 8.9788C97.1118 8.68442 97.8598 8.46399 98.386 8.52109C98.9122 8.5782 99.5548 8.94955 99.8549 9.32144C100.351 9.97849 100.291 10.8391 99.3751 16.5458C98.8553 20.1088 98.1476 23.6513 97.8749 24.3758C97.5392 25.3196 97.0622 25.8334 96.3936 26.0247C95.7389 26.205 95.1751 26.1438 94.7022 25.8411C94.3099 25.6101 93.8807 25.0356 93.7018 24.6015C93.5271 24.1301 93.6724 22.1854 94.0565 19.8142C94.4194 17.6292 94.9719 14.4468 95.3215 12.7127Z" fill="#FF3400"/>
<path d="M7.9596 6.02149C8.42421 2.94266 8.79436 1.36166 9.21685 0.992788C9.52234 0.648924 10.191 0.457583 10.6797 0.510611C11.1683 0.563639 11.8654 0.790098 12.2201 1.0171C12.679 1.33082 12.8155 2.13738 12.7909 4.35912C12.7711 6.20436 12.4962 8.28582 12.0968 9.78826C11.5254 11.7998 11.2363 12.334 10.5216 12.5957C10.0075 12.7662 9.24734 12.7591 8.80904 12.5984C8.33314 12.4336 7.8244 11.8883 7.65399 11.3797C7.45024 10.8298 7.56225 8.8437 7.9596 6.02149Z" fill="#FF3400"/>
<path d="M26.1046 10.743C26.8236 5.42962 26.8908 5.173 27.8316 4.59647C28.3626 4.27708 29.0773 4.01533 29.4156 4.05205C29.7538 4.08876 30.188 4.28667 30.3965 4.46011C30.6051 4.63356 30.9592 5.19981 31.1629 5.74975C31.4206 6.49406 31.2886 7.9878 30.6725 11.7288C30.12 14.9112 29.6153 17.0054 29.2176 17.4901C28.774 18.0452 28.2181 18.2488 27.4664 18.1672C26.7147 18.0856 26.1834 17.7389 25.8726 17.1271C25.4603 16.4037 25.5207 15.2038 26.1046 10.743Z" fill="#FF3400"/>
<path d="M43.2995 19.1315C43.8512 13.9508 44.0912 12.8458 44.6979 12.1953C45.161 11.6926 45.7935 11.4848 46.5953 11.5718C47.2718 11.6452 48.0024 11.913 48.2358 12.2023C48.5317 12.6114 48.4324 14.4857 47.8897 19.2526C47.3005 24.4292 47.014 25.9439 46.4909 26.5281C46.05 27.0583 45.4537 27.2826 44.702 27.2011C43.9503 27.1195 43.4191 26.7728 43.1082 26.161C42.7293 25.4789 42.7902 23.9397 43.2995 19.1315Z" fill="#FF3400"/>
<path d="M14.2144 27.2855C14.4524 24.8607 14.713 23.9087 15.2736 23.3286C15.667 22.8812 16.3818 22.6195 16.9832 22.6847C17.5512 22.7087 18.2689 23.0882 18.5648 23.4973C18.9941 24.0717 19.084 25.288 18.8819 28.7346C18.7041 32.6363 18.5817 33.377 17.9204 34.1724C17.4725 34.7647 16.8245 35.1091 16.3359 35.0561C15.8473 35.003 15.1919 34.7434 14.8457 34.4419C14.4995 34.1405 14.1587 33.1232 14.0768 32.1718C13.9949 31.2203 14.0528 29.0399 14.2144 27.2855Z" fill="#FF3400"/>
<path d="M61.08 37.0844C61.6554 32.698 61.9208 31.3696 62.4687 30.9012C62.8076 30.5987 63.5932 30.3823 64.157 30.4435C64.8711 30.521 65.401 30.8802 65.7175 31.4423C66.0922 32.1616 66.0523 33.5146 65.6241 37.276C65.2172 40.8512 64.8677 42.5852 64.3482 43.4714C63.9252 44.1795 63.2851 44.7887 62.7837 44.8474C62.2824 44.9061 61.5391 44.75 61.1135 44.4776C60.6504 44.2011 60.292 43.6721 60.2968 43.2956C60.335 42.9605 60.6572 40.1301 61.08 37.0844Z" fill="#FF3400"/>
<path d="M34.6155 29.2357C34.9422 28.7056 35.3859 28.1505 35.6284 28.026C35.8708 27.9015 36.414 27.8097 36.8274 27.8545C37.2409 27.8994 37.8792 28.308 38.2418 28.7998C38.8711 29.6221 38.8536 30.1103 37.9778 36.8016C37.3812 41.3742 36.8669 44.2214 36.4984 44.7846C36.127 45.3727 35.5613 45.6632 34.8011 45.6561C34.1161 45.6571 33.4232 45.3934 33.0855 45.0175C32.5434 44.4308 32.57 43.5288 33.2822 37.2722C33.7867 32.8405 34.2804 29.8402 34.6155 29.2357Z" fill="#FF3400"/>
<path d="M81.3281 43.0521C81.9724 37.3913 82.1112 36.8409 82.8641 36.2439C83.3241 35.8791 84.0389 35.6174 84.4523 35.6623C84.8658 35.7071 85.5041 36.1157 85.8709 36.5703C86.4712 37.314 86.4828 37.8808 85.8511 43.4298C85.3043 48.234 85.0261 49.6742 84.503 50.2584C84.0175 50.8466 83.4659 51.0129 82.5262 50.911C81.5866 50.809 81.1235 50.5325 80.9197 49.9826C80.7408 49.5484 80.9423 46.4411 81.3281 43.0521Z" fill="#FF3400"/>
<path d="M96.3108 50.4842C96.6604 48.7501 97.127 46.9911 97.3658 46.5646C97.7009 45.96 98.098 45.8146 99.0752 45.9207C100.015 46.0226 100.516 46.3032 100.861 46.9439C101.236 47.6632 101.188 49.0907 100.671 53.6342C100.153 58.1776 99.8794 59.5806 99.3563 60.1648C99.0005 60.6163 98.3193 60.9194 97.8683 60.8704C97.3797 60.8174 96.7242 60.5577 96.378 60.2562C95.9276 59.868 95.7413 58.8299 95.7198 56.6785C95.656 54.8996 95.9067 52.3631 96.3108 50.4842Z" fill="#FF3400"/>
<path d="M21.3307 48.002C21.697 43.7815 21.84 43.1938 22.5595 42.5555C22.9862 42.1494 23.7761 41.8958 24.2271 41.9448C24.7909 42.006 25.3832 42.485 25.7664 43.1298C26.337 44.1343 26.3734 44.8168 25.8907 48.7231C25.5092 52.0749 25.2062 53.3993 24.725 53.9503C24.2841 54.4805 23.6879 54.7049 22.9361 54.6233C22.1844 54.5417 21.6531 54.195 21.3422 53.5832C21.0342 52.9465 21.0244 51.362 21.3307 48.002Z" fill="#FF3400"/>
<path d="M4.75231 50.5763C5.09993 47.5224 5.28055 46.9388 5.99157 46.375C6.45165 46.0102 7.16635 45.7485 7.57979 45.7934C7.99323 45.8382 8.5983 46.2055 8.936 46.5815C9.44043 47.164 9.55142 48.194 9.42932 51.2723C9.33378 53.4487 9.12981 55.5755 8.9286 56.0061C8.76073 56.478 8.20852 56.9836 7.73206 57.1581C7.21801 57.3286 6.45777 57.3214 6.01947 57.1608C5.50598 56.9919 5.01854 56.2604 4.76505 55.4789C4.4867 54.5815 4.48948 52.8852 4.75231 50.5763Z" fill="#FF3400"/>
<path d="M43.0099 57.4428C43.6012 53.586 44.0975 51.5662 44.5036 51.0071C44.943 50.4892 45.4988 50.2856 46.2505 50.3672C47.0022 50.4488 47.5321 50.8079 47.8486 51.3701C48.2567 52.1307 48.2005 53.2934 47.659 57.3818C47.0333 61.8758 46.8774 62.5752 46.0573 63.4288C45.5427 63.9384 44.7275 64.4155 44.2346 64.3997C43.7376 64.4212 43.0447 64.1575 42.7445 63.7856C42.2025 63.1989 42.237 62.5618 43.0099 57.4428Z" fill="#FF3400"/>
<path d="M64.1386 66.3713C64.6945 61.1534 64.8084 60.4871 65.5194 59.9234C65.9376 59.5917 66.7609 59.3795 67.3247 59.4407C68.0388 59.5182 68.5686 59.8773 68.8475 60.4354C69.1179 61.068 69.1394 63.2193 68.8447 67.146C68.5796 70.812 68.2495 73.3776 67.9016 74.0939C67.5956 74.777 67.0767 75.3239 66.613 75.3867C66.1868 75.4535 65.5103 75.3801 65.1096 75.2235C64.7089 75.0669 64.1837 74.3313 63.9636 73.5911C63.6561 72.6152 63.7305 70.6251 64.1386 66.3713Z" fill="#FF3400"/>
<path d="M82.547 73.4589C82.6146 70.5255 82.6945 70.1571 83.414 69.5189C83.8407 69.1128 84.6307 68.8592 85.0817 68.9081C85.5704 68.9612 86.2505 69.3366 86.5883 69.7126C86.9884 70.2084 87.2577 71.5195 87.3131 73.3729C87.3939 75.0029 87.3444 77.1088 87.2342 78.0771C87.1197 79.0826 86.7252 80.2085 86.3736 80.6228C86.0178 81.0743 85.3365 81.3774 84.8854 81.3284C84.3968 81.2754 83.7415 81.0158 83.3953 80.7143C83.0492 80.4128 82.7084 79.3956 82.6265 78.4441C82.5445 77.4927 82.5314 75.2669 82.547 73.4589Z" fill="#FF3400"/>
<path d="M32.6399 66.6476C32.9084 65.9604 33.4024 65.2977 33.6491 65.136C33.9292 65.0156 34.5851 64.9359 35.1864 65.0012C35.8254 65.0706 36.3928 65.4338 36.6717 65.9918C37.0798 66.7525 37.0029 67.7621 36.3614 71.7265C35.8592 74.8013 35.3629 76.821 34.9652 77.3057C34.5216 77.8608 33.9658 78.0643 33.2141 77.9828C32.4624 77.9012 31.931 77.5545 31.6202 76.9427C31.2746 76.3019 31.2684 75.0194 31.616 71.9656C31.8704 69.7311 32.3338 67.3308 32.6399 66.6476Z" fill="#FF3400"/>
<path d="M1.33951 78.2183C1.96862 71.6888 1.98131 71.577 2.90937 71.1122C3.44037 70.7928 4.16724 70.7586 4.71831 70.9315C5.22755 71.1376 5.76162 71.4595 5.96594 71.6702C6.16602 71.9181 6.12328 74.9673 5.90848 78.5257C5.57385 83.8053 5.42126 85.146 4.86425 86.0281C4.35331 86.8398 3.90599 87.0928 2.96211 87.0281C2.01399 87.0006 1.62174 86.7695 1.22215 85.9344C0.755869 85.0167 0.778793 83.8127 1.33951 78.2183Z" fill="#FF3400"/>
<path d="M46.7375 83.8616C47.3347 78.9497 47.68 77.2529 48.1485 76.8137C48.5753 76.4075 49.1936 76.3238 50.0872 76.4962C51.0559 76.6768 51.5107 77.0277 51.8102 77.7389C52.0722 78.4459 51.9983 80.0968 51.4701 83.7342C50.9583 87.562 50.6008 89.0313 50.0104 89.872C49.5959 90.5057 48.8431 91.1026 48.3793 91.1654C47.878 91.2241 47.1348 91.068 46.7093 90.7956C45.8914 90.2921 45.8999 90.2177 46.7375 83.8616Z" fill="#FF3400"/>
<path d="M15.3196 80.7535C15.7891 77.2981 16.1593 75.7172 16.6448 75.1289C17.0424 74.6442 17.6401 74.4075 18.3166 74.4809C18.8804 74.5421 19.5982 74.9216 19.9317 75.3348C20.4319 75.9546 20.4556 76.7489 19.8966 81.3256C19.5617 84.2677 19.1019 86.97 18.8297 87.3552C18.5073 87.848 17.9933 88.0185 17.0536 87.9165C16.0388 87.8063 15.6132 87.534 15.2136 86.6989C14.7473 85.7811 14.7363 84.8751 15.3196 80.7535Z" fill="#FF3400"/>
<path d="M98.848 89.3662C99.272 85.642 99.4489 84.7564 100.03 84.3293C100.407 84.0309 101.075 83.8395 101.526 83.8885C101.977 83.9374 102.666 84.2384 103.045 84.5812C103.629 85.1346 103.703 85.8213 103.497 89.6444C103.371 92.0815 103.125 94.5807 102.982 95.1685C102.801 95.7521 102.416 96.4643 102.161 96.7005C101.868 96.9327 101.137 97.0041 100.502 96.8975C99.646 96.7292 99.2708 96.3492 98.8966 95.2906C98.4849 94.228 98.4829 92.9082 98.848 89.3662Z" fill="#FF3400"/>
<path d="M72.9453 95.3018L74.0789 94.3692C74.6687 93.8677 75.396 93.4942 75.6591 93.5227C75.9264 93.5141 76.5273 93.9186 77.0068 94.3854C77.8283 95.1908 77.8532 95.3066 77.3258 100.942C76.8244 106.015 76.7064 106.719 76.0372 107.25C75.6189 107.581 74.9503 107.773 74.5368 107.728C74.1234 107.683 73.6141 107.477 73.4056 107.303C73.197 107.13 72.8429 106.564 72.6392 106.014C72.4021 105.422 72.4061 103.048 72.9453 95.3018Z" fill="#FF3400"/>
<path d="M30.4319 103.092C30.9353 99.3386 31.314 97.6831 31.7365 97.3143C32.042 96.9704 32.7482 96.7831 33.312 96.8443C33.8382 96.9014 34.5312 97.1651 34.8107 97.384C35.1235 97.6441 35.3139 98.645 35.3159 99.9648C35.293 101.169 35.0296 103.817 34.6461 105.849C34.2578 108.257 33.8293 109.681 33.4571 109.943C33.1644 110.175 32.3872 110.317 31.7858 110.251C31.0717 110.174 30.5418 109.815 30.2296 109.215C29.8172 108.492 29.8777 107.292 30.4319 103.092Z" fill="#FF3400"/>
</svg>
