<svg width="134" height="122" viewBox="0 0 134 122" fill="none" xmlns="http://www.w3.org/2000/svg">
<path d="M114.912 14.8448C115.181 14.8269 115.589 14.8998 115.845 15.0097C116.113 15.112 116.418 15.3989 116.589 15.6948C116.745 15.965 116.905 16.4221 116.926 16.7013C116.968 16.9858 116.92 17.4767 116.822 17.7906C116.724 18.1045 116.347 18.8714 115.988 19.4899C115.63 20.1085 114.696 21.6943 113.923 23.0154C113.15 24.3366 111.526 26.9039 110.321 28.7149C109.116 30.526 107.387 33.0334 106.469 34.2841C105.551 35.5347 103.909 37.7691 102.787 39.2405C101.665 40.712 98.7942 44.4449 96.4017 47.5246L96.1768 47.814C93.8677 50.7864 91.7026 53.5734 90.6518 54.9444L92.3036 54.9342C93.2145 54.9402 97.1174 54.8998 100.987 54.8617C104.856 54.8236 109.832 54.7984 112.031 54.7984C114.237 54.8113 117.793 54.8343 119.926 54.8721C122.059 54.9099 125.531 54.9986 127.64 55.0848C130.965 55.2234 131.562 55.2904 132.12 55.6206C132.461 55.8183 132.892 56.2037 133.041 56.461C133.247 56.788 133.289 57.0725 133.195 57.4529C133.116 57.7389 132.814 58.2735 132.521 58.6137C132.205 59.0024 131.32 59.7363 130.403 60.3856C129.188 61.2419 128.01 61.9219 125.391 63.2795C123.507 64.2473 120.643 65.8151 119.02 66.7521C117.397 67.689 114.716 69.151 113.056 70.0236C111.389 70.8834 108.742 72.2229 107.177 72.9889C105.605 73.742 103.297 74.8517 102.047 75.4364C100.796 76.0211 99.5645 76.5778 98.8507 76.8527L99.4641 77.7337C99.8005 78.2257 100.658 79.3777 101.374 80.2853C102.089 81.1929 103.444 82.8129 104.383 83.8659C105.323 84.9189 108.201 87.9402 110.762 90.5619C113.322 93.1836 116.008 95.9908 116.739 96.8038C117.686 97.8697 118.136 98.4676 118.338 98.9686C118.499 99.3387 118.66 99.9493 118.692 100.308C118.725 100.667 118.684 101.17 118.603 101.423C118.529 101.688 118.273 102.06 118.046 102.242C117.775 102.467 117.267 102.675 116.561 102.842C115.855 103.01 114.914 103.073 113.824 102.999C112.896 102.934 111.15 102.689 109.943 102.443C108.736 102.196 106.575 101.626 105.135 101.187C103.709 100.741 101.993 100.188 101.333 99.9514C100.673 99.7149 99.681 99.3269 99.1087 99.0912C98.5364 98.8555 96.622 97.9879 94.8718 97.1628C93.1085 96.3452 90.8549 95.3132 89.8464 94.8662C88.8454 94.432 88.0046 94.094 87.9653 94.1166C87.9261 94.1393 87.1854 95.9393 86.3093 98.1092C85.4201 100.287 84.0873 103.509 83.3244 105.271C82.554 107.019 81.2881 109.723 80.4997 111.259C79.7187 112.808 78.6243 114.932 78.0874 115.997C77.5431 117.049 76.7589 118.411 76.339 119.014C75.9192 119.616 75.2917 120.373 74.9436 120.677C74.603 120.994 74.0438 121.385 73.6943 121.535C73.3523 121.699 72.8256 121.814 72.5345 121.793C72.2359 121.76 71.6785 121.55 71.2947 121.308C70.6873 120.921 70.4846 120.661 69.6226 119.289C68.9724 118.223 68.4528 117.202 68.0601 116.159C67.7248 115.306 67.2197 113.797 66.9165 112.788C66.6264 111.772 66.2115 110.056 65.9907 108.948C65.77 107.84 65.4728 106.056 65.3136 104.964C65.1675 103.865 64.8852 101.472 64.6853 99.6145C64.4929 97.77 64.3237 96.2379 64.3015 96.1993C64.2792 96.1607 62.6284 97.0794 60.6391 98.228C58.6367 99.384 52.6391 102.778 47.3071 105.754C41.9752 108.729 35.7441 112.172 33.4895 113.405C29.7469 115.446 29.3132 115.662 28.6355 115.727C28.2266 115.775 27.6854 115.744 27.4187 115.675C27.124 115.588 26.7795 115.324 26.5266 115.006C26.3016 114.707 26.0604 114.229 25.9978 113.939C25.9111 113.578 26.1063 112.556 26.5912 110.766C26.9725 109.311 27.6619 107.18 28.1075 106.048C28.5458 104.903 29.3688 103.004 29.9323 101.804C30.4958 100.603 31.4271 98.7104 32.0277 97.5745C32.6357 96.4515 34.2157 93.5664 35.5647 91.1578C36.9138 88.7492 38.3286 86.1825 38.7209 85.4414C39.1057 84.6874 39.9054 83.1106 41.541 79.7474L37.8173 79.101C35.7615 78.7439 31.2636 77.9956 27.8289 77.4568C24.3869 76.9051 19.514 76.0815 17.0012 75.6281C14.4883 75.1747 11.5241 74.6044 10.4255 74.3638C9.31938 74.1104 7.47437 73.786 6.33999 73.6347C5.19817 73.4704 3.82326 73.2349 3.29551 73.0764C2.76775 72.918 2.12645 72.6535 1.87495 72.4899C1.63088 72.3392 1.27361 71.9622 1.09533 71.6534C0.924474 71.3574 0.79889 70.8981 0.818341 70.6296C0.824703 70.3686 0.9248 69.9677 1.03374 69.7332C1.18583 69.4224 1.54698 69.111 2.51369 68.5185C3.55149 67.8679 4.26918 67.5393 6.32075 66.8009C7.71086 66.3071 11.53 64.9427 14.8015 63.8087C18.0656 62.6619 21.9781 61.2779 23.4934 60.729C25.0162 60.1929 27.8654 59.2341 29.8625 58.6129C31.8521 57.9788 33.724 57.4128 34.0098 57.3335C34.2956 57.2543 34.5404 57.1644 34.5461 57.144C34.5648 57.116 33.1945 55.9515 31.5224 54.5666C29.8429 53.1689 27.1507 50.8633 25.531 49.4482C23.9038 48.0202 21.4727 45.8041 20.1027 44.5193C18.7327 43.2345 16.7041 41.2321 15.6043 40.0829C14.4841 38.9283 13.0585 37.4869 12.3921 36.8767C11.7388 36.2589 10.8492 35.3829 10.4006 34.9385C9.84422 34.3677 9.45193 33.8394 9.12721 33.1862C8.87676 32.6618 8.64719 32.0223 8.63303 31.756C8.62277 31.436 8.77133 31.0586 9.02246 30.7078C9.24353 30.4257 9.64216 30.0583 9.89083 29.9148C10.1395 29.7712 10.6757 29.5817 11.0829 29.501C11.5031 29.4128 12.4047 29.3726 13.0877 29.4071C13.7708 29.4417 15.2614 29.6961 16.3972 30.0011C17.5461 30.2985 19.3157 30.855 20.3486 31.2537C21.3946 31.6448 23.298 32.4329 24.5898 33.0081C25.8816 33.5832 28.8341 34.9493 31.1453 36.0509C33.4566 37.1526 35.6988 38.2254 36.1013 38.439C36.5039 38.6527 37.5608 39.1232 38.4501 39.4847C39.3319 39.8334 40.074 40.0911 40.1189 40.048C40.1564 39.9921 40.2133 38.3981 40.2338 36.4992C40.2543 34.6003 40.3434 31.581 40.4102 29.7926C40.477 28.0042 40.6927 24.4487 40.8738 21.891C41.0548 19.3332 41.3575 16.0191 41.528 14.5311C41.719 13.0484 42.0405 10.341 42.281 8.52096C42.5215 6.70091 42.8164 4.76363 42.9282 4.2016C43.0474 3.65244 43.3413 2.71077 43.5726 2.11402C43.8114 1.53015 44.14 0.860092 44.2974 0.64913C44.511 0.354233 44.7522 0.197801 45.1912 0.0816061C45.563 -0.0300996 46.0426 -0.0153836 46.4809 0.108998C46.8519 0.237871 47.437 0.58629 47.7628 0.878543C48.1034 1.19653 48.7932 2.11923 49.3599 3.01008C50.0362 4.06063 50.645 5.23596 51.2085 6.57466C51.685 7.67198 52.3447 9.29824 52.6687 10.1919C53.0058 11.0781 53.9645 13.887 54.8007 16.4235C55.637 18.96 57.5334 24.6929 59.0191 29.1703C60.4917 33.6553 61.7422 37.5138 61.7899 37.7779C61.8434 38.0215 62.2342 39.031 62.6513 40.0254C63.074 40.9993 63.4539 41.9294 63.4946 42.0603C63.5388 42.2578 63.6619 42.2897 63.8879 42.2278C64.0729 42.1553 65.7068 41.2978 67.5351 40.2936C69.3504 39.297 73.237 37.1732 76.1534 35.5752C79.0773 33.99 85.2316 30.6255 89.8193 28.1141C94.407 25.6026 100.3 22.3892 102.896 20.993C105.493 19.5968 109.159 17.6346 111.036 16.654C113.49 15.3741 114.589 14.8597 114.912 14.8448Z" fill="#FFCA00"/>
</svg>
