<svg width="128" height="146" viewBox="0 0 128 146" fill="none" xmlns="http://www.w3.org/2000/svg">
<path fill-rule="evenodd" clip-rule="evenodd" d="M20.7565 21.3058C32.5745 18.1606 32.8635 18.0826 33.7856 18.2991C34.301 18.4037 35.1232 18.8244 35.5816 19.2103C36.4088 19.8955 36.4684 20.0345 38.0572 25.1008L37.9105 22.2599C37.7938 20.1864 37.832 19.179 38.1038 18.4631C38.2908 17.9251 38.7595 17.2004 39.1523 16.8506C39.8252 16.2259 40.1705 16.1105 46.4661 14.4114C52.6998 12.729 53.1182 12.6382 53.8846 12.8524C54.3381 12.9737 55.0554 13.3341 55.4709 13.6429C56.1542 14.1232 56.6042 14.8881 58.7728 19.0667C60.1613 21.7497 62.4308 26.0562 63.8232 28.6717C65.2362 31.2816 67.4555 35.4022 71.2452 42.2232L76.9563 26.789L73.5639 27.5938C71.6894 28.0332 69.9578 28.3455 69.7085 28.3241C69.4535 28.2822 68.869 28.0854 68.3987 27.9021C67.9285 27.7188 67.2659 27.2329 66.9369 26.8342C66.4059 26.1799 66.1528 25.4062 64.6144 19.7059C63.0759 14.0056 62.9054 13.2096 63.035 12.377C63.1188 11.8669 63.4469 11.1136 63.7611 10.7186C64.0752 10.3236 64.6203 9.79981 64.9735 9.54939C65.4449 9.24489 69.1437 8.18017 89.7794 2.58864L91.0501 2.8661C92.1278 3.08487 92.4948 3.29602 94.1311 5.09231L95.7827 11.2939C97.2766 16.8289 97.436 17.5836 97.2857 18.4218C97.202 18.9319 95.9989 23.0898 94.6017 27.6769C93.2045 32.264 92.083 36.0675 92.0902 36.1764C92.1125 36.259 93.9663 35.8251 96.2162 35.2179C100.035 34.1873 100.35 34.1244 101.334 34.3241C101.949 34.4684 102.739 34.8534 104.115 36.0111L106.607 44.9992C108.242 50.8949 109.094 54.2987 109.11 54.8485C109.098 55.2949 108.919 56.0299 108.684 56.4701C108.475 56.9255 107.999 57.5414 107.621 57.8649C107.27 58.2035 106.592 58.5637 105.312 58.9091L106.943 59.8649C107.855 60.3721 109.028 61.2741 109.584 61.8553C110.119 62.4422 110.874 63.4349 111.243 64.0663C111.806 65.0004 112.074 65.7478 112.599 68.0213C112.99 69.7991 113.267 71.5635 113.296 72.8187C113.35 74.3329 113.254 75.0456 112.906 75.8044C112.657 76.3591 112.1 77.0855 111.681 77.4201C111.093 77.8669 110.952 78.0823 111.133 78.3436C111.245 78.5127 111.562 79.114 111.837 79.6382C112.096 80.1886 112.855 82.5097 113.506 84.8379C114.634 88.8542 114.753 89.1322 115.741 90.6602C116.334 91.5418 117.72 93.5607 118.854 95.1379C119.989 96.7152 121.442 98.9819 122.107 100.132C123.163 101.996 123.398 102.62 124.182 105.444C124.734 107.488 125.055 109.086 125.064 109.859C125.087 110.517 124.924 111.802 124.729 112.719C124.52 113.75 123.984 115.047 123.327 116.222C122.724 117.27 121.783 118.544 121.136 119.183C120.499 119.776 119.453 120.657 118.776 121.106C117.818 121.741 117.062 122.056 115.292 122.555C113.647 123.022 112.731 123.158 111.901 123.116C111.267 123.066 110.148 122.858 109.376 122.623C108.145 122.247 107.995 122.265 107.825 122.621C107.751 122.84 107.366 123.299 106.988 123.622C106.387 124.184 105.732 124.382 98.0738 126.449C93.0579 127.803 89.5885 128.651 89.2455 128.61C88.9286 128.585 88.2916 128.358 87.0031 127.687L86.1048 128.461C85.62 128.88 84.6883 129.53 84.0517 129.879C83.077 130.452 80.9621 131.068 69.2172 134.237C55.9655 137.814 55.5265 137.91 54.6155 137.735C54.1001 137.63 53.6093 137.453 53.5195 137.366C53.4241 137.259 52.8042 137.67 52.0694 138.311C51.3497 138.927 50.1569 139.758 49.3964 140.141C48.6567 140.518 47.5398 140.974 46.9618 141.13C46.3632 141.292 45.2096 141.448 44.4012 141.489C43.5723 141.535 42.2675 141.378 41.4749 141.149C40.6878 140.94 39.7061 140.585 39.2922 140.364C38.8783 140.143 38.0417 139.505 37.4037 138.946C36.7862 138.381 35.9168 137.375 35.4684 136.699C34.8054 135.637 34.5595 134.972 33.7384 131.848C32.9508 128.847 32.6437 127.955 31.8763 126.589C31.3873 125.68 29.8777 123.45 28.5208 121.623C27.1846 119.79 25.5852 117.474 25.0064 116.478C24.0896 114.886 23.8494 114.242 23.0483 111.356C22.2847 108.527 22.1499 107.699 22.0728 105.526C22.0106 104.147 21.9805 101.164 21.9899 98.9014C21.9956 95.8865 21.8799 94.1451 21.5768 92.3656C21.3288 91.0366 21.0743 89.3549 20.9935 88.6455C20.9128 87.936 21.0023 86.6267 21.1771 85.7154C21.3519 84.8041 21.8091 83.462 22.169 82.7445C22.5234 82.0063 22.7969 81.3785 22.7913 81.3579C22.7801 81.3165 22.3863 81.3342 21.9099 81.3742C21.366 81.4102 20.652 81.2262 19.9871 80.896C19.3897 80.5698 18.6993 79.9806 18.3686 79.4938C17.8304 78.7305 17.7189 78.3175 16.975 74.3304C16.5309 71.9465 15.8422 68.4099 15.4421 66.4351C15.0213 64.4658 14.2411 60.7545 13.6531 58.1656C13.0858 55.5712 11.1623 47.8698 9.38473 41.0375C6.54316 30.0166 6.17753 28.4977 6.29205 27.6913C6.3552 27.1868 6.68336 26.4335 6.99751 26.0385C7.28544 25.6284 7.79485 25.1364 8.11231 24.9178C8.48612 24.6618 12.6802 23.4634 20.7565 21.3058ZM38.0134 37.4101C38.1985 37.6039 38.4345 37.7396 38.5377 37.7118C38.6202 37.6895 38.6415 37.44 38.6047 37.1397C38.5529 36.8657 38.4709 36.644 38.409 36.6608C38.3527 36.6981 38.1574 36.7951 37.9828 36.8866C37.6899 37.0321 37.6915 37.1203 38.0134 37.4101ZM33.85 57.1019C34.5291 58.4696 35.8245 60.8897 36.7357 62.4607C37.6318 64.058 38.5207 65.5464 38.7019 65.8076C39.0159 66.2325 39.0421 66.2476 39.0394 65.8273C39.04 65.5834 39.0294 63.0825 39.0082 60.2964C38.9871 57.5102 38.9642 54.6359 38.9566 53.9511L38.9635 52.664C34.0096 54.001 32.5759 54.4323 32.5926 54.4943C32.6093 54.5562 33.1652 55.7135 33.85 57.1019ZM37.4444 77.5582L38.9275 78.3766C39.7205 76.9661 39.8639 76.595 39.7663 76.6435C39.6686 76.692 39.1074 76.91 38.5255 77.1335L37.4444 77.5582ZM89.0709 64.0457C89.6365 64.3363 90.1592 64.5497 90.2005 64.5386C90.2624 64.5219 90.5297 64.1174 90.8104 63.5984L91.2965 62.6917L88.0558 63.5664L89.0709 64.0457ZM71.1939 68.7819C71.5442 68.9311 72.0931 69.1597 72.3909 69.2787C72.9605 69.5017 72.9962 69.4699 73.5179 68.5314L74.0698 67.5404L70.5664 68.5081L71.1939 68.7819Z" fill="#F3F1E7"/>
<path d="M17.2335 54.2076C16.5062 51.1024 14.7253 44.0937 13.2482 38.6206L10.5559 28.6451L32.8485 22.6286L35.6913 33.1617L21.6552 36.9499L22.3074 39.3664C22.6697 40.7088 23.1441 42.2204 23.8043 43.6819L35.0538 40.6458L37.2277 48.7006L26.5974 51.5696L27.136 52.9088C27.4511 53.6657 28.1558 55.2925 28.7341 56.5323C29.3123 57.7722 30.3963 59.9835 31.1596 61.4171C31.9024 62.8563 32.9814 64.803 33.5491 65.7577C34.1112 66.6917 35.2187 68.4978 36.0407 69.7383C36.8421 70.9845 37.6005 72.1535 37.7126 72.3227C37.9312 72.6404 37.462 72.7892 21.9397 76.9785L21.3903 73.9582C21.0794 72.3138 20.3277 68.4619 19.679 65.4019C19.0509 62.3364 17.9402 57.3184 17.2335 54.2076Z" fill="#FD3400"/>
<path d="M42.5317 27.3272C42.3839 24.1542 42.2356 21.2251 42.2178 20.8311L42.1577 20.1161L52.8706 17.2248L53.2682 17.9595C53.4884 18.3654 54.849 20.9451 56.286 23.7258C57.723 26.5066 60.476 31.7018 62.4098 35.2569C64.3492 38.8326 67.6237 44.7291 69.6886 48.3596C71.7591 52.0108 74.3599 56.5602 77.4783 61.8784L69.5274 64.0907C65.1571 65.2924 61.5655 66.2617 61.5392 66.2467C61.5134 66.2318 61.3792 65.2588 61.2205 64.1079L61.2128 64.0525C61.0507 62.8776 60.5141 59.9868 60.0081 57.6196C59.5283 55.2674 58.9492 52.8756 58.4112 51.2925L56.5011 51.7637C54.818 52.1736 54.5608 52.2874 54.5205 52.6306C54.4937 52.8594 55.1744 55.1352 56.0005 57.7041C56.8529 60.288 57.8509 63.1651 58.2105 64.0873C58.5757 65.0301 59.0045 66.0445 59.4037 66.8673L51.4568 69.0121C46.2965 70.4048 43.4932 71.095 43.4542 70.9504C43.4263 70.8471 43.4101 68.3255 43.4118 65.3781C43.4135 62.4306 43.3701 56.5263 43.2851 52.2728C43.2263 48.0344 43.097 41.9759 42.9811 38.8387C42.8858 35.6958 42.685 30.5208 42.5317 27.3272Z" fill="#FD3400"/>
<path d="M70.1885 23.8734L68.7671 18.6069L67.3457 13.3403L90.0511 7.21231L92.9569 18.0608L89.2983 30.1049C87.2809 36.7428 85.6413 42.2372 85.6279 42.3516C85.6296 42.4398 88.9132 41.6422 100.287 38.5727L104.634 54.6822L78.6263 61.7015L74.453 46.3204L79.2464 33.3939C81.867 26.2831 83.9818 20.4166 83.9127 20.3245C83.8491 20.253 80.7362 21.0267 70.1885 23.8734Z" fill="#FD3400"/>
<path d="M27.2227 83.0185C27.548 82.6648 28.2075 82.1544 28.6845 81.8706C29.1972 81.5549 30.0887 81.2479 30.9105 81.0926C31.7584 80.9523 32.8161 80.9328 33.6746 81.0777C34.4449 81.2244 35.5823 81.5821 36.2265 81.9179C36.8652 82.233 37.786 82.9372 38.2779 83.447C39.0448 84.2372 39.3024 84.6994 39.7545 86.1284C40.0578 87.088 40.3972 88.5917 40.4813 89.4775C40.5653 90.3633 40.6261 93.0501 40.624 95.4216C40.6011 97.7986 40.6502 100.688 40.6924 101.829C40.7601 103.229 40.9891 104.651 41.4016 106.18C41.7695 107.543 42.3264 109.032 42.7837 109.906C43.198 110.703 44.6329 112.819 45.9317 114.596C47.2512 116.367 48.7815 118.59 49.3698 119.54C49.9375 120.494 50.7622 122.155 51.1926 123.258C51.8076 124.798 52.0528 125.706 52.2517 127.182C52.4115 128.512 52.4035 129.467 52.2008 130.275C52.0361 130.896 51.5383 132.005 51.0902 132.724C50.6628 133.438 49.7544 134.503 49.0854 135.06C48.0443 135.962 47.5974 136.193 46.0247 136.684C44.4108 137.186 44.0432 137.219 43.0179 137.03C42.3825 136.891 41.4945 136.555 41.0584 136.252C40.6278 135.969 39.9897 135.41 39.6194 135.023C39.0265 134.385 38.8682 133.962 37.8554 130.292C36.8593 126.683 36.6301 126.08 35.6537 124.349C35.0581 123.291 33.5485 121.062 32.3188 119.378C31.0685 117.699 29.6409 115.691 29.144 114.917C28.3577 113.644 28.1508 113.124 27.3242 109.979C26.4418 106.628 26.3789 106.312 26.3672 103.479C26.3675 101.84 26.3486 98.8977 26.3329 96.9521C26.2927 94.2597 26.1614 92.7884 25.7557 90.7929C25.3221 88.6941 25.2659 87.9116 25.4335 86.8915C25.5346 86.1995 25.8578 85.1816 26.1274 84.6214C26.4025 84.0818 26.8919 83.3515 27.2227 83.0185Z" fill="#00A44F"/>
<path d="M43.9416 78.7499C44.3986 78.2278 45.1334 77.5863 45.6104 77.3025C46.1231 76.9868 47.0146 76.6797 47.8363 76.5244C48.6843 76.3842 49.7419 76.3646 50.6004 76.5096C51.3708 76.6562 52.5081 77.014 53.1524 77.3498C53.791 77.6649 54.7325 78.3635 55.2244 78.8734C56.1391 79.8008 56.1558 79.8628 56.9044 82.7185C57.5471 85.1818 57.6652 85.9476 57.6643 87.8313C57.6612 89.0508 57.6774 91.5724 57.686 93.4092C57.7207 95.261 57.8752 97.9669 58.0629 99.4008C58.3537 101.627 58.517 102.314 59.1582 103.869C59.6092 104.966 60.5165 106.605 61.3535 107.819C62.1533 108.977 63.5006 110.851 64.3511 111.951C65.2016 113.051 66.3916 114.835 66.9872 115.893C67.8236 117.351 68.2262 118.35 68.7151 120.079C69.0607 121.36 69.4011 123.196 69.4996 124.299C69.5926 125.382 69.701 127.015 69.8126 129.643L64.033 131.203L63.9991 130.503C63.9607 130.115 63.8411 128.441 63.7065 126.793C63.5613 124.861 63.2844 123.096 62.9221 121.754C62.4817 120.122 62.107 119.226 61.067 117.424C60.38 116.191 58.9714 114.09 57.977 112.785C56.9827 111.48 55.71 109.719 55.1758 108.888C54.6416 108.057 53.9395 106.851 53.6317 106.203C53.3445 105.549 52.9069 104.338 52.6839 103.511C52.4665 102.706 52.1729 100.88 52.0377 99.4759C51.9286 98.0872 51.7854 94.6028 51.7475 91.7547C51.692 87.6927 51.5892 86.0808 51.2147 84.3649C50.7867 82.2868 50.727 82.1478 50.1915 81.8049C49.877 81.6239 49.4084 81.5288 49.1401 81.6012C48.8924 81.668 48.5487 81.8716 48.4019 82.0663C48.1687 82.3508 48.2271 82.9776 48.6139 85.0669C49.0006 87.1561 49.1162 88.8975 49.1839 93.3329C49.2418 96.4193 49.409 100.075 49.5744 101.426C49.7782 103.166 50.0396 104.38 50.4549 105.509C50.7828 106.395 51.4842 107.846 52.0352 108.738C52.5655 109.637 54.0043 111.686 55.2173 113.308C56.4302 114.931 57.8261 116.903 58.323 117.677C59.0981 118.908 59.3328 119.532 60.1076 122.403C60.849 125.149 61.0301 126.231 61.4528 131.9L55.5701 133.487L55.3994 130.476C55.2577 127.899 55.1118 127.03 54.3632 124.174C53.5494 121.159 53.3648 120.721 52.4235 119.203C51.8463 118.295 50.5514 116.451 49.5252 115.11C48.5047 113.79 47.2153 111.967 46.6643 111.074C46.0927 110.187 45.311 108.603 44.8766 107.568C44.2449 105.966 44.0705 105.238 43.7742 102.991C43.596 101.51 43.3859 97.7782 43.3486 94.6862C43.2698 90.2095 43.1597 88.4888 42.7507 86.3169C42.4788 84.8171 42.2973 83.1599 42.3398 82.661C42.3823 82.1621 42.5888 81.2865 42.7853 80.7017C42.9874 80.1375 43.5052 79.2665 43.9416 78.7499Z" fill="#00A44F"/>
<path d="M78.4131 69.2027C78.7384 68.849 79.3979 68.3386 79.8749 68.0548C80.367 67.7447 81.2998 67.4265 82.1009 67.2768C83.0727 67.1031 83.9596 67.1075 85.1048 67.3302C86.1976 67.5227 87.1174 67.8949 87.8944 68.3942C88.5403 68.8182 89.373 69.5241 89.76 69.9735C90.3752 70.6938 90.5486 71.0902 91.169 73.4709C91.8189 76.043 91.8668 76.3846 91.9031 81.3603C91.941 84.2084 92.0307 87.3306 92.0902 88.2894C92.1704 89.2427 92.3764 90.8268 92.5765 91.8142C92.7559 92.8072 93.1874 94.2418 93.5548 95.0289C93.9016 95.8216 94.6427 97.1726 95.1825 98.024C95.7279 98.8961 97.0697 100.75 98.1594 102.162C99.2492 103.574 100.544 105.418 101.037 106.26C101.637 107.25 102.207 108.625 102.709 110.24C103.409 112.422 103.525 113.1 104.077 120.396L98.2976 121.956L98.1579 120.043C98.0762 119.002 97.8785 117.039 97.7338 115.682C97.526 114.01 97.2519 112.666 96.8254 111.496C96.5015 110.542 96.0504 109.445 95.3968 108.336L92.9199 109.004L93.2985 109.833C93.5355 110.301 94.0545 111.978 94.4837 113.568C95.0706 115.825 95.2924 117.139 95.7174 122.652L89.8346 124.24L89.6434 121.234C89.5349 119.601 89.2091 117.163 88.9405 115.839C88.5325 114 88.2293 113.04 87.5986 111.77C87.1509 110.85 86.2246 109.305 85.5426 108.337C84.8812 107.363 83.6888 105.735 82.9075 104.727C82.1262 103.719 81.0371 102.063 80.4582 101.067C79.9001 100.066 79.1819 98.5535 78.8914 97.7234C78.5803 96.8989 78.213 95.2919 78.0677 94.179C77.9016 93.0716 77.7575 91.4708 77.7052 90.6208C77.653 89.7707 77.6139 87.4104 77.6059 85.3297C77.5774 83.2546 77.5416 81.0707 77.4943 80.4852C77.462 79.8735 77.1829 78.2648 76.9182 76.8739C76.5125 74.8784 76.4563 74.0959 76.6239 73.0757C76.725 72.3837 77.0482 71.3658 77.3178 70.8056C77.5929 70.266 78.0823 69.5357 78.4131 69.2027Z" fill="#00A44F"/>
<path d="M95.5454 64.5788C95.8707 64.2252 96.5302 63.7148 97.0072 63.431C97.5199 63.1153 98.4114 62.8082 99.2332 62.6529C100.143 62.496 101.118 62.4987 102.07 62.6627C102.867 62.8244 104.042 63.2386 104.697 63.6156C105.352 63.9927 106.258 64.7232 106.745 65.2123C107.56 66.1002 107.631 66.2805 108.225 68.6461C108.572 70.0148 108.879 71.7267 108.964 73.7644L106.044 74.5968C104.445 75.0726 103.124 75.4292 103.113 75.3878C103.108 75.3672 103.036 74.6109 102.973 73.7196C102.909 72.8282 102.694 71.291 102.514 70.298C102.209 68.6743 102.127 68.4527 101.596 68.0422C101.206 67.7485 100.826 67.6517 100.454 67.752C100.118 67.8205 99.7709 68.0915 99.6409 68.3482C99.4656 68.6836 99.5369 69.4398 99.8868 71.2288C100.176 72.5467 100.435 74.1609 100.487 74.767C100.575 75.5853 100.741 76.1167 101.072 76.6035C101.419 77.1523 101.917 77.4389 103.337 77.9419C104.314 78.2767 105.565 78.8918 106.096 79.3023C106.628 79.7128 107.241 80.3449 107.471 80.7039C107.706 81.0835 108.393 83.1361 109.021 85.3817C109.638 87.5861 110.344 89.7888 110.545 90.2884C110.767 90.7824 111.319 91.7633 111.764 92.5075C112.208 93.2517 113.669 95.3833 115.002 97.2839C116.334 99.1844 117.883 101.558 118.42 102.565C119.232 104.097 119.511 104.885 120.102 107.319C120.809 110.185 120.805 110.253 120.454 111.744C120.257 112.572 119.746 113.796 119.302 114.448C118.884 115.114 118 116.106 117.352 116.658C116.403 117.49 115.879 117.765 114.456 118.237C112.966 118.706 112.537 118.755 111.476 118.598C110.69 118.478 109.823 118.136 109.171 117.691C108.599 117.292 107.88 116.6 107.576 116.128C107.165 115.508 106.776 114.394 106.165 111.966C105.646 110.046 105.04 108.126 104.683 107.381C104.338 106.676 103.167 104.799 102.095 103.205C101.022 101.611 99.6042 99.5561 98.9746 98.6181C98.3244 97.6857 97.4037 96.1616 96.9186 95.1846C96.4335 94.2077 95.8129 92.6469 95.5509 91.6762C95.2889 90.7055 95.0259 89.4027 94.8015 87.6685L100.581 86.1086L100.739 87.3511C100.809 88.0192 101.163 89.4967 101.532 90.6159C101.923 91.8178 102.616 93.4032 103.238 94.4762C103.796 95.4777 105.397 97.8818 106.788 99.8331C108.178 101.784 109.639 103.916 110.025 104.609C110.423 105.344 110.984 106.766 111.344 108.02C111.668 109.218 112.065 110.773 112.198 111.512C112.428 112.691 112.519 112.866 112.943 113.04C113.214 113.144 113.599 113.173 113.805 113.117C113.991 113.067 114.342 112.728 114.6 112.371C115.003 111.73 115.001 111.642 114.415 109.141C113.966 107.313 113.554 106.117 112.967 104.924C112.519 104.003 111.512 102.325 110.745 101.203C109.977 100.08 108.585 98.0408 107.652 96.7193C106.74 95.3922 105.672 93.7307 105.286 93.0373C104.824 92.2017 104.294 90.7049 103.697 88.547C102.829 85.4132 102.781 85.3155 102.14 84.9122C101.768 84.6804 100.895 84.3178 100.211 84.0814C99.5065 83.8505 98.613 83.4934 98.2348 83.241C97.8622 83.0091 97.2671 82.5272 96.9436 82.1492C96.6257 81.7918 96.0469 80.7959 95.6834 79.9412C95.2267 78.8236 94.9647 77.8529 94.7453 76.3833C94.5999 75.2703 94.2355 73.2637 93.9669 71.9402C93.6297 70.2808 93.5368 69.198 93.6323 68.4853C93.72 67.9077 94.0544 66.9311 94.3747 66.3129C94.68 65.7209 95.2146 64.9119 95.5454 64.5788Z" fill="#00A44F"/>
<path d="M60.3816 84.7714C60.1555 82.949 59.7715 81.28 58.9403 78.4466L57.8098 74.586L66.9461 72.2532L68.3311 72.5441C69.1015 72.6907 70.2611 73.1311 70.8959 73.5137C71.5513 73.8908 72.3935 74.5498 72.7805 74.9993C73.1882 75.4432 73.6795 76.1969 73.9014 76.691C74.1027 77.1906 74.3959 78.4409 74.5507 79.507C74.7 80.5524 74.8316 83.4196 74.8255 85.8586C74.8401 88.292 74.8635 90.9224 74.8784 91.7161C74.914 92.5041 75.0397 93.9548 75.1779 94.9589C75.3488 96.3308 75.5997 97.2602 76.2091 98.7797C76.6601 99.8767 77.4737 101.496 78.0659 102.378C78.6375 103.265 80.0278 105.216 81.1304 106.758C82.248 108.273 83.6304 110.359 84.1886 111.361C84.9933 112.783 85.3847 113.741 85.9516 115.76C86.6077 118.109 86.6556 118.45 86.4595 119.611C86.3378 120.309 85.9392 121.458 85.5793 122.175C85.2138 122.872 84.4911 123.887 83.9929 124.42C83.474 124.959 82.5383 125.677 81.9073 126.047C81.0604 126.519 79.6997 126.975 72.8056 128.836L72.7806 128.333C72.7549 128.074 72.6052 126.452 72.4483 124.722C72.2913 122.992 72.0675 121.014 71.9455 120.315C71.8441 119.612 71.4198 118.286 71.034 117.349C70.6482 116.411 69.8045 114.844 69.1637 113.865C68.523 112.886 67.0468 110.78 65.8506 109.22C64.6543 107.659 63.3204 105.671 62.8687 104.818C62.3518 103.805 61.8266 102.351 61.3751 100.678C60.7469 98.4327 60.6567 97.7701 60.6566 95.5544C60.677 94.153 60.6775 91.6933 60.6739 90.1211C60.691 88.5433 60.547 86.1227 60.3816 84.7714Z" fill="#00A44F"/>
<path d="M50.9667 35.9088C50.9925 35.3479 51.1254 34.6917 51.261 34.4556L51.2554 34.435C51.391 34.199 51.6148 33.9613 51.7593 33.9223C51.9244 33.8778 52.2485 34.0119 52.4805 34.2151C52.7181 34.4391 53.2038 35.1721 53.5696 35.8711C53.9354 36.57 54.711 38.377 55.2735 39.887C55.8361 41.397 56.2397 42.7284 56.185 42.8539C56.1041 42.9644 55.1975 43.2977 52.2665 44.0887L51.9103 42.523C51.7231 41.6651 51.4177 40.0414 51.2517 38.934C51.0651 37.8322 50.9616 36.4642 50.9667 35.9088Z" fill="#F3F1E7"/>
<path d="M31.5354 89.3682C31.2094 87.75 31.1828 87.159 31.3937 86.7918C31.55 86.5503 31.8976 86.2792 32.1865 86.2012C32.4755 86.1232 32.9647 86.2127 33.2793 86.3937C33.8092 86.716 33.88 86.8963 34.2188 88.644C34.4651 89.8848 34.6163 92.4143 34.7032 95.9361C34.7539 98.9137 34.8636 102.274 34.9264 103.409C35.0132 104.715 35.2867 106.303 35.6602 107.687C35.9946 108.926 36.6018 110.602 37.0217 111.419C37.4471 112.257 38.9902 114.61 40.4496 116.654C41.9091 118.697 43.4878 121.019 43.9228 121.81C44.3784 122.595 45.0592 124.051 45.4205 125.061C45.8024 126.066 46.2411 127.61 46.3982 128.52C46.6796 129.973 46.6695 130.264 46.2912 130.831C46.0334 131.189 45.7231 131.516 45.5993 131.55C45.4548 131.589 45.1117 131.548 44.8401 131.444C44.3754 131.282 44.2823 131.019 43.4144 127.885C42.5688 124.834 42.3676 124.334 41.225 122.316C40.5229 121.11 39.0021 118.839 37.8321 117.294C36.6883 115.763 35.356 113.863 34.8853 113.103C34.3288 112.19 33.7751 110.877 33.2506 109.18C32.6385 107.24 32.4217 106.19 32.3277 104.776C32.2515 103.755 32.1512 100.347 32.0766 97.1989C32.0083 93.0074 31.8598 90.8982 31.5354 89.3682Z" fill="#F3F1E7"/>
<path d="M82.6317 74.9574C82.3307 73.8421 82.3185 73.4687 82.5596 73.0492C82.7253 72.7607 83.088 72.4634 83.3769 72.3854C83.6659 72.3074 84.1289 72.3819 84.4173 72.5478C84.8105 72.774 85.0141 73.1179 85.2203 73.8821C85.3708 74.4397 85.5909 75.6655 85.7012 76.5663C85.817 77.4878 85.972 80.7697 86.0299 83.8561C86.1085 86.937 86.2874 90.3896 86.4327 91.5026C86.5797 92.7037 86.9526 94.3314 87.3473 95.4657C87.7214 96.6055 88.4022 98.0615 88.9699 99.0161C89.5209 99.9089 90.4438 101.277 91.0288 102.05C91.6194 102.843 92.1146 103.53 92.1313 103.592C92.1481 103.653 91.5757 103.83 89.5512 104.288L88.2094 102.434C87.49 101.41 86.5297 99.9849 86.0646 99.2463C85.6202 98.5021 84.96 97.0406 84.6082 95.9834C84.1466 94.6012 83.8908 93.4073 83.7411 91.7859C83.6036 90.5378 83.4525 87.1885 83.394 84.3459C83.3561 81.4978 83.2435 78.5369 83.146 77.7656C83.0692 76.9886 82.8435 75.7422 82.6317 74.9574Z" fill="#F3F1E7"/>
<path d="M66.1365 82.0239C65.9817 80.9578 65.7488 79.6026 65.5815 78.983L65.3218 77.8566L66.3048 77.7242C66.9876 77.6286 67.4506 77.703 67.8081 77.9611C68.2498 78.285 68.3485 78.5686 68.6093 80.0271C68.7926 80.9525 68.9383 83.4613 68.9573 85.5833C68.9971 87.6997 69.0294 90.5272 69.0391 91.8762C69.0433 93.2045 69.1623 95.1223 69.3004 96.1264C69.4347 97.1981 69.7836 98.6549 70.1448 99.6653C70.4687 100.619 71.0168 101.912 71.3659 102.549C71.6943 103.191 73.204 105.421 74.7008 107.52C76.2182 109.615 77.9202 112.147 78.4784 113.148C79.2719 114.529 79.6856 115.57 80.2174 117.376C80.8178 119.519 80.8657 119.86 80.6129 120.482C80.3902 121.052 80.1553 121.248 78.3461 121.847L77.3817 118.274C76.5512 115.197 76.268 114.476 75.4689 113.074C74.9385 112.176 73.4401 109.988 72.1206 108.217C70.8011 106.446 69.4259 104.468 69.0768 103.831C68.7071 103.2 68.0971 101.924 67.7113 100.987C67.2005 99.7509 66.9497 98.8215 66.7915 97.579C66.6701 96.6369 66.5511 94.7191 66.5302 93.3288C66.5093 91.9385 66.4692 89.2461 66.4495 87.3681C66.4298 85.49 66.2858 83.0693 66.1365 82.0239Z" fill="#F3F1E7"/>
</svg>
