<svg width="19" height="19" viewBox="0 0 19 19" fill="none" xmlns="http://www.w3.org/2000/svg">
<path d="M7.37239 0.148063C7.38951 0.113225 7.42801 0.0674995 7.4601 0.043548C7.4922 0.0174192 7.54996 0 7.59916 0C7.64409 0 7.71255 0.0130644 7.74892 0.0304836C7.78743 0.0457254 7.84519 0.0870961 7.87728 0.121935C7.90937 0.156773 7.97783 0.259111 8.02918 0.348384C8.08052 0.437658 8.21103 0.668462 8.32013 0.860074C8.42924 1.05169 8.63248 1.43926 8.77154 1.72015C8.9106 2.00103 9.09887 2.39732 9.18872 2.602C9.27857 2.80667 9.43903 3.17247 9.54172 3.41852C9.64441 3.66457 9.90327 4.29166 10.1151 4.81206L10.1354 4.8621C10.3397 5.36394 10.5311 5.83435 10.6264 6.06406L10.744 5.85721C10.8104 5.74399 11.0863 5.25407 11.3602 4.76851C11.634 4.28295 11.9892 3.66021 12.1475 3.38586C12.3079 3.11151 12.5668 2.66949 12.7251 2.40603C12.8834 2.14256 13.1444 1.71579 13.307 1.45886C13.5637 1.05386 13.6151 0.984186 13.6964 0.93846C13.7456 0.910154 13.8247 0.884025 13.8675 0.884025C13.9232 0.881848 13.9617 0.89709 14.0023 0.936283C14.0323 0.966766 14.0772 1.04298 14.0986 1.10394C14.1243 1.17144 14.1521 1.33475 14.167 1.49588C14.1863 1.70926 14.1863 1.90523 14.167 2.32982C14.1521 2.63466 14.1414 3.10497 14.1414 3.37497C14.1414 3.64497 14.1307 4.08481 14.12 4.3548C14.1071 4.6248 14.0836 5.05157 14.0665 5.30197C14.0472 5.55237 14.0194 5.92036 14.0023 6.1185C13.9852 6.31664 13.9659 6.51043 13.9488 6.6193L14.1029 6.60624C14.1884 6.5997 14.3938 6.57575 14.5586 6.5518C14.7233 6.52785 15.0228 6.47559 15.2218 6.43422C15.4207 6.39285 16.0048 6.25132 16.5161 6.12068C17.0274 5.99003 17.5708 5.85721 17.7248 5.82455C17.9259 5.78318 18.0329 5.77011 18.1099 5.781C18.1677 5.78753 18.2554 5.81149 18.3025 5.83326C18.3495 5.85503 18.4094 5.8964 18.4351 5.92471C18.4629 5.95302 18.4907 6.01181 18.4971 6.05318C18.5057 6.10326 18.495 6.18164 18.4651 6.2818C18.4351 6.38196 18.3752 6.5039 18.2875 6.63454C18.2126 6.74559 18.0564 6.94591 17.9388 7.07873C17.8211 7.21156 17.5943 7.44018 17.436 7.58825C17.2777 7.73413 17.0852 7.90832 17.0081 7.97365C16.9311 8.03897 16.8113 8.13477 16.7407 8.18921C16.6701 8.24364 16.4241 8.42001 16.1952 8.57896C15.9663 8.74009 15.6753 8.94694 15.5469 9.04057C15.4207 9.1342 15.318 9.21476 15.318 9.2213C15.318 9.22783 15.4892 9.44992 15.6967 9.71557C15.9042 9.98339 16.2102 10.3819 16.3749 10.6039C16.5375 10.826 16.7835 11.1788 16.9183 11.3878C17.0552 11.5968 17.2413 11.8864 17.3355 12.0301C17.4275 12.1739 17.5408 12.3698 17.5858 12.4656C17.6307 12.5614 17.6799 12.6943 17.6927 12.7596C17.7077 12.8249 17.7163 12.9229 17.7099 12.9773C17.7056 13.0317 17.682 13.1058 17.6585 13.1406C17.6328 13.1755 17.5665 13.2299 17.5088 13.2604C17.4168 13.3083 17.3697 13.3148 17.1365 13.3235C16.9568 13.3279 16.7921 13.3192 16.6338 13.293C16.5033 13.2734 16.2786 13.2277 16.131 13.1929C15.9834 13.1559 15.7395 13.084 15.5855 13.0317C15.4314 12.9795 15.1875 12.888 15.0399 12.8293C14.8923 12.7683 14.5735 12.6311 14.3275 12.5222C14.0836 12.4134 13.8804 12.3241 13.874 12.3241C13.8675 12.3241 13.8633 12.5963 13.8633 12.9272C13.8633 13.2604 13.8547 14.2533 13.8419 15.1329C13.829 16.0126 13.8098 17.0382 13.8012 17.4083C13.7862 18.0224 13.782 18.092 13.7413 18.1813C13.7178 18.2357 13.675 18.3011 13.6472 18.3294C13.6151 18.3599 13.5573 18.3838 13.4996 18.3925C13.4461 18.399 13.3691 18.3947 13.3284 18.3816C13.2771 18.3664 13.1637 18.2684 12.9754 18.079C12.8214 17.9265 12.6053 17.687 12.4962 17.5499C12.3849 17.4127 12.2074 17.1732 12.0983 17.0164C11.9892 16.8596 11.8202 16.607 11.7217 16.4503C11.6255 16.2935 11.3794 15.8885 11.1762 15.5466C10.973 15.2048 10.7547 14.8433 10.6906 14.741C10.6242 14.6387 10.4852 14.4253 10.1835 13.9789L9.83481 14.397C9.64227 14.6278 9.22509 15.1351 8.9106 15.5249C8.59397 15.9146 8.14043 16.4633 7.90296 16.7442C7.66548 17.0251 7.38095 17.3539 7.27184 17.4736C7.16059 17.5934 6.9873 17.8003 6.88675 17.9309C6.78406 18.0615 6.6557 18.2161 6.59794 18.2706C6.54017 18.325 6.46102 18.386 6.42251 18.4056C6.38614 18.4252 6.3134 18.4426 6.26205 18.4426C6.21285 18.4426 6.14653 18.4252 6.11444 18.4034C6.08235 18.3838 6.03956 18.3424 6.01816 18.3119C5.99035 18.2706 5.97752 18.2031 5.97324 18.0398C5.96682 17.8634 5.97752 17.7502 6.03314 17.441C6.07165 17.232 6.17648 16.6571 6.27061 16.1672C6.3626 15.6773 6.47171 15.0894 6.51236 14.8608C6.55515 14.6321 6.64072 14.2075 6.70704 13.9136C6.77123 13.6196 6.83541 13.3453 6.8461 13.3039C6.8568 13.2626 6.86322 13.2255 6.86108 13.2234C6.85894 13.219 6.61505 13.3061 6.32196 13.415C6.02672 13.5238 5.54536 13.6937 5.25227 13.7938C4.95703 13.894 4.50563 14.0377 4.24676 14.1161C3.9879 14.1945 3.59211 14.3034 3.36962 14.3578C3.14498 14.4144 2.86258 14.4884 2.7385 14.5276C2.61442 14.5646 2.44113 14.6125 2.35341 14.6365C2.24217 14.6648 2.14803 14.6757 2.0432 14.6692C1.95977 14.6626 1.8635 14.6452 1.82927 14.6278C1.78862 14.606 1.75225 14.5603 1.72658 14.5037C1.70732 14.4558 1.69021 14.3796 1.69021 14.3382C1.69021 14.2968 1.70518 14.2163 1.72444 14.1596C1.74369 14.1009 1.80359 13.9855 1.85708 13.9027C1.91056 13.82 2.04962 13.6523 2.16943 13.5326C2.28923 13.4106 2.48605 13.2299 2.61014 13.1297C2.73422 13.0274 2.96955 12.8467 3.13429 12.7269C3.29902 12.6072 3.68197 12.3372 3.98576 12.1281C4.28955 11.9191 4.58478 11.7166 4.64041 11.6818C4.69603 11.6469 4.83081 11.5489 4.93992 11.464C5.04689 11.3791 5.13246 11.3051 5.13032 11.2964C5.12605 11.2877 4.93136 11.1657 4.69603 11.0264C4.4607 10.887 4.09059 10.6584 3.87237 10.5212C3.65415 10.384 3.22628 10.101 2.92035 9.89411C2.61442 9.68726 2.22291 9.41073 2.04962 9.28226C1.87847 9.15162 1.56398 8.91646 1.35432 8.75533C1.14467 8.5942 0.92431 8.41784 0.862268 8.3634C0.802365 8.30897 0.706093 8.20445 0.64833 8.1326C0.592706 8.06074 0.532804 7.97147 0.517828 7.93663C0.496434 7.88873 0.494295 7.84736 0.51141 7.78421C0.524246 7.72978 0.560616 7.67099 0.607682 7.62526C0.650469 7.58825 0.736045 7.54034 0.795947 7.52075C0.860128 7.50115 1.02486 7.48155 1.17676 7.47502C1.35646 7.46631 1.54687 7.47502 1.75439 7.50115C1.92554 7.52075 2.17584 7.55558 2.31063 7.57954C2.44541 7.60131 2.86472 7.68405 3.24125 7.76244C3.61778 7.84082 4.46926 8.01719 5.1346 8.15437C5.79995 8.29372 6.37116 8.41566 6.40753 8.42872C6.44176 8.43961 6.5958 8.46356 6.74983 8.48316C6.90173 8.50058 7.04507 8.52017 7.06432 8.52453C7.09213 8.53324 7.10497 8.52017 7.11353 8.48751C7.1178 8.45921 7.1285 8.19356 7.13492 7.89308C7.14134 7.59478 7.15631 6.9568 7.16701 6.47777C7.17985 5.99874 7.20338 4.98843 7.22049 4.23505C7.23761 3.48167 7.26114 2.5149 7.27398 2.09031C7.28682 1.66571 7.30607 1.06693 7.31891 0.762091C7.33602 0.363626 7.351 0.189434 7.37239 0.148063Z" fill="#FFCB00"/>
</svg>
