<svg width="127" height="129" viewBox="0 0 127 129" fill="none" xmlns="http://www.w3.org/2000/svg">
<path d="M3.88529 26.0685C4.149 25.8395 4.54386 25.5675 4.75588 25.4711C4.9679 25.3747 6.83883 24.8418 8.91543 24.2774C11.8373 23.4945 12.8028 23.2516 13.1945 23.2338C13.4746 23.2141 13.9452 23.2542 14.2471 23.3158C14.5752 23.3862 15.0276 23.5658 15.3651 23.7603C15.714 23.9676 16.0679 24.2527 16.295 24.5085C16.5601 24.8174 17.1415 25.8331 18.498 28.351C19.5096 30.2329 20.3736 31.8299 20.423 31.8958C20.4763 31.9765 20.55 31.561 20.6439 30.6493C20.7208 29.9005 20.9313 27.9048 21.1154 26.2248C21.2995 24.5449 21.5059 22.9777 21.5836 22.7352C21.6559 22.5021 21.8662 22.0738 22.0529 21.7942C22.2303 21.5092 22.5235 21.1536 22.7049 21.0021C22.8789 20.8526 23.2427 20.6126 23.5153 20.4762C23.9132 20.2746 24.7136 20.0364 27.7389 19.2258C30.7643 18.4151 31.5766 18.2212 32.0219 18.1969C32.3263 18.1787 32.7781 18.208 33.0297 18.2593C33.2813 18.3106 33.7224 18.4774 33.9997 18.6247C34.277 18.772 34.6545 19.0271 34.8411 19.1908C35.0203 19.3565 35.2988 19.6856 35.4588 19.9277C35.6835 20.2633 35.7956 20.534 35.948 21.1027C36.0495 21.5108 36.2791 22.4862 36.4405 23.2662C36.6019 24.0462 36.947 25.6002 37.1955 26.7051C37.446 27.8174 37.9533 29.977 38.3239 31.5083C38.6946 33.0396 39.1128 34.7481 39.5337 36.2897L39.5284 35.737C39.5252 35.4292 39.4909 33.9106 39.4467 32.3552C39.4026 30.7997 39.3262 28.4139 39.2723 27.0589C39.2258 25.702 39.1199 23.324 39.0387 21.7785C38.965 20.231 38.9303 18.7996 38.9622 18.5932C38.9941 18.3867 39.1087 18.0157 39.2086 17.7672C39.3086 17.5188 39.4888 17.1856 39.5957 17.0224C39.7046 16.8665 39.8958 16.6332 40.0126 16.507C40.1314 16.3881 40.4099 16.1551 40.6282 15.9937C41.02 15.7151 41.08 15.6985 44.9453 14.6314L44.978 14.6224C48.3452 13.6964 49.0149 13.5328 49.514 13.502C49.8351 13.4872 50.3091 13.5106 50.5607 13.5619C50.8123 13.6132 51.2909 13.8016 51.6151 13.9759C52.0518 14.2151 52.3134 14.4221 52.6466 14.8077C52.9799 15.1933 53.1518 15.4797 53.3356 15.9292C53.473 16.2644 54.3844 18.6006 55.3621 21.125C56.3397 23.6493 57.8408 27.5057 58.7033 29.6888C59.8642 32.631 60.2606 33.5776 60.2402 33.3535C60.2262 33.1831 59.9731 31.7945 59.6729 30.2601C59.3728 28.7258 58.9637 26.6665 58.7617 25.6758C58.5597 24.6851 58.1903 22.8922 57.9348 21.7021C57.6867 20.51 57.2427 18.468 56.9521 17.1765C56.5204 15.2104 56.4401 14.7332 56.459 14.3007C56.4691 14.013 56.5403 13.5982 56.6146 13.3725C56.6795 13.1413 56.8391 12.7899 56.9583 12.5838C57.0775 12.3777 57.3026 12.0641 57.4633 11.8944C57.6294 11.7153 57.9537 11.4464 58.1943 11.279C58.6241 10.9897 58.6759 10.9758 66.9902 8.74799L67.5165 8.78902C67.8086 8.81368 68.252 8.90065 68.9561 9.13153L69.1877 8.87158C69.3099 8.73593 69.5771 8.4902 69.7713 8.32735C69.9655 8.16449 70.3554 7.93335 70.6247 7.81372C70.9511 7.67085 72.4541 7.24436 75.0101 6.57533C78.7441 5.59854 78.9162 5.56034 79.7963 5.64908L80.1985 5.37506C80.5926 5.1036 80.7039 5.07343 88.2401 3.03051L88.2878 3.01758C94.6971 1.28438 96.0675 0.925091 96.5203 0.898758C96.8172 0.882522 97.2912 0.905904 97.567 0.958661C97.8743 1.01088 98.31 1.18702 98.685 1.40315C99.0226 1.59767 99.4361 1.89846 99.5857 2.0721C99.7447 2.25114 99.9783 2.56059 100.104 2.76431C100.305 3.09844 100.511 3.81086 101.915 9.04706C103.288 14.1725 103.499 15.0184 103.498 15.4302C103.504 15.6897 103.463 16.0967 103.405 16.3258C103.349 16.5623 103.158 17.0015 102.981 17.318C102.781 17.6646 102.497 18.0256 102.239 18.2452C102.008 18.4495 101.618 18.7122 100.911 19.0601L101.211 19.1458C101.376 19.1967 101.666 19.3327 101.863 19.4462C102.052 19.5616 102.353 19.7976 102.532 19.9633C102.721 20.1344 102.992 20.4655 103.145 20.7095C103.4 21.1318 103.473 21.3735 104.661 25.8047C105.747 29.8592 105.906 30.5131 105.898 30.8954C105.89 31.1348 105.841 31.5437 105.783 31.7969C105.724 32.0502 105.608 32.3898 105.352 32.8227L105.991 32.9285C106.348 32.991 106.841 33.1439 107.088 33.2676C107.338 33.3988 107.726 33.6666 107.947 33.8687C108.168 34.0708 108.478 34.4308 108.631 34.6749C108.896 35.1025 108.967 35.3684 111.205 43.7212C113.263 51.402 113.508 52.3734 113.501 52.763C113.494 53.0024 113.442 53.4281 113.379 53.6981C113.309 53.9701 113.109 54.4354 112.926 54.7298C112.744 55.0241 112.432 55.4004 112.24 55.5707C112.048 55.7409 111.701 55.9843 111.066 56.368L111.453 56.5098C111.664 56.5878 112.033 56.7817 112.272 56.9316C112.504 57.0908 112.838 57.3893 113.022 57.6013C113.198 57.8153 113.432 58.1562 113.534 58.3585C113.634 58.5534 113.768 58.9054 113.827 59.1269C113.886 59.3485 114.126 61.841 114.36 64.6675C114.592 67.4865 114.777 69.9225 114.771 70.0747C114.764 70.2269 114.704 70.5674 114.631 70.8246C114.564 71.0798 114.387 71.5151 114.23 71.7867C114.05 72.0885 113.762 72.4347 113.478 72.677C113.201 72.9173 112.788 73.1785 111.925 73.5681L112.786 73.9706C113.258 74.1925 113.951 74.5608 114.32 74.7863C114.683 75.0138 115.254 75.399 115.579 75.6364C115.904 75.8738 116.463 76.3335 116.825 76.6482C117.18 76.9648 117.756 77.5466 118.096 77.9302C118.444 78.3119 118.894 78.8644 119.105 79.1482C119.313 79.4247 119.681 79.9674 119.912 80.3567C120.148 80.7366 120.543 81.4699 120.784 81.9832C121.03 82.4872 121.396 83.4102 121.607 84.0187C121.841 84.7158 122.1 85.6833 122.313 86.6552C122.5 87.4997 122.704 88.5293 122.769 88.9474C122.833 89.3655 122.919 90.0392 122.962 90.4391C123.006 90.839 123.061 91.5763 123.082 92.0693C123.103 92.5623 123.115 93.2873 123.11 93.6844C123.106 94.0814 123.051 94.8243 122.998 95.3371C122.945 95.8499 122.804 96.7112 122.684 97.2419C122.565 97.7725 122.329 98.5797 122.158 99.0371C121.988 99.4945 121.659 100.192 121.426 100.595C121.203 101.003 120.805 101.592 120.558 101.912C120.301 102.226 119.84 102.722 119.521 103.013C119.201 103.297 118.719 103.687 118.443 103.872C118.17 104.064 117.627 104.375 117.244 104.573C116.7 104.853 116.279 104.998 115.327 105.261C114.506 105.481 113.882 105.608 113.407 105.641C113.019 105.673 112.364 105.683 111.946 105.66C111.527 105.638 110.844 105.544 110.427 105.466C110.007 105.38 109.39 105.205 108.444 104.873L108.102 105.518C107.834 106.026 107.652 106.264 107.245 106.611C106.897 106.91 106.554 107.137 106.198 107.287C105.827 107.442 103.597 108.055 98.9565 109.259C93.2435 110.751 92.1852 111.002 91.8118 111C91.5741 111 91.2075 110.964 90.9969 110.917C90.7862 110.871 90.4537 110.754 89.8902 110.485L89.5167 110.926C89.3073 111.18 88.9336 111.502 88.6817 111.656C88.2331 111.935 88.0777 111.976 83.1434 113.267C80.3488 113.992 77.961 114.608 77.8406 114.632C77.7203 114.657 77.3993 114.79 77.1286 114.934C76.6903 115.162 75.6271 115.455 57.1586 120.293L56.6692 120.242C56.3994 120.211 56.1256 120.166 56.0659 120.15C56.0023 120.12 55.8327 120.197 55.6453 120.326C55.3974 120.496 54.9043 120.667 53.4515 121.104C52.4239 121.411 48.5207 122.496 44.7798 123.507C41.0408 124.524 37.2501 125.556 36.3531 125.788C34.8589 126.189 34.6848 126.22 34.2364 126.174C33.9685 126.15 33.5754 126.074 33.3588 126.005C33.1442 125.944 32.7415 125.743 32.475 125.577C32.1992 125.405 31.8206 125.087 31.6276 124.87C31.44 124.643 31.2005 124.312 31.1081 124.115C31.0103 123.927 30.0573 121.436 28.9926 118.587C27.9204 115.739 26.1998 111.182 25.1667 108.451C24.1263 105.722 22.5752 101.649 21.7117 99.4029C20.8482 97.1567 19.8473 94.5752 19.4924 93.665C19.145 92.7529 18.588 91.414 18.2619 90.6702C17.9283 89.9285 17.5023 88.8711 17.2982 88.3163C17.0312 87.5567 16.9006 87.0693 16.7737 86.3592C16.6816 85.8377 16.604 85.0749 16.5973 84.6651C16.5979 84.2533 16.6379 83.6331 16.8004 82.6713L16.3514 82.475C16.1081 82.3661 15.7064 82.1096 15.4616 81.906C15.2148 81.6951 14.8929 81.3223 14.7383 81.0708C14.5171 80.7185 14.4004 80.4015 14.2283 79.7589C14.1036 79.2937 13.6359 77.2818 13.1889 75.2881C12.7419 73.2944 11.6068 68.2001 10.6716 63.9705C9.73651 59.7408 8.58757 54.5949 8.12474 52.5421C7.66191 50.4893 6.91798 47.2691 6.4839 45.3828C6.04241 43.4985 5.38565 40.7219 5.02634 39.2034C4.65963 37.6869 3.96933 34.9035 3.49232 33.005C2.83273 30.3954 2.61444 29.4328 2.59884 29.0491C2.58678 28.7674 2.6313 28.3122 2.69174 28.0348C2.75959 27.7554 2.94517 27.294 3.10771 27.013C3.29537 26.6778 3.57773 26.3409 3.88529 26.0685Z" fill="#F3F1E7"/>
<path d="M7.33879 32.5676C6.84844 30.6489 6.44861 29.0383 6.45893 28.9881L6.45695 28.9807C6.46133 28.9083 7.21729 28.6819 13.416 27.021L13.7534 27.6588C13.9357 28.0137 15.1158 30.1988 16.3651 32.5237C17.6198 34.8392 19.447 38.1966 20.4255 39.9845C21.4041 41.7724 22.436 43.6411 22.7062 44.1465C22.9838 44.65 23.2189 45.054 23.2411 45.048C23.2633 45.0421 23.3615 43.8997 23.4649 42.5105C23.5704 41.1287 23.733 39.0429 23.8346 37.8837C23.9363 36.7245 24.1597 34.2742 24.3432 32.444C24.5248 30.6064 24.8003 27.9363 25.2464 23.8906L32.1897 21.9906L32.2664 22.2471C32.3114 22.3854 32.5604 23.5219 32.8297 24.7637C33.101 26.0129 33.552 28.0214 33.8282 29.2297C34.1044 30.438 34.9145 33.7275 35.6295 36.5439C36.488 39.955 37.4576 43.5738 38.5384 47.4003C39.4244 50.5587 40.5635 54.5437 41.0709 56.26C41.5784 57.9763 41.9805 59.3883 41.9771 59.4051C41.9662 59.4238 41.4701 59.5251 40.8665 59.6393C40.2628 59.7536 39.0507 60.023 38.1699 60.2273C37.2319 60.4549 36.0894 60.7769 35.4079 61.0149C34.7688 61.2336 33.9271 61.5541 33.5361 61.7222C33.1451 61.8903 32.4395 62.2456 31.9608 62.5005C31.4841 62.7629 31.0882 62.9718 31.0768 62.959C31.0654 62.9463 31.0793 62.4359 31.1119 61.8177C31.1426 61.2347 31.1949 59.7587 31.2413 58.453L31.2496 58.2188C31.2904 56.8622 31.3352 54.9584 31.3399 53.9994C31.3446 53.0403 31.3344 51.4045 31.3173 50.3643C31.3001 49.324 31.2475 47.5888 31.1983 46.5175C31.1471 45.4389 31.0476 43.7953 30.9783 42.8561C30.9016 41.9189 30.8452 41.087 30.8402 41.0092C30.8446 40.9368 30.8213 40.8797 30.7918 40.8876C30.7548 40.8976 30.7125 41.0355 30.6874 41.2085C30.6624 41.3814 30.5409 42.348 30.4164 43.3629C30.2993 44.3758 30.1343 45.8606 30.0565 46.6651C29.9787 47.4696 29.8567 49.0854 29.7832 50.2608C29.7097 51.4362 29.6184 53.2258 29.5866 54.2317C29.5549 55.2376 29.5255 56.7256 29.5202 57.5344C29.5149 58.3432 29.5305 59.851 29.5476 60.8912C29.5721 61.9295 29.6036 63.053 29.6265 63.9967L29.1971 64.3176C28.9605 64.4997 28.4696 64.9162 28.096 65.238C27.7243 65.5671 26.9727 66.283 26.4207 66.8267C25.8687 67.3704 25.3951 67.8218 25.3655 67.8298C25.3285 67.8397 25.2905 67.7865 25.2707 67.7127C25.2529 67.6462 24.9558 66.863 24.6069 65.975C24.2579 65.0869 23.6308 63.5452 23.2132 62.5489C22.7956 61.5527 22.0623 59.8811 21.5899 58.8282C21.1101 57.7774 20.3942 56.2594 20.0039 55.4537C19.6062 54.65 18.955 53.3442 18.5465 52.5593C18.138 51.7743 17.4997 50.5759 17.1189 49.8943C16.7455 49.2107 16.3824 48.5956 16.3237 48.5243C16.2516 48.4327 16.2863 48.6213 16.4351 49.0881C16.5602 49.4662 16.9434 50.63 17.2929 51.6682C17.6351 52.7085 18.2126 54.3902 18.571 55.4023C18.9294 56.4145 19.5226 58.0365 19.8933 59.0058C20.2566 59.977 20.8265 61.4233 21.1462 62.2321C21.4734 63.0389 22.0284 64.3704 22.3817 65.186C22.7276 66.0036 23.2737 67.2425 23.584 67.9272C23.9037 68.6172 24.1458 69.2252 24.1301 69.2848C24.107 69.3464 23.7942 69.8656 23.4267 70.4469C23.0498 71.0228 22.1285 72.3778 21.3772 73.4499C20.6185 74.5239 19.6795 75.9312 19.2908 76.5815C18.9022 77.2318 18.451 78.0334 17.9857 78.9893L17.9006 78.6717C17.8551 78.5018 17.5407 77.1217 17.1962 75.5992C16.8517 74.0767 15.6339 68.5851 14.4785 63.3854C13.3231 58.1858 11.9816 52.1732 11.4911 50.017C11.0006 47.8609 10.3527 45.0582 10.0606 43.7908C9.75922 42.518 9.23358 40.2604 8.87281 38.7661C8.51204 37.2717 7.82173 34.4883 7.33879 32.5676Z" fill="#FF8ED5"/>
<path d="M42.8623 21.0781C42.8078 20.135 42.7701 19.3139 42.7711 19.2582C42.7828 19.1838 43.5388 18.9575 49.7375 17.2966L49.8378 17.523C49.8956 17.65 50.2935 18.6912 50.7359 19.8391C51.1763 20.9797 52.278 23.8191 53.1875 26.1479C54.0875 28.4714 55.4946 32.0363 56.2988 34.061C57.0955 36.0876 58.5075 39.6116 59.4273 41.8902C60.3396 44.1709 61.7566 47.654 62.573 49.6358C63.382 51.6195 64.792 55.0174 65.6988 57.1887C66.6056 59.36 67.4388 61.3452 67.5471 61.6011C67.6553 61.8571 67.7368 62.0727 67.7314 62.0821C67.7334 62.0895 67.3674 62.0846 66.9269 62.0681C66.4884 62.0589 65.4358 61.9769 64.5839 61.9043C63.73 61.8244 62.3695 61.6586 61.5541 61.5447C60.7367 61.4233 59.2262 61.1711 58.1922 60.9811C57.1582 60.7911 56.3068 60.6314 56.29 60.628C56.2826 60.63 56.2042 60.0415 56.1143 59.3215C56.0319 58.5995 55.8384 57.2266 55.6926 56.2683C55.5468 55.31 55.2609 53.6214 55.0533 52.5214C54.8458 51.4213 54.5451 49.8554 54.0801 47.5578L53.2633 47.468C52.8129 47.4146 52.1751 47.3717 51.85 47.3718C51.525 47.3718 51.2448 47.3914 51.2286 47.4195C51.2123 47.4476 51.7824 49.6933 52.4992 52.3983C53.2107 55.1127 54.0007 57.9723 54.2494 58.7526C54.5055 59.5309 54.6984 60.1917 54.6896 60.2178C54.6807 60.2439 53.9117 60.1254 52.9837 59.9466C52.0504 59.7772 50.7915 59.5763 50.1808 59.4866C49.572 59.4043 48.4893 59.2987 47.779 59.2515C47.0687 59.2044 45.8331 59.1793 45.0291 59.1968C44.2251 59.2143 43.5011 59.2342 43.4157 59.2412C43.2673 59.2493 43.2583 59.1568 43.3117 57.4327C43.336 56.4288 43.3822 54.3821 43.4057 52.8719C43.4365 51.3597 43.4667 49.0165 43.478 47.6678C43.4818 46.3211 43.4839 43.9617 43.4738 42.4447C43.4691 40.9182 43.4323 38.118 43.3899 36.2138C43.3548 34.3077 43.2876 31.6898 43.2496 30.3939C43.2041 29.1 43.1264 26.857 43.0655 25.4168C43.0047 23.9767 42.9094 22.0233 42.8623 21.0781Z" fill="#FF8ED5"/>
<path d="M60.8179 16.9002C60.5358 15.6697 60.3085 14.6145 60.3095 14.5588C60.3138 14.4864 61.0772 14.2581 67.3055 12.5893L67.5743 13.7996C67.7152 14.4732 68.1453 16.2849 68.5141 17.8388L68.5157 17.8455C68.8923 19.3989 69.3907 21.4659 69.6257 22.432C69.9405 23.7249 70.0799 24.1863 70.1352 24.1556C70.1776 24.1363 70.4673 22.5547 70.7647 20.6466C71.0695 18.7364 71.5057 15.8966 71.7362 14.3308C71.9668 12.7651 72.1734 11.4353 72.2039 11.3717C72.2507 11.28 72.9697 11.0636 75.6864 10.3436C78.3641 9.62613 79.1098 9.45008 79.1276 9.51655C79.1414 9.56825 78.9256 11.0113 78.6527 12.715C78.3724 14.4207 77.9615 16.8818 77.7396 18.184C77.5251 19.4842 77.1112 21.8748 76.824 23.4953C76.5367 25.1158 76.1361 27.4078 75.535 30.7272L76.2472 31.225C76.64 31.5076 77.2323 31.9426 77.5634 32.2022C77.8946 32.4617 78.4953 32.9578 78.8986 33.3088C79.3018 33.6599 79.9791 34.2937 80.4041 34.726C80.8365 35.1563 81.5133 35.8773 81.9073 36.3417C82.3067 36.7967 82.915 37.5281 83.2453 37.9621C83.583 38.394 84.1548 39.1669 84.5143 39.6801C84.8812 40.1913 85.4852 41.1139 85.865 41.7324C86.2522 42.349 86.833 43.3332 87.1565 43.9193C87.4801 44.5055 88.0264 45.5385 88.357 46.2098C88.6875 46.8812 89.19 47.9576 89.4736 48.6019C89.7573 49.2462 90.1576 50.2076 90.3632 50.7382C90.5762 51.2669 90.9647 52.3026 91.2257 53.0401C91.4941 53.7756 92.0332 55.4913 92.4308 56.857C93.0609 59.0312 93.1347 59.336 93.0385 59.3617C92.9793 59.3776 91.5334 59.6621 89.8374 59.9899C88.1394 60.3103 85.9365 60.7581 84.9482 60.9755C83.9599 61.1928 82.9972 61.3874 82.4636 61.4671L82.2166 60.338C82.0873 59.7077 81.6874 57.9785 81.334 56.4821C80.9861 54.9764 80.4052 52.7495 80.0353 51.4871C79.6767 50.2375 79.237 48.8039 79.0561 48.3062C78.8826 47.8065 78.5623 46.9662 78.3567 46.4356C78.1436 45.9069 77.7651 45.0268 77.5166 44.4839C77.2606 43.943 76.8516 43.1264 76.6026 42.6707C76.3537 42.215 75.9793 41.5871 75.7827 41.2677C75.5787 40.9503 75.1393 40.3161 74.799 39.8453C74.4608 39.3818 74.1423 38.9922 74.0881 38.9672C74.0116 38.9481 74.1704 39.5704 74.71 41.4364C75.1097 42.8095 75.9233 45.639 76.5203 47.7192C77.1248 49.7973 78.0165 52.8592 78.4988 54.511C78.9884 56.1608 79.6744 58.4545 80.022 59.6041C80.3623 60.7557 80.6472 61.7005 80.6418 61.7098C80.6383 61.7266 79.9463 61.7774 79.1133 61.8344C78.2783 61.884 76.8716 61.9601 75.9843 61.9921C75.099 62.0314 73.3278 62.0786 72.0483 62.0969C70.7688 62.1152 69.5693 62.1358 69.3873 62.1371C69.0884 62.1459 69.0435 62.1263 68.994 61.9417C68.9643 61.8309 68.6897 60.1551 68.3903 58.209C68.0834 56.2648 67.5267 52.7966 67.151 50.5067C66.7807 48.2075 66.2107 44.8378 65.8946 43.0069C65.5858 41.1741 65.0601 38.2358 64.745 36.468C64.4225 34.7022 63.9375 32.0933 63.6577 30.6644C63.3853 29.2334 62.9376 26.9708 62.6721 25.625C62.3992 24.2812 61.9873 22.2702 61.7536 21.1614C61.5179 20.0451 61.0926 18.1326 60.8179 16.9002Z" fill="#FF8ED5"/>
<path d="M84.5904 17.7731C83.8136 14.6963 82.9768 11.3664 82.7339 10.3708L82.2993 8.57169L96.7828 4.69086L99.6522 15.3996L99.4254 15.4999C99.2962 15.5504 98.1122 15.9547 96.7897 16.4041C95.4652 16.846 93.5179 17.4786 92.4518 17.8197C91.3837 18.1534 90.5025 18.4449 90.4843 18.4656C90.468 18.4937 90.8673 20.0728 92.2764 25.4498L92.7424 25.325C92.9939 25.2576 93.8677 24.968 94.6877 24.685C95.5058 24.3945 96.9866 23.8553 97.9742 23.4877C98.9673 23.1108 99.7962 22.8016 99.8332 22.7917C99.8628 22.7838 100.372 24.5947 102.052 30.8648L99.94 31.771C98.7724 32.2659 97.3667 32.8484 96.811 33.0527C96.2572 33.2644 95.5151 33.5424 94.4993 33.8938L94.9784 35.9185C95.2436 37.0268 95.6311 38.5615 96.2149 40.7402L96.527 40.6328C96.6932 40.5724 97.2839 40.3508 97.8376 40.1391C98.3914 39.9274 99.4318 39.4903 100.155 39.17C100.877 38.8497 102.308 38.1815 103.349 37.6887C104.381 37.1906 105.26 36.7729 105.297 36.763C105.349 36.7492 106.099 39.461 109.655 52.7325L108.439 53.4304C107.768 53.824 106.639 54.4351 105.93 54.8072C105.219 55.1718 104.099 55.7253 103.441 56.0204C102.785 56.3229 101.659 56.7985 100.949 57.076C100.24 57.3608 98.9217 57.8249 98.0163 58.115C97.111 58.4051 95.8224 58.7741 95.1414 58.9249C94.4623 59.0832 93.907 59.2003 93.8976 59.1949C93.8937 59.1801 93.7763 58.5941 93.644 57.8934C93.5098 57.1853 93.1191 55.2241 92.7774 53.5346C92.4357 51.8452 91.8865 49.1744 91.5543 47.609C91.2221 46.0437 90.7032 43.6339 90.3983 42.2592C90.0933 40.8844 89.5458 38.4269 89.1756 36.8084C88.8054 35.1899 88.2317 32.7236 87.906 31.3306C87.5804 29.9377 87.0196 27.5787 86.6589 26.0843C86.2981 24.59 85.3673 20.8499 84.5904 17.7731Z" fill="#FF8ED5"/>
<path d="M37.5014 68.5354C37.5411 68.2398 37.628 67.7654 37.7033 67.484L37.8247 66.9607L38.7325 66.7095C39.2336 66.5673 40.3954 66.2877 41.3245 66.0862C42.2516 65.8774 43.1995 65.6867 43.848 65.5921L43.7198 66.2676C43.6442 66.6362 43.5614 67.3629 43.5307 67.8698C43.5001 68.3766 43.4953 69.217 43.5298 69.7302C43.5642 70.2434 43.6487 71.0914 43.7261 71.6169C43.7961 72.1443 43.968 73.1114 44.1052 73.7712C44.2349 74.4331 44.4681 75.5104 44.6201 76.1663C44.7646 76.8241 45.3251 79.5077 45.8604 82.1268C46.3883 84.7479 47.1355 88.3946 47.5168 90.2318C47.8981 92.069 48.5724 95.2366 49.0071 97.2731L49.0447 97.4461C49.4923 99.506 50.2435 102.963 50.7522 105.236C51.268 107.575 52.0254 110.934 52.4278 112.702C52.8376 114.468 53.2188 116.187 53.4203 117.146L49.9127 118.11C47.984 118.634 46.048 119.161 44.8126 119.492L44.1698 117.448C43.8207 116.322 43.2041 114.406 42.805 113.183C42.406 111.96 41.7395 109.946 41.3217 108.712C40.9149 107.487 40.2064 105.456 39.7611 104.18L39.7495 104.147C39.2977 102.875 38.6071 100.978 38.222 99.9255C37.8296 98.875 37.2354 97.3086 36.8924 96.4427C36.5494 95.5768 36.2534 94.8567 36.2252 94.8405C36.1971 94.8243 36.1641 94.8489 36.135 94.8884C36.1153 94.9333 37.134 98.8239 38.3986 103.543C39.8471 108.949 40.9705 112.994 41.42 114.464C41.8201 115.75 42.3636 117.512 43.1173 119.97L38.8349 121.149C36.4792 121.796 34.5451 122.33 34.5357 122.325C34.5283 122.327 33.9535 120.803 33.2506 118.949C32.5551 117.093 31.0016 112.982 29.8054 109.819C28.6092 106.657 26.5184 101.162 25.1542 97.6091C23.7435 93.9422 22.3463 90.4142 21.9218 89.4514C21.2562 87.9438 21.1242 87.5992 20.7997 86.388C20.4534 85.0955 20.4311 84.9828 20.4725 84.3384C20.4905 83.9616 20.5872 83.4053 20.6935 83.0919C20.8298 82.6833 21.077 82.2451 21.6214 81.4659C22.0299 80.8895 22.7812 79.8174 23.2877 79.1039C23.7922 78.383 24.2154 77.8025 24.2248 77.8079C24.2436 77.8187 24.2062 78.0345 24.1399 78.2898C24.0809 78.5431 24.0324 78.9835 24.0371 79.2672C24.0359 79.6475 24.1097 80.071 24.3294 80.8907C24.5154 81.585 24.7557 82.3042 24.9795 82.8142C25.1782 83.2596 25.6475 84.242 26.022 84.9887C26.3965 85.7353 27.1653 87.4211 27.7366 88.7245C28.3004 90.0299 29.304 92.3256 29.9677 93.8259C30.6313 95.3262 31.2173 96.6256 31.2598 96.7251C31.3097 96.8225 31.3571 96.881 31.3734 96.8529C31.3822 96.8268 31.2232 95.9671 31.0093 94.932C30.8047 93.9024 30.2541 91.2557 29.802 89.0655C29.3406 86.8699 28.6842 83.8875 28.3466 82.4502C27.9997 81.0075 27.659 79.3811 27.5757 78.8335C27.5018 78.2913 27.4183 77.5063 27.3968 77.1005C27.3752 76.6947 27.3757 76.0455 27.3991 75.6592C27.4279 75.2637 27.4999 74.6744 27.5707 74.3468C27.6394 74.0117 27.7584 73.5682 27.8239 73.3686C27.939 73.0291 28.0815 72.8801 29.2516 71.8621C29.9732 71.2413 31.0143 70.3924 31.5609 69.9768C32.115 69.5592 32.6016 69.2151 32.6459 69.2032C32.6829 69.1933 32.6845 69.2879 32.6348 69.4278C32.5905 69.5584 32.5197 69.8861 32.4815 70.1576C32.4432 70.429 32.4353 70.9615 32.4676 71.3486C32.5085 71.9155 32.5947 72.2961 32.9033 73.3295C33.1234 74.0621 33.456 74.9782 33.6794 75.4567C33.8913 75.9223 34.3395 76.855 34.6774 77.5243C35.0153 78.1937 35.4822 79.1372 35.7223 79.619C35.955 80.1029 37.1914 83.0011 38.4733 86.0692C39.7533 89.13 40.8114 91.6881 40.8272 91.7472C40.843 91.8063 40.8865 91.8501 40.9308 91.8382C40.9678 91.8283 40.9543 91.5707 40.8993 91.2767C40.8424 90.9754 40.3078 88.0632 39.7192 84.8014C39.1232 81.5415 38.4515 77.9695 38.2233 76.8513C37.995 75.733 37.731 74.3631 37.6437 73.8007C37.5638 73.2364 37.4711 72.5647 37.4428 72.3111C37.4218 72.0554 37.3869 71.5107 37.3727 71.1029C37.3512 70.6971 37.3576 70.07 37.3815 69.7153C37.4054 69.3606 37.4617 68.831 37.5014 68.5354Z" fill="#FF3400"/>
<path d="M49.5322 66.8632C49.5582 66.6347 49.6234 66.1976 49.6759 65.8907C49.7359 65.5818 49.7949 65.3285 49.8097 65.3245C49.8318 65.3186 50.26 65.378 50.7721 65.4545C51.2821 65.5236 51.9284 65.6275 52.2002 65.6655C52.474 65.7109 53.4073 65.8803 54.283 66.0415C55.1492 66.1972 55.8739 66.3276 55.8833 66.333C55.9 66.3364 55.9586 66.7323 56.0112 67.2248C56.0828 67.8468 56.2298 68.5436 56.5187 69.6218C56.778 70.5893 57.0677 71.4932 57.3272 72.1361C57.5535 72.6849 58.1712 74.1025 58.7034 75.2897C59.2336 76.4696 60.2832 78.848 61.0284 80.5639C61.7735 82.2798 63.0084 85.0835 63.7758 86.7934C64.5358 88.5054 65.7211 91.1244 66.407 92.6188C67.0834 94.1077 68.0983 96.2975 68.6527 97.4788C69.1976 98.6546 69.7866 99.9058 69.9521 100.257C70.1156 100.601 70.3217 101.045 70.4141 101.242C70.4971 101.433 71.1473 102.795 71.8494 104.261C72.5588 105.725 73.3187 107.318 73.5588 107.8C73.7896 108.276 74.2703 109.272 74.626 110.008C74.9798 110.736 75.295 111.38 75.3128 111.446C75.3459 111.54 74.8449 111.682 71.059 112.673C68.6954 113.291 66.7534 113.795 66.7515 113.788C66.7495 113.78 66.647 113.309 66.5242 112.732C66.4014 112.156 65.8442 109.899 65.292 107.72C64.7378 105.533 63.97 102.668 62.8632 98.9509L62.3527 98.969C62.0705 98.9812 61.5552 99.0402 60.5698 99.2092L60.8986 100.229C61.0732 100.792 61.5647 102.33 61.984 103.659C62.4014 104.98 63.0135 106.85 63.3339 107.809C63.6543 108.768 64.2001 110.331 64.5427 111.285C64.8853 112.238 65.2531 113.255 65.3618 113.543C65.4918 113.88 65.5398 114.089 65.5014 114.123C65.4609 114.149 63.5323 114.674 56.9928 116.395L56.9581 116.206C56.9378 116.101 56.5307 113.487 56.0582 110.392C55.5783 107.299 54.7022 101.692 54.1073 97.9329C53.5124 94.1741 52.5522 88.1939 51.9757 84.6518C51.3898 81.1043 50.7006 77.1412 50.447 75.8398C50.184 74.5329 49.8927 72.9725 49.7956 72.3732C49.6964 71.7665 49.5778 70.7613 49.525 70.1501C49.4702 69.5316 49.435 68.6307 49.4568 68.1499C49.4692 67.6638 49.5043 67.0845 49.5322 66.8632Z" fill="#FF3400"/>
<path d="M60.9645 68.5493C60.8959 67.9978 60.8433 67.5053 60.8442 67.4496C60.8452 67.394 60.8722 67.3471 60.887 67.3432C60.9092 67.3372 61.2555 67.3869 61.6541 67.4542C62.0547 67.529 63.246 67.6847 64.3085 67.8037C65.3637 67.9247 66.4001 68.0348 66.9989 68.0802L67.1218 68.7755C67.1931 69.1601 67.4539 70.2221 67.6993 71.1379C67.9427 72.0463 68.2958 73.1865 68.4782 73.6601C68.6606 74.1336 69.0436 75.06 69.3257 75.7285C69.6133 76.3876 69.9163 77.0742 70.0027 77.2489C70.0946 77.4143 70.3332 77.9203 70.5486 78.3691C70.7621 78.8106 71.4433 80.14 72.0628 81.3275C72.6803 82.5077 73.4875 84.0408 73.8461 84.7283C74.2048 85.4159 74.7304 86.4307 75.0071 86.9898C75.2892 87.5396 75.5347 88.012 75.5554 88.0302C75.5742 88.041 75.5642 87.8854 75.5329 87.6801C75.4997 87.4673 75.3872 86.8405 75.2852 86.2821C75.1738 85.7182 74.8558 84.1174 74.5671 82.7146C74.2784 81.3117 73.9377 79.5666 73.8069 78.8417C73.6741 78.1095 73.5105 77.0847 73.4351 76.5667C73.3578 76.0412 73.2416 75.075 73.1769 74.4195C73.1103 73.7566 73.0459 72.7765 73.0297 72.2426C73.0189 71.6993 73.0158 70.9482 73.0283 70.5807C73.0389 70.2058 73.0852 69.5206 73.1371 69.0634C73.1816 68.6082 73.2459 68.2269 73.2755 68.2189C73.3051 68.211 74.3725 68.1704 75.6534 68.128C76.9269 68.0875 78.2542 68.0406 78.5975 68.0198C78.9407 67.9991 79.2712 67.9897 79.3309 68.0054C79.4148 68.0225 79.4361 68.1909 79.4095 68.8313C79.3852 69.2731 79.3844 70.1282 79.4036 70.7326C79.4155 71.3389 79.4526 72.1284 79.4864 72.4914C79.5109 72.849 79.6023 73.6635 79.6926 74.2963C79.7735 74.9237 79.9361 76.0042 80.057 76.6921C80.1685 77.3746 80.3899 78.5264 80.5375 79.2546C80.6831 79.9755 81.0826 81.792 81.4138 83.2942C81.7504 84.7872 82.1707 86.7405 82.347 87.6352C82.5214 88.5225 82.9087 90.5006 83.2088 92.0349C83.507 93.5619 84.0527 96.2494 84.4122 98.0054C84.7697 99.7539 85.401 102.791 85.8233 104.751C86.2363 106.707 86.5843 108.331 86.5922 108.361C86.6001 108.39 84.67 108.939 77.9905 110.729L76.7515 107.673C76.0719 105.995 74.6862 102.598 73.676 100.13C72.6638 97.6546 71.2321 94.1755 70.4933 92.3945C69.7525 90.6062 68.8501 88.4813 68.482 87.6696C68.1119 86.8506 67.2478 85.0161 66.5576 83.5942C65.8654 82.1649 65.0516 80.4595 64.7419 79.8063C64.4375 79.1438 63.9572 78.0614 63.6696 77.4023C63.3874 76.7339 62.9481 75.6564 62.696 75.0115C62.3737 74.1638 62.0701 73.2082 61.6624 71.6868C61.2132 70.0104 61.0608 69.323 60.9645 68.5493Z" fill="#FF3400"/>
<path d="M106.046 61.425C106.525 61.2016 107.06 60.9791 107.219 60.9207C107.377 60.8624 108.074 60.6519 108.775 60.4562C109.476 60.2606 110.066 60.1261 110.089 60.1517C110.119 60.1753 110.257 61.6976 110.408 63.5332C110.557 65.3613 110.715 67.2821 110.757 67.7933C110.806 68.3025 110.859 68.9453 110.879 69.225C110.914 69.6825 110.902 69.7254 110.73 69.7636C110.634 69.7894 110.117 69.8725 109.6 69.9555C108.848 70.0779 108.36 70.2087 107.268 70.5725C106.505 70.8323 105.515 71.1925 105.065 71.3764C104.608 71.5624 104.04 71.8411 103.803 71.9917C103.544 72.1482 103.251 72.4166 103.113 72.6119C102.957 72.8279 102.86 73.0596 102.856 73.2507C102.852 73.4733 102.898 73.6432 103.03 73.9006C103.128 74.0881 103.397 74.4118 103.618 74.6139C103.838 74.816 104.265 75.1054 104.561 75.2636C104.864 75.4197 105.423 75.642 105.806 75.7689C106.189 75.8959 107.088 76.1457 107.821 76.3371C108.545 76.5231 109.491 76.7999 109.927 76.9445C110.416 77.1142 111.21 77.503 112.026 77.9731C113.027 78.5439 113.532 78.8913 114.098 79.4047C114.512 79.7685 115.1 80.3631 115.408 80.7157C115.717 81.0684 116.116 81.5791 116.302 81.8615C116.487 82.1366 116.785 82.6267 116.966 82.95C117.139 83.2679 117.423 83.8566 117.591 84.2469C117.765 84.6594 118.055 85.5633 118.289 86.4348C118.514 87.2452 118.756 88.2964 118.838 88.781C118.926 89.2562 119.037 90.0259 119.091 90.4942C119.151 90.9532 119.213 91.8072 119.243 92.3928C119.264 92.973 119.259 93.8133 119.235 94.2552C119.21 94.6971 119.122 95.4331 119.046 95.8889C118.963 96.3466 118.802 96.9911 118.687 97.3307C118.577 97.6609 118.323 98.2198 118.139 98.5699C117.948 98.9219 117.669 99.3607 117.527 99.5412C117.378 99.7237 117.055 100.056 116.811 100.271C116.56 100.489 116.094 100.82 115.777 101C115.33 101.254 114.978 101.388 114.305 101.568C113.646 101.745 113.244 101.813 112.747 101.82C112.375 101.824 111.733 101.766 111.323 101.686C110.904 101.601 110.266 101.408 109.899 101.253C109.523 101.092 108.965 100.783 108.645 100.568C108.333 100.35 107.831 99.9546 107.529 99.6871C107.228 99.4197 106.771 98.9564 106.519 98.6677C106.26 98.3809 105.82 97.8339 105.546 97.4639C105.265 97.0959 104.827 96.4375 104.569 96.008C104.302 95.5729 103.854 94.759 103.568 94.1944C103.29 93.6279 103.038 93.1018 103.016 93.0205C102.99 92.9245 103.592 91.6789 104.569 89.7942C105.439 88.0969 106.196 86.7225 106.246 86.7327C106.287 86.7376 106.34 86.7868 106.354 86.8385C106.368 86.8902 106.552 87.1337 106.762 87.386C106.978 87.629 107.376 87.9894 107.634 88.1816C107.899 88.3718 108.412 88.6301 108.774 88.7704C109.187 88.921 109.625 89.0173 109.952 89.0247C110.233 89.0365 110.606 89.0079 110.769 88.9642C110.93 88.9133 111.18 88.7828 111.323 88.6654C111.466 88.5479 111.642 88.3186 111.716 88.1485C111.782 87.9805 111.858 87.6749 111.877 87.4799C111.896 87.2533 111.845 86.8869 111.748 86.525C111.645 86.1409 111.499 85.8003 111.341 85.5656C111.198 85.3585 110.912 85.0314 110.691 84.8293C110.471 84.6272 109.973 84.2778 109.574 84.0602C109.18 83.8333 108.147 83.3817 107.274 83.0536C106.407 82.7161 105.388 82.2848 105.018 82.0908C104.649 81.8968 104.038 81.5382 103.657 81.2999C103.276 81.0616 102.665 80.6158 102.307 80.3159C101.942 80.018 101.434 79.5445 101.174 79.2819C100.919 79.0099 100.489 78.4998 100.217 78.1372C99.9454 77.7746 99.5469 77.1453 99.3379 76.7501C99.1196 76.3495 98.8212 75.7091 98.6699 75.3222C98.5187 74.9353 98.3387 74.3819 98.2595 74.0865C98.1804 73.7911 98.0729 73.2421 98.0203 72.8683C97.9658 72.4871 97.9164 71.8592 97.9082 71.4735C97.9054 71.0785 97.9562 70.4395 98.0205 70.0582C98.0903 69.6675 98.2545 69.0377 98.3893 68.6533C98.5242 68.2689 98.8329 67.6162 99.0713 67.2041C99.3097 66.7919 99.7507 66.1592 100.044 65.8036C100.339 65.4554 100.885 64.8896 101.257 64.5604C101.619 64.2259 102.239 63.7274 102.622 63.4426C102.998 63.1598 103.728 62.6872 104.239 62.3761C104.745 62.0743 105.557 61.643 106.046 61.425Z" fill="#FF3400"/>
<path d="M81.6176 69.8227C81.5343 69.2751 81.4509 68.6088 81.4334 68.3365L81.3955 67.84L81.6312 67.8323C81.7629 67.8207 82.3858 67.7488 83.0196 67.6582C83.6479 67.5769 84.7817 67.3997 85.5299 67.2626C86.28 67.1328 88.3128 66.7306 90.0473 66.3688C91.7837 66.0143 93.4037 65.6989 94.1006 65.6072L94.1255 65.8776C94.1409 66.0239 94.2856 66.8004 94.4549 67.6099C94.647 68.5637 95.0057 69.932 96.2012 74.0681L95.6084 74.1636C95.2824 74.2193 94.1471 74.4206 93.0898 74.6169C92.025 74.8151 90.4627 75.1387 89.6041 75.3371C88.0665 75.6937 88.0443 75.6997 88.1282 75.8355C88.1722 75.9108 88.5451 77.1248 89.6936 81.1153L91.4512 80.6918C92.4207 80.4637 93.9145 80.1505 94.7682 79.993C95.6144 79.8375 96.3202 79.7196 96.3276 79.7176C96.337 79.723 96.7578 81.1459 97.2638 82.8863C97.7678 84.6193 98.1779 86.0609 98.1616 86.089C98.1508 86.1077 97.4421 86.2739 96.585 86.4481C95.7353 86.6204 94.2677 86.9424 91.62 87.5648L92.0007 88.8084C92.2144 89.4873 92.5719 90.6738 93.2297 92.8327L95.2112 92.3572C96.3084 92.1027 98.0552 91.698 99.108 91.4555C100.155 91.2223 101.023 91.0293 101.035 91.0421C101.052 91.0455 101.772 93.4964 102.636 96.4864C103.493 99.4783 104.313 102.33 104.696 103.731L91.8996 107.16L91.233 104.465C90.8688 102.988 89.672 98.4324 88.5722 94.3577C87.3611 89.8379 86.3644 86.2659 86.0296 85.2237C85.7206 84.2775 85.1184 82.4441 84.6921 81.1493C84.2566 79.8492 83.5969 77.8016 83.2334 76.593C82.7626 75.0727 82.4341 73.8467 82.1574 72.6069C81.9406 71.6201 81.6989 70.363 81.6176 69.8227Z" fill="#FF3400"/>
<path d="M48.8217 32.4243C48.8629 32.2233 48.952 31.9936 49.0176 31.9127C49.0851 31.8392 49.1546 31.7731 49.1768 31.7671C49.199 31.7612 49.3016 31.7891 49.4062 31.8244C49.5182 31.8577 49.722 32.0564 49.8628 32.2561C50.0035 32.4559 50.2723 32.9855 50.4595 33.4181C50.6898 33.9818 51.0503 35.12 52.466 40.1074L52.0507 40.1554C51.8189 40.1779 51.2231 40.203 50.7254 40.2097C50.2258 40.209 49.7892 40.2073 49.7463 40.195C49.7128 40.1882 49.6534 39.9666 49.6063 39.7022C49.5612 39.4451 49.4051 38.5371 49.2629 37.6807C49.1207 36.8244 48.951 35.6588 48.886 35.0904C48.8209 34.5221 48.7621 33.7701 48.7638 33.4213C48.7581 33.0746 48.7878 32.6233 48.8217 32.4243Z" fill="#F3F1E7"/>
<path d="M56.1858 82.306C56.156 81.9578 56.1532 81.5628 56.1787 81.4214C56.2097 81.2706 56.2895 81.1542 56.3782 81.1305C56.467 81.1067 56.5943 81.1675 56.6965 81.2826C56.7893 81.3923 56.9987 81.7003 57.1573 81.9666C57.3104 82.2422 57.587 82.8013 57.761 83.2138C57.9423 83.6243 58.274 84.4774 58.5073 85.1114C58.748 85.7435 59.1964 87.0323 59.5183 87.9672C59.8327 88.904 60.1537 89.8946 60.2269 90.1678C60.3021 90.4485 60.3392 90.676 60.3097 90.6839C60.2735 90.6936 59.9703 90.722 59.6177 90.7551L59.592 90.7575C59.2266 90.7841 58.757 90.8071 58.1365 90.7992L57.4923 88.3359C57.1376 86.9824 56.711 85.2128 56.5436 84.4107C56.3763 83.6086 56.2177 82.6616 56.1858 82.306Z" fill="#F3F1E7"/>
</svg>
