<svg width="16" height="17" viewBox="0 0 16 17" fill="none" xmlns="http://www.w3.org/2000/svg">
<path d="M6.95787 0.0601037C7.02239 0.0404868 7.11834 0.0192351 7.17293 0.0094266C7.22752 0.00125288 7.38467 -0.00201661 7.52032 0.00125288C7.65763 0.00452237 7.83133 0.0192351 7.90908 0.0339478C7.98683 0.0486605 8.12082 0.0829901 8.20684 0.110781C8.29287 0.138571 8.40866 0.181075 8.46326 0.205596C8.51785 0.230117 8.61876 0.282429 8.68658 0.321663C8.75441 0.362532 8.87351 0.442634 8.95126 0.49985C9.02901 0.557066 9.17459 0.686211 9.27385 0.785931C9.3731 0.88565 9.50544 1.03278 9.56831 1.11288C9.62951 1.19462 9.70892 1.31886 9.74531 1.39079C9.78005 1.46271 9.82968 1.58859 9.85284 1.66869C9.876 1.7488 9.90412 1.90083 9.91405 2.00382C9.92728 2.14604 9.92728 2.24249 9.91239 2.40433C9.90081 2.5204 9.86773 2.76397 9.8363 2.94379C9.80652 3.12362 9.75028 3.4097 9.71223 3.58134C9.67418 3.75299 9.60305 4.07504 9.55507 4.30063C9.50544 4.52459 9.43927 4.84827 9.40784 5.01992C9.37641 5.19157 9.33009 5.45476 9.30693 5.60843C9.28212 5.76209 9.25896 5.96317 9.25399 6.05798C9.24572 6.21492 9.24903 6.2329 9.28046 6.27377C9.30693 6.30973 9.32844 6.31954 9.37807 6.31954C9.41611 6.31954 9.47401 6.29829 9.53026 6.26723C9.57989 6.23944 9.6841 6.1528 9.76186 6.07597C9.85449 5.98442 9.96037 5.85037 10.0695 5.69017C10.1622 5.55612 10.2929 5.35668 10.3607 5.24878C10.4285 5.14089 10.5294 4.97578 10.584 4.88097C10.6386 4.78615 10.8007 4.49026 10.943 4.22216C11.0853 3.9557 11.2474 3.66145 11.302 3.56827C11.3582 3.47672 11.4426 3.35085 11.4906 3.28709C11.5385 3.22334 11.651 3.10236 11.7404 3.01736C11.8313 2.93072 11.9488 2.83263 12.0034 2.79667C12.058 2.76234 12.1506 2.71166 12.2102 2.6855C12.2697 2.65935 12.3739 2.62338 12.4418 2.6054C12.5361 2.57925 12.6188 2.57107 12.7892 2.57107C12.9496 2.57107 13.0439 2.57761 13.1283 2.59886C13.1912 2.61521 13.3053 2.65608 13.3814 2.69204C13.4823 2.73945 13.5501 2.78686 13.6461 2.87677C13.7255 2.95197 13.8082 3.05332 13.8644 3.14323C13.9141 3.2217 13.9835 3.35738 14.0199 3.44239C14.0547 3.5274 14.1043 3.67943 14.1291 3.77751C14.1556 3.8756 14.1854 4.01946 14.1986 4.09629C14.2118 4.18293 14.2201 4.37747 14.2201 4.61941C14.2201 4.92837 14.2135 5.03136 14.1903 5.14253C14.1738 5.21936 14.1374 5.34687 14.1109 5.42861C14.0828 5.51034 14.0332 5.63458 13.9984 5.70651C13.962 5.77844 13.8876 5.90759 13.8297 5.99259C13.7619 6.09558 13.6527 6.22146 13.5104 6.36205C13.3913 6.47975 13.2077 6.63995 13.1035 6.71679C12.9993 6.79362 12.8471 6.89824 12.7644 6.94892C12.6816 6.9996 12.3888 7.15326 12.1109 7.29222C11.833 7.42953 11.5137 7.58157 11.3996 7.63224C11.2854 7.68129 11.115 7.74994 11.0191 7.78427C10.9232 7.8186 10.7147 7.91178 10.5559 7.98862C10.3971 8.06709 10.2201 8.1619 10.1638 8.19787C10.1059 8.23546 9.9918 8.32864 9.90909 8.40711C9.82637 8.48721 9.71223 8.61309 9.65433 8.68992C9.59643 8.76676 9.51537 8.88773 9.47401 8.95966C9.42273 9.04793 9.39295 9.12313 9.38137 9.19179C9.36979 9.26372 9.36979 9.32911 9.38303 9.40431C9.3913 9.46643 9.41942 9.56288 9.44258 9.62173C9.46574 9.68058 9.50214 9.75251 9.52364 9.7803C9.54515 9.80972 9.59477 9.85059 9.63448 9.87021C9.68245 9.89473 9.74366 9.90781 9.8363 9.91271C9.94879 9.91925 9.98849 9.91271 10.101 9.87511C10.1738 9.85223 10.3227 9.79011 10.4318 9.73616C10.541 9.68385 10.6965 9.59721 10.7792 9.54326C10.8619 9.49095 10.9579 9.42229 10.9943 9.3945C11.0307 9.36507 11.2209 9.18525 11.4161 8.99562C11.6113 8.80435 11.876 8.56078 12.0034 8.45289C12.1308 8.34499 12.3359 8.17825 12.4583 8.0818C12.5807 7.98698 12.7644 7.85457 12.8636 7.78754C12.9629 7.72215 13.1233 7.62897 13.2193 7.5832C13.3152 7.53579 13.4591 7.47858 13.5419 7.45569C13.6246 7.4328 13.7602 7.40665 13.8446 7.39847C13.9455 7.38703 14.0481 7.38703 14.1506 7.39847C14.2333 7.40828 14.3475 7.4279 14.4021 7.44098C14.4567 7.45569 14.5493 7.48675 14.6089 7.51127C14.6684 7.53579 14.7577 7.58157 14.8074 7.61426C14.857 7.64532 14.9364 7.70254 14.9811 7.74177C15.0274 7.77937 15.1002 7.85293 15.1432 7.90361C15.1879 7.95429 15.2524 8.04256 15.2871 8.10141C15.3235 8.16027 15.3748 8.27797 15.4046 8.36297C15.4327 8.44798 15.4674 8.60328 15.4807 8.70627C15.4989 8.83705 15.5038 8.96129 15.4972 9.11496C15.4906 9.23593 15.474 9.40594 15.4592 9.49095C15.4459 9.57596 15.4145 9.70183 15.3913 9.76886C15.3698 9.83588 15.3252 9.93887 15.2937 9.99772C15.2623 10.0566 15.1862 10.171 15.125 10.2527C15.0638 10.3361 14.948 10.4783 14.8653 10.5715C14.7826 10.6647 14.6419 10.8053 14.551 10.8854C14.46 10.9639 14.3078 11.0816 14.2118 11.1469C14.1159 11.2107 13.9604 11.3022 13.8644 11.3497C13.7685 11.3954 13.6014 11.4641 13.4922 11.5C13.383 11.536 13.0373 11.6243 12.723 11.6962L12.6768 11.7068C12.3646 11.7782 11.9316 11.8773 11.6891 11.9349C11.4343 11.9937 11.1547 12.0608 11.0687 12.0837C10.9827 12.1065 10.852 12.1441 10.7792 12.167C10.7064 12.1899 10.5906 12.234 10.5228 12.2651C10.455 12.2962 10.3276 12.3681 10.2416 12.4237C10.1473 12.4858 10.0282 12.5855 9.94382 12.6722C9.86607 12.7523 9.76351 12.8732 9.71719 12.9403C9.67252 13.0073 9.59974 13.1315 9.55673 13.2149C9.51537 13.2966 9.45085 13.4372 9.41611 13.5239C9.38137 13.6121 9.33175 13.7544 9.30859 13.8394C9.28543 13.9244 9.25565 14.0682 9.24241 14.1581C9.22918 14.2481 9.21429 14.4508 9.20768 14.6077C9.20271 14.7646 9.18617 15 9.17294 15.1308C9.1597 15.2616 9.12662 15.4757 9.10015 15.6098C9.07203 15.7422 9.02074 15.94 8.9827 16.0495C8.9463 16.1607 8.88509 16.3095 8.84705 16.3814C8.809 16.4533 8.7329 16.558 8.67831 16.6168C8.62372 16.674 8.55259 16.7378 8.52115 16.7574C8.48972 16.7786 8.41859 16.8081 8.364 16.8228C8.2879 16.8457 8.23331 16.8489 8.1324 16.8424C8.05961 16.8359 7.95539 16.8195 7.9008 16.8064C7.84621 16.7917 7.74199 16.7509 7.66921 16.7149C7.59642 16.6806 7.49551 16.6168 7.44423 16.5743C7.3946 16.5302 7.31354 16.4517 7.26722 16.3977C7.2209 16.3438 7.14646 16.2408 7.10345 16.1689C7.06044 16.097 6.99923 15.9727 6.9678 15.891C6.93802 15.8109 6.89832 15.6785 6.88177 15.5967C6.86523 15.515 6.84373 15.3204 6.8338 15.1635L6.83137 15.1175C6.8221 14.9421 6.80452 14.6094 6.79244 14.338C6.77921 14.0404 6.75936 13.7511 6.75109 13.6922C6.74116 13.6334 6.718 13.5157 6.69815 13.4307C6.67995 13.3457 6.63529 13.1904 6.5989 13.0874C6.5625 12.9844 6.49302 12.8144 6.44174 12.7114C6.39211 12.6084 6.32429 12.4907 6.2912 12.4515C6.25812 12.4122 6.19691 12.3567 6.15555 12.3289C6.11419 12.3027 6.00998 12.252 5.92395 12.2177C5.83793 12.1834 5.69566 12.1327 5.60964 12.1049C5.52362 12.0771 5.36316 12.033 5.25398 12.0085C5.14479 11.9823 4.97771 11.9496 4.88177 11.9365C4.78582 11.9218 4.48474 11.8957 4.21179 11.8777C3.93883 11.8597 3.45082 11.8335 3.12824 11.8205C2.73122 11.8057 2.50127 11.7894 2.41691 11.7714C2.34908 11.7567 2.21839 11.7207 2.12741 11.6913C2.03642 11.6603 1.89912 11.6047 1.82137 11.5671C1.74362 11.5295 1.60962 11.451 1.5236 11.3938C1.43758 11.3366 1.30358 11.2369 1.22583 11.1698C1.14808 11.1044 1.03394 10.9884 0.97273 10.9115C0.909868 10.8363 0.8255 10.7186 0.785798 10.6516C0.746096 10.5846 0.68985 10.4702 0.661728 10.3982C0.633605 10.3263 0.592249 10.2021 0.572397 10.1203C0.550892 10.0386 0.524424 9.89964 0.514498 9.80972C0.501264 9.70673 0.496301 9.5547 0.502918 9.40104C0.507881 9.26699 0.524424 9.09371 0.539312 9.01687C0.554201 8.94004 0.58894 8.79618 0.617063 8.6981C0.645185 8.60001 0.703085 8.42673 0.74775 8.31393C0.799032 8.18315 0.865203 8.05401 0.931374 7.95429C0.992581 7.86111 1.0968 7.73687 1.19275 7.64369C1.28042 7.55868 1.39126 7.46386 1.44089 7.43607C1.49052 7.40665 1.58316 7.36414 1.64767 7.34126C1.71219 7.32001 1.82302 7.29385 1.89581 7.28404C1.9686 7.27423 2.07282 7.27096 2.12741 7.27587C2.182 7.28077 2.26802 7.29385 2.31765 7.30202C2.36728 7.31183 2.46819 7.33799 2.54098 7.36088C2.61376 7.38376 2.7246 7.4279 2.78912 7.4606C2.85363 7.49165 2.96447 7.55541 3.03726 7.60282C3.11004 7.64859 3.23577 7.7385 3.31848 7.80226C3.4012 7.86438 3.55008 7.99025 3.64934 8.08016C3.74859 8.17007 3.96199 8.38586 4.12246 8.56078C4.28292 8.7357 4.50625 8.9662 4.61874 9.07409C4.73123 9.18198 4.89004 9.32584 4.97275 9.3945C5.05546 9.46152 5.18119 9.56288 5.25398 9.61682C5.32676 9.67077 5.43098 9.74433 5.48557 9.77866C5.54016 9.81299 5.64438 9.86857 5.71717 9.90127C5.78996 9.9356 5.91568 9.98301 5.9984 10.0075C6.12081 10.0435 6.18202 10.0517 6.33752 10.0533C6.50791 10.0549 6.53769 10.05 6.61875 10.0141C6.66837 9.98955 6.74282 9.93887 6.78252 9.89964C6.82388 9.85877 6.87185 9.79338 6.88839 9.75251C6.91321 9.69693 6.91817 9.65933 6.9099 9.59721C6.90328 9.54653 6.87019 9.46316 6.82388 9.37652C6.78252 9.29968 6.70146 9.16727 6.64356 9.08226C6.58566 8.99726 6.48144 8.86484 6.40865 8.78964C6.33752 8.71444 6.19691 8.59184 6.09765 8.51828C5.9984 8.44471 5.82304 8.32211 5.7089 8.24527C5.59475 8.16844 5.39624 8.04256 5.26721 7.9641C5.13652 7.88726 4.92478 7.76956 4.79574 7.70254C4.66506 7.63551 4.46985 7.5407 4.36067 7.49002C4.25149 7.44098 4.07614 7.35434 3.97192 7.29876C3.8677 7.24481 3.67746 7.13038 3.55008 7.04864C3.4227 6.96527 3.24073 6.83612 3.14478 6.75929C3.04884 6.68409 2.88176 6.53369 2.77257 6.4258C2.66339 6.31791 2.5112 6.1528 2.4351 6.05798C2.35901 5.96317 2.24652 5.81277 2.18531 5.72286C2.1241 5.63295 2.04139 5.50054 2.00003 5.42861C1.95867 5.35668 1.88919 5.22099 1.84784 5.12618C1.80483 5.03136 1.74527 4.8777 1.71384 4.78288C1.68407 4.68807 1.64602 4.56056 1.63113 4.4968C1.61624 4.43305 1.59474 4.30881 1.5815 4.21889C1.56827 4.12898 1.55669 3.9933 1.55669 3.91647C1.55669 3.83963 1.56827 3.70395 1.5815 3.61404C1.59474 3.52413 1.6212 3.39989 1.64105 3.33613C1.65925 3.27238 1.70061 3.17429 1.73204 3.11544C1.76347 3.05659 1.82137 2.96668 1.86273 2.916C1.90408 2.86369 1.9868 2.78032 2.048 2.73128C2.11087 2.6806 2.22005 2.61194 2.29284 2.57598C2.36562 2.54165 2.48142 2.49587 2.54925 2.47789C2.61707 2.45827 2.74776 2.43866 2.83874 2.43375C2.96116 2.42721 3.04057 2.43212 3.14478 2.45337C3.22253 2.46808 3.32675 2.49751 3.37638 2.51713C3.42601 2.53674 3.50376 2.57761 3.55008 2.60867C3.59474 2.6381 3.68904 2.70839 3.75686 2.76234C3.82469 2.81628 3.95207 2.93235 4.03809 3.01736C4.12411 3.104 4.25149 3.24459 4.32097 3.32959C4.39045 3.4146 4.49632 3.55682 4.55587 3.64673C4.61377 3.73665 4.70145 3.8805 4.74612 3.96551C4.79243 4.05052 4.93139 4.33333 5.05546 4.59489C5.17953 4.85645 5.31518 5.13435 5.35985 5.21609C5.40286 5.29783 5.47896 5.42534 5.53024 5.50217C5.58318 5.579 5.67416 5.69997 5.73371 5.7719C5.79492 5.84383 5.8826 5.93538 5.92892 5.97461C5.97689 6.01385 6.07449 6.07433 6.14728 6.1103C6.22007 6.14463 6.30444 6.17242 6.33256 6.17242C6.36234 6.17242 6.407 6.16261 6.43181 6.14953C6.45828 6.13809 6.48806 6.10212 6.50129 6.0727C6.51784 6.0351 6.52114 5.99096 6.51453 5.93538C6.50791 5.89124 6.41031 5.494 6.29782 5.05262C6.18367 4.61123 6.0563 4.11918 6.01494 3.95734C5.97358 3.7955 5.91403 3.53884 5.8826 3.38518C5.85117 3.23151 5.81312 3.01082 5.79823 2.89475C5.77672 2.73945 5.76845 2.56944 5.76845 2.26537C5.7668 1.89919 5.77176 1.82236 5.8065 1.636C5.82635 1.51993 5.87102 1.33847 5.90245 1.23549C5.93388 1.1325 5.99012 0.980465 6.02983 0.900363C6.06788 0.82026 6.13239 0.705828 6.17209 0.646977C6.2118 0.588126 6.28293 0.501485 6.3276 0.452443C6.37391 0.405035 6.45332 0.333106 6.50295 0.295507C6.55258 0.256273 6.65018 0.195788 6.718 0.159823C6.78583 0.123859 6.89335 0.0780859 6.95787 0.0601037Z" fill="#00E4B2"/>
</svg>
