<svg width="20" height="20" viewBox="0 0 20 20" fill="none" xmlns="http://www.w3.org/2000/svg">
<path fill-rule="evenodd" clip-rule="evenodd" d="M7.36478 18.8874C8.33058 19.2113 8.92531 19.3266 10.0002 19.3266C15.3371 19.3266 19.6635 15.0002 19.6635 9.66331C19.6635 4.32641 15.3371 0 10.0002 0C4.66333 0 0.336914 4.32641 0.336914 9.66331C0.336914 12.454 1.08059 14.4879 2.97236 16.2519L2.97236 18.2407C2.97236 19.5469 4.34685 20.3963 5.51507 19.8122L7.36478 18.8874ZM4.17057 14.9669L4.72933 15.4879L4.72933 18.2407L7.23166 16.9896L7.92345 17.2216C8.72818 17.4915 9.13431 17.5697 10.0002 17.5697C14.3668 17.5697 17.9066 14.0299 17.9066 9.66331C17.9066 5.29676 14.3668 1.75697 10.0002 1.75697C5.63367 1.75697 2.09388 5.29676 2.09388 9.66331C2.09388 12.0643 2.7008 13.5965 4.17057 14.9669ZM6.69276 4.40166C5.87392 4.28193 4.84214 5.36094 4.74176 6.15485C4.74088 6.16177 4.73995 6.16872 4.73901 6.17575C4.72633 6.27064 4.71173 6.37996 4.80003 6.63966C6.48642 12.536 11.7366 14.5713 13.0348 14.8834C13.7781 15.0622 14.8021 14.1826 15.1561 13.5155C15.3571 13.1368 15.289 12.7785 14.9989 12.536C14.4181 12.028 13.79 11.5767 13.1232 11.1884C12.6767 10.946 12.223 11.0928 12.039 11.3384C11.9907 11.3994 11.9407 11.4716 11.8887 11.5467C11.6684 11.8646 11.4112 12.2358 11.0805 12.0447C10.0004 11.4204 7.80415 9.22415 7.61916 8.59463C7.52405 8.2709 7.93033 7.94837 8.24306 7.70012C8.27241 7.67681 8.30095 7.65416 8.32816 7.63223C8.56324 7.44092 8.72691 6.98755 8.47487 6.54008C8.42467 6.45305 8.369 6.35098 8.30815 6.23944C7.93781 5.56054 7.37589 4.53041 6.69145 4.40035L6.69276 4.40166Z" fill="white"/>
</svg>
