<svg width="67" height="28" viewBox="0 0 67 28" fill="none" xmlns="http://www.w3.org/2000/svg">
<path d="M65.852 7.57727C65.7229 7.2448 65.4875 6.7725 65.2882 6.50689C65.103 6.22792 64.687 5.84719 64.3626 5.64709C64.0523 5.43362 63.3841 5.26616 62.8905 5.25396C62.2872 5.23905 61.6377 5.42881 60.8591 5.84861C59.8858 6.37336 59.2276 6.91962 56.6133 9.46182L53.5208 12.4862C53.0667 11.981 52.7812 11.3154 52.6187 10.6665C52.4422 10.031 52.2117 8.24173 52.1256 6.71668C52.0395 5.19162 51.8056 3.53943 51.6117 3.05443C51.3663 2.43096 51.0607 2.02552 50.5765 1.62939C50.119 1.26136 49.6434 1.07124 49.1231 1.03094C48.6843 1.0201 48.0509 1.11421 47.7184 1.2432C47.3586 1.3715 46.7726 1.76863 46.4074 2.11633C46.0281 2.4774 44.7095 4.2147 43.4585 5.99484C42.2075 7.77497 40.7906 9.60587 40.313 10.0605L39.428 10.903C38.9793 10.1785 38.4731 8.9998 38.0218 7.82244C37.5704 6.64508 36.8837 4.99541 36.5199 4.16321C36.0906 3.20592 35.5897 2.37033 35.1216 1.87856C34.6802 1.41488 34.1004 1.00268 33.6649 0.854718C33.2028 0.678656 32.6262 0.691846 32.0182 0.868901C31.2583 1.08336 30.9513 1.29528 30.4429 1.8864C30.1037 2.28962 28.8507 4.15202 27.6666 6.00241C26.4824 7.8528 25.3003 9.62092 25.0729 9.94458C24.804 10.2809 24.5377 10.5076 24.4153 10.4634C24.3063 10.4333 24.1478 10.1824 24.0716 9.93356C23.996 9.65729 23.7133 8.31946 23.4586 6.95487C23.1772 5.56219 22.7607 4.08386 22.4845 3.59683C22.2217 3.12385 21.7422 2.53576 21.4459 2.30891C21.1356 2.09544 20.6621 1.82305 20.3765 1.71995C20.0909 1.61685 19.5438 1.54846 19.1458 1.55234C18.7478 1.55623 18.0702 1.77271 17.6247 2.0361C17.0958 2.34317 16.6418 2.76643 16.2627 3.30586C15.9503 3.73718 14.8779 5.508 13.9165 7.2267C12.9411 8.95876 12.0119 10.4862 11.8574 10.6333C11.7028 10.7804 11.5095 10.8305 11.4427 10.7602C11.3758 10.69 10.6897 9.57542 9.92464 8.32171C9.15961 7.06799 8.24609 5.71455 7.87157 5.32113C7.51043 4.94177 6.95799 4.53023 6.64497 4.42645C6.31858 4.30862 5.81293 4.22753 5.49723 4.23345C5.16747 4.25274 4.53876 4.15488 4.08863 4.04771C3.5569 3.91109 3.07596 3.94036 2.78365 4.1115C2.47729 4.29601 2.10802 4.80826 1.77484 5.52719C1.48514 6.15115 1.09636 7.45866 0.908288 8.41442C0.733596 9.38422 0.538746 11.1767 0.494448 12.4242C0.45015 13.6716 0.51614 15.4569 0.617026 16.3786C0.717912 17.3003 0.961231 18.5686 1.13841 19.1767C1.31625 19.7573 1.69607 20.4938 1.96291 20.8023C2.21638 21.0967 3.07713 21.804 3.87234 22.3861C4.66755 22.9683 5.6681 23.5693 6.10284 23.7447C6.53758 23.92 8.48861 24.3662 10.4142 24.7293C12.3399 25.0925 15.25 25.5897 16.8773 25.8083C18.5047 26.0269 21.2135 26.3408 22.9111 26.4925C24.5946 26.6576 29.3777 26.8718 33.5326 26.9608C37.701 27.0638 43.3108 27.1338 46.0277 27.1187C48.758 27.1175 52.1893 27.0651 53.6862 27.0061C55.1965 26.9611 57.4506 26.7973 58.7028 26.6498C59.9683 26.5165 61.787 26.2047 62.7662 25.9957C64.0906 25.6991 64.6592 25.4525 65.0806 25.0513C65.474 24.6769 65.7763 24.0944 66.0607 23.1273C66.3163 22.2143 66.4958 20.4901 66.567 18.1457C66.6147 16.1986 66.5389 13.1371 66.3765 11.3632C66.2142 9.58934 65.9951 7.89636 65.852 7.57727Z" fill="#00A44F"/>
</svg>
