<svg width="140" height="126" viewBox="0 0 140 126" fill="none" xmlns="http://www.w3.org/2000/svg">
<path d="M39.4818 3.45392C39.5174 2.91456 39.6053 2.28813 39.6752 2.07927C39.7451 1.8704 39.9456 1.54826 40.1111 1.38275C40.2767 1.21723 40.6249 1.00796 40.8773 0.929308C41.1732 0.841894 41.5559 0.858732 41.9297 0.97127C42.3818 1.12718 42.6512 1.30946 43.1984 1.85667C43.5806 2.23885 44.5011 3.31613 45.2391 4.2458C45.9772 5.17547 47.1928 6.61766 47.931 7.46035C48.6779 8.29432 50.797 10.5877 52.6643 12.5421C54.5229 14.5053 58.0579 18.197 60.5158 20.7595C62.9825 23.3133 65.1885 25.6413 65.423 25.928C65.6574 26.2147 66.4389 27.153 67.1597 28.0131C67.8804 28.8732 69.0873 30.3937 69.8513 31.4016C70.624 32.4008 71.8915 34.1387 72.6814 35.2597C73.4713 36.3806 74.7386 38.2403 75.5024 39.3874C76.2575 40.5432 77.5246 42.5246 78.3143 43.7848C79.0954 45.0536 80.371 47.1481 81.1259 48.4431C81.8895 49.7294 82.9741 51.5806 83.5207 52.5627C84.0673 53.5449 85.0476 55.344 85.6808 56.5696C86.3227 57.7865 87.3027 59.777 87.8664 60.9853C88.43 62.1936 89.2883 64.1495 89.7825 65.3231C90.2679 66.5054 90.9784 68.3832 91.3595 69.4787C91.7926 70.7306 92.1307 71.5217 92.2524 71.5737C92.3654 71.6345 92.5307 71.6081 92.6092 71.5297C92.7137 71.4426 92.7142 71.0598 92.6192 70.6164C92.5415 70.1902 92.2827 68.7467 92.0498 67.3987C91.8169 66.0508 91.4283 64.0594 91.1951 62.955C90.9531 61.8593 90.5295 60.0942 90.2614 59.0246C89.9845 57.9638 88.8502 54.4077 87.7416 51.1213C86.6417 47.8262 85.5506 44.4527 85.3517 43.6092C85.1442 42.7745 84.8331 41.3832 84.6777 40.5135C84.5224 39.6613 84.2984 38.1655 84.1868 37.1827C84.0838 36.2086 83.982 34.4169 83.9577 33.1904C83.9508 31.9639 83.997 30.1458 84.0854 29.1541C84.1651 28.171 84.4027 26.3005 84.6046 25.0041C84.8066 23.7077 85.0614 21.9764 85.1496 21.1586C85.2464 20.3495 85.379 18.914 85.4499 17.9745C85.5209 17.0523 85.6032 14.3121 85.6328 11.8852C85.663 9.07552 85.7613 7.27478 85.8836 6.90926C85.9885 6.57856 86.2239 6.16938 86.3981 5.99516C86.5811 5.81223 86.9119 5.58558 87.1295 5.50698C87.3471 5.41098 87.7126 5.34086 87.93 5.34924C88.1475 5.35762 88.5387 5.50492 88.8081 5.66981C89.1123 5.86943 89.4858 6.22553 89.8157 6.65997C90.1109 7.04228 91.6732 9.42341 93.2961 11.9523C94.9191 14.4812 96.8544 17.5142 97.5834 18.6962C98.321 19.8694 99.2669 21.4598 99.692 22.2334C100.126 22.9982 100.768 24.2325 101.123 24.9714C101.479 25.7102 102.068 26.9967 102.424 27.84C102.779 28.6832 103.351 30.1786 103.706 31.161C104.053 32.1521 104.572 33.8563 104.875 34.9431C105.169 36.0387 105.558 37.717 105.748 38.6735C105.938 39.6301 106.206 41.239 106.343 42.2478C106.481 43.2566 106.653 44.8395 106.73 45.7701C106.798 46.7095 106.865 48.5361 106.889 49.8495C106.896 51.163 106.858 53.1985 106.787 54.3816C106.715 55.5647 106.591 57.235 106.494 58.0963C106.397 58.9576 106.204 60.4541 106.063 61.4111C105.914 62.3595 105.581 64.2214 105.318 65.544C105.046 66.8579 104.652 68.6591 104.442 69.5466C104.223 70.4255 103.873 71.7656 103.664 72.514C103.454 73.2623 103.252 74.1238 103.226 74.4283C103.182 74.9416 103.199 74.9937 103.451 75.0021C103.695 75.0191 103.973 74.7751 105.855 72.8761C107.031 71.7001 108.591 70.0538 109.34 69.2176C110.08 68.3728 111.536 66.6919 112.564 65.4726C113.592 64.2533 114.873 62.7466 115.396 62.1195C115.927 61.5011 117.365 59.9246 118.611 58.6267C120.231 56.9194 121.677 55.5255 123.793 53.6175C125.954 51.6833 127.818 49.8712 134.952 42.6497L135.683 42.3529C136.119 42.1783 136.641 42.0732 136.971 42.1075C137.389 42.1417 137.667 42.2631 138.058 42.5843C138.344 42.8188 138.692 43.2184 138.831 43.4618C138.969 43.7051 139.16 44.279 139.246 44.7312C139.341 45.1746 139.462 46.1835 139.521 46.9576C139.573 47.723 139.571 49.0626 139.508 49.9064C139.455 50.7589 139.075 54.5782 138.678 58.3974C138.273 62.208 137.815 65.949 137.657 66.6973C137.508 67.4543 137.185 68.7509 136.949 69.5602C136.721 70.3782 136.188 71.936 135.787 73.0152C135.385 74.0944 134.739 75.7307 134.355 76.6359C133.971 77.5411 133.194 79.2036 132.636 80.3179C132.077 81.4321 131.083 83.2254 130.438 84.305C129.793 85.3846 128.938 86.7602 128.529 87.361C128.119 87.9618 127.003 89.5117 126.044 90.8005C125.086 92.0893 123.465 94.2315 122.436 95.5552C121.399 96.8702 119.508 99.2302 118.227 100.807C116.746 102.618 115.421 104.133 114.568 104.987C113.836 105.719 112.791 106.642 112.242 107.052C111.694 107.462 110.892 108.141 110.457 108.577C110.021 109.013 109.124 109.788 108.454 110.32C107.783 110.851 106.703 111.653 106.059 112.106C105.406 112.551 104.039 113.414 103.012 114.024C101.984 114.635 100.278 115.577 99.1986 116.135C98.1278 116.702 96.1344 117.688 94.7852 118.342C93.436 118.997 90.9117 120.131 89.1971 120.855C87.4824 121.58 85.1934 122.479 84.1229 122.837C83.0525 123.213 81.3033 123.729 80.233 124C79.1627 124.271 77.6573 124.613 76.9003 124.762C76.1433 124.911 74.6642 125.156 73.6115 125.306C72.5587 125.455 70.8013 125.649 69.6965 125.746C68.5916 125.844 66.7474 125.916 65.5905 125.909C64.4336 125.902 62.6941 125.8 61.72 125.68C60.7546 125.568 59.111 125.301 58.0675 125.094C57.0239 124.886 55.3978 124.532 54.4413 124.29C53.4849 124.048 51.8241 123.606 50.7546 123.286C49.6852 122.966 48.0158 122.412 47.0421 122.048C46.0684 121.684 44.5818 121.103 43.7473 120.739C42.9128 120.375 41.4698 119.716 40.5484 119.248C39.6183 118.788 38.0886 117.955 37.1499 117.4C36.1939 116.844 34.2994 115.612 32.9264 114.674C31.5534 113.72 29.494 112.287 28.3469 111.471C27.1999 110.655 25.3404 109.319 24.2195 108.476C23.0899 107.643 21.4564 106.393 20.5614 105.707C19.6752 105.012 18.5892 104.083 18.1463 103.64C17.6338 103.128 17.2865 102.693 17.1738 102.406C17.0785 102.172 17.053 101.763 17.0968 101.511C17.1843 101.162 17.3325 100.945 17.6809 100.631C18.038 100.309 18.3253 100.178 18.8038 100.099C19.1605 100.037 20.6306 100.027 22.0571 100.059C23.4923 100.101 26.0234 100.21 27.7021 100.303C29.3808 100.397 31.9206 100.515 33.3471 100.565C34.7823 100.606 43.5156 100.628 52.7622 100.606C62.0001 100.593 70.5594 100.632 71.7771 100.7C72.9861 100.777 74.8387 100.922 75.8911 101.016C76.9435 101.11 78.5785 101.282 79.5091 101.394C80.431 101.514 81.8747 101.721 82.6921 101.859C83.5096 101.997 84.3967 102.1 84.649 102.091C84.9186 102.082 85.2666 102.029 85.4233 101.976C85.5887 101.915 85.7366 101.854 85.7628 101.828C85.7889 101.802 85.7283 101.585 85.633 101.35C85.5376 101.115 85.3554 100.811 85.2251 100.681C85.0861 100.542 84.1041 99.9081 83.0264 99.266C81.9575 98.6151 80.4712 97.7909 79.7324 97.4354C79.0022 97.0711 77.7765 96.5249 77.0289 96.2302C76.2812 95.9356 74.5946 95.3465 73.2904 94.9309C71.9862 94.5152 68.7779 93.537 66.1607 92.7666C63.5523 91.9876 59.5615 90.7321 57.3009 89.9873C55.0491 89.2338 52.067 88.1856 50.6934 87.6483C49.3111 87.1197 47.1552 86.2356 45.886 85.6807C44.6081 85.1346 42.6609 84.2328 41.5396 83.6864C40.427 83.1313 38.3931 82.073 37.0285 81.3357C35.6639 80.5983 32.9001 79.0191 30.9011 77.8217C28.8935 76.6329 25.8692 74.7236 24.1746 73.604C22.4887 72.4756 20.0816 70.8177 18.8391 69.9061C17.5878 69.0033 14.0949 66.3292 11.0625 63.959C8.02147 61.5974 4.91096 59.1489 4.129 58.5238C3.34706 57.8812 2.24375 56.9173 1.67914 56.3701C0.801814 55.5276 0.6108 55.2843 0.472256 54.8496C0.376965 54.5801 0.360176 54.1626 0.412697 53.9363C0.465218 53.7101 0.631009 53.3532 0.761779 53.153C0.944842 52.883 1.17123 52.7261 1.5977 52.5602C1.93714 52.4293 2.60707 52.3326 3.1029 52.3232C3.5987 52.3312 4.76416 52.4339 5.6773 52.5804C6.59914 52.7182 13.1736 53.8395 20.2872 55.0817C27.4008 56.3239 34.0796 57.5146 35.1144 57.7132C36.1493 57.9117 37.8797 58.3006 38.958 58.56C40.0275 58.8281 41.7405 59.2693 42.7404 59.5549C43.749 59.8317 45.5053 60.3859 46.653 60.767C47.8006 61.148 49.4786 61.7458 50.374 62.0837C51.2695 62.4217 52.8777 63.0891 53.9383 63.5573C55.0075 64.0167 56.7548 64.8406 57.8326 65.3957C58.9191 65.9421 60.5444 66.8183 61.4483 67.3389C62.3609 67.8508 63.9514 68.814 64.9681 69.4649C65.9936 70.1071 67.5926 71.166 68.5311 71.8084C69.4609 72.4594 71.3031 73.7789 72.6239 74.7512C73.9446 75.7235 76.9077 77.8851 79.193 79.5606C81.487 81.2274 83.6594 82.7726 84.0244 82.9808C84.3807 83.1978 84.8327 83.4233 85.0414 83.4926C85.3457 83.5878 85.3979 83.5703 85.433 83.3615C85.4506 83.2223 85.4075 82.9701 85.3294 82.805C85.2514 82.6398 84.5221 81.7014 83.6885 80.711C82.3946 79.1558 81.17 77.8963 74.6902 71.4688C70.4775 67.2736 66.2649 63.0087 65.0751 61.7144C63.9114 60.4461 62.2439 58.587 61.393 57.5792C60.5333 56.5801 59.0832 54.8164 58.1802 53.6695C57.2772 52.5226 55.9576 50.7849 55.2631 49.8116C54.5686 48.8384 53.4489 47.2134 52.7893 46.2053C52.1296 45.1973 51.1577 43.6329 50.6197 42.7291C50.0904 41.8339 49.1968 40.226 48.6242 39.1656C48.0603 38.0965 47.193 36.358 46.6901 35.2801C46.1871 34.2022 45.4329 32.4549 44.9995 31.4117C44.5661 30.3685 43.7343 28.1081 43.154 26.3954C42.565 24.6913 41.8551 22.3959 41.5522 21.309C41.258 20.2134 40.895 18.6308 40.7484 17.7699C40.593 16.9177 40.3778 15.3783 40.2662 14.3434C40.1547 13.3084 39.9237 10.6557 39.7442 8.45521C39.5735 6.24603 39.4549 4.00197 39.4818 3.45392Z" fill="#FF3400"/>
</svg>
