<svg width="86" height="108" viewBox="0 0 86 108" fill="none" xmlns="http://www.w3.org/2000/svg">
<path d="M80.2104 0.770234C79.2449 0.432078 77.6954 0.130249 76.7504 0.122652C75.8358 0.0799812 74.4773 0.230829 73.7738 0.440499C73.0683 0.617113 71.8622 1.12348 71.0717 1.50448C70.2832 1.91854 68.595 3.05223 67.3224 4.06052C66.0477 5.03576 63.6688 7.10841 62.0722 8.66779C60.4736 10.1941 57.0697 13.5915 54.5615 16.203C52.0209 18.8167 48.0581 23.1779 45.7183 25.8785C43.3805 28.6123 40.4576 32.4111 39.2446 34.378C38.0296 36.3119 36.3612 39.3358 35.5252 41.0801C34.6892 42.8245 33.9119 44.4657 33.7661 44.7402C33.59 45.0498 33.357 42.8742 33.1247 39.1389C32.915 35.7672 32.504 31.7775 32.1803 30.238C31.889 28.6965 31.2522 26.3137 30.8394 24.9124C30.3962 23.5463 29.5164 21.444 28.8867 20.2222C28.2591 19.0335 27.252 17.5033 26.6573 16.8434C26.0281 16.1525 24.9262 15.1924 24.1816 14.7409C23.4349 14.2564 22.0636 13.678 21.1733 13.5011C19.8833 13.1831 19.2324 13.1904 18.2451 13.5505C17.5113 13.7952 16.5163 14.5539 15.9106 15.2885C15.3353 15.9879 14.6914 17.1562 14.4771 17.8996C14.184 18.9465 14.2433 21.9958 14.6727 30.995C15.1177 39.1969 15.4499 43.4901 15.8163 45.1929C16.1277 46.534 16.939 49.1051 17.636 50.8869C18.3331 52.6687 20 57.4761 21.3317 61.6077C22.6634 65.7392 24.2062 70.123 24.771 71.3489L25.8233 73.6063C25.1269 79.689 24.8141 81.4672 24.6518 81.4773C24.5221 81.4854 23.8621 80.2987 23.1531 78.8495C22.4746 77.3653 21.0082 74.7354 19.8894 72.9798C18.7706 71.2243 16.6714 68.3683 15.1957 66.635C13.7525 64.8996 11.3129 62.3303 9.7908 60.8985C7.94673 59.177 6.63867 58.2187 5.86658 58.0233C5.04111 57.8424 4.3598 57.8847 3.50028 58.2037C2.80091 58.4794 1.99645 59.16 1.42525 59.9255C0.949334 60.652 0.408988 61.9134 0.233281 62.7539C0.0271869 63.6295 0.0289834 65.7532 0.184778 67.7345C0.304017 69.6517 0.687805 72.6808 1.02798 74.4848C1.33571 76.2907 2.0115 79.3016 2.48761 81.1966C2.96373 83.0917 3.84401 85.7248 4.44739 87.0478C5.05078 88.3708 6.14741 90.2937 6.86001 91.278C7.6071 92.2934 8.97315 93.8345 9.93913 94.7035C10.8747 95.6077 13.0338 97.3317 14.7361 98.52C16.4081 99.7434 18.3071 100.953 18.8772 101.216C19.4797 101.477 20.3051 101.658 20.6944 101.634C21.1162 101.608 22.1811 101.973 23.1203 102.412C24.7311 103.175 24.8021 103.27 25.1382 105.008C25.3317 106.024 25.7544 107.06 26.0994 107.37C26.4444 107.681 27.1442 107.936 27.6957 107.901C28.3446 107.861 28.8797 107.562 29.3293 106.937C29.7223 106.448 29.9953 105.601 29.9604 105.039C29.9254 104.478 30.0892 103.97 30.2798 103.891C30.5028 103.811 35.0567 103.196 40.3934 102.599C45.7281 101.968 51.3769 101.152 52.9826 100.787C54.5559 100.424 57.1468 99.6653 58.7402 99.1016C60.2991 98.5069 62.7437 97.4921 64.1322 96.7752C65.5227 96.0914 67.5049 94.9726 68.5344 94.2449C69.566 93.5503 70.9236 92.3376 71.5252 91.537C72.1613 90.7674 72.801 89.533 72.9525 88.8267C73.1849 87.8499 73.1458 87.2219 72.7087 85.9549C72.3062 84.7189 71.7357 83.9248 70.3557 82.6833C69.3573 81.8162 67.7281 80.7561 66.7585 80.3519C65.8233 79.9787 63.9026 79.4676 62.5539 79.2529C60.8767 78.9921 59.3132 78.9898 57.6668 79.2249C56.3428 79.4068 53.0665 80.1416 50.4411 80.869C47.7853 81.6314 43.9841 82.8302 41.9772 83.5523C39.9703 84.2744 36.9519 85.4908 35.3039 86.2238C33.6559 86.9568 31.8519 87.799 31.2844 88.0998C30.7148 88.3675 30.1715 88.534 30.068 88.4409C29.9645 88.3478 30.0296 86.2532 30.2668 83.7828C30.4715 81.3145 30.9818 77.9976 31.3739 76.4468C31.8185 74.6935 32.4114 73.2298 32.8935 72.6025C33.4607 71.9478 34.1944 71.5261 35.0946 71.3373C35.8671 71.1897 40.1233 71.0246 44.6128 70.9445C49.0699 70.8664 53.6161 70.65 54.6785 70.4512C55.7429 70.2854 60.1507 69.414 64.4915 68.5136C68.8322 67.6131 73.4568 66.5622 74.7644 66.1159C76.074 65.7026 77.8497 64.9285 78.7293 64.4092C79.5765 63.8919 80.6627 63.028 81.1164 62.4689C81.5722 61.9428 82.129 60.9458 82.3495 60.3016C82.57 59.6574 82.7818 58.35 82.8561 57.4494C82.9201 56.3836 82.7302 54.9021 82.3071 53.3356C81.9309 51.9985 81.24 50.3159 80.773 49.6149C80.306 48.9139 79.0862 47.6292 78.0898 46.7952C76.7505 45.6839 75.6367 45.0563 74.079 44.6222C72.5213 44.1882 71.1787 44.0726 69.1672 44.1977C67.6424 44.2926 64.9681 44.7575 63.2064 45.2321C61.4446 45.7067 59.1416 46.3809 58.0894 46.7449C57.0353 47.076 56.0074 47.3058 55.841 47.2498C55.6423 47.1958 57.7538 45.5381 60.4978 43.5755C63.2398 41.5798 66.8753 38.7654 68.5733 37.266C70.2734 35.7998 73.43 32.617 75.5916 30.1928C77.7208 27.7707 80.3259 24.6222 81.3122 23.2003C82.2986 21.7784 83.5822 19.3757 84.2055 17.8768C84.7964 16.38 85.4311 14.0177 85.6388 12.6442C85.9232 10.9342 85.9322 9.50674 85.6857 8.16153C85.4881 7.07876 85.0387 5.61341 84.669 4.90636C84.3318 4.19729 83.5481 3.11777 82.9575 2.52401C82.3994 1.92823 81.1455 1.14346 80.2104 0.770234Z" fill="#00A44F"/>
</svg>
