<svg width="82" height="71" viewBox="0 0 82 71" fill="none" xmlns="http://www.w3.org/2000/svg">
<path d="M24.6562 1.81757C25.3321 1.18053 26.2332 0.511646 26.6837 0.320534C27.1343 0.161275 27.8101 0.002012 28.1963 0.002012C28.6147 -0.02984 29.3871 0.320529 29.902 0.766456C30.4813 1.24424 30.9962 2.10424 31.2215 2.90054C31.4467 3.76054 31.5111 5.83091 31.4146 8.41092C31.318 10.6724 30.8675 14.9724 30.4169 17.9665C29.9342 20.9288 29.0974 25.5154 28.5825 28.1591C28.0354 30.771 27.1021 34.6569 26.4906 36.7592C25.8792 38.8614 24.9137 41.5688 24.3022 42.811C23.723 44.0214 22.8218 45.5184 22.3069 46.0918C21.792 46.6651 20.7943 47.3659 20.0863 47.6525C19.0243 48.0666 18.5416 48.0666 17.1899 47.7481C16.321 47.557 14.9371 46.8881 14.1326 46.3147C13.328 45.7414 12.1051 44.5629 11.3649 43.7347C10.6247 42.8747 9.36956 41.1547 8.53281 39.9443C7.69607 38.7021 6.21568 36.1221 5.28238 34.211C4.34909 32.268 3.12616 29.3377 2.61124 27.6814C2.06413 26.0251 1.32394 23.0628 0.937747 21.1517C0.551558 19.2087 0.165368 16.151 0.0688203 14.3035C-0.0277272 12.4561 -0.0277272 10.4176 0.101003 9.74871C0.19755 9.11167 0.648105 8.12426 1.09866 7.61463C1.54921 7.07314 2.35378 6.56352 2.93306 6.46796C3.67326 6.34055 4.51 6.4998 5.60421 6.97758C6.66623 7.42351 8.08226 8.53833 9.78793 10.2583C11.6867 12.1694 12.7487 13.5709 13.7464 15.4821C14.4866 16.9473 15.1624 18.0939 15.2268 18.0302C15.2911 17.9984 15.8704 16.5969 16.5463 14.9406C17.1899 13.2843 18.2841 10.8317 18.9921 9.52574C19.7323 8.21981 21.0196 6.21314 21.8564 5.06647C22.7253 3.9198 23.9804 2.45461 24.6562 1.81757Z" fill="#FF3400"/>
<path d="M45.0278 5.38499C45.7358 4.01536 46.8943 2.42277 47.7311 1.62647C49.0184 0.447952 49.3724 0.288685 50.6597 0.288685C51.8504 0.288685 52.3332 0.479801 53.2665 1.30795C53.9101 1.88129 54.7469 3.0598 55.1652 3.95166C55.5836 4.81166 56.2273 6.69091 56.5813 8.0924C56.9353 9.49388 57.5146 12.2969 57.8686 14.3035C58.2226 16.3102 58.6088 18.9539 58.7697 20.1643C58.8984 21.3428 59.0915 22.3939 59.1881 22.4576C59.2846 22.5213 60.057 21.5339 60.9581 20.2917C61.827 19.0176 63.4361 16.9154 64.5303 15.5776C65.5924 14.2717 67.7808 11.9783 69.3577 10.4813C70.9669 8.98426 73.0587 7.35981 74.0242 6.85018C75.2149 6.21314 76.2448 5.89462 77.2746 5.89462C78.3045 5.86276 79.0447 6.05388 79.6883 6.53166C80.171 6.88203 80.8791 7.74203 81.2331 8.44277C81.6514 9.30277 81.8767 10.545 81.9733 12.5517C82.0698 14.5902 81.9089 16.3421 81.4262 18.6035C81.0722 20.3554 80.2354 23.2858 79.5918 25.1332C78.9481 26.9806 77.339 30.8984 76.0195 33.8925C74.7 36.8547 72.222 42.0147 70.4841 45.3592C68.7784 48.6718 66.2682 53.1948 64.9487 55.3607C63.6292 57.5266 61.473 60.7437 60.1213 62.5274C58.7697 64.2793 56.6778 66.6682 55.4549 67.783C54.232 68.9296 52.655 70.1082 51.947 70.4267C51.239 70.7133 49.8873 71 48.954 71C48.0529 71 46.8943 70.8089 46.3794 70.5541C45.8967 70.3311 45.0278 69.5667 44.4163 68.8978C43.8048 68.1971 42.9037 66.7637 42.3888 65.6489C41.9061 64.5659 41.198 62.623 40.844 61.3489C40.49 60.1067 40.0073 57.6859 39.7176 56.0296C39.4602 54.3733 39.074 50.4237 38.8809 47.2703C38.5913 42.9703 38.5913 39.8806 38.8809 34.848C39.1062 31.1532 39.4924 26.4391 39.7498 24.3369C40.0073 22.2347 40.6188 18.8584 41.0693 16.8517C41.5199 14.845 42.3244 11.9783 42.8394 10.4813C43.3865 8.98426 44.3519 6.69092 45.0278 5.38499Z" fill="#FF3400"/>
</svg>
