<svg width="32" height="4" viewBox="0 0 32 4" fill="none" xmlns="http://www.w3.org/2000/svg">
<path d="M16.4444 0.816411C11.5 1.181 7.40878 0.732796 2.59524 0.816411C1.74491 0.831056 0.754109 0.888721 0.301605 1.2931C-0.14417 1.6918 0.00386094 2.37832 0.120772 2.85922C0.225066 3.28722 0.720466 3.48473 1.48585 3.52772C2.3732 3.57779 3.55121 3.98376 4.44444 3.99274C12.2043 4.07304 20.5154 3.45875 28.1163 3.56315C29.1584 3.57732 30.2804 3.46438 31.0534 3.07182C31.6867 2.75011 31.9643 2.254 31.9971 1.77451C32.0248 1.36777 31.8608 0.922691 31.3015 0.663815C30.7539 0.410135 29.5988 0.000982846 28.8889 0.00334486C24.5 -0.0135969 22.5 0.00340146 16.4444 0.816411Z" fill="#FF3400"/>
</svg>
