<svg width="61" height="64" viewBox="0 0 61 64" xmlns="http://www.w3.org/2000/svg">
<path d="M3.77742 11.7494C3.51645 11.8071 3.19642 11.941 3.04809 12.058C2.89977 12.175 2.80502 12.4277 2.78446 12.6218C2.79754 12.819 3.13628 13.4709 3.53405 14.0466C3.91327 14.6369 7.75819 19.4012 12.0599 24.6649C16.3617 29.9286 20.0253 34.4802 20.2266 34.8254C20.6058 35.4157 20.5872 35.4304 19.6251 36.0115C19.0977 36.3387 15.4656 38.2259 11.5168 40.2148C5.84303 43.0902 3.99987 44.1294 2.57565 45.2234C1.0031 46.4345 0.751776 46.7217 0.67496 47.2864C0.618711 47.6569 0.69022 48.1045 0.844778 48.2494C0.995907 48.4267 1.50211 48.6203 1.96983 48.696C2.45267 48.7894 4.35445 48.8012 6.23284 48.7127C8.12633 48.6419 11.3817 48.3861 13.5128 48.1576C15.6439 47.929 18.2448 47.5966 19.3004 47.4161C20.3559 47.2355 21.2851 47.125 21.3456 47.1959C21.4212 47.2846 20.9078 49.0832 20.2255 51.1929C19.5583 53.3204 18.7738 56.0742 18.4719 57.3205C18.185 58.5845 18.0356 60.1553 18.1133 60.8648C18.2062 61.5921 18.4186 62.3141 18.5848 62.5091C18.7511 62.704 19.1007 62.9322 19.3816 63.0071C19.7937 63.1267 20.0615 63.0043 20.6837 62.4245C21.1019 62.0056 22.3687 60.4724 23.479 58.9738C24.6044 57.4929 26.6718 54.4978 28.0711 52.356L30.6115 48.4244C31.0574 49.3476 31.6661 50.498 32.248 51.5807C32.83 52.6633 34.4452 55.5399 35.8021 57.968C37.1775 60.3815 38.5062 62.5947 38.7631 62.896C39.0015 63.212 39.4672 63.4672 39.8037 63.4982C40.2412 63.5384 40.5427 63.4192 40.8531 63.0557C41.0893 62.7508 41.254 61.9982 41.2573 61.1654C41.2503 60.4297 41.2884 58.9467 41.3459 57.9229C41.4068 56.8667 41.4762 53.1651 41.5401 49.6753C41.5704 46.1824 41.6584 43.2665 41.7511 43.1934C41.8253 43.1349 42.769 43.3688 43.837 43.7121C44.9085 44.0231 47.3406 44.8023 49.2445 45.4349C51.1485 46.0675 53.4714 46.755 54.4336 46.9742C55.3773 47.2081 57.0312 47.4746 58.0745 47.5706C59.3011 47.6999 60.1376 47.6625 60.4157 47.4431C60.6382 47.2676 60.8779 46.9302 60.9506 46.7246C61.0488 46.4396 60.7218 45.8378 59.817 44.5947C59.1019 43.6468 56.2139 40.1141 53.3727 36.7816C50.5349 33.4168 48.2445 30.6577 48.3002 30.6139C48.3558 30.57 49.708 30.1553 51.3212 29.6831C52.931 29.2432 55.0867 28.4615 56.1244 27.969C57.1772 27.4941 58.5554 26.6735 59.2229 26.1469C60.165 25.4332 60.4418 25.0666 60.4863 24.646C60.5206 24.3225 60.3666 23.8509 60.1248 23.5673C59.8981 23.3014 59.2442 22.8982 58.6776 22.6337C58.1075 22.4016 56.3986 21.8522 54.8999 21.404C53.4013 20.9557 50.6189 20.2749 48.7397 19.8896L45.3145 19.1823C46.7868 14.107 47.3742 11.4494 47.5621 9.99658C47.7685 8.5291 47.8829 6.80812 47.7983 6.16327C47.7474 5.52152 47.5604 4.72022 47.4113 4.36347C47.1866 3.91808 46.9531 3.71691 46.5678 3.66511C46.2834 3.62261 45.7766 3.75566 45.4161 3.95116C45.0555 4.14667 43.7619 5.61208 42.3446 7.44184C41.005 9.18073 39.4361 11.1599 38.8339 11.8722C38.2502 12.5699 37.2704 13.6395 36.7004 14.2078L35.6196 15.2681C34.6076 13.7538 32.2287 10.7089 29.68 7.50138C27.1499 4.27923 24.7387 1.37838 24.3506 1.0323C23.9625 0.686215 23.4329 0.392444 23.1603 0.400022C22.9212 0.410694 22.5271 0.603125 22.3128 0.861104C22.021 1.20995 22.0143 2.07507 22.3211 4.47187C22.5618 6.20919 23.1717 10.2347 23.7025 13.4035C24.2148 16.587 24.7105 19.6056 24.824 20.1387L24.9787 21.0841C18.2096 17.6188 14.4751 15.8213 12.3026 14.8373C10.13 13.8532 7.41078 12.7372 6.27886 12.3553C5.14694 11.9735 4.00474 11.6887 3.77742 11.7494Z" />
</svg>
