<svg width="32" height="4" viewBox="0 0 32 4" fill="none" xmlns="http://www.w3.org/2000/svg">
<path d="M17.1325 0.0236049C11.5555 0.0236049 7.79276 0.123305 2.7118 0.438792C2.20627 0.470291 1.32367 0.719091 0.888469 0.877584C-0.231808 1.28507 -0.0191402 1.81703 0.0942113 2.6045C0.131444 2.86549 0.229075 3.17748 0.632011 3.27347C0.743707 3.29997 3.92229 3.50534 4.04309 3.51034C16 4.82671 18 3.07155 29.5788 3.07648C30.709 3.02398 30.992 2.95299 31.5952 2.37301C32.2778 1.71704 32.1065 0.839072 31.0102 0.437588C29.9131 0.0366041 29.5863 0.00160561 28.3038 0.000105672C24.8404 -0.00339419 20.5943 0.0816026 17.1325 0.0236049Z" fill="#FF3400"/>
</svg>
