<svg width="234" height="240" viewBox="0 0 234 240" fill="none" xmlns="http://www.w3.org/2000/svg">
<path d="M144.659 238.073C144.436 238.527 143.936 239.122 143.519 239.433C143.101 239.773 142.351 240 141.711 240C141.127 240 140.237 239.83 139.764 239.603C139.263 239.405 138.512 238.867 138.095 238.413C137.678 237.96 136.788 236.628 136.121 235.466C135.453 234.305 133.757 231.301 132.338 228.808C130.92 226.314 128.278 221.27 126.47 217.615C124.662 213.96 122.215 208.803 121.047 206.139C119.879 203.476 117.793 198.715 116.458 195.514C115.123 192.312 111.757 184.151 109.004 177.379L108.737 176.722C106.083 170.194 103.595 164.075 102.357 161.086L100.827 163.778C99.9652 165.251 96.3775 171.627 92.8176 177.946C89.2576 184.264 84.6409 192.368 82.5828 195.939C80.4969 199.509 77.1316 205.261 75.0736 208.689C73.0155 212.118 69.6224 217.672 67.5087 221.015C64.1713 226.286 63.5038 227.192 62.447 227.787C61.8073 228.156 60.7783 228.496 60.222 228.496C59.4989 228.524 58.9983 228.326 58.4699 227.816C58.0805 227.419 57.4964 226.427 57.2183 225.634C56.8846 224.756 56.523 222.63 56.3284 220.534C56.078 217.757 56.078 215.207 56.3284 209.681C56.523 205.714 56.6621 199.594 56.6621 196.08C56.6621 192.567 56.8011 186.843 56.9402 183.329C57.1071 179.816 57.413 174.262 57.6355 171.004C57.8858 167.745 58.2474 162.956 58.4699 160.378C58.6924 157.799 58.9427 155.277 59.1652 153.861L57.1627 154.031C56.0502 154.116 53.3803 154.427 51.2388 154.739C49.0972 155.051 45.2036 155.731 42.6171 156.269C40.0306 156.808 32.4379 158.649 25.7909 160.349C19.1438 162.05 12.0796 163.778 10.0772 164.203C7.46284 164.741 6.07225 164.911 5.07103 164.77C4.3201 164.685 3.17981 164.373 2.56795 164.09C1.95609 163.806 1.17737 163.268 0.843628 162.9C0.482071 162.531 0.120514 161.766 0.0370789 161.228C-0.074173 160.576 0.0648956 159.556 0.454254 158.253C0.843628 156.949 1.62234 155.362 2.76263 153.662C3.73605 152.217 5.76633 149.61 7.29597 147.882C8.82562 146.153 11.7737 143.178 13.8318 141.251C15.8898 139.353 18.3929 137.086 19.3941 136.236C20.3954 135.386 21.9529 134.139 22.8706 133.431C23.7884 132.723 26.9868 130.427 29.9627 128.359C32.9385 126.262 36.721 123.57 38.3897 122.352C40.0306 121.133 41.3655 120.085 41.3655 120C41.3655 119.915 39.1406 117.025 36.4429 113.568C33.7451 110.083 29.768 104.897 27.6265 102.007C25.5128 99.1169 22.3144 94.5266 20.5623 91.8064C18.7823 89.0862 16.3627 85.3176 15.1389 83.4475C13.943 81.5773 12.469 79.0272 11.8849 77.7804C11.3009 76.5337 10.6612 74.8052 10.4943 73.9551C10.2997 73.1051 10.1884 71.83 10.2719 71.1216C10.3275 70.4132 10.6334 69.4498 10.9393 68.9965C11.2731 68.5431 12.1353 67.8347 12.8862 67.438C14.0821 66.8147 14.6939 66.7296 17.7254 66.6163C20.0616 66.5596 22.2032 66.673 24.2612 67.013C25.9577 67.268 28.878 67.8631 30.797 68.3164C32.716 68.7981 35.8866 69.7332 37.8891 70.4132C39.8915 71.0933 43.0621 72.2834 44.9811 73.0484C46.9001 73.8418 51.0441 75.6269 54.2425 77.0437C57.413 78.4605 60.0551 79.6222 60.1386 79.6222C60.222 79.6222 60.2776 76.0803 60.2776 71.7733C60.2776 67.438 60.3889 54.5171 60.5558 43.0697C60.7226 31.6222 60.9729 18.2763 61.0842 13.4593C61.2789 5.46872 61.3345 4.562 61.8629 3.40024C62.1688 2.69186 62.7251 1.84181 63.0866 1.47345C63.5038 1.07675 64.2547 0.76506 65.0057 0.651718C65.701 0.566711 66.7022 0.623383 67.2306 0.793396C67.8981 0.991745 69.3721 2.26683 71.8196 4.73201C73.822 6.71548 76.631 9.83235 78.0494 11.6175C79.4957 13.4026 81.804 16.5195 83.2224 18.5596C84.6409 20.5998 86.838 23.8867 88.1174 25.9268C89.3689 27.9669 92.5672 33.2373 95.2094 37.686C97.8515 42.1346 100.688 46.8383 101.523 48.17C102.385 49.5018 104.193 52.2786 108.114 58.0874L112.647 52.647C115.151 49.6434 120.574 43.0413 124.662 37.9693C128.778 32.8973 134.674 25.7568 137.762 22.1015C140.849 18.4463 144.548 14.1677 145.966 12.6092C147.412 11.0508 149.665 8.35892 150.972 6.6588C152.307 4.95868 153.976 2.94688 154.727 2.23851C155.478 1.53012 156.507 0.736725 157.007 0.481705C157.48 0.2267 158.426 1.52588e-05 159.093 1.52588e-05C159.733 1.52588e-05 160.595 0.226685 161.012 0.51004C161.43 0.76506 161.986 1.30344 162.264 1.70012C162.625 2.23849 162.792 3.1169 162.848 5.24203C162.931 7.5372 162.792 9.01064 162.069 13.0342C161.569 15.7544 160.206 23.235 158.982 29.6104C157.786 35.9858 156.368 43.6364 155.839 46.6116C155.283 49.5868 154.171 55.1122 153.308 58.9374C152.474 62.7627 151.64 66.3329 151.501 66.8713C151.362 67.4097 151.278 67.8914 151.306 67.9197C151.334 67.9764 154.504 66.843 158.315 65.4262C162.153 64.0095 168.41 61.7993 172.221 60.4959C176.059 59.1924 181.927 57.3223 185.292 56.3022C188.657 55.2822 193.803 53.8654 196.695 53.157C199.615 52.4203 203.286 51.4569 204.899 50.9469C206.513 50.4652 208.765 49.8418 209.906 49.5301C211.352 49.1617 212.576 49.0201 213.938 49.1051C215.023 49.1901 216.275 49.4168 216.72 49.6435C217.248 49.9268 217.721 50.5219 218.055 51.2586C218.305 51.8819 218.527 52.8737 218.527 53.412C218.527 53.9504 218.333 54.9988 218.082 55.7355C217.832 56.5006 217.053 58.0024 216.358 59.0791C215.663 60.1559 213.855 62.3377 212.297 63.8961C210.74 65.4829 208.181 67.8347 206.568 69.1381C204.955 70.4699 201.896 72.8217 199.754 74.3802C197.613 75.9386 192.634 79.4522 188.685 82.1724C184.736 84.8926 180.898 87.5278 180.175 87.9811C179.452 88.4345 177.699 89.7096 176.281 90.8147C174.89 91.9197 173.778 92.8831 173.806 92.9965C173.861 93.1098 176.392 94.6966 179.452 96.51C182.511 98.3235 187.322 101.299 190.159 103.084C192.996 104.869 198.558 108.553 202.535 111.244C206.513 113.936 211.602 117.535 213.855 119.207C216.08 120.907 220.168 123.967 222.894 126.064C225.619 128.161 228.484 130.456 229.291 131.164C230.069 131.872 231.321 133.233 232.072 134.168C232.795 135.103 233.574 136.264 233.768 136.718C234.046 137.341 234.074 137.88 233.852 138.701C233.685 139.41 233.212 140.175 232.6 140.77C232.044 141.251 230.931 141.875 230.153 142.13C229.318 142.385 227.177 142.64 225.202 142.725C222.866 142.838 220.391 142.725 217.693 142.385C215.468 142.13 212.214 141.677 210.462 141.365C208.71 141.081 203.259 140.005 198.364 138.985C193.469 137.965 182.4 135.669 173.75 133.884C165.101 132.071 157.675 130.484 157.202 130.314C156.757 130.172 154.755 129.861 152.752 129.606C150.778 129.379 148.914 129.124 148.664 129.067C148.302 128.954 148.135 129.124 148.024 129.549C147.969 129.917 147.829 133.374 147.746 137.285C147.663 141.166 147.468 149.469 147.329 155.702C147.162 161.936 146.856 175.084 146.634 184.888C146.411 194.692 146.105 207.273 145.938 212.798C145.771 218.323 145.521 226.116 145.354 230.083C145.132 235.268 144.937 237.535 144.659 238.073Z" fill="#FF3400"/>
</svg>
