<svg width="299" height="145" viewBox="0 0 299 145" fill="none" xmlns="http://www.w3.org/2000/svg">
<path d="M188.422 143.256C188.563 142.977 188.563 142.417 188.422 142.068C188.21 141.439 187.787 140.879 187.434 140.32C176.354 125.498 163.369 112.494 148.126 101.657C145.727 99.9789 143.116 98.4407 140.575 96.9026C135.212 93.7564 129.919 90.6102 124.626 87.2543C128.931 88.7225 133.236 90.1208 137.47 91.6589C141.986 93.267 146.573 94.5255 151.161 95.714C156.736 97.1822 162.522 97.8115 168.168 98.7903C169.721 99.0699 171.203 99.5594 172.543 100.398C182.282 106.271 192.868 110.606 203.524 114.731C207.97 116.479 212.486 117.877 217.144 119.066C221.755 120.324 226.389 121.42 231.046 122.352C247.489 125.708 263.297 123.61 278.54 116.898C284.609 114.172 290.467 111.025 296.112 107.53C297.594 106.621 298.653 105.502 298.935 103.684C299.147 102.496 298.865 101.517 297.735 100.818C296.818 100.259 295.901 99.6293 294.913 99.2098C289.62 97.1822 284.609 94.5255 279.599 91.9386C272.895 88.4428 265.838 85.856 258.569 83.8284C254.687 82.7797 250.806 81.8708 246.925 81.1716C243.043 80.4725 239.162 80.1928 235.351 79.9132C231.329 79.7034 227.377 79.4937 223.354 79.7034C216.438 79.9831 209.734 81.5212 203.1 83.2691C197.737 84.7373 192.444 86.4852 187.222 88.2331C181.365 90.1208 175.366 91.0996 169.227 90.6801C167.462 90.6102 165.769 90.0509 163.934 90.6102C163.016 90.8199 161.746 90.2606 160.758 89.981C151.161 86.8348 141.634 83.5488 132.248 79.9132C127.59 78.0954 123.003 76.0678 118.416 74.1102C117.851 73.9005 117.287 73.5509 116.652 73.2712C116.934 72.5721 117.428 72.8517 117.781 72.9216C134.859 74.8793 151.866 74.0403 168.803 71.4534C176.284 70.2649 183.694 69.0064 191.103 67.8178C192.585 67.6081 193.926 67.2585 195.338 66.9089C196.82 66.5593 197.102 65.4407 197.314 64.1822C197.525 62.8538 196.961 62.0848 195.973 61.4555C193.926 60.1971 191.739 59.4979 189.551 58.7988C185.599 57.5403 181.647 56.3517 177.695 55.2331C173.108 53.9746 168.38 53.3454 163.652 52.6462C161.887 52.4365 160.123 52.2267 158.359 51.9471C146.009 49.7797 133.659 50.1992 121.45 53.1356C113.546 55.0233 105.925 57.8199 99.1501 62.4343C97.2447 63.8327 95.6216 63.7627 93.7162 62.714C88.1411 59.4979 82.4955 56.4915 76.9204 53.2055C71.9805 50.339 67.1111 47.2627 62.2418 44.2564C61.6066 43.9068 61.1126 43.4873 60.6186 43.0678C60.5481 42.9979 60.6186 42.6483 60.6186 42.4386C60.6186 42.4386 60.8304 42.3687 60.9009 42.3687C61.3243 42.4386 61.8183 42.5085 62.2418 42.5784C64.7117 43.2076 67.1111 43.9068 69.6517 44.536C73.1802 45.4449 76.8498 45.7945 80.5195 46.0043C92.3754 46.7733 104.231 46.214 116.016 45.3051C119.592 45.0254 123.144 44.7458 126.673 44.4661C127.59 44.3263 128.366 44.1865 128.86 43.2776C130.06 41.1801 129.848 40.411 127.731 39.3623C126.814 38.9428 125.896 38.5233 124.979 38.1737C118.91 36.0763 112.77 34.0487 106.701 31.8814C102.679 30.4831 98.515 29.2945 94.3513 28.036C88.7057 26.3581 82.9189 25.2394 77.2027 24.1208C71.2748 22.9322 65.2763 22.6526 59.2778 23.0021C55.7493 23.2119 52.2208 23.5615 48.6922 23.8411C45.6577 24.0509 42.6937 24.6102 39.8709 25.5191C38.0361 26.1483 36.6953 25.9386 35.0721 24.6102C28.0151 19.0869 21.2403 13.2839 14.6773 7.20127C13.407 5.9428 12.2073 4.61441 11.0076 3.35593C10.0902 2.3072 9.10221 1.67797 7.62023 1.39831C5.15026 1.04873 2.6803 0.489407 0.21033 0C-0.283663 0.769068 0.21033 1.18856 0.492612 1.60805C4.86798 6.71187 9.24335 11.8157 13.901 16.7098C18.7704 21.8136 23.7103 26.8475 29.0736 31.5318C29.7794 32.161 30.2733 32.7204 30.1322 33.7691C29.5676 37.964 30.2733 42.089 31.1908 46.214C34.8604 62.4343 42.482 76.6272 53.9144 88.8623C59.0661 94.3157 64.5706 99.4195 70.3574 104.244C72.5215 106.015 74.6622 107.763 76.7793 109.487C77.4144 109.977 77.979 110.466 78.6847 110.886C80.0255 111.725 82.1426 111.165 82.9189 109.697C83.1306 109.487 83.2012 109.068 83.2012 108.788C83.1306 108.019 83.06 107.25 82.9189 106.481C80.3078 94.036 76.2853 82.0805 70.2868 70.8242C67.958 66.4195 65.5586 62.0848 62.8063 57.9598C62.4535 57.5403 62.3123 56.981 62.1006 56.4916C61.8889 56.2818 61.2538 56.0021 61.6772 55.6526C62.03 55.3729 62.3829 55.7225 62.5946 56.142C65.2057 57.1208 67.464 58.7288 69.8634 60.1271C77.1321 64.3221 84.4715 68.3771 92.0225 72.0827C93.4339 72.8517 94.1396 73.7606 94.3513 75.2988C95.1276 80.9619 97.2447 86.1356 100.138 91.0297C106.066 101.307 113.899 109.837 123.85 116.549C134.224 123.54 145.233 129.483 156.877 134.167C165.275 137.593 173.743 140.879 182.212 144.235C182.917 144.515 183.694 144.725 184.47 144.864C186.093 145.284 187.504 144.725 188.422 143.256ZM185.952 95.5742C192.162 96.3433 198.513 96.6229 204.723 97.8115C205.523 97.9513 206.3 98.0445 207.052 98.0911C214.462 98.6505 221.872 99.2098 229.282 99.7691C233.234 99.9789 237.256 100.398 241.208 100.328C248.407 100.328 255.605 100.538 262.803 100.608C263.579 100.678 264.356 100.748 265.132 100.888C265.626 100.958 265.908 101.307 265.979 101.727C266.049 102.356 265.555 103.265 265.061 103.335C264.285 103.405 263.509 103.475 262.732 103.405C259.557 103.125 256.311 103.405 253.135 103.475C241.985 103.964 230.764 104.523 219.614 105.013C212.627 105.362 205.641 104.943 198.584 103.894C196.255 103.405 193.715 102.985 191.245 102.426C188.633 101.797 186.163 100.888 183.764 99.6992C183.058 99.3496 182.494 98.8602 181.859 98.3708C181.294 97.9513 181.435 97.1123 181.929 96.6928C183.058 95.6441 184.399 95.3644 185.952 95.5742ZM59.3484 41.7394C59.4189 41.7394 59.5601 41.8793 59.5601 42.0191C59.4895 42.0191 59.3484 42.1589 59.2778 42.089C59.1367 42.0191 58.9249 41.8793 58.7838 41.8093C58.9249 41.8093 59.1367 41.7394 59.3484 41.7394ZM82.0015 36.6356C80.4489 36.4958 78.8964 36.3559 77.3438 36.3559C72.3333 36.3559 67.464 35.9365 62.524 37.1949C58.8544 38.1737 55.1847 37.3348 52.009 35.2373C51.3739 34.8178 50.7388 34.3284 50.5271 33.4894C50.3154 32.8602 50.2448 32.3009 50.9505 31.8115C52.7148 30.4831 54.7613 30.1335 56.8784 30.3432C62.1006 30.8559 67.2993 31.392 72.4745 31.9513C74.6622 32.161 76.8498 32.3708 79.3904 32.6504C80.5195 32.8602 81.9309 33.1398 83.3423 33.4195C84.4009 33.6992 84.6832 34.4682 84.1186 35.447C83.6246 36.286 82.9895 36.7055 82.0015 36.6356ZM53.8439 57.1208C55.6081 62.714 58.2192 67.8877 61.0421 73.0615C63.018 76.6971 64.9234 80.4026 66.7583 84.178C67.6757 86.1356 68.3814 88.2331 69.2282 90.3305C69.3694 90.82 69.5105 91.3793 69.5105 91.8687C69.5811 92.2183 69.3694 92.5678 69.0165 92.5678C68.8048 92.6377 68.5931 92.5678 68.3814 92.4979C67.958 92.2882 67.7463 91.8687 67.6051 91.4492C67.1817 90.1907 66.7583 88.9322 66.1937 87.7437C61.3243 77.536 55.6787 67.678 48.1277 59.0784C44.7403 55.1632 42.5526 50.6187 40.7883 45.8644C40.3649 44.8157 40.2238 43.767 40.5061 42.6483C40.6472 42.089 40.7883 41.5996 41.0706 41.1102C41.2118 40.8305 41.5646 40.4809 41.7763 40.5509C42.9055 40.5509 43.964 39.8517 45.0226 40.2712C46.0106 40.6907 46.3634 41.7394 46.7868 42.5784C47.2103 43.3475 47.6337 44.1165 47.916 44.9555C49.0451 47.892 50.6682 50.4788 52.0796 53.2055C52.7147 54.464 53.4205 55.7924 53.8439 57.1208ZM109.453 67.6081C108.607 67.3983 107.76 67.3284 106.983 66.839C106.137 66.2797 106.066 65.3009 106.701 64.6017C107.407 63.8327 108.183 63.4132 109.242 63.2034C111.923 62.714 114.676 62.1547 117.428 62.0848C124.955 61.7585 132.459 61.0827 139.94 60.0572C143.892 59.4979 147.844 58.9386 151.866 59.0784C152.713 59.0784 153.631 59.2182 154.477 59.3581C154.76 59.3581 155.112 59.7077 154.971 60.0572C154.901 60.3369 154.689 60.6166 154.477 60.8263C153.983 61.2458 153.419 61.106 152.854 61.106C148.126 61.106 143.398 61.9449 138.74 62.714C132.812 63.6229 127.025 65.0911 121.309 66.839C117.428 68.0276 113.476 68.2373 109.453 67.6081ZM148.055 119.555C147.256 119.089 146.503 118.623 145.797 118.157C138.034 112.983 130.272 107.879 122.65 102.636C116.581 98.5106 111.218 93.6166 106.701 87.7437C104.372 84.6674 102.114 81.5212 100.985 77.8157C100.632 76.767 100.42 75.7183 100.279 74.5996C100.209 74.1102 100.632 73.8305 101.126 73.7606C102.255 73.5509 103.031 74.1102 103.596 75.0191C105.219 77.3962 106.772 79.7733 108.465 82.0805C114.111 89.9111 120.533 97.0424 128.225 102.915C134.153 107.39 140.222 111.585 146.221 115.989C147.115 116.595 148.008 117.225 148.902 117.877C149.185 118.087 149.326 118.367 149.255 118.716C149.326 119.206 148.408 119.765 148.055 119.555Z" fill="#00A44F"/>
</svg>
